<?xml version="1.0" encoding="UTF-8" standalone="no"?>
<!-- Created with Inkscape (http://www.inkscape.org/) -->

<svg
   xmlns:dc="http://purl.org/dc/elements/1.1/"
   xmlns:cc="http://creativecommons.org/ns#"
   xmlns:rdf="http://www.w3.org/1999/02/22-rdf-syntax-ns#"
   xmlns:svg="http://www.w3.org/2000/svg"
   xmlns="http://www.w3.org/2000/svg"
   xmlns:sodipodi="http://sodipodi.sourceforge.net/DTD/sodipodi-0.dtd"
   xmlns:inkscape="http://www.inkscape.org/namespaces/inkscape"
   id="svg2"
   version="1.1"
   inkscape:version="0.48.4 r9939"
   width="353.26962"
   height="84.896378"
   xml:space="preserve"
   sodipodi:docname="tarifs-lopinion-2013-09.pdf"><metadata
     id="metadata8"><rdf:RDF><cc:Work
         rdf:about=""><dc:format>image/svg+xml</dc:format><dc:type
           rdf:resource="http://purl.org/dc/dcmitype/StillImage" /><dc:title></dc:title></cc:Work></rdf:RDF></metadata><defs
     id="defs6"><clipPath
       clipPathUnits="userSpaceOnUse"
       id="clipPath16"><path
         d="m 73.701,259.916 0,-246.681 93.337,0 30.989,180.937 9.808,59.588 c 0.135,1.037 0.521,2.313 1.005,3.548 l 0,0 0.447,2.608 -135.586,0 z"
         id="path18"
         inkscape:connector-curvature="0" /></clipPath><clipPath
       clipPathUnits="userSpaceOnUse"
       id="clipPath28"><path
         d="m 61.492,544.557 0,-284.641 12.209,0 0,6.323 136.669,0 -1.083,-6.323 0.755,0 c 0.34,0.63 0.674,1.16 0.966,1.523 l 0,0 c 1.113,1.392 3.807,2.288 6.869,2.566 l 0,0 c 4.175,1.114 13.344,2.005 13.344,2.005 l 0,0 29.471,0.178 0,0.874 -12.788,0.078 0,-0.539 -174.203,0 0,259.884 174.203,0 0,-91.897 c 4.181,-0.569 8.462,-1.153 12.788,-1.742 l 0,0 0,111.711 -199.2,0 z"
         id="path30"
         inkscape:connector-curvature="0" /></clipPath><clipPath
       clipPathUnits="userSpaceOnUse"
       id="clipPath40"><path
         d="m 73.701,266.239 0,-6.323 135.586,0 1.083,6.323 -136.669,0 z"
         id="path42"
         inkscape:connector-curvature="0" /></clipPath><clipPath
       clipPathUnits="userSpaceOnUse"
       id="clipPath52"><path
         d="m 73.701,526.485 0,-259.884 174.203,0 0,0.539 -16.683,0.101 c 0,0 -9.169,0.891 -13.344,2.005 l 0,0 c -3.062,0.278 -5.756,1.173 -6.869,2.565 l 0,0 c -1.115,1.392 -2.852,5.215 -3.173,7.679 l 0,0 -25.892,157.301 c 0,0 -0.004,0.062 -0.005,0.174 l 0,0 0,0.056 c 0.006,1.073 0.418,5.521 6.782,5.522 l 0,0 c 0.724,0 1.525,-0.058 2.41,-0.185 l 0,0 c 3.662,-0.523 27.916,-3.837 56.774,-7.77 l 0,0 0,91.897 -174.203,0 z"
         id="path54"
         inkscape:connector-curvature="0" /></clipPath><clipPath
       clipPathUnits="userSpaceOnUse"
       id="clipPath64"><path
         d="m 85.039,643.905 295.403,0 0,78.929 -295.403,0 0,-78.929 z"
         id="path66"
         inkscape:connector-curvature="0" /></clipPath><clipPath
       clipPathUnits="userSpaceOnUse"
       id="clipPath440"><path
         d="m 413.122,412.396 c -3.012,0 -5.454,-2.442 -5.454,-5.454 l 0,0 0,-130.829 91.337,-0.197 c 0.005,0.687 0.053,1.11 0.053,1.11 l 0,0 0.118,89.641 c 0,0 -0.152,2.665 0.705,4.347 l 0,0 c 0.856,1.682 1.841,2.297 3.171,2.82 l 0,0 c 1.331,0.522 1.411,0.588 1.411,0.588 l 0,0 c 0,0 0.905,0.504 2.655,0.508 l 0,0 0.05,0 c 0.664,-0.002 1.447,-0.075 2.346,-0.274 l 0,0 c 3.315,-0.733 3.408,-0.822 3.408,-0.822 l 0,0 6.728,-1.575 0,34.683 c 0,1.083 -0.315,2.091 -0.859,2.94 l 0,0 c 0,0 0,0 0,0 l 0,0 c -0.012,0.018 -0.024,0.036 -0.035,0.054 l 0,0 c -10e-4,0.001 -10e-4,0.001 -10e-4,0.002 l 0,0 c -0.012,0.017 -0.024,0.035 -0.035,0.052 l 0,0 c -10e-4,10e-4 -10e-4,0.002 -0.002,0.003 l 0,0 c -0.012,0.017 -0.024,0.035 -0.036,0.052 l 0,0 c 0,10e-4 0,10e-4 -10e-4,10e-4 l 0,0 c -0.012,0.018 -0.024,0.035 -0.036,0.052 l 0,0 c -10e-4,10e-4 -10e-4,0.002 -0.002,0.003 l 0,0 c -0.012,0.017 -0.024,0.033 -0.036,0.05 l 0,0 c -10e-4,10e-4 -0.002,0.002 -0.002,0.003 l 0,0 c -0.012,0.016 -0.024,0.032 -0.036,0.049 l 0,0 c -10e-4,0.001 -0.003,0.003 -0.004,0.004 l 0,0 c -0.012,0.016 -0.024,0.032 -0.036,0.048 l 0,0 c -10e-4,10e-4 -0.002,0.003 -0.004,0.005 l 0,0 c -0.011,0.015 -0.023,0.031 -0.035,0.046 l 0,0 c -0.002,0.002 -0.003,0.004 -0.005,0.006 l 0,0 c -0.012,0.015 -0.024,0.03 -0.036,0.045 l 0,0 c -10e-4,0.002 -0.003,0.004 -0.005,0.007 l 0,0 c -0.012,0.014 -0.023,0.028 -0.035,0.043 l 0,0 c -0.002,0.002 -0.005,0.005 -0.007,0.008 l 0,0 c -0.012,0.014 -0.024,0.028 -0.035,0.042 l 0,0 c -0.002,0.003 -0.005,0.005 -0.007,0.008 l 0,0 c -0.011,0.013 -0.023,0.027 -0.035,0.041 l 0,0 c -0.003,0.003 -0.005,0.006 -0.008,0.009 l 0,0 c -0.011,0.013 -0.023,0.027 -0.035,0.04 l 0,0 c -0.003,0.003 -0.005,0.006 -0.008,0.009 l 0,0 c -0.012,0.013 -0.023,0.026 -0.035,0.039 l 0,0 c -0.003,0.004 -0.006,0.007 -0.009,0.01 l 0,0 c -0.012,0.013 -0.024,0.026 -0.036,0.039 l 0,0 c -0.002,0.003 -0.005,0.006 -0.008,0.009 l 0,0 c -0.012,0.013 -0.024,0.025 -0.036,0.038 l 0,0 c -0.003,0.003 -0.006,0.006 -0.009,0.01 l 0,0 c -0.012,0.012 -0.024,0.024 -0.036,0.037 l 0,0 c -0.003,0.003 -0.006,0.007 -0.01,0.01 l 0,0 c -0.011,0.012 -0.023,0.024 -0.035,0.035 l 0,0 c -0.004,0.004 -0.007,0.008 -0.011,0.012 l 0,0 c -0.012,0.011 -0.024,0.023 -0.035,0.034 l 0,0 c -0.004,0.004 -0.008,0.008 -0.012,0.012 l 0,0 c -0.011,0.011 -0.023,0.022 -0.035,0.033 l 0,0 c -0.004,0.004 -0.008,0.008 -0.012,0.012 l 0,0 c -0.012,0.011 -0.023,0.022 -0.035,0.033 l 0,0 c -0.004,0.004 -0.008,0.008 -0.013,0.012 l 0,0 c -0.011,0.011 -0.022,0.021 -0.034,0.031 l 0,0 c -0.005,0.005 -0.009,0.009 -0.014,0.014 l 0,0 c -0.011,0.01 -0.023,0.02 -0.034,0.03 l 0,0 c -0.005,0.004 -0.01,0.009 -0.015,0.014 l 0,0 c -0.011,0.009 -0.022,0.019 -0.033,0.028 l 0,0 c -0.006,0.005 -0.011,0.01 -0.017,0.015 l 0,0 c -0.011,0.009 -0.022,0.019 -0.033,0.028 l 0,0 c -0.005,0.005 -0.011,0.009 -0.016,0.014 l 0,0 c -0.011,0.009 -0.022,0.019 -0.034,0.028 l 0,0 c -0.005,0.005 -0.011,0.009 -0.017,0.014 l 0,0 c -0.011,0.009 -0.022,0.018 -0.034,0.028 l 0,0 c -0.005,0.004 -0.011,0.009 -0.016,0.013 l 0,0 c -0.011,0.009 -0.022,0.018 -0.033,0.027 l 0,0 c -0.007,0.004 -0.013,0.009 -0.019,0.014 l 0,0 c -0.011,0.009 -0.022,0.018 -0.034,0.026 l 0,0 c -0.006,0.005 -0.011,0.01 -0.017,0.014 l 0,0 c -0.011,0.008 -0.022,0.017 -0.033,0.025 l 0,0 c -0.007,0.005 -0.014,0.01 -0.02,0.015 l 0,0 c -0.011,0.008 -0.022,0.016 -0.032,0.024 l 0,0 c -0.007,0.005 -0.014,0.01 -0.021,0.015 l 0,0 c -0.011,0.008 -0.021,0.015 -0.032,0.023 l 0,0 c -0.007,0.005 -0.014,0.01 -0.021,0.015 l 0,0 c -0.011,0.008 -0.022,0.015 -0.032,0.023 l 0,0 c -0.008,0.005 -0.015,0.01 -0.022,0.015 l 0,0 c -0.01,0.007 -0.021,0.014 -0.032,0.021 l 0,0 c -0.007,0.005 -0.015,0.011 -0.022,0.016 l 0,0 c -0.011,0.007 -0.022,0.014 -0.033,0.022 l 0,0 c -0.007,0.004 -0.014,0.009 -0.021,0.014 l 0,0 c -0.011,0.007 -0.022,0.014 -0.033,0.021 l 0,0 c -0.007,0.005 -0.015,0.01 -0.023,0.015 l 0,0 c -0.01,0.007 -0.021,0.013 -0.032,0.02 l 0,0 c -0.008,0.005 -0.016,0.01 -0.023,0.015 l 0,0 c -0.011,0.006 -0.021,0.013 -0.032,0.019 l 0,0 c -0.008,0.005 -0.016,0.01 -0.024,0.015 l 0,0 c -0.011,0.007 -0.022,0.013 -0.033,0.02 l 0,0 c -0.008,0.004 -0.016,0.009 -0.024,0.014 l 0,0 c -0.01,0.006 -0.021,0.012 -0.032,0.019 l 0,0 c -0.008,0.004 -0.016,0.009 -0.025,0.014 l 0,0 c -0.01,0.006 -0.021,0.012 -0.032,0.018 l 0,0 c -0.008,0.005 -0.016,0.01 -0.025,0.014 l 0,0 c -0.01,0.006 -0.021,0.012 -0.031,0.018 l 0,0 c -0.009,0.004 -0.018,0.009 -0.027,0.014 l 0,0 c -0.01,0.006 -0.021,0.012 -0.032,0.017 l 0,0 c -0.008,0.005 -0.017,0.009 -0.026,0.014 l 0,0 c -0.01,0.006 -0.021,0.011 -0.031,0.017 l 0,0 c -0.009,0.004 -0.018,0.009 -0.027,0.013 l 0,0 c -0.011,0.006 -0.021,0.011 -0.032,0.016 l 0,0 c -0.009,0.005 -0.018,0.01 -0.027,0.014 l 0,0 c -0.01,0.005 -0.02,0.01 -0.03,0.015 l 0,0 c -0.01,0.005 -0.02,0.009 -0.03,0.014 l 0,0 c -0.01,0.005 -0.02,0.01 -0.03,0.015 l 0,0 c -0.01,0.004 -0.02,0.009 -0.029,0.013 l 0,0 c -0.011,0.005 -0.021,0.01 -0.032,0.015 l 0,0 c -0.009,0.004 -0.019,0.008 -0.028,0.013 l 0,0 c -0.011,0.005 -0.022,0.009 -0.032,0.014 l 0,0 c -0.01,0.004 -0.019,0.009 -0.029,0.013 l 0,0 c -0.01,0.004 -0.02,0.008 -0.03,0.013 l 0,0 c -0.011,0.004 -0.021,0.009 -0.031,0.013 l 0,0 c -0.01,0.004 -0.02,0.008 -0.03,0.013 l 0,0 c -0.011,0.004 -0.021,0.008 -0.031,0.012 l 0,0 c -0.01,0.004 -0.02,0.008 -0.03,0.012 l 0,0 c -0.011,0.004 -0.021,0.009 -0.032,0.013 l 0,0 c -0.01,0.004 -0.02,0.008 -0.03,0.012 l 0,0 c -0.011,0.004 -0.021,0.008 -0.032,0.012 l 0,0 c -0.01,0.004 -0.019,0.007 -0.029,0.011 l 0,0 c -0.011,0.004 -0.022,0.008 -0.033,0.012 l 0,0 c -0.01,0.004 -0.02,0.007 -0.029,0.011 l 0,0 c -0.012,0.004 -0.023,0.008 -0.034,0.012 l 0,0 c -0.01,0.003 -0.02,0.006 -0.029,0.01 l 0,0 c -0.011,0.003 -0.023,0.007 -0.034,0.011 l 0,0 c -0.01,0.004 -0.02,0.007 -0.031,0.01 l 0,0 c -0.011,0.004 -0.021,0.008 -0.032,0.011 l 0,0 c -0.011,0.003 -0.021,0.007 -0.031,0.01 l 0,0 c -0.011,0.003 -0.022,0.007 -0.033,0.01 l 0,0 c -0.01,0.003 -0.02,0.007 -0.031,0.01 l 0,0 c -0.011,0.003 -0.022,0.007 -0.033,0.01 l 0,0 c -0.01,0.003 -0.019,0.005 -0.029,0.008 l 0,0 c -0.012,0.004 -0.024,0.007 -0.036,0.01 l 0,0 c -0.009,0.003 -0.019,0.006 -0.029,0.009 l 0,0 c -0.012,0.003 -0.023,0.006 -0.035,0.009 l 0,0 c -0.01,0.003 -0.019,0.005 -0.029,0.008 l 0,0 c -0.012,0.003 -0.024,0.006 -0.036,0.009 l 0,0 c -0.01,0.003 -0.02,0.006 -0.03,0.008 l 0,0 c -0.012,0.003 -0.024,0.006 -0.036,0.009 l 0,0 c -0.009,0.002 -0.019,0.005 -0.029,0.007 l 0,0 c -0.012,0.003 -0.024,0.006 -0.036,0.008 l 0,0 c -0.01,0.003 -0.021,0.005 -0.031,0.007 l 0,0 c -0.012,0.003 -0.023,0.006 -0.035,0.008 l 0,0 c -0.011,0.002 -0.021,0.005 -0.032,0.007 l 0,0 c -0.011,0.002 -0.022,0.005 -0.034,0.007 l 0,0 c -0.011,0.002 -0.023,0.005 -0.034,0.007 l 0,0 c -0.011,0.002 -0.022,0.004 -0.032,0.006 l 0,0 c -0.012,0.002 -0.023,0.004 -0.035,0.006 l 0,0 c -0.011,0.002 -0.021,0.005 -0.032,0.006 l 0,0 c -0.012,0.003 -0.024,0.005 -0.036,0.007 l 0,0 c -0.01,0.001 -0.021,0.003 -0.031,0.005 l 0,0 c -0.013,0.002 -0.025,0.004 -0.038,0.006 l 0,0 c -0.01,10e-4 -0.02,0.003 -0.03,0.005 l 0,0 c -0.011,10e-4 -0.023,0.003 -0.035,0.005 l 0,0 c -0.011,10e-4 -0.022,0.003 -0.033,0.005 l 0,0 c -0.01,0.001 -0.021,0.002 -0.032,0.004 l 0,0 c -0.012,0.002 -0.024,0.003 -0.035,0.005 l 0,0 c -0.012,10e-4 -0.025,0.003 -0.037,0.004 l 0,0 c -0.01,10e-4 -0.021,0.003 -0.031,0.004 l 0,0 c -0.013,0.001 -0.025,0.002 -0.037,0.004 l 0,0 c -0.011,10e-4 -0.022,0.002 -0.032,0.003 l 0,0 c -0.011,0.001 -0.023,0.002 -0.035,0.003 l 0,0 c -0.011,0.002 -0.022,0.003 -0.034,0.004 l 0,0 c -0.011,10e-4 -0.022,0.002 -0.034,0.003 l 0,0 c -0.011,0 -0.023,0.001 -0.035,0.002 l 0,0 c -0.012,10e-4 -0.025,0.002 -0.038,0.003 l 0,0 c -0.01,0.001 -0.021,0.002 -0.031,0.002 l 0,0 c -0.014,0.001 -0.029,0.002 -0.043,0.003 l 0,0 c -0.009,0 -0.017,0.001 -0.026,0.001 l 0,0 c -0.014,10e-4 -0.028,10e-4 -0.042,0.002 l 0,0 c -0.009,0 -0.018,10e-4 -0.028,10e-4 l 0,0 c -0.016,10e-4 -0.032,10e-4 -0.048,0.002 l 0,0 c -0.007,0 -0.014,0 -0.022,0 l 0,0 c -0.022,10e-4 -0.045,10e-4 -0.068,0.002 l 0,0 c 0,0 -10e-4,0 -0.002,0 l 0,0 c -0.023,0 -0.046,0 -0.07,0 l 0,0 -101.075,0 z m 88.432,-144.598 c -4.809,0 -53.273,-0.507 -90.654,-0.907 l 0,0 c 0.538,-0.24 1.121,-0.395 1.733,-0.45 l 0,0 c 0,0 0,0 0,0 l 0,0 c 0.022,-0.002 0.045,-0.003 0.067,-0.005 l 0,0 c 0.001,0 0.002,0 0.004,0 l 0,0 c 0.021,-0.002 0.043,-0.004 0.065,-0.005 l 0,0 c 0.002,0 0.003,0 0.005,0 l 0,0 c 0.021,-0.002 0.043,-0.003 0.064,-0.004 l 0,0 c 0.002,0 0.004,0 0.006,0 l 0,0 c 0.022,-0.001 0.043,-0.002 0.064,-0.003 l 0,0 c 0.002,0 0.005,0 0.007,0 l 0,0 c 0.021,-10e-4 0.043,-0.002 0.064,-0.002 l 0,0 c 0.002,0 0.004,0 0.006,0 l 0,0 c 0.021,-0.001 0.043,-0.001 0.065,-0.002 l 0,0 c 10e-4,0 0.003,0 0.004,0 l 0,0 c 0.022,0 0.045,0 0.068,0 l 0,0 1.602,0 84.28,0 15.193,0 c 0.023,0 0.045,0 0.068,0 l 0,0 c 10e-4,0 0.002,0 0.003,0 l 0,0 c 0.178,0.003 0.353,0.013 0.526,0.032 l 0,0 -6.807,0 c 0,0 -0.271,-0.025 -0.715,-0.025 l 0,0 c -1.137,0 -3.414,0.168 -5.203,1.372 l 0,0 c -0.171,0 -0.341,-10e-4 -0.515,-10e-4"
         id="path442"
         inkscape:connector-curvature="0" /></clipPath><clipPath
       clipPathUnits="userSpaceOnUse"
       id="clipPath450"><path
         d="m 507.118,374.93 c -0.492,-0.001 -0.916,-0.042 -1.273,-0.1 l 0,0 c -0.001,0 -0.002,0 -0.003,0 l 0,0 c -0.008,-10e-4 -0.016,-0.003 -0.025,-0.004 l 0,0 c -0.002,0 -0.003,-0.001 -0.005,-0.001 l 0,0 c -0.006,-10e-4 -0.012,-0.002 -0.018,-0.003 l 0,0 c -0.005,-10e-4 -0.01,-0.002 -0.015,-0.003 l 0,0 c -0.003,0 -0.007,-0.001 -0.01,-0.001 l 0,0 c -0.006,-10e-4 -0.013,-0.003 -0.019,-0.004 l 0,0 c -0.002,0 -0.004,0 -0.007,-0.001 l 0,0 c -0.833,-0.148 -1.267,-0.384 -1.28,-0.391 l 0,0 c 0,0 0,0 0,0 l 0,0 c 0,0 -0.08,-0.066 -1.411,-0.588 l 0,0 c -1.33,-0.523 -2.315,-1.138 -3.171,-2.82 l 0,0 c -0.633,-1.242 -0.716,-3.019 -0.715,-3.865 l 0,0 c 0,-0.299 0.01,-0.482 0.01,-0.482 l 0,0 -0.118,-89.641 c 0,0 0,0 0,0 l 0,0 c 0,0 0,0 0,-0.001 l 0,0 c -0.002,-0.021 -0.048,-0.44 -0.053,-1.109 l 0,0 20.645,-0.044 0,-3.898 c 0,0 -1.635,-4.088 -17.581,-4.175 l 0,0 c 1.789,-1.204 4.066,-1.372 5.203,-1.372 l 0,0 c 0.444,0 0.715,0.025 0.715,0.025 l 0,0 6.811,0 16.098,0 c 0,0 0.44,-0.031 1.108,-0.032 l 0,0 0.061,0 10e-4,0 c 0.985,0.002 2.434,0.073 3.709,0.406 l 0,0 c 10e-4,0 10e-4,0 0.002,0 l 0,0 c 0.029,0.008 0.059,0.016 0.088,0.024 l 0,0 c 0.006,10e-4 0.012,0.003 0.017,0.004 l 0,0 c 0.01,0.003 0.02,0.006 0.029,0.008 l 0,0 c 0.005,0.002 0.009,0.003 0.014,0.004 l 0,0 c 0.01,0.003 0.02,0.006 0.031,0.009 l 0,0 c 0.006,10e-4 0.012,0.003 0.018,0.005 l 0,0 c 0.009,0.002 0.018,0.005 0.027,0.008 l 0,0 c 0.007,0.002 0.014,0.004 0.021,0.006 l 0,0 c 0.007,0.002 0.015,0.004 0.022,0.007 l 0,0 c 0.008,0.002 0.017,0.004 0.025,0.007 l 0,0 c 0.006,0.002 0.013,0.004 0.02,0.006 l 0,0 c 0.008,0.002 0.016,0.005 0.025,0.008 l 0,0 c 0.006,10e-4 0.013,0.004 0.019,0.005 l 0,0 c 0.008,0.003 0.017,0.006 0.025,0.008 l 0,0 c 0.006,0.002 0.013,0.004 0.019,0.006 l 0,0 c 0.009,0.003 0.018,0.006 0.027,0.009 l 0,0 c 0.005,0.002 0.011,0.003 0.016,0.005 l 0,0 c 0.009,0.003 0.018,0.006 0.027,0.009 l 0,0 c 0.006,0.002 0.011,0.004 0.017,0.006 l 0,0 c 0.009,0.003 0.018,0.006 0.027,0.009 l 0,0 c 0.005,0.001 0.011,0.003 0.016,0.005 l 0,0 c 0.009,0.003 0.018,0.006 0.026,0.009 l 0,0 c 0.006,0.002 0.012,0.004 0.018,0.006 l 0,0 c 0.009,0.003 0.018,0.006 0.027,0.01 l 0,0 c 0.005,10e-4 0.01,0.003 0.014,0.005 l 0,0 c 0.01,0.003 0.019,0.006 0.028,0.01 l 0,0 c 0.006,10e-4 0.011,0.003 0.016,0.005 l 0,0 c 0.009,0.003 0.018,0.007 0.027,0.01 l 0,0 c 0.005,0.002 0.01,0.004 0.015,0.005 l 0,0 c 0.009,0.004 0.018,0.007 0.028,0.011 l 0,0 c 0.004,0.002 0.009,0.003 0.014,0.005 l 0,0 c 0.009,0.004 0.019,0.007 0.028,0.011 l 0,0 c 0.005,0.002 0.009,0.003 0.013,0.005 l 0,0 c 0.01,0.004 0.019,0.007 0.029,0.011 l 0,0 c 0.004,0.002 0.009,0.004 0.013,0.005 l 0,0 c 0.01,0.004 0.019,0.008 0.028,0.012 l 0,0 c 0.005,0.001 0.009,0.003 0.013,0.005 l 0,0 c 0.01,0.004 0.019,0.007 0.029,0.011 l 0,0 c 0.004,0.002 0.008,0.004 0.012,0.006 l 0,0 c 0.01,0.003 0.019,0.007 0.028,0.011 l 0,0 c 0.005,0.002 0.009,0.004 0.013,0.006 l 0,0 c 0.009,0.004 0.018,0.007 0.028,0.011 l 0,0 c 0.004,0.002 0.009,0.004 0.013,0.006 l 0,0 c 0.009,0.004 0.018,0.008 0.027,0.012 l 0,0 c 0.004,0.002 0.009,0.004 0.014,0.006 l 0,0 c 0.008,0.004 0.017,0.007 0.025,0.011 l 0,0 c 0.005,0.002 0.01,0.005 0.015,0.007 l 0,0 c 0.009,0.004 0.017,0.008 0.025,0.012 l 0,0 c 0.005,0.002 0.009,0.004 0.014,0.006 l 0,0 c 0.009,0.004 0.017,0.008 0.026,0.012 l 0,0 c 0.004,0.002 0.009,0.004 0.013,0.006 l 0,0 c 0.009,0.004 0.017,0.008 0.026,0.012 l 0,0 c 0.004,0.003 0.009,0.005 0.014,0.007 l 0,0 c 0.008,0.004 0.016,0.008 0.024,0.012 l 0,0 c 0.005,0.003 0.01,0.005 0.015,0.007 l 0,0 c 0.008,0.004 0.016,0.008 0.024,0.012 l 0,0 c 0.004,0.003 0.009,0.005 0.013,0.007 l 0,0 c 0.009,0.004 0.017,0.009 0.025,0.013 l 0,0 c 0.005,0.002 0.009,0.004 0.013,0.007 l 0,0 c 0.008,0.004 0.017,0.008 0.025,0.013 l 0,0 c 0.004,0.002 0.008,0.004 0.013,0.006 l 0,0 c 0.008,0.005 0.016,0.009 0.024,0.014 l 0,0 c 0.005,0.002 0.009,0.004 0.013,0.007 l 0,0 c 0.008,0.004 0.016,0.008 0.024,0.013 l 0,0 c 0.005,0.002 0.009,0.005 0.013,0.007 l 0,0 c 0.008,0.004 0.016,0.009 0.024,0.013 l 0,0 c 0.004,0.003 0.009,0.005 0.013,0.008 l 0,0 c 0.008,0.004 0.016,0.009 0.023,0.013 l 0,0 c 0.005,0.003 0.009,0.006 0.014,0.008 l 0,0 c 0.007,0.004 0.015,0.009 0.022,0.013 l 0,0 c 0.005,0.003 0.01,0.006 0.015,0.009 l 0,0 c 0.007,0.004 0.014,0.008 0.02,0.012 l 0,0 c 0.005,0.003 0.01,0.006 0.015,0.009 l 0,0 c 0.007,0.005 0.014,0.009 0.02,0.013 l 0,0 c 0.006,0.003 0.011,0.007 0.016,0.01 l 0,0 c 0.006,0.004 0.013,0.008 0.019,0.012 l 0,0 c 0.005,0.003 0.011,0.007 0.016,0.01 l 0,0 c 0.006,0.004 0.012,0.008 0.019,0.012 l 0,0 c 0.005,0.004 0.01,0.007 0.016,0.011 l 0,0 c 0.006,0.004 0.012,0.008 0.018,0.012 l 0,0 c 0.005,0.004 0.01,0.007 0.015,0.011 l 0,0 c 0.006,0.004 0.012,0.008 0.018,0.012 l 0,0 c 0.005,0.003 0.01,0.007 0.014,0.01 l 0,0 c 0.007,0.004 0.013,0.009 0.02,0.013 l 0,0 c 0.005,0.004 0.01,0.008 0.015,0.012 l 0,0 c 0.006,0.004 0.012,0.008 0.017,0.012 l 0,0 c 0.011,0.008 0.022,0.016 0.032,0.024 l 0,0 c 2.454,1.836 2.587,5.061 2.587,5.744 l 0,0 c 0,0.084 -0.002,0.13 -0.002,0.13 l 0,0 0.117,80.124 c 0,0 0,0 0,0.002 l 0,0 c 0,0.003 0,0.015 0,0.053 l 0,0 c 0,0.001 0,0.001 0,0.001 l 0,0 c 0,0.003 0,0.006 0,0.01 l 0,0 c 0,0.236 0.001,1.321 0,6.311 l 0,0 c 0,0.18 0,0.365 0,0.555 l 0,0 c -10e-4,6.919 -5.286,8.106 -5.286,8.106 l 0,0 -15.359,3.595 -6.728,1.575 c 0,0 -0.093,0.089 -3.408,0.822 l 0,0 c -0.027,0.007 -0.054,0.012 -0.082,0.018 l 0,0 c -0.012,0.003 -0.025,0.006 -0.037,0.008 l 0,0 c -0.015,0.003 -0.03,0.007 -0.044,0.01 l 0,0 c -0.014,0.002 -0.028,0.005 -0.042,0.008 l 0,0 c -0.013,0.003 -0.026,0.005 -0.039,0.008 l 0,0 c -0.014,0.003 -0.029,0.006 -0.043,0.008 l 0,0 c -0.012,0.003 -0.025,0.005 -0.038,0.008 l 0,0 c -0.014,0.003 -0.028,0.005 -0.042,0.008 l 0,0 c -0.013,0.002 -0.025,0.005 -0.037,0.007 l 0,0 c -0.014,0.003 -0.027,0.005 -0.041,0.008 l 0,0 c -0.013,0.002 -0.026,0.004 -0.039,0.007 l 0,0 c -0.013,0.002 -0.026,0.004 -0.039,0.007 l 0,0 c -0.013,0.002 -0.027,0.004 -0.04,0.007 l 0,0 c -0.012,0.002 -0.024,0.004 -0.037,0.006 l 0,0 c -0.013,0.002 -0.027,0.005 -0.041,0.007 l 0,0 c -0.012,0.002 -0.024,0.004 -0.036,0.006 l 0,0 c -0.014,0.002 -0.028,0.005 -0.042,0.007 l 0,0 c -0.011,0.002 -0.022,0.003 -0.033,0.005 l 0,0 c -0.015,0.002 -0.03,0.005 -0.045,0.007 l 0,0 c -0.01,0.001 -0.02,0.003 -0.031,0.005 l 0,0 c -0.015,0.002 -0.031,0.004 -0.046,0.006 l 0,0 c -0.009,0.002 -0.018,0.003 -0.027,0.004 l 0,0 c -0.016,0.003 -0.033,0.005 -0.05,0.007 l 0,0 c -0.008,0.002 -0.016,0.003 -0.024,0.004 l 0,0 c -0.018,0.002 -0.036,0.005 -0.054,0.007 l 0,0 c -0.006,10e-4 -0.011,0.002 -0.017,0.002 l 0,0 c -0.02,0.003 -0.04,0.005 -0.06,0.008 l 0,0 c -0.004,0 -0.008,0.001 -0.012,0.001 l 0,0 c -0.023,0.003 -0.046,0.006 -0.068,0.009 l 0,0 c -10e-4,0 -10e-4,0 -0.002,0 l 0,0 c -0.419,0.049 -0.805,0.07 -1.158,0.071 l 0,0 -0.05,0 z"
         id="path452"
         inkscape:connector-curvature="0" /></clipPath><clipPath
       clipPathUnits="userSpaceOnUse"
       id="clipPath460"><path
         d="m 188.72,442.543 c -0.049,0 -0.099,-0.001 -0.147,-0.001 l 0,0 c -0.008,0 -0.016,0 -0.024,-10e-4 l 0,0 c -0.016,0 -0.033,0 -0.049,0 l 0,0 c -0.009,0 -0.018,-10e-4 -0.026,-10e-4 l 0,0 c -0.016,0 -0.031,0 -0.046,-0.001 l 0,0 c -0.01,0 -0.019,0 -0.028,0 l 0,0 c -0.015,-10e-4 -0.03,-10e-4 -0.045,-10e-4 l 0,0 c -0.008,-0.001 -0.015,-0.001 -0.024,-0.001 l 0,0 c -0.016,-10e-4 -0.031,-10e-4 -0.047,-0.002 l 0,0 c -0.008,0 -0.016,0 -0.024,-0.001 l 0,0 c -0.016,0 -0.031,-10e-4 -0.047,-10e-4 l 0,0 c -0.008,-0.001 -0.016,-0.001 -0.025,-0.001 l 0,0 c -0.015,-10e-4 -0.03,-0.002 -0.045,-0.002 l 0,0 c -0.009,-10e-4 -0.017,-10e-4 -0.026,-10e-4 l 0,0 c -0.015,-10e-4 -0.029,-0.002 -0.044,-0.003 l 0,0 c -0.008,0 -0.016,0 -0.025,-0.001 l 0,0 c -0.014,-10e-4 -0.029,-10e-4 -0.044,-0.002 l 0,0 c -0.009,-0.001 -0.019,-0.001 -0.029,-0.002 l 0,0 c -0.013,-0.001 -0.026,-0.001 -0.039,-0.002 l 0,0 c -0.01,-0.001 -0.02,-0.002 -0.03,-0.002 l 0,0 c -0.013,-10e-4 -0.026,-0.002 -0.038,-0.003 l 0,0 c -0.01,0 -0.02,-0.001 -0.031,-0.002 l 0,0 c -0.012,-10e-4 -0.025,-0.002 -0.037,-0.003 l 0,0 c -0.01,0 -0.019,-0.001 -0.029,-0.002 l 0,0 c -0.013,-0.001 -0.026,-0.002 -0.038,-0.003 l 0,0 c -0.01,-0.001 -0.018,-0.001 -0.027,-0.002 l 0,0 c -0.014,-0.001 -0.027,-0.002 -0.04,-0.003 l 0,0 c -0.009,-0.001 -0.017,-0.002 -0.026,-0.003 l 0,0 c -0.013,-10e-4 -0.027,-0.002 -0.04,-0.003 l 0,0 c -0.009,-10e-4 -0.019,-0.002 -0.029,-0.003 l 0,0 c -0.012,-0.001 -0.024,-0.002 -0.036,-0.004 l 0,0 c -0.01,-10e-4 -0.019,-0.002 -0.029,-0.003 l 0,0 c -0.012,-10e-4 -0.024,-0.002 -0.036,-0.003 l 0,0 c -0.01,-0.001 -0.02,-0.002 -0.029,-0.003 l 0,0 c -0.012,-0.002 -0.024,-0.003 -0.036,-0.004 l 0,0 c -0.009,-0.001 -0.018,-0.002 -0.026,-0.003 l 0,0 c -0.013,-0.002 -0.026,-0.003 -0.039,-0.005 l 0,0 c -0.008,-10e-4 -0.017,-0.002 -0.025,-0.003 l 0,0 c -0.013,-10e-4 -0.026,-0.003 -0.038,-0.004 l 0,0 c -0.009,-0.001 -0.017,-0.002 -0.025,-0.004 l 0,0 c -0.013,-0.001 -0.026,-0.003 -0.039,-0.004 l 0,0 c -0.008,-0.002 -0.016,-0.003 -0.024,-0.004 l 0,0 c -0.013,-0.001 -0.026,-0.003 -0.039,-0.005 l 0,0 c -0.007,-10e-4 -0.014,-0.002 -0.022,-0.003 l 0,0 c -0.013,-0.002 -0.026,-0.004 -0.04,-0.006 l 0,0 c -0.007,-0.001 -0.015,-0.002 -0.023,-0.003 l 0,0 c -0.013,-0.002 -0.025,-0.004 -0.038,-0.006 l 0,0 c -0.008,-10e-4 -0.015,-0.002 -0.023,-0.003 l 0,0 c -0.013,-0.002 -0.026,-0.004 -0.038,-0.006 l 0,0 c -0.008,-10e-4 -0.015,-0.003 -0.023,-0.004 l 0,0 c -0.013,-0.002 -0.026,-0.004 -0.039,-0.006 l 0,0 c -0.006,-10e-4 -0.013,-0.002 -0.019,-0.003 l 0,0 c -0.014,-0.002 -0.028,-0.005 -0.041,-0.007 l 0,0 c -0.007,-0.001 -0.014,-0.002 -0.02,-0.004 l 0,0 c -0.013,-0.002 -0.026,-0.004 -0.039,-0.006 l 0,0 c -0.007,-0.002 -0.013,-0.003 -0.02,-0.004 l 0,0 c -0.014,-0.002 -0.027,-0.005 -0.04,-0.007 l 0,0 c -0.006,-10e-4 -0.012,-0.002 -0.017,-0.004 l 0,0 c -0.015,-0.002 -0.028,-0.005 -0.043,-0.008 l 0,0 c -0.005,0 -0.01,-0.002 -0.015,-0.003 l 0,0 c -0.014,-0.002 -0.029,-0.005 -0.042,-0.008 l 0,0 c -0.006,-0.001 -0.012,-0.002 -0.018,-0.003 l 0,0 c -0.014,-0.003 -0.027,-0.006 -0.04,-0.008 l 0,0 c -0.006,-0.002 -0.012,-0.003 -0.017,-0.004 l 0,0 c -0.014,-0.003 -0.027,-0.006 -0.041,-0.009 l 0,0 c -0.005,-0.001 -0.011,-0.002 -0.016,-0.003 l 0,0 c -0.014,-0.003 -0.027,-0.006 -0.041,-0.009 l 0,0 c -0.005,-0.001 -0.01,-0.002 -0.015,-0.003 l 0,0 c -0.014,-0.003 -0.028,-0.006 -0.042,-0.01 l 0,0 c -0.004,-10e-4 -0.009,-0.002 -0.014,-0.003 l 0,0 c -0.014,-0.003 -0.028,-0.006 -0.042,-0.01 l 0,0 c -0.004,-0.001 -0.008,-0.002 -0.012,-0.003 l 0,0 c -0.015,-0.003 -0.03,-0.007 -0.044,-0.01 l 0,0 c -0.004,-10e-4 -0.007,-0.002 -0.011,-0.003 l 0,0 c -0.015,-0.003 -0.03,-0.007 -0.044,-0.011 l 0,0 c -0.004,-0.001 -0.008,-0.002 -0.011,-0.002 l 0,0 c -0.014,-0.004 -0.028,-0.008 -0.042,-0.011 l 0,0 c -0.005,-10e-4 -0.01,-0.003 -0.015,-0.004 l 0,0 c -0.013,-0.003 -0.026,-0.007 -0.039,-0.01 l 0,0 c -0.005,-0.002 -0.009,-0.003 -0.014,-0.004 l 0,0 c -0.014,-0.004 -0.027,-0.007 -0.041,-0.011 l 0,0 c -0.003,-10e-4 -0.008,-0.002 -0.012,-0.003 l 0,0 c -0.014,-0.004 -0.028,-0.008 -0.042,-0.012 l 0,0 c -0.003,-0.001 -0.006,-0.002 -0.01,-0.003 l 0,0 c -0.014,-0.004 -0.028,-0.008 -0.043,-0.012 l 0,0 c -0.003,-0.001 -0.006,-0.002 -0.009,-0.003 l 0,0 c -0.015,-0.004 -0.03,-0.008 -0.044,-0.013 l 0,0 c -0.002,0 -0.004,-10e-4 -0.006,-0.002 l 0,0 c -0.016,-0.004 -0.031,-0.009 -0.046,-0.013 l 0,0 c -0.002,-0.001 -0.004,-0.002 -0.006,-0.002 l 0,0 c -0.016,-0.005 -0.031,-0.01 -0.046,-0.014 l 0,0 c -0.002,-10e-4 -0.003,-10e-4 -0.005,-0.002 l 0,0 c -0.016,-0.005 -0.03,-0.01 -0.046,-0.015 l 0,0 c -0.001,0 -0.003,-10e-4 -0.005,-10e-4 l 0,0 c -0.016,-0.005 -0.031,-0.01 -0.047,-0.015 l 0,0 c -10e-4,-10e-4 -10e-4,-10e-4 -0.002,-10e-4 l 0,0 c -0.016,-0.005 -0.032,-0.011 -0.048,-0.016 l 0,0 c 0,0 -0.001,-10e-4 -0.002,-10e-4 l 0,0 c -0.016,-0.005 -0.032,-0.011 -0.047,-0.016 l 0,0 c -0.001,0 -0.002,-10e-4 -0.003,-10e-4 l 0,0 c -0.015,-0.005 -0.03,-0.011 -0.046,-0.016 l 0,0 c -0.001,-10e-4 -0.002,-10e-4 -0.003,-10e-4 l 0,0 c -3.326,-1.184 -3.588,-4.181 -3.593,-5.036 l 0,0 0,-0.056 c 0,-0.086 0.003,-0.142 0.004,-0.164 l 0,0 c 0.001,-0.004 0.001,-0.007 0.001,-0.009 l 0,0 c 0,0 0,0 0,0 l 0,0 c 0,-10e-4 0,-10e-4 0,-10e-4 l 0,0 25.892,-157.301 c 0.321,-2.464 2.058,-6.287 3.173,-7.679 l 0,0 c 1.113,-1.392 3.807,-2.287 6.869,-2.565 l 0,0 c 4.175,-1.114 13.344,-2.005 13.344,-2.005 l 0,0 101.857,-0.616 34.005,0.206 c 0,0 7.511,-0.082 18.985,-0.206 l 0,0 c 11.833,0.128 27.882,0.3 44.263,0.473 l 0,0 c 0.065,10e-4 0.127,10e-4 0.192,0.002 l 0,0 c 0.08,10e-4 0.164,0.002 0.243,0.003 l 0,0 c 0.162,10e-4 0.325,0.003 0.487,0.005 l 0,0 c 0.147,10e-4 0.288,0.003 0.435,0.004 l 0,0 c 28.434,0.301 57.541,0.6 67.043,0.67 l 0,0 c 0.008,0 0.017,0 0.025,0 l 0,0 c 0.331,0.003 0.637,0.005 0.919,0.007 l 0,0 c 0.007,0 0.013,0 0.02,0 l 0,0 c 0.208,0.001 0.403,0.003 0.584,0.004 l 0,0 c 0.011,0 0.022,0 0.033,0 l 0,0 c 0.031,0 0.062,0 0.092,0 l 0,0 c 0.045,10e-4 0.086,10e-4 0.128,10e-4 l 0,0 c 0.062,0 0.122,0.001 0.18,0.001 l 0,0 c 0.01,0 0.02,0 0.03,0 l 0,0 c 0.008,0 0.017,0 0.025,0 l 0,0 c 0.002,0 0.004,0 0.006,0 l 0,0 c 0.009,0 0.017,0 0.026,0 l 0,0 c 0.01,0 0.02,10e-4 0.03,10e-4 l 0,0 c 0.039,0 0.077,0 0.114,0 l 0,0 c 0.006,0 0.012,0 0.018,0 l 0,0 c 0.016,0 0.032,0 0.048,0 l 0,0 c 0.013,0 0.026,0 0.038,0.001 l 0,0 c 0.008,0 0.015,0 0.022,0 l 0,0 c 0.016,0 0.032,0 0.048,0 l 0,0 c 0.036,0 0.07,0 0.103,0 l 0,0 c 0.006,0 0.012,0 0.018,0 l 0,0 c 0.023,0 0.046,0 0.069,0 l 0,0 c 0.092,10e-4 0.174,10e-4 0.247,10e-4 l 0,0 c 0.174,0 0.344,10e-4 0.515,10e-4 l 0,0 c 14.48,0.079 17.16,3.457 17.53,4.077 l 0,0 c 0,0 0,0.001 0,0.001 l 0,0 c 10e-4,10e-4 10e-4,0.002 0.002,0.003 l 0,0 c 0,10e-4 0,10e-4 10e-4,10e-4 l 0,0 c 0.005,0.009 0.01,0.017 0.014,0.025 l 0,0 c 0,0 0,0 0,10e-4 l 0,0 c 10e-4,0.001 10e-4,0.001 0.002,0.002 l 0,0 c 0,0 0,0.001 0,0.001 l 0,0 c 10e-4,10e-4 10e-4,0.002 0.002,0.003 l 0,0 c 0,0 0,0 0,0 l 0,0 c 0.007,0.014 0.013,0.025 0.018,0.034 l 0,0 c 0,10e-4 0,10e-4 0,10e-4 l 0,0 c 10e-4,0.001 10e-4,0.002 0.002,0.004 l 0,0 c 0,0 0,0 0,0 l 0,0 c 10e-4,10e-4 10e-4,0.002 10e-4,0.002 l 0,0 c 0.001,0.002 0.002,0.004 0.003,0.006 l 0,0 c 0.004,0.009 0.006,0.014 0.006,0.014 l 0,0 0,3.898 -20.645,0.044 -67.167,0.145 -41.369,0.089 c 0,0 -25.613,126.675 -26.727,134.749 l 0,0 c -1.113,8.074 -7.238,8.909 -7.238,8.909 l 0,0 c 0,0 -0.001,0 -0.005,0 l 0,0 c -0.001,0.001 -0.002,0.001 -0.003,0.001 l 0,0 c -10e-4,0 -0.002,0 -0.003,0 l 0,0 c -0.002,10e-4 -0.005,10e-4 -0.009,10e-4 l 0,0 c 0,0 -10e-4,10e-4 -10e-4,10e-4 l 0,0 c -0.004,0 -0.009,0.001 -0.014,0.001 l 0,0 c -10e-4,10e-4 -0.003,10e-4 -0.004,10e-4 l 0,0 c -0.002,0 -0.004,0.001 -0.006,0.001 l 0,0 c -10e-4,0 -0.002,0 -0.004,0 l 0,0 c -10e-4,10e-4 -0.003,10e-4 -0.004,10e-4 l 0,0 c -0.002,0 -0.004,10e-4 -0.006,10e-4 l 0,0 c -0.003,0 -0.005,0 -0.007,0.001 l 0,0 c -0.003,0 -0.006,10e-4 -0.009,10e-4 l 0,0 c 0,0 -10e-4,0 -10e-4,0 l 0,0 c -0.003,0 -0.006,0.001 -0.009,0.001 l 0,0 c -0.017,0.003 -0.037,0.005 -0.059,0.008 l 0,0 c -0.002,10e-4 -0.004,10e-4 -0.006,10e-4 l 0,0 c -0.022,0.003 -0.047,0.006 -0.074,0.01 l 0,0 c -0.003,10e-4 -0.005,10e-4 -0.008,10e-4 l 0,0 c -0.028,0.004 -0.058,0.008 -0.091,0.013 l 0,0 c -0.002,0 -0.004,0 -0.006,0 l 0,0 c -0.06,0.009 -0.127,0.018 -0.202,0.028 l 0,0 c -0.009,10e-4 -0.019,0.002 -0.028,0.004 l 0,0 c -10e-4,0 -0.002,0 -0.003,0 l 0,0 c -0.01,10e-4 -0.021,0.003 -0.032,0.004 l 0,0 c -0.085,0.012 -0.18,0.025 -0.284,0.039 l 0,0 c -0.009,10e-4 -0.019,0.003 -0.028,0.004 l 0,0 c -0.116,0.016 -0.243,0.033 -0.38,0.052 l 0,0 c 0,0 0,0 0,0 l 0,0 c -8.125,1.104 -53.301,7.247 -94.267,12.828 l 0,0 c -3.576,0.487 -7.114,0.969 -10.599,1.444 l 0,0 c -0.819,0.112 -1.636,0.223 -2.448,0.333 l 0,0 c -15.098,2.058 -28.935,3.946 -39.223,5.354 l 0,0 c -0.032,0.004 -0.062,0.008 -0.094,0.013 l 0,0 c -0.036,0.005 -0.074,0.01 -0.11,0.015 l 0,0 c -9.145,1.251 -15.447,2.117 -17.276,2.378 l 0,0 c -0.006,10e-4 -0.012,0.002 -0.018,0.003 l 0,0 c -0.011,10e-4 -0.021,0.003 -0.031,0.004 l 0,0 c -0.007,10e-4 -0.015,0.002 -0.022,0.003 l 0,0 c -0.886,0.127 -1.686,0.185 -2.41,0.185 l 0,0 c 0,0 0,0 0,0"
         id="path462"
         inkscape:connector-curvature="0" /></clipPath><clipPath
       clipPathUnits="userSpaceOnUse"
       id="clipPath470"><path
         d="m 414.724,266.42 c -0.023,0 -0.045,0 -0.068,-0.001 l 0,0 c -0.008,0 -0.016,0 -0.025,0 l 0,0 c -0.013,0 -0.027,-10e-4 -0.041,-10e-4 l 0,0 c -0.011,0 -0.023,0 -0.034,-0.001 l 0,0 c -0.01,0 -0.02,0 -0.03,-10e-4 l 0,0 c -0.014,0 -0.028,-10e-4 -0.041,-10e-4 l 0,0 c -0.008,-0.001 -0.015,-0.001 -0.023,-0.001 l 0,0 c -0.016,-10e-4 -0.032,-0.002 -0.048,-0.003 l 0,0 c -0.004,0 -0.009,0 -0.013,-10e-4 l 0,0 c -0.019,-0.001 -0.037,-0.002 -0.055,-0.003 l 0,0 c -10e-4,0 -0.003,0 -0.004,0 l 0,0 c -0.208,-0.015 -0.413,-0.041 -0.614,-0.078 l 0,0 c 33.306,-0.355 74.117,-0.781 85.276,-0.862 l 0,0 0,0.953 -84.28,0 z m -5.454,-9.278 0,-131.246 c 0,-3.011 2.441,-5.453 5.454,-5.453 l 0,0 84.28,0 0,136.892 -89.734,-0.193 z"
         id="path472"
         inkscape:connector-curvature="0" /></clipPath><clipPath
       clipPathUnits="userSpaceOnUse"
       id="clipPath480"><path
         d="m 532.001,266.419 c -0.462,0 -0.814,-0.016 -0.986,-0.025 l 0,0 c -0.077,-0.004 -0.119,-0.007 -0.119,-0.007 l 0,0 -22.909,0 c 0,0 -2.841,0.27 -5.226,-0.942 l 0,0 c 15.303,-0.198 16.889,-4.168 16.889,-4.168 l 0,0 0,-3.898 -20.643,-0.044 c -0.009,-0.502 0.007,-0.908 0.023,-1.173 l 0,0 c 0,-0.003 0.001,-0.005 0.001,-0.008 l 0,0 c 0,-10e-4 0,-0.003 0,-0.005 l 0,0 c 0.012,-0.195 0.025,-0.312 0.027,-0.333 l 0,0 c 0,0 0,0 0,0 l 0,0 c 0,-0.001 0,-0.001 0,-0.002 l 0,0 c 0,0 0,0 0,-0.001 l 0,0 c 0,0 0,0 0,0 l 0,0 0.118,-89.641 c 0,0 -0.01,-0.182 -0.01,-0.482 l 0,0 c -10e-4,-0.846 0.082,-2.623 0.715,-3.865 l 0,0 c 0.856,-1.682 1.841,-2.297 3.171,-2.819 l 0,0 c 1.331,-0.523 1.411,-0.588 1.411,-0.588 l 0,0 c 0,0 0,0 10e-4,-0.001 l 0,0 c 0.054,-0.029 1.788,-0.955 5.05,-0.234 l 0,0 c 3.315,0.733 3.408,0.823 3.408,0.823 l 0,0 22.087,5.168 c 0,0 5.285,1.187 5.286,8.108 l 0,0 c 0,0.19 0,0.375 0,0.554 l 0,0 c 0.001,4.992 0,6.076 0,6.311 l 0,0 c 0,0.003 0,0.007 0,0.01 l 0,0 c 0,0 0,0 0,10e-4 l 0,0 c 0,0.038 0,0.05 0,0.053 l 0,0 c 0,10e-4 0,10e-4 0,10e-4 l 0,0 -0.117,80.126 c 0,0 0.002,0.045 0.002,0.129 l 0,0 c 0,0.684 -0.133,3.908 -2.587,5.745 l 0,0 c -1.396,1.045 -4.051,1.207 -5.565,1.207 l 0,0 c -0.009,0 -0.018,0 -0.027,0"
         id="path482"
         inkscape:connector-curvature="0" /></clipPath><clipPath
       clipPathUnits="userSpaceOnUse"
       id="clipPath490"><path
         d="m 279.867,266.305 -19.175,-0.117 0,-6.272 -50.65,0 c -0.135,-0.249 -0.271,-0.514 -0.405,-0.79 l 0,0 c -0.005,-0.008 -0.008,-0.016 -0.012,-0.024 l 0,0 c -0.006,-0.014 -0.013,-0.027 -0.02,-0.041 l 0,0 c -0.006,-0.012 -0.012,-0.026 -0.018,-0.039 l 0,0 c -0.005,-0.009 -0.009,-0.018 -0.014,-0.028 l 0,0 c -0.024,-0.051 -0.049,-0.102 -0.073,-0.154 l 0,0 c -0.23,-0.488 -0.453,-1.005 -0.66,-1.531 l 0,0 -10.821,-63.185 -16.076,-97.663 c 0,0 0,0 0,-0.001 l 0,0 c -0.001,-0.007 -0.004,-0.069 -0.005,-0.176 l 0,0 0,-0.052 c 0.002,-0.522 0.101,-1.85 0.943,-3.073 l 0,0 c 0,-0.001 0.001,-0.002 0.002,-0.003 l 0,0 c 0.006,-0.009 0.012,-0.019 0.019,-0.028 l 0,0 c 0,0 0,0 0,0 l 0,0 c 0.007,-0.01 0.013,-0.019 0.019,-0.027 l 0,0 c 0.001,-0.001 0.001,-0.002 0.002,-0.003 l 0,0 c 0.007,-0.009 0.013,-0.017 0.019,-0.026 l 0,0 c 0.001,-0.001 0.002,-0.003 0.003,-0.004 l 0,0 c 0.005,-0.007 0.01,-0.014 0.015,-0.021 l 0,0 c 0.003,-0.004 0.005,-0.008 0.007,-0.011 l 0,0 c 0.005,-0.006 0.009,-0.011 0.013,-0.016 l 0,0 c 0.003,-0.005 0.006,-0.009 0.01,-0.013 l 0,0 c 0.003,-0.006 0.007,-0.011 0.011,-0.016 l 0,0 c 0.004,-0.005 0.007,-0.009 0.01,-0.014 l 0,0 c 0.004,-0.005 0.009,-0.01 0.012,-0.014 l 0,0 c 0.004,-0.006 0.007,-0.01 0.011,-0.015 l 0,0 c 0.003,-0.004 0.006,-0.009 0.01,-0.012 l 0,0 c 0.004,-0.006 0.009,-0.013 0.014,-0.019 l 0,0 c 0.002,-0.002 0.004,-0.005 0.006,-0.007 l 0,0 c 0.005,-0.008 0.01,-0.014 0.016,-0.021 l 0,0 c 0.003,-0.003 0.004,-0.005 0.007,-0.009 l 0,0 c 0.005,-0.006 0.011,-0.013 0.016,-0.02 l 0,0 c 0.002,-0.003 0.004,-0.005 0.006,-0.007 l 0,0 c 0.006,-0.008 0.012,-0.015 0.018,-0.022 l 0,0 c 10e-4,-0.001 0.002,-0.003 0.004,-0.005 l 0,0 c 1.168,-1.424 3.471,-2.58 7.999,-1.933 l 0,0 c 9.745,1.392 165.374,22.55 165.374,22.55 l 0,0 c 0,0 1.986,0.271 3.902,1.995 l 0,0 0,151.022 -27.368,0.165 -53.171,-0.32 z"
         id="path492"
         inkscape:connector-curvature="0" /></clipPath><clipPath
       clipPathUnits="userSpaceOnUse"
       id="clipPath500"><path
         d="m 367.083,266.42 -7.049,0.042 0,-151.34 c 1.573,1.265 3.188,3.457 3.708,7.23 l 0,0 c 1.114,8.074 26.727,134.749 26.727,134.749 l 0,0 5.59,0.012 0,9.405 c -3.558,0.038 -6.903,0.074 -9.966,0.107 l 0,0 c -11.489,-0.123 -19.01,-0.205 -19.01,-0.205"
         id="path502"
         inkscape:connector-curvature="0" /></clipPath><clipPath
       clipPathUnits="userSpaceOnUse"
       id="clipPath510"><path
         d="m 395.689,257.112 13.581,0.03 0,3.824 c 0,2.672 1.921,4.896 4.458,5.363 l 0,0 c -6.376,0.068 -12.475,0.133 -18.039,0.193 l 0,0 0,-9.41 z"
         id="path512"
         inkscape:connector-curvature="0" /></clipPath><clipPath
       clipPathUnits="userSpaceOnUse"
       id="clipPath520"><path
         d="m 499.004,257.335 0.003,0 c 0.024,1.368 0.231,3.458 1.109,5.409 l 0,0 c 0.588,1.309 1.57,2.156 2.645,2.701 l 0,0 c -0.314,0.005 -0.636,0.007 -0.962,0.008 l 0,0 c -0.009,0 -0.018,0 -0.027,0 l 0,0 c -0.016,0 -0.031,0 -0.045,0 l 0,0 c -0.023,0 -0.045,0 -0.067,0 l 0,0 c -0.005,0 -0.009,0 -0.014,0 l 0,0 c -0.031,0 -0.061,0 -0.092,0 l 0,0 c -0.062,0 -0.131,0 -0.206,0 l 0,0 c -0.003,0 -0.006,0 -0.008,0 l 0,0 c -0.494,0.001 -1.282,0.006 -2.336,0.014 l 0,0 0,-8.132 z"
         id="path522"
         inkscape:connector-curvature="0" /></clipPath><clipPath
       clipPathUnits="userSpaceOnUse"
       id="clipPath530"><path
         d="m 208.259,255.637 c -10e-4,-0.004 -0.002,-0.008 -0.004,-0.011 l 0,0 c -0.004,-0.016 -0.009,-0.031 -0.013,-0.047 l 0,0 c -0.002,-0.005 -0.003,-0.01 -0.005,-0.015 l 0,0 c -0.004,-0.015 -0.008,-0.029 -0.013,-0.043 l 0,0 c -0.002,-0.007 -0.004,-0.014 -0.006,-0.021 l 0,0 c -0.005,-0.02 -0.011,-0.039 -0.017,-0.059 l 0,0 c -0.003,-0.013 -0.007,-0.026 -0.011,-0.039 l 0,0 c -0.002,-0.007 -0.004,-0.014 -0.006,-0.021 l 0,0 c -0.004,-0.014 -0.008,-0.028 -0.012,-0.043 l 0,0 c -0.002,-0.006 -0.003,-0.013 -0.005,-0.019 l 0,0 c -0.005,-0.016 -0.009,-0.031 -0.013,-0.047 l 0,0 c -0.002,-0.005 -0.003,-0.01 -0.004,-0.015 l 0,0 c -0.005,-0.017 -0.01,-0.035 -0.015,-0.052 l 0,0 c 0,-0.003 -0.001,-0.007 -0.002,-0.01 l 0,0 c -0.119,-0.44 -0.212,-0.863 -0.272,-1.256 l 0,0 c -10e-4,-0.002 -10e-4,-0.005 -10e-4,-0.007 l 0,0 c -0.003,-0.017 -0.005,-0.033 -0.008,-0.05 l 0,0 c 0,-0.003 -0.001,-0.006 -0.001,-0.009 l 0,0 c -0.003,-0.016 -0.005,-0.032 -0.007,-0.048 l 0,0 c -0.001,-0.003 -0.001,-0.006 -0.001,-0.009 l 0,0 c -0.003,-0.018 -0.005,-0.037 -0.008,-0.056 l 0,0 -9.816,-59.636 10.821,63.185 c -0.218,-0.557 -0.417,-1.123 -0.581,-1.672"
         id="path532"
         inkscape:connector-curvature="0" /></clipPath><clipPath
       clipPathUnits="userSpaceOnUse"
       id="clipPath540"><path
         d="m 231.221,266.01 c 0,0 -9.169,-0.891 -13.344,-2.005 l 0,0 c -3.062,-0.278 -5.756,-1.174 -6.869,-2.566 l 0,0 c -0.292,-0.364 -0.626,-0.894 -0.966,-1.523 l 0,0 50.65,0 0,6.272 -29.471,-0.178 z"
         id="path542"
         inkscape:connector-curvature="0" /></clipPath><clipPath
       clipPathUnits="userSpaceOnUse"
       id="clipPath550"><path
         d="m 367.083,266.831 -34.045,-0.206 34.045,-0.205 c 0,0 7.521,0.082 19.01,0.205 l 0,0 c -8.255,0.089 -14.463,0.157 -17.302,0.188 l 0,0 c -0.002,0 -0.005,0 -0.007,0 l 0,0 c -0.052,0 -0.103,0.001 -0.154,0.001 l 0,0 c -0.01,0 -0.02,0 -0.03,10e-4 l 0,0 c -0.055,0 -0.109,10e-4 -0.161,10e-4 l 0,0 c -0.001,0 -0.002,0 -0.002,0 l 0,0 c -0.042,0.001 -0.082,0.001 -0.122,0.002 l 0,0 c -0.015,0 -0.031,0 -0.046,0 l 0,0 c -0.041,0.001 -0.081,0.001 -0.12,0.001 l 0,0 c -0.035,10e-4 -0.069,10e-4 -0.102,0.002 l 0,0 c -0.015,0 -0.03,0 -0.045,0 l 0,0 c -0.009,0 -0.017,0 -0.025,0 l 0,0 c -0.037,10e-4 -0.072,10e-4 -0.107,0.002 l 0,0 c -0.032,0 -0.064,0 -0.094,0.001 l 0,0 c -0.008,0 -0.017,0 -0.025,0 l 0,0 c -0.016,0 -0.031,0 -0.046,0 l 0,0 c -0.002,0 -0.004,0 -0.006,0 l 0,0 c -0.009,0 -0.018,10e-4 -0.027,10e-4 l 0,0 c -0.013,0 -0.026,0 -0.038,0 l 0,0 c -0.012,0 -0.023,0 -0.035,0 l 0,0 c -0.005,0.001 -0.01,0.001 -0.015,0.001 l 0,0 c -0.008,0 -0.015,0 -0.023,0 l 0,0 c -0.011,0 -0.022,0 -0.033,0 l 0,0 c -0.009,0 -0.018,0 -0.028,10e-4 l 0,0 c -0.005,0 -0.01,0 -0.016,0 l 0,0 c -0.006,0 -0.012,0 -0.018,0 l 0,0 c -0.009,0 -0.018,0 -0.027,0 l 0,0 c -0.023,0 -0.045,10e-4 -0.066,10e-4 l 0,0 c -0.006,0 -0.011,0 -0.017,0 l 0,0 c -0.006,0 -0.013,0 -0.02,0 l 0,0 c -0.007,0 -0.014,0 -0.021,0.001 l 0,0 c -0.003,0 -0.007,0 -0.01,0 l 0,0 c -0.008,0 -0.015,0 -0.022,0 l 0,0 c -0.005,0 -0.011,0 -0.016,0 l 0,0 c -0.008,0 -0.016,0 -0.024,0 l 0,0 c -10e-4,0 -0.003,0 -0.004,0 l 0,0 c -0.018,10e-4 -0.034,10e-4 -0.049,10e-4 l 0,0 c -0.002,0 -0.004,0 -0.006,0 l 0,0 c -0.004,0 -0.008,0 -0.012,0 l 0,0 c -0.017,0 -0.031,0 -0.043,0.001 l 0,0 c -0.031,0 -0.046,0 -0.046,0 z"
         id="path552"
         inkscape:connector-curvature="0" /></clipPath><clipPath
       clipPathUnits="userSpaceOnUse"
       id="clipPath560"><path
         d="m 409.27,260.966 0,-3.824 89.734,0.193 0,8.132 c -0.176,0.001 -0.361,0.002 -0.552,0.004 l 0,0 c -0.017,0 -0.032,0 -0.049,0 l 0,0 c -0.009,0 -0.017,0 -0.026,0 l 0,0 c -9.715,0.074 -37.781,0.363 -65.485,0.655 l 0,0 c -0.1,0.001 -0.199,0.002 -0.299,0.003 l 0,0 c -0.14,10e-4 -0.283,0.003 -0.423,0.004 l 0,0 c -6.245,0.066 -12.465,0.132 -18.442,0.196 l 0,0 c -2.537,-0.467 -4.458,-2.691 -4.458,-5.363"
         id="path562"
         inkscape:connector-curvature="0" /></clipPath><clipPath
       clipPathUnits="userSpaceOnUse"
       id="clipPath570"><path
         d="m 500.116,262.744 c -0.878,-1.951 -1.085,-4.041 -1.109,-5.409 l 0,0 20.643,0.044 0,3.898 c 0,0 0,0.001 -10e-4,0.002 l 0,0 c 0,10e-4 0,10e-4 0,10e-4 l 0,0 c 0,0 -10e-4,0.001 -10e-4,0.001 l 0,0 c 0,0 0,10e-4 0,10e-4 l 0,0 c 0,0 0,0 0,0 l 0,0 c 0,0 0,0.001 -10e-4,0.002 l 0,0 c 0,0 0,0.001 0,0.001 l 0,0 c 0,0 -0.001,10e-4 -0.001,10e-4 l 0,0 c 0,0 0,10e-4 0,10e-4 l 0,0 c -10e-4,0.001 -10e-4,0.001 -10e-4,0.002 l 0,0 c 0,0 0,0.001 -10e-4,0.001 l 0,0 c -0.094,0.203 -1.451,2.759 -10.188,3.763 l 0,0 c -0.001,0 0,0 0,0 l 0,0 c -0.018,0.002 -0.035,0.004 -0.052,0.006 l 0,0 c -0.008,10e-4 -0.016,10e-4 -0.024,0.002 l 0,0 c -0.009,0.001 -0.019,0.003 -0.028,0.004 l 0,0 c -0.016,10e-4 -0.031,0.003 -0.046,0.005 l 0,0 c -0.003,0 -0.005,0 -0.008,0.001 l 0,0 c -0.019,0.002 -0.038,0.004 -0.057,0.006 l 0,0 c -0.003,0 -0.005,10e-4 -0.009,10e-4 l 0,0 c -0.041,0.004 -0.083,0.009 -0.124,0.013 l 0,0 c 0,0 -10e-4,10e-4 -10e-4,10e-4 l 0,0 c -1.797,0.193 -3.895,0.321 -6.346,0.353 l 0,0 c -1.075,-0.545 -2.057,-1.392 -2.645,-2.701"
         id="path572"
         inkscape:connector-curvature="0" /></clipPath><clipPath
       clipPathUnits="userSpaceOnUse"
       id="clipPath580"><path
         d="m 49.606,0 258.536,0 0,172.359 -258.536,0 0,-172.359 z"
         id="path582"
         inkscape:connector-curvature="0" /></clipPath></defs><sodipodi:namedview
     pagecolor="#ffffff"
     bordercolor="#666666"
     borderopacity="1"
     objecttolerance="10"
     gridtolerance="10"
     guidetolerance="10"
     inkscape:pageopacity="0"
     inkscape:pageshadow="2"
     inkscape:window-width="640"
     inkscape:window-height="480"
     id="namedview4"
     showgrid="false"
     fit-margin-top="0"
     fit-margin-left="0"
     fit-margin-right="0"
     fit-margin-bottom="0"
     inkscape:zoom="0.63429547"
     inkscape:cx="210.08619"
     inkscape:cy="13.799244"
     inkscape:window-x="0"
     inkscape:window-y="27"
     inkscape:window-maximized="0"
     inkscape:current-layer="g10" /><g
     id="g10"
     inkscape:groupmode="layer"
     inkscape:label="tarifs-lopinion-2013-09"
     transform="matrix(1.25,0,0,-1.25,-112.998,893.2645)"><g
       id="g12"><g
         id="g14"
         clip-path="url(#clipPath16)"><g
           id="g20"><g
             id="g22"
             transform="matrix(136.03307,0,0,-247.0929,73.497741,260.12491)" /></g></g></g><g
       id="g24"><g
         id="g26"
         clip-path="url(#clipPath28)"><g
           id="g32"><g
             id="g34"
             transform="matrix(200.16,0,0,285.59999,61.012024,259.43697)" /></g></g></g><g
       id="g36"><g
         id="g38"
         clip-path="url(#clipPath40)"><g
           id="g44"><g
             id="g46"
             transform="matrix(137.04824,0,0,-6.7001362,73.497741,266.41898)" /></g></g></g><g
       id="g48"><g
         id="g50"
         clip-path="url(#clipPath52)"><g
           id="g56"><g
             id="g58"
             transform="matrix(174.20354,0,0,259.88407,73.700775,266.60043)" /></g></g></g><g
       id="g68"
       transform="translate(-77.4608,843.1003)"><path
         d="m 0,0 5.443,1.4 c 4.355,1.088 5.132,2.019 5.132,8.553 l 0,83.511 c 0,6.843 -0.777,7.465 -4.975,9.486 l -6.376,2.956 0,4.976 31.102,2.8 2.021,-1.557 c 0,0 -1.244,-7.464 -1.244,-17.883 l 0,-84.289 c 0,-6.845 0.777,-7.465 4.977,-8.553 l 5.443,-1.4 0,-5.445 L 0,-5.445 0,0 z"
         style="fill:#392d30;fill-opacity:1;fill-rule:nonzero;stroke:none"
         id="path70"
         inkscape:connector-curvature="0" /></g><g
       id="g72"
       transform="translate(71.383,915.0704)"><path
         d="m 0,0 c 0,17.914 -5.094,30.897 -21.856,30.897 -24.485,0 -38.453,-37.305 -38.453,-70.168 0,-18.077 5.095,-30.896 22.677,-30.896 C -13.804,-70.167 0,-34.179 0,0 m -84.629,-32.206 c 0,41.903 31.88,71.483 63.267,71.483 25.305,0 45.518,-17.42 45.518,-46.997 0,-42.069 -31.058,-70.992 -62.609,-70.992 -25.307,0 -46.176,17.585 -46.176,46.506"
         style="fill:#d13d18;fill-opacity:1;fill-rule:nonzero;stroke:none"
         id="path74"
         inkscape:connector-curvature="0" /></g><g
       id="g76"
       transform="translate(163.0739,877.3135)"><path
         d="m 0,0 c 0,22.24 -7.467,30.946 -20.685,30.946 -7.154,0 -11.509,-2.332 -14.463,-3.575 l 0,-57.541 c 3.421,-3.423 7.466,-5.6 13.374,-5.6 C -7.31,-35.77 0,-27.837 0,0 m -65.94,-67.648 4.977,1.399 c 4.199,1.089 4.977,2.019 4.977,8.553 l 0,81.333 c 0,6.533 -0.778,6.998 -4.821,9.487 l -5.442,3.265 0,2.645 29.236,3.577 1.398,-0.934 -0.155,-9.175 0.622,0 c 6.688,5.444 15.553,10.109 26.283,10.109 14.618,0 30.479,-9.331 30.479,-38.1 0,-31.259 -18.349,-46.034 -44.475,-46.034 -3.734,0 -8.709,0.623 -12.443,1.712 0,0 0.156,-4.2 0.156,-9.642 l 0,-8.243 c 0,-6.841 0.622,-7.621 4.821,-8.553 l 6.688,-1.399 0,-3.578 -42.301,0 0,3.578 z"
         style="fill:#392d30;fill-opacity:1;fill-rule:nonzero;stroke:none"
         id="path78"
         inkscape:connector-curvature="0" /></g><g
       id="g80"
       transform="translate(188.631,841.2325)"><path
         d="m 0,0 4.976,1.245 c 4.2,1.243 4.978,2.177 4.978,8.553 l 0,49.919 c 0,6.534 -0.778,6.999 -4.821,9.488 l -5.444,3.265 0,2.645 30.326,3.577 1.4,-0.934 C 31.26,74.959 30.791,68.894 30.791,61.274 l 0,-51.476 c 0,-6.687 0.779,-7.464 4.978,-8.553 L 40.745,0 l 0,-3.577 L 0,-3.577 0,0 z"
         style="fill:#392d30;fill-opacity:1;fill-rule:nonzero;stroke:none"
         id="path82"
         inkscape:connector-curvature="0" /></g><g
       id="g84"
       transform="translate(233.4215,841.2325)"><path
         d="m 0,0 4.975,1.245 c 4.2,1.243 4.977,2.177 4.977,8.553 l 0,49.919 c 0,6.534 -0.777,6.999 -4.819,9.488 l -5.445,3.265 0,2.645 29.239,3.577 1.4,-0.934 -0.312,-9.642 0.777,0 c 7.931,5.6 18.505,10.576 29.237,10.576 14.152,0 20.528,-6.688 20.528,-20.683 l 0,-48.211 c 0,-6.53 0.934,-7.464 4.977,-8.553 L 90.509,0 l 0,-3.577 -40.276,0 0,3.577 4.818,1.245 c 4.046,1.089 4.666,1.554 4.666,8.553 l 0,43.234 c 0,9.953 -3.576,13.219 -11.818,13.219 -6.377,0 -13.218,-1.866 -17.107,-2.799 l 0,-53.654 c 0,-6.999 0.623,-7.464 4.665,-8.553 L 40.28,0 40.28,-3.577 0,-3.577 0,0 z"
         style="fill:#392d30;fill-opacity:1;fill-rule:nonzero;stroke:none"
         id="path86"
         inkscape:connector-curvature="0" /></g><g
       id="g88"
       transform="translate(327.9765,841.2325)"><path
         d="m 0,0 4.976,1.245 c 4.2,1.243 4.978,2.177 4.978,8.553 l 0,49.919 c 0,6.534 -0.778,6.999 -4.82,9.488 l -5.445,3.265 0,2.645 30.327,3.577 1.399,-0.934 C 31.26,74.959 30.793,68.894 30.793,61.274 l 0,-51.476 c 0,-6.687 0.777,-7.464 4.977,-8.553 L 40.746,0 l 0,-3.577 L 0,-3.577 0,0 z"
         style="fill:#392d30;fill-opacity:1;fill-rule:nonzero;stroke:none"
         id="path90"
         inkscape:connector-curvature="0" /></g><g
       id="g92"
       transform="translate(429.217,876.6909)"><path
         d="m 0,0 c 0,29.859 -6.531,37.791 -18.972,37.791 -11.509,0 -17.885,-8.555 -17.885,-34.369 0,-30.17 6.064,-38.88 18.974,-38.88 C -6.687,-35.458 0,-27.682 0,0 m -59.095,0.934 c 0,28.77 20.059,42.454 40.589,42.454 22.239,0 40.746,-13.529 40.746,-41.523 0,-28.768 -19.906,-42.92 -40.746,-42.92 -22.239,0 -40.589,13.995 -40.589,41.989"
         style="fill:#392d30;fill-opacity:1;fill-rule:nonzero;stroke:none"
         id="path94"
         inkscape:connector-curvature="0" /></g><g
       id="g96"
       transform="translate(453.4792,841.2325)"><path
         d="m 0,0 4.976,1.245 c 4.2,1.243 4.978,2.177 4.978,8.553 l 0,49.919 c 0,6.534 -0.778,6.999 -4.823,9.488 l -5.442,3.265 0,2.645 29.237,3.577 1.398,-0.934 -0.311,-9.642 0.777,0 c 7.933,5.6 18.509,10.576 29.239,10.576 14.153,0 20.527,-6.688 20.527,-20.683 l 0,-48.211 c 0,-6.53 0.933,-7.464 4.975,-8.553 L 90.508,0 l 0,-3.577 -40.278,0 0,3.577 4.822,1.245 c 4.044,1.089 4.666,1.554 4.666,8.553 l 0,43.234 c 0,9.953 -3.577,13.219 -11.818,13.219 -6.376,0 -13.221,-1.866 -17.11,-2.799 l 0,-53.654 c 0,-6.999 0.624,-7.464 4.668,-8.553 L 40.277,0 l 0,-3.577 L 0,-3.577 0,0 z"
         style="fill:#392d30;fill-opacity:1;fill-rule:nonzero;stroke:none"
         id="path98"
         inkscape:connector-curvature="0" /></g><g
       id="g100"
       transform="translate(360.0638,945.3259)"><path
         d="m 0,0 c 0,6.371 -5.167,11.538 -11.539,11.538 -6.373,0 -11.538,-5.167 -11.538,-11.538 0,-6.373 5.165,-11.538 11.538,-11.538 0.702,0 1.387,0.071 2.055,0.193 -1.98,-3.147 -5.455,-6.152 -11.003,-8.637 l 1.033,-2.161 c 9.622,3.35 17.529,10.742 19.138,18.706 C -0.075,-2.06 0,-1.2 0,0"
         style="fill:#d13d18;fill-opacity:1;fill-rule:nonzero;stroke:none"
         id="path102"
         inkscape:connector-curvature="0" /></g><g
       id="g104"
       transform="translate(220.7416,945.0021)"><path
         d="m 0,0 c 0,6.37 -5.165,11.538 -11.538,11.538 -6.373,0 -11.538,-5.168 -11.538,-11.538 0,-6.373 5.165,-11.538 11.538,-11.538 0.702,0 1.388,0.071 2.054,0.193 -1.979,-3.147 -5.455,-6.151 -11.003,-8.637 l 1.034,-2.161 c 9.621,3.349 17.53,10.742 19.138,18.706 C -0.074,-2.06 0,-1.201 0,0"
         style="fill:#d13d18;fill-opacity:1;fill-rule:nonzero;stroke:none"
         id="path106"
         inkscape:connector-curvature="0" /></g><g
       id="g108"
       transform="translate(-5.2022,939.5952)"><path
         d="m 0,0 c 0,8.944 -7.253,16.196 -16.199,16.196 -8.947,0 -16.198,-7.252 -16.198,-16.196 0,-8.948 7.251,-16.198 16.198,-16.198 0.986,0 1.949,0.101 2.885,0.269 -2.779,-4.419 -7.658,-8.637 -15.447,-12.124 l 1.451,-3.034 c 13.508,4.702 24.609,15.083 26.867,26.263 C -0.104,-2.896 0,-1.683 0,0"
         style="fill:#d13d18;fill-opacity:1;fill-rule:nonzero;stroke:none"
         id="path110"
         inkscape:connector-curvature="0" /></g><g
       id="g112"
       transform="translate(90.7484,663.3666)"><path
         d="m 0,0 2.452,0.632 c 1.961,0.49 2.312,0.909 2.312,3.852 l 0,37.618 c 0,3.082 -0.351,3.362 -2.242,4.273 l -2.872,1.331 0,2.242 14.011,1.261 0.909,-0.702 c 0,0 -0.56,-3.363 -0.56,-8.055 l 0,-37.968 c 0,-3.084 0.35,-3.362 2.242,-3.852 L 18.703,0 l 0,-2.452 L 0,-2.452 0,0 z"
         style="fill:#392d30;fill-opacity:1;fill-rule:nonzero;stroke:none"
         id="path114"
         inkscape:connector-curvature="0" /></g><g
       id="g116"
       transform="translate(160.1304,695.7867)"><path
         d="m 0,0 c 0,8.069 -2.295,13.916 -9.845,13.916 -11.03,0 -17.321,-16.802 -17.321,-31.607 0,-8.142 2.294,-13.918 10.215,-13.918 C -6.218,-31.609 0,-15.397 0,0 m -38.121,-14.507 c 0,18.875 14.36,32.198 28.498,32.198 11.399,0 20.504,-7.846 20.504,-21.169 0,-18.949 -13.99,-31.979 -28.202,-31.979 -11.399,0 -20.8,7.922 -20.8,20.95"
         style="fill:#d13d18;fill-opacity:1;fill-rule:nonzero;stroke:none"
         id="path118"
         inkscape:connector-curvature="0" /></g><g
       id="g120"
       transform="translate(201.4323,678.7775)"><path
         d="m 0,0 c 0,10.018 -3.364,13.941 -9.317,13.941 -3.223,0 -5.184,-1.052 -6.515,-1.61 l 0,-25.92 c 1.541,-1.542 3.362,-2.522 6.024,-2.522 C -3.293,-16.111 0,-12.537 0,0 m -29.702,-30.47 2.242,0.629 c 1.89,0.489 2.242,0.91 2.242,3.853 l 0,36.635 c 0,2.945 -0.352,3.154 -2.173,4.273 l -2.451,1.472 0,1.193 13.169,1.61 0.631,-0.42 -0.071,-4.135 0.281,0 c 3.012,2.454 7.005,4.555 11.839,4.555 6.585,0 13.729,-4.203 13.729,-17.164 0,-14.078 -8.265,-20.734 -20.034,-20.734 -1.681,0 -3.923,0.28 -5.604,0.77 0,0 0.07,-1.89 0.07,-4.342 l 0,-3.713 c 0,-3.082 0.28,-3.434 2.171,-3.853 l 3.013,-0.629 0,-1.613 -19.054,0 0,1.613 z"
         style="fill:#392d30;fill-opacity:1;fill-rule:nonzero;stroke:none"
         id="path122"
         inkscape:connector-curvature="0" /></g><g
       id="g124"
       transform="translate(212.9446,662.5248)"><path
         d="m 0,0 2.242,0.562 c 1.891,0.56 2.241,0.98 2.241,3.853 l 0,22.485 c 0,2.944 -0.35,3.153 -2.171,4.273 l -2.452,1.471 0,1.194 13.661,1.61 0.63,-0.421 c -0.07,-1.261 -0.28,-3.993 -0.28,-7.424 l 0,-23.188 c 0,-3.013 0.35,-3.363 2.24,-3.853 L 18.353,0 l 0,-1.61 L 0,-1.61 0,0 z"
         style="fill:#392d30;fill-opacity:1;fill-rule:nonzero;stroke:none"
         id="path126"
         inkscape:connector-curvature="0" /></g><g
       id="g128"
       transform="translate(233.1203,662.5248)"><path
         d="m 0,0 2.242,0.562 c 1.891,0.56 2.241,0.98 2.241,3.853 l 0,22.485 c 0,2.944 -0.35,3.153 -2.171,4.273 l -2.452,1.471 0,1.194 13.17,1.61 0.631,-0.421 -0.14,-4.343 0.35,0 c 3.571,2.522 8.335,4.764 13.169,4.764 6.375,0 9.247,-3.013 9.247,-9.316 l 0,-21.717 c 0,-2.942 0.42,-3.363 2.242,-3.853 L 40.771,0 l 0,-1.61 -18.143,0 0,1.61 2.17,0.562 c 1.823,0.49 2.102,0.699 2.102,3.853 l 0,19.475 c 0,4.483 -1.611,5.954 -5.324,5.954 -2.873,0 -5.954,-0.841 -7.705,-1.261 l 0,-24.168 c 0,-3.154 0.28,-3.363 2.101,-3.853 L 18.144,0 l 0,-1.61 L 0,-1.61 0,0 z"
         style="fill:#392d30;fill-opacity:1;fill-rule:nonzero;stroke:none"
         id="path130"
         inkscape:connector-curvature="0" /></g><g
       id="g132"
       transform="translate(275.7122,662.5248)"><path
         d="m 0,0 2.242,0.562 c 1.891,0.56 2.242,0.98 2.242,3.853 l 0,22.485 c 0,2.944 -0.351,3.153 -2.171,4.273 l -2.453,1.471 0,1.194 13.661,1.61 0.631,-0.421 c -0.071,-1.261 -0.281,-3.993 -0.281,-7.424 l 0,-23.188 c 0,-3.013 0.35,-3.363 2.242,-3.853 L 18.354,0 l 0,-1.61 L 0,-1.61 0,0 z"
         style="fill:#392d30;fill-opacity:1;fill-rule:nonzero;stroke:none"
         id="path134"
         inkscape:connector-curvature="0" /></g><g
       id="g136"
       transform="translate(321.3167,678.4972)"><path
         d="m 0,0 c 0,13.449 -2.942,17.023 -8.546,17.023 -5.185,0 -8.057,-3.854 -8.057,-15.482 0,-13.588 2.732,-17.513 8.548,-17.513 C -3.012,-15.972 0,-12.47 0,0 m -26.62,0.422 c 0,12.96 9.036,19.123 18.283,19.123 10.018,0 18.355,-6.096 18.355,-18.703 0,-12.96 -8.967,-19.334 -18.355,-19.334 -10.017,0 -18.283,6.303 -18.283,18.914"
         style="fill:#392d30;fill-opacity:1;fill-rule:nonzero;stroke:none"
         id="path138"
         inkscape:connector-curvature="0" /></g><g
       id="g140"
       transform="translate(332.2451,662.5248)"><path
         d="m 0,0 2.242,0.562 c 1.891,0.56 2.241,0.98 2.241,3.853 l 0,22.485 c 0,2.944 -0.35,3.153 -2.171,4.273 l -2.452,1.471 0,1.194 13.17,1.61 0.631,-0.421 -0.142,-4.343 0.351,0 c 3.574,2.522 8.337,4.764 13.171,4.764 6.375,0 9.245,-3.013 9.245,-9.316 l 0,-21.717 c 0,-2.942 0.421,-3.363 2.242,-3.853 L 40.769,0 l 0,-1.61 -18.143,0 0,1.61 2.173,0.562 C 26.62,1.052 26.9,1.261 26.9,4.415 l 0,19.475 c 0,4.483 -1.61,5.954 -5.323,5.954 -2.872,0 -5.956,-0.841 -7.707,-1.261 l 0,-24.168 c 0,-3.154 0.281,-3.363 2.102,-3.853 L 18.143,0 l 0,-1.61 L 0,-1.61 0,0 z"
         style="fill:#392d30;fill-opacity:1;fill-rule:nonzero;stroke:none"
         id="path142"
         inkscape:connector-curvature="0" /></g><g
       id="g144"
       transform="translate(290.1657,709.4146)"><path
         d="m 0,0 c 0,2.87 -2.327,5.197 -5.198,5.197 -2.87,0 -5.197,-2.327 -5.197,-5.197 0,-2.871 2.327,-5.197 5.197,-5.197 0.317,0 0.626,0.033 0.926,0.087 -0.892,-1.418 -2.456,-2.771 -4.955,-3.891 l 0.464,-0.974 c 4.334,1.509 7.897,4.84 8.621,8.427 C -0.033,-0.928 0,-0.539 0,0"
         style="fill:#d13d18;fill-opacity:1;fill-rule:nonzero;stroke:none"
         id="path146"
         inkscape:connector-curvature="0" /></g><g
       id="g148"
       transform="translate(227.4085,709.2687)"><path
         d="m 0,0 c 0,2.87 -2.327,5.197 -5.197,5.197 -2.871,0 -5.198,-2.327 -5.198,-5.197 0,-2.871 2.327,-5.197 5.198,-5.197 0.317,0 0.625,0.033 0.926,0.087 -0.892,-1.418 -2.458,-2.771 -4.956,-3.891 l 0.464,-0.974 c 4.334,1.509 7.897,4.84 8.622,8.427 C -0.033,-0.928 0,-0.539 0,0"
         style="fill:#d13d18;fill-opacity:1;fill-rule:nonzero;stroke:none"
         id="path150"
         inkscape:connector-curvature="0" /></g><g
       id="g152"
       transform="translate(124.4645,706.8331)"><path
         d="m 0,0 c 0,4.029 -3.267,7.296 -7.297,7.296 -4.03,0 -7.297,-3.267 -7.297,-7.296 0,-4.032 3.267,-7.297 7.297,-7.297 0.445,0 0.878,0.046 1.3,0.122 -1.252,-1.99 -3.449,-3.891 -6.958,-5.462 l 0.653,-1.367 C -6.217,-11.885 -1.217,-7.209 -0.2,-2.173 -0.047,-1.304 0,-0.759 0,0"
         style="fill:#d13d18;fill-opacity:1;fill-rule:nonzero;stroke:none"
         id="path154"
         inkscape:connector-curvature="0" /></g><g
       id="g156"
       transform="translate(470.3239,576.0599)"><path
         d="m 0,0 c 0,-1.68 0.911,-3.186 2.51,-3.186 1.609,0 2.52,1.483 2.52,3.267 0,1.564 -0.816,3.198 -2.509,3.198 C 0.841,3.279 0,1.727 0,0 m 6.104,0.128 c 0,-2.707 -1.646,-4.143 -3.653,-4.143 -2.077,0 -3.537,1.611 -3.537,3.99 0,2.498 1.553,4.133 3.653,4.133 2.148,0 3.537,-1.647 3.537,-3.98"
         style="fill:#231f20;fill-opacity:1;fill-rule:nonzero;stroke:none"
         id="path158"
         inkscape:connector-curvature="0" /></g><g
       id="g160"
       transform="translate(477.7146,576.0599)"><path
         d="m 0,0 c 0,0.664 -0.012,1.236 -0.047,1.761 l 0.899,0 0.035,-1.108 0.047,0 c 0.257,0.76 0.875,1.237 1.563,1.237 0.117,0 0.199,-0.011 0.292,-0.036 l 0,-0.968 C 2.684,0.911 2.579,0.922 2.439,0.922 1.716,0.922 1.201,0.372 1.061,-0.397 1.039,-0.537 1.016,-0.701 1.016,-0.875 l 0,-3.012 L 0,-3.887 0,0 z"
         style="fill:#231f20;fill-opacity:1;fill-rule:nonzero;stroke:none"
         id="path162"
         inkscape:connector-curvature="0" /></g><g
       id="g164"
       transform="translate(484.4515,575.0558)"><path
         d="m 0,0 c -1.121,0.025 -2.392,-0.174 -2.392,-1.271 0,-0.666 0.443,-0.981 0.968,-0.981 0.735,0 1.201,0.467 1.366,0.944 C -0.025,-1.201 0,-1.085 0,-0.981 L 0,0 z m 0.991,-1.528 c 0,-0.491 0.024,-0.969 0.094,-1.355 l -0.933,0 -0.083,0.714 -0.034,0 c -0.316,-0.445 -0.922,-0.842 -1.728,-0.842 -1.143,0 -1.727,0.805 -1.727,1.623 0,1.365 1.214,2.112 3.395,2.1 l 0,0.117 c 0,0.467 -0.127,1.306 -1.282,1.306 -0.526,0 -1.074,-0.163 -1.471,-0.419 l -0.233,0.676 c 0.467,0.304 1.143,0.502 1.855,0.502 1.727,0 2.147,-1.178 2.147,-2.311 l 0,-2.111 z"
         style="fill:#231f20;fill-opacity:1;fill-rule:nonzero;stroke:none"
         id="path166"
         inkscape:connector-curvature="0" /></g><g
       id="g168"
       transform="translate(487.1019,576.2934)"><path
         d="m 0,0 c 0,0.584 -0.012,1.061 -0.047,1.527 l 0.91,0 0.059,-0.931 0.024,0 c 0.28,0.535 0.934,1.061 1.867,1.061 0.781,0 1.995,-0.467 1.995,-2.405 l 0,-3.372 -1.026,0 0,3.256 c 0,0.91 -0.34,1.669 -1.308,1.669 -0.677,0 -1.201,-0.479 -1.376,-1.05 -0.047,-0.13 -0.07,-0.305 -0.07,-0.479 l 0,-3.396 L 0,-4.12 0,0 z"
         style="fill:#231f20;fill-opacity:1;fill-rule:nonzero;stroke:none"
         id="path170"
         inkscape:connector-curvature="0" /></g><g
       id="g172"
       transform="translate(497.3871,575.5929)"><path
         d="m 0,0 c 0,0.175 -0.013,0.326 -0.06,0.467 -0.185,0.594 -0.687,1.085 -1.433,1.085 -0.981,0 -1.682,-0.829 -1.682,-2.136 0,-1.108 0.561,-2.03 1.669,-2.03 0.63,0 1.201,0.397 1.424,1.049 C -0.025,-1.388 0,-1.19 0,-1.015 L 0,0 z m 1.015,-2.601 c 0,-1.296 -0.257,-2.089 -0.805,-2.58 -0.549,-0.513 -1.343,-0.677 -2.055,-0.677 -0.676,0 -1.423,0.164 -1.878,0.467 l 0.257,0.781 c 0.372,-0.233 0.956,-0.443 1.656,-0.443 1.05,0 1.822,0.548 1.822,1.972 l 0,0.63 -0.025,0 c -0.314,-0.525 -0.921,-0.944 -1.797,-0.944 -1.4,0 -2.404,1.189 -2.404,2.753 0,1.913 1.25,2.999 2.544,2.999 0.981,0 1.517,-0.515 1.762,-0.979 l 0.024,0 0.046,0.85 0.899,0 C 1.037,1.82 1.015,1.365 1.015,0.677 l 0,-3.278 z"
         style="fill:#231f20;fill-opacity:1;fill-rule:nonzero;stroke:none"
         id="path174"
         inkscape:connector-curvature="0" /></g><g
       id="g176"
       transform="translate(503.6909,575.545)"><path
         d="M 0,0 C 0.012,0.655 -0.267,1.67 -1.423,1.67 -2.461,1.67 -2.918,0.713 -2.998,0 L 0,0 z m -3.01,-0.734 c 0.023,-1.389 0.91,-1.961 1.937,-1.961 0.734,0 1.178,0.129 1.563,0.292 L 0.666,-3.137 C 0.304,-3.302 -0.314,-3.5 -1.213,-3.5 c -1.739,0 -2.778,1.156 -2.778,2.859 0,1.703 1.004,3.046 2.649,3.046 1.844,0 2.334,-1.623 2.334,-2.661 0,-0.209 -0.023,-0.373 -0.035,-0.478 l -3.967,0 z"
         style="fill:#231f20;fill-opacity:1;fill-rule:nonzero;stroke:none"
         id="path178"
         inkscape:connector-curvature="0" /></g><path
       d="m 508.048,574.519 6.021,0 0,-0.699 -6.021,0 0,0.699 z m 0,2.287 6.021,0 0,-0.699 -6.021,0 0,0.699 z"
       style="fill:#231f20;fill-opacity:1;fill-rule:nonzero;stroke:none"
       id="path180"
       inkscape:connector-curvature="0" /><g
       id="g182"
       transform="translate(518.9172,576.1534)"><path
         d="m 0,0 c 0.223,-0.058 0.502,-0.082 0.841,-0.082 1.226,0 1.972,0.595 1.972,1.68 0,1.038 -0.735,1.54 -1.856,1.54 C 0.515,3.138 0.176,3.104 0,3.057 L 0,0 z M -1.015,3.792 C -0.524,3.873 0.118,3.944 0.934,3.944 1.937,3.944 2.673,3.711 3.14,3.29 3.572,2.918 3.829,2.344 3.829,1.645 3.829,0.933 3.618,0.372 3.221,-0.036 2.684,-0.608 1.81,-0.899 0.817,-0.899 0.515,-0.899 0.234,-0.887 0,-0.829 l 0,-3.151 -1.015,0 0,7.772 z"
         style="fill:#231f20;fill-opacity:1;fill-rule:nonzero;stroke:none"
         id="path184"
         inkscape:connector-curvature="0" /></g><g
       id="g186"
       transform="translate(526.7516,575.0558)"><path
         d="m 0,0 c -1.121,0.025 -2.392,-0.174 -2.392,-1.271 0,-0.666 0.443,-0.981 0.968,-0.981 0.735,0 1.202,0.467 1.366,0.944 C -0.023,-1.201 0,-1.085 0,-0.981 L 0,0 z m 0.992,-1.528 c 0,-0.491 0.023,-0.969 0.094,-1.355 l -0.934,0 -0.082,0.714 -0.035,0 c -0.315,-0.445 -0.922,-0.842 -1.727,-0.842 -1.144,0 -1.728,0.805 -1.728,1.623 0,1.365 1.216,2.112 3.397,2.1 l 0,0.117 c 0,0.467 -0.129,1.306 -1.284,1.306 -0.525,0 -1.074,-0.163 -1.471,-0.419 l -0.233,0.676 c 0.467,0.304 1.144,0.502 1.856,0.502 1.726,0 2.147,-1.178 2.147,-2.311 l 0,-2.111 z"
         style="fill:#231f20;fill-opacity:1;fill-rule:nonzero;stroke:none"
         id="path188"
         inkscape:connector-curvature="0" /></g><g
       id="g190"
       transform="translate(529.4032,576.2934)"><path
         d="m 0,0 c 0,0.584 -0.012,1.061 -0.047,1.527 l 0.91,0 0.059,-0.931 0.023,0 c 0.281,0.535 0.934,1.061 1.868,1.061 0.781,0 1.995,-0.467 1.995,-2.405 l 0,-3.372 -1.027,0 0,3.256 c 0,0.91 -0.339,1.669 -1.307,1.669 -0.677,0 -1.201,-0.479 -1.378,-1.05 C 1.05,-0.375 1.028,-0.55 1.028,-0.724 l 0,-3.396 L 0,-4.12 0,0 z"
         style="fill:#231f20;fill-opacity:1;fill-rule:nonzero;stroke:none"
         id="path192"
         inkscape:connector-curvature="0" /></g><g
       id="g194"
       transform="translate(537.0742,579.1761)"><path
         d="m 0,0 0,-1.356 1.47,0 0,-0.782 -1.47,0 0,-3.044 c 0,-0.7 0.198,-1.096 0.769,-1.096 0.281,0 0.444,0.022 0.596,0.069 l 0.047,-0.77 C 1.213,-7.06 0.899,-7.132 0.502,-7.132 c -0.479,0 -0.864,0.165 -1.109,0.445 -0.292,0.304 -0.396,0.805 -0.396,1.47 l 0,3.079 -0.876,0 0,0.782 0.876,0 0,1.041 L 0,0 z"
         style="fill:#231f20;fill-opacity:1;fill-rule:nonzero;stroke:none"
         id="path196"
         inkscape:connector-curvature="0" /></g><g
       id="g198"
       transform="translate(540.2617,574.9869)"><path
         d="m 0,0 c 0,-1.239 0.711,-2.172 1.714,-2.172 0.981,0 1.716,0.922 1.716,2.194 C 3.43,0.98 2.952,2.194 1.739,2.194 0.524,2.194 0,1.073 0,0 m 4.48,0.056 c 0,-2.089 -1.447,-2.998 -2.813,-2.998 -1.527,0 -2.706,1.121 -2.706,2.906 0,1.891 1.236,2.999 2.8,2.999 1.623,0 2.719,-1.178 2.719,-2.907"
         style="fill:#231f20;fill-opacity:1;fill-rule:nonzero;stroke:none"
         id="path200"
         inkscape:connector-curvature="0" /></g><g
       id="g202"
       transform="translate(546.0412,576.2934)"><path
         d="m 0,0 c 0,0.584 -0.012,1.061 -0.047,1.527 l 0.91,0 0.059,-0.931 0.023,0 c 0.281,0.535 0.934,1.061 1.868,1.061 0.781,0 1.995,-0.467 1.995,-2.405 l 0,-3.372 -1.027,0 0,3.256 c 0,0.91 -0.339,1.669 -1.307,1.669 -0.677,0 -1.201,-0.479 -1.378,-1.05 C 1.05,-0.375 1.027,-0.55 1.027,-0.724 l 0,-3.396 L 0,-4.12 0,0 z"
         style="fill:#231f20;fill-opacity:1;fill-rule:nonzero;stroke:none"
         id="path204"
         inkscape:connector-curvature="0" /></g><g
       id="g206"
       transform="translate(556.1033,575.545)"><path
         d="M 0,0 C 0.012,0.655 -0.268,1.67 -1.424,1.67 -2.462,1.67 -2.918,0.713 -2.998,0 L 0,0 z m -3.01,-0.734 c 0.022,-1.389 0.91,-1.961 1.936,-1.961 0.735,0 1.179,0.129 1.564,0.292 L 0.664,-3.137 C 0.304,-3.302 -0.315,-3.5 -1.213,-3.5 c -1.739,0 -2.778,1.156 -2.778,2.859 0,1.703 1.003,3.046 2.648,3.046 1.845,0 2.334,-1.623 2.334,-2.661 0,-0.209 -0.022,-0.373 -0.035,-0.478 l -3.966,0 z"
         style="fill:#231f20;fill-opacity:1;fill-rule:nonzero;stroke:none"
         id="path208"
         inkscape:connector-curvature="0" /></g><g
       id="g210"
       transform="translate(562.7468,578.8014)"><path
         d="m 0,0 -0.022,0 -1.319,-0.711 -0.199,0.782 1.658,0.888 0.874,0 0,-7.587 L 0,-6.628 0,0 z"
         style="fill:#231f20;fill-opacity:1;fill-rule:nonzero;stroke:none"
         id="path212"
         inkscape:connector-curvature="0" /></g><g
       id="g214"
       transform="translate(569.0751,572.8386)"><path
         d="m 0,0 c 0.876,0 1.471,0.736 1.471,1.82 0,1.085 -0.619,1.74 -1.564,1.74 -0.618,0 -1.19,-0.385 -1.47,-0.934 C -1.633,2.509 -1.68,2.357 -1.68,2.171 -1.657,0.922 -1.085,0 -0.012,0 L 0,0 z M 1.762,6.196 C 1.552,6.208 1.284,6.196 0.992,6.15 -0.618,5.881 -1.47,4.703 -1.645,3.455 l 0.035,0 c 0.362,0.479 0.992,0.876 1.833,0.876 1.342,0 2.287,-0.97 2.287,-2.452 0,-1.389 -0.945,-2.673 -2.522,-2.673 -1.621,0 -2.683,1.261 -2.683,3.234 0,1.494 0.537,2.672 1.283,3.418 0.63,0.619 1.47,1.004 2.428,1.119 0.303,0.048 0.56,0.06 0.746,0.06 l 0,-0.841 z"
         style="fill:#231f20;fill-opacity:1;fill-rule:nonzero;stroke:none"
         id="path216"
         inkscape:connector-curvature="0" /></g><g
       id="g218"
       transform="translate(575.0648,572.8386)"><path
         d="m 0,0 c 0.876,0 1.471,0.736 1.471,1.82 0,1.085 -0.619,1.74 -1.564,1.74 -0.618,0 -1.19,-0.385 -1.47,-0.934 C -1.633,2.509 -1.68,2.357 -1.68,2.171 -1.657,0.922 -1.086,0 -0.012,0 L 0,0 z M 1.763,6.196 C 1.552,6.208 1.284,6.196 0.992,6.15 -0.618,5.881 -1.47,4.703 -1.645,3.455 l 0.035,0 c 0.362,0.479 0.992,0.876 1.833,0.876 1.342,0 2.286,-0.97 2.286,-2.452 0,-1.389 -0.944,-2.673 -2.521,-2.673 -1.621,0 -2.683,1.261 -2.683,3.234 0,1.494 0.536,2.672 1.283,3.418 0.63,0.619 1.47,1.004 2.427,1.119 0.304,0.048 0.561,0.06 0.748,0.06 l 0,-0.841 z"
         style="fill:#231f20;fill-opacity:1;fill-rule:nonzero;stroke:none"
         id="path220"
         inkscape:connector-curvature="0" /></g><g
       id="g222"
       transform="translate(582.34,580.039)"><path
         d="m 0,0 0,-4.656 c 0,-1.762 0.782,-2.509 1.832,-2.509 1.166,0 1.914,0.769 1.914,2.509 l 0,4.656 1.026,0 0,-4.586 c 0,-2.416 -1.27,-3.408 -2.975,-3.408 -1.61,0 -2.823,0.922 -2.823,3.361 L -1.026,0 0,0 z"
         style="fill:#231f20;fill-opacity:1;fill-rule:nonzero;stroke:none"
         id="path224"
         inkscape:connector-curvature="0" /></g><g
       id="g226"
       transform="translate(475.6924,558.5125)"><path
         d="m 0,0 c -0.455,-0.162 -1.353,-0.431 -2.416,-0.431 -1.19,0 -2.17,0.304 -2.941,1.038 -0.676,0.654 -1.097,1.704 -1.097,2.93 0.013,2.344 1.623,4.059 4.26,4.059 0.91,0 1.623,-0.198 1.96,-0.359 L -0.479,6.406 c -0.42,0.187 -0.945,0.34 -1.738,0.34 -1.914,0 -3.163,-1.191 -3.163,-3.163 0,-1.995 1.202,-3.174 3.034,-3.174 0.665,0 1.12,0.093 1.354,0.21 l 0,2.345 -1.599,0 0,0.818 L 0,3.782 0,0 z"
         style="fill:#231f20;fill-opacity:1;fill-rule:nonzero;stroke:none"
         id="path228"
         inkscape:connector-curvature="0" /></g><g
       id="g230"
       transform="translate(477.2126,562.049)"><path
         d="m 0,0 c 0,0.664 -0.01,1.236 -0.047,1.761 l 0.899,0 0.035,-1.108 0.047,0 c 0.257,0.76 0.875,1.237 1.563,1.237 0.118,0 0.199,-0.011 0.292,-0.036 l 0,-0.968 C 2.684,0.911 2.579,0.922 2.439,0.922 1.716,0.922 1.203,0.372 1.062,-0.397 1.039,-0.537 1.017,-0.701 1.017,-0.875 l 0,-3.012 L 0,-3.887 0,0 z"
         style="fill:#231f20;fill-opacity:1;fill-rule:nonzero;stroke:none"
         id="path232"
         inkscape:connector-curvature="0" /></g><path
       d="m 481.077,563.81 1.028,0 0,-5.648 -1.028,0 0,5.648 z m 1.144,1.588 c 0.011,-0.349 -0.245,-0.63 -0.653,-0.63 -0.362,0 -0.618,0.281 -0.618,0.63 0,0.362 0.267,0.642 0.641,0.642 0.385,0 0.63,-0.28 0.63,-0.642"
       style="fill:#231f20;fill-opacity:1;fill-rule:nonzero;stroke:none"
       id="path234"
       inkscape:connector-curvature="0" /><g
       id="g236"
       transform="translate(483.6693,559.213)"><path
         d="m 0,0 c 0.304,-0.198 0.841,-0.409 1.353,-0.409 0.748,0 1.098,0.375 1.098,0.841 0,0.489 -0.292,0.758 -1.051,1.039 -1.015,0.361 -1.493,0.921 -1.493,1.599 0,0.909 0.735,1.656 1.949,1.656 0.571,0 1.073,-0.163 1.388,-0.35 L 2.987,3.629 C 2.766,3.769 2.357,3.957 1.832,3.957 1.226,3.957 0.887,3.605 0.887,3.185 0.887,2.718 1.226,2.508 1.96,2.229 2.94,1.857 3.442,1.366 3.442,0.524 c 0,-0.992 -0.769,-1.703 -2.112,-1.703 -0.618,0 -1.19,0.164 -1.587,0.397 L 0,0 z"
         style="fill:#231f20;fill-opacity:1;fill-rule:nonzero;stroke:none"
         id="path238"
         inkscape:connector-curvature="0" /></g><g
       id="g240"
       transform="translate(491.0133,558.1622)"><path
         d="m 0,0 0,4.865 -0.794,0 0,0.783 0.794,0 0,0.269 C 0,6.711 0.175,7.434 0.653,7.889 1.038,8.263 1.552,8.415 2.03,8.415 2.392,8.415 2.708,8.332 2.906,8.25 L 2.766,7.457 C 2.614,7.527 2.403,7.587 2.112,7.587 1.236,7.587 1.016,6.815 1.016,5.951 l 0,-0.303 1.365,0 0,-0.783 -1.365,0 L 1.016,0 0,0 z"
         style="fill:#231f20;fill-opacity:1;fill-rule:nonzero;stroke:none"
         id="path242"
         inkscape:connector-curvature="0" /></g><g
       id="g244"
       transform="translate(494.7963,560.976)"><path
         d="m 0,0 c 0,-1.239 0.711,-2.172 1.715,-2.172 0.981,0 1.717,0.922 1.717,2.194 0,0.958 -0.48,2.172 -1.694,2.172 C 0.524,2.194 0,1.073 0,0 m 4.481,0.056 c 0,-2.089 -1.446,-2.998 -2.813,-2.998 -1.528,0 -2.707,1.121 -2.707,2.906 0,1.891 1.237,2.999 2.801,2.999 1.623,0 2.719,-1.178 2.719,-2.907"
         style="fill:#231f20;fill-opacity:1;fill-rule:nonzero;stroke:none"
         id="path246"
         inkscape:connector-curvature="0" /></g><g
       id="g248"
       transform="translate(500.5757,562.2825)"><path
         d="m 0,0 c 0,0.584 -0.012,1.061 -0.047,1.527 l 0.911,0 0.058,-0.932 0.024,0 c 0.28,0.536 0.934,1.062 1.867,1.062 0.781,0 1.995,-0.467 1.995,-2.405 l 0,-3.372 -1.026,0 0,3.256 c 0,0.91 -0.339,1.668 -1.308,1.668 -0.677,0 -1.201,-0.478 -1.377,-1.049 -0.046,-0.13 -0.07,-0.305 -0.07,-0.479 l 0,-3.396 L 0,-4.12 0,0 z"
         style="fill:#231f20;fill-opacity:1;fill-rule:nonzero;stroke:none"
         id="path250"
         inkscape:connector-curvature="0" /></g><g
       id="g252"
       transform="translate(511.0816,558.3723)"><path
         d="m 0,0 c -0.267,-0.14 -0.863,-0.339 -1.622,-0.339 -1.703,0 -2.812,1.168 -2.812,2.895 0,1.74 1.191,2.999 3.034,2.999 0.607,0 1.144,-0.151 1.423,-0.292 L -0.209,4.469 c -0.245,0.141 -0.63,0.269 -1.191,0.269 -1.295,0 -1.995,-0.957 -1.995,-2.134 0,-1.308 0.84,-2.114 1.96,-2.114 0.584,0 0.969,0.152 1.26,0.279 L 0,0 z"
         style="fill:#231f20;fill-opacity:1;fill-rule:nonzero;stroke:none"
         id="path254"
         inkscape:connector-curvature="0" /></g><g
       id="g256"
       transform="translate(516.0438,566.25)"><path
         d="m 0,0 -1.423,-1.669 -0.735,0 L -1.131,0 0,0 z m -0.245,-4.716 c 0.011,0.655 -0.268,1.67 -1.423,1.67 -1.038,0 -1.495,-0.957 -1.576,-1.67 l 2.999,0 z m -3.01,-0.734 c 0.023,-1.389 0.911,-1.961 1.936,-1.961 0.735,0 1.179,0.129 1.564,0.292 L 0.42,-7.853 c -0.362,-0.165 -0.979,-0.363 -1.878,-0.363 -1.739,0 -2.778,1.156 -2.778,2.859 0,1.704 1.004,3.046 2.649,3.046 1.844,0 2.334,-1.623 2.334,-2.661 0,-0.209 -0.023,-0.373 -0.035,-0.478 l -3.967,0 z"
         style="fill:#231f20;fill-opacity:1;fill-rule:nonzero;stroke:none"
         id="path258"
         inkscape:connector-curvature="0" /></g><path
       d="m 520.156,560.508 6.021,0 0,-0.699 -6.021,0 0,0.699 z m 0,2.287 6.021,0 0,-0.699 -6.021,0 0,0.699 z"
       style="fill:#231f20;fill-opacity:1;fill-rule:nonzero;stroke:none"
       id="path260"
       inkscape:connector-curvature="0" /><g
       id="g262"
       transform="translate(531.025,562.1425)"><path
         d="m 0,0 c 0.223,-0.058 0.502,-0.082 0.841,-0.082 1.226,0 1.973,0.595 1.973,1.68 0,1.038 -0.736,1.54 -1.857,1.54 C 0.515,3.138 0.176,3.105 0,3.057 L 0,0 z M -1.015,3.792 C -0.524,3.873 0.118,3.944 0.934,3.944 1.938,3.944 2.673,3.711 3.14,3.29 3.572,2.918 3.828,2.344 3.828,1.645 3.828,0.933 3.618,0.372 3.221,-0.036 2.684,-0.608 1.81,-0.899 0.818,-0.899 0.515,-0.899 0.235,-0.887 0,-0.829 l 0,-3.151 -1.015,0 0,7.772 z"
         style="fill:#231f20;fill-opacity:1;fill-rule:nonzero;stroke:none"
         id="path264"
         inkscape:connector-curvature="0" /></g><g
       id="g266"
       transform="translate(538.8582,561.0449)"><path
         d="m 0,0 c -1.121,0.025 -2.391,-0.174 -2.391,-1.271 0,-0.666 0.442,-0.981 0.968,-0.981 0.735,0 1.201,0.467 1.366,0.944 C -0.023,-1.201 0,-1.085 0,-0.981 L 0,0 z m 0.992,-1.528 c 0,-0.491 0.023,-0.969 0.094,-1.355 l -0.934,0 -0.082,0.714 -0.034,0 c -0.316,-0.445 -0.922,-0.842 -1.728,-0.842 -1.143,0 -1.727,0.805 -1.727,1.623 0,1.365 1.215,2.112 3.396,2.1 l 0,0.117 c 0,0.467 -0.129,1.307 -1.283,1.307 -0.526,0 -1.075,-0.164 -1.472,-0.42 l -0.233,0.676 c 0.468,0.304 1.144,0.502 1.856,0.502 1.727,0 2.147,-1.178 2.147,-2.311 l 0,-2.111 z"
         style="fill:#231f20;fill-opacity:1;fill-rule:nonzero;stroke:none"
         id="path268"
         inkscape:connector-curvature="0" /></g><g
       id="g270"
       transform="translate(541.511,562.2825)"><path
         d="m 0,0 c 0,0.584 -0.012,1.061 -0.047,1.527 l 0.91,0 0.059,-0.932 0.023,0 c 0.281,0.536 0.934,1.062 1.868,1.062 0.781,0 1.995,-0.467 1.995,-2.405 l 0,-3.372 -1.027,0 0,3.256 c 0,0.91 -0.339,1.668 -1.307,1.668 C 1.797,0.804 1.273,0.326 1.096,-0.245 1.05,-0.375 1.027,-0.55 1.027,-0.724 l 0,-3.396 L 0,-4.12 0,0 z"
         style="fill:#231f20;fill-opacity:1;fill-rule:nonzero;stroke:none"
         id="path272"
         inkscape:connector-curvature="0" /></g><g
       id="g274"
       transform="translate(549.1807,565.1652)"><path
         d="m 0,0 0,-1.356 1.47,0 0,-0.782 -1.47,0 0,-3.044 c 0,-0.7 0.199,-1.096 0.769,-1.096 0.282,0 0.444,0.022 0.596,0.069 l 0.047,-0.77 C 1.213,-7.06 0.899,-7.132 0.502,-7.132 c -0.479,0 -0.863,0.165 -1.108,0.445 -0.292,0.304 -0.397,0.805 -0.397,1.47 l 0,3.079 -0.876,0 0,0.782 0.876,0 0,1.041 L 0,0 z"
         style="fill:#231f20;fill-opacity:1;fill-rule:nonzero;stroke:none"
         id="path276"
         inkscape:connector-curvature="0" /></g><g
       id="g278"
       transform="translate(552.3694,560.976)"><path
         d="m 0,0 c 0,-1.239 0.711,-2.172 1.714,-2.172 0.981,0 1.716,0.922 1.716,2.194 C 3.43,0.98 2.952,2.194 1.739,2.194 0.524,2.194 0,1.073 0,0 m 4.481,0.056 c 0,-2.089 -1.448,-2.998 -2.814,-2.998 -1.527,0 -2.706,1.121 -2.706,2.906 0,1.891 1.237,2.999 2.8,2.999 1.623,0 2.72,-1.178 2.72,-2.907"
         style="fill:#231f20;fill-opacity:1;fill-rule:nonzero;stroke:none"
         id="path280"
         inkscape:connector-curvature="0" /></g><g
       id="g282"
       transform="translate(558.1489,562.2825)"><path
         d="m 0,0 c 0,0.584 -0.012,1.061 -0.047,1.527 l 0.91,0 0.059,-0.932 0.023,0 c 0.281,0.536 0.934,1.062 1.868,1.062 0.781,0 1.995,-0.467 1.995,-2.405 l 0,-3.372 -1.027,0 0,3.256 c 0,0.91 -0.339,1.668 -1.307,1.668 C 1.797,0.804 1.273,0.326 1.096,-0.245 1.05,-0.375 1.027,-0.55 1.027,-0.724 l 0,-3.396 L 0,-4.12 0,0 z"
         style="fill:#231f20;fill-opacity:1;fill-rule:nonzero;stroke:none"
         id="path284"
         inkscape:connector-curvature="0" /></g><g
       id="g286"
       transform="translate(568.2111,561.5341)"><path
         d="M 0,0 C 0.012,0.655 -0.267,1.67 -1.424,1.67 -2.461,1.67 -2.918,0.713 -2.998,0 L 0,0 z m -3.01,-0.734 c 0.022,-1.389 0.91,-1.961 1.937,-1.961 0.734,0 1.178,0.129 1.563,0.292 L 0.664,-3.137 C 0.304,-3.302 -0.315,-3.5 -1.213,-3.5 c -1.739,0 -2.778,1.156 -2.778,2.859 0,1.703 1.003,3.046 2.65,3.046 1.843,0 2.333,-1.623 2.333,-2.661 0,-0.209 -0.023,-0.373 -0.036,-0.478 l -3.966,0 z"
         style="fill:#231f20;fill-opacity:1;fill-rule:nonzero;stroke:none"
         id="path288"
         inkscape:connector-curvature="0" /></g><g
       id="g290"
       transform="translate(575.8004,561.032)"><path
         d="M 0,0 0,2.534 C 0,2.931 0.013,3.328 0.035,3.725 L 0,3.725 C -0.232,3.28 -0.419,2.954 -0.629,2.604 L -2.486,0.025 -2.486,0 0,0 z m 0,-2.87 0,2.065 -3.524,0 0,0.678 3.384,4.844 1.109,0 0,-4.717 1.061,0 0,-0.805 -1.061,0 0,-2.065 -0.969,0 z"
         style="fill:#231f20;fill-opacity:1;fill-rule:nonzero;stroke:none"
         id="path292"
         inkscape:connector-curvature="0" /></g><g
       id="g294"
       transform="translate(580.8443,564.7905)"><path
         d="m 0,0 -0.022,0 -1.32,-0.711 -0.198,0.782 1.658,0.888 0.874,0 0,-7.587 L 0,-6.628 0,0 z"
         style="fill:#231f20;fill-opacity:1;fill-rule:nonzero;stroke:none"
         id="path296"
         inkscape:connector-curvature="0" /></g><g
       id="g298"
       transform="translate(584.6062,558.1622)"><path
         d="m 0,0 0,0.63 0.804,0.783 c 1.939,1.843 2.813,2.823 2.824,3.967 0,0.77 -0.373,1.482 -1.505,1.482 -0.688,0 -1.26,-0.349 -1.61,-0.641 L 0.186,6.944 c 0.525,0.444 1.272,0.77 2.147,0.77 1.633,0 2.322,-1.12 2.322,-2.205 0,-1.4 -1.014,-2.533 -2.613,-4.073 l -0.607,-0.561 0,-0.023 3.407,0 L 4.842,0 0,0 z"
         style="fill:#231f20;fill-opacity:1;fill-rule:nonzero;stroke:none"
         id="path300"
         inkscape:connector-curvature="0" /></g><g
       id="g302"
       transform="translate(594.4477,566.0281)"><path
         d="m 0,0 0,-4.656 c 0,-1.762 0.782,-2.509 1.832,-2.509 1.166,0 1.914,0.769 1.914,2.509 l 0,4.656 1.027,0 0,-4.586 c 0,-2.416 -1.271,-3.408 -2.976,-3.408 -1.61,0 -2.823,0.922 -2.823,3.361 L -1.026,0 0,0 z"
         style="fill:#231f20;fill-opacity:1;fill-rule:nonzero;stroke:none"
         id="path304"
         inkscape:connector-curvature="0" /></g><g
       id="g306"
       transform="translate(472.7839,671.8724)"><path
         d="m 0,0 -5.415,-2.778 0,0.806 4.598,2.287 0,0.024 -4.598,2.287 0,0.806 L 0,0.654 0,0 z"
         style="fill:#231f20;fill-opacity:1;fill-rule:nonzero;stroke:none"
         id="path308"
         inkscape:connector-curvature="0" /></g><g
       id="g310"
       transform="translate(477.9003,671.3937)"><path
         d="m 0,0 c 0,-0.152 0.023,-0.292 0.046,-0.419 0.188,-0.714 0.806,-1.203 1.541,-1.203 1.084,0 1.715,0.886 1.715,2.181 0,1.133 -0.594,2.102 -1.68,2.102 C 0.921,2.661 0.269,2.16 0.07,1.388 0.035,1.26 0,1.108 0,0.969 L 0,0 z m -1.016,1.505 c 0,0.724 -0.022,1.308 -0.046,1.844 l 0.922,0 0.047,-0.968 0.023,0 c 0.42,0.689 1.086,1.096 2.007,1.096 1.365,0 2.391,-1.155 2.391,-2.871 0,-2.029 -1.235,-3.033 -2.566,-3.033 -0.746,0 -1.4,0.327 -1.739,0.887 l -0.023,0 0,-3.068 -1.016,0 0,6.113 z"
         style="fill:#231f20;fill-opacity:1;fill-rule:nonzero;stroke:none"
         id="path312"
         inkscape:connector-curvature="0" /></g><g
       id="g314"
       transform="translate(484.1584,671.9062)"><path
         d="m 0,0 c 0,-1.235 0.711,-2.169 1.714,-2.169 0.981,0 1.716,0.921 1.716,2.194 0,0.956 -0.478,2.17 -1.691,2.17 C 0.524,2.195 0,1.074 0,0 m 4.481,0.06 c 0,-2.089 -1.448,-3 -2.814,-3 -1.527,0 -2.706,1.121 -2.706,2.906 0,1.89 1.237,2.998 2.801,2.998 1.622,0 2.719,-1.178 2.719,-2.904"
         style="fill:#231f20;fill-opacity:1;fill-rule:nonzero;stroke:none"
         id="path316"
         inkscape:connector-curvature="0" /></g><g
       id="g318"
       transform="translate(494.6644,670.6359)"><path
         d="m 0,0 c 0,-0.584 0.012,-1.097 0.047,-1.541 l -0.91,0 -0.058,0.922 -0.025,0 c -0.267,-0.455 -0.863,-1.051 -1.866,-1.051 -0.887,0 -1.949,0.491 -1.949,2.475 l 0,3.301 1.027,0 0,-3.126 c 0,-1.075 0.327,-1.797 1.26,-1.797 0.688,0 1.167,0.477 1.354,0.933 0.059,0.151 0.092,0.338 0.092,0.525 l 0,3.465 L 0,4.106 0,0 z"
         style="fill:#231f20;fill-opacity:1;fill-rule:nonzero;stroke:none"
         id="path320"
         inkscape:connector-curvature="0" /></g><g
       id="g322"
       transform="translate(496.3713,672.9804)"><path
         d="m 0,0 c 0,0.666 -0.012,1.238 -0.047,1.762 l 0.898,0 0.035,-1.108 0.048,0 C 1.19,1.412 1.809,1.89 2.496,1.89 2.614,1.89 2.695,1.88 2.788,1.855 l 0,-0.968 C 2.684,0.911 2.579,0.922 2.439,0.922 1.715,0.922 1.201,0.375 1.061,-0.397 1.038,-0.537 1.016,-0.699 1.016,-0.876 l 0,-3.01 L 0,-3.886 0,0 z"
         style="fill:#231f20;fill-opacity:1;fill-rule:nonzero;stroke:none"
         id="path324"
         inkscape:connector-curvature="0" /></g><g
       id="g326"
       transform="translate(507.3898,670.6359)"><path
         d="m 0,0 c 0,-0.584 0.012,-1.097 0.047,-1.541 l -0.91,0 -0.058,0.922 -0.024,0 c -0.268,-0.455 -0.864,-1.051 -1.867,-1.051 -0.887,0 -1.949,0.491 -1.949,2.475 l 0,3.301 1.027,0 0,-3.126 c 0,-1.075 0.327,-1.797 1.26,-1.797 0.689,0 1.167,0.477 1.354,0.933 0.059,0.151 0.092,0.338 0.092,0.525 l 0,3.465 L 0,4.106 0,0 z"
         style="fill:#231f20;fill-opacity:1;fill-rule:nonzero;stroke:none"
         id="path328"
         inkscape:connector-curvature="0" /></g><g
       id="g330"
       transform="translate(510.3344,676.0967)"><path
         d="m 0,0 0,-1.354 1.469,0 0,-0.781 -1.469,0 0,-3.046 c 0,-0.701 0.198,-1.097 0.769,-1.097 0.281,0 0.444,0.023 0.596,0.07 L 1.412,-6.979 C 1.213,-7.06 0.898,-7.13 0.501,-7.13 c -0.479,0 -0.863,0.163 -1.108,0.443 -0.292,0.303 -0.397,0.805 -0.397,1.47 l 0,3.082 -0.876,0 0,0.781 0.876,0 0,1.039 L 0,0 z"
         style="fill:#231f20;fill-opacity:1;fill-rule:nonzero;stroke:none"
         id="path332"
         inkscape:connector-curvature="0" /></g><path
       d="m 512.963,674.742 1.027,0 0,-5.648 -1.027,0 0,5.648 z m 1.143,1.587 c 0.011,-0.349 -0.246,-0.629 -0.653,-0.629 -0.362,0 -0.619,0.28 -0.619,0.629 0,0.363 0.269,0.642 0.641,0.642 0.385,0 0.631,-0.279 0.631,-0.642"
       style="fill:#231f20;fill-opacity:1;fill-rule:nonzero;stroke:none"
       id="path334"
       inkscape:connector-curvature="0" /><path
       d="m 515.695,677.38 1.026,0 0,-8.285 -1.026,0 0,8.285 z"
       style="fill:#231f20;fill-opacity:1;fill-rule:nonzero;stroke:none"
       id="path336"
       inkscape:connector-curvature="0" /><path
       d="m 518.45,674.742 1.027,0 0,-5.648 -1.027,0 0,5.648 z m 1.143,1.587 c 0.012,-0.349 -0.245,-0.629 -0.653,-0.629 -0.361,0 -0.618,0.28 -0.618,0.629 0,0.363 0.268,0.642 0.641,0.642 0.385,0 0.63,-0.279 0.63,-0.642"
       style="fill:#231f20;fill-opacity:1;fill-rule:nonzero;stroke:none"
       id="path338"
       inkscape:connector-curvature="0" /><g
       id="g340"
       transform="translate(521.0423,670.1456)"><path
         d="m 0,0 c 0.302,-0.199 0.839,-0.409 1.353,-0.409 0.746,0 1.098,0.373 1.098,0.841 0,0.49 -0.292,0.758 -1.051,1.038 -1.015,0.362 -1.494,0.921 -1.494,1.6 0,0.909 0.735,1.655 1.949,1.655 0.572,0 1.073,-0.162 1.388,-0.349 L 2.987,3.629 C 2.766,3.769 2.357,3.956 1.832,3.956 1.225,3.956 0.886,3.605 0.886,3.185 0.886,2.719 1.225,2.508 1.96,2.229 2.94,1.854 3.442,1.366 3.442,0.525 c 0,-0.992 -0.77,-1.704 -2.112,-1.704 -0.618,0 -1.19,0.163 -1.587,0.397 L 0,0 z"
         style="fill:#231f20;fill-opacity:1;fill-rule:nonzero;stroke:none"
         id="path342"
         inkscape:connector-curvature="0" /></g><g
       id="g344"
       transform="translate(528.7809,671.9775)"><path
         d="m 0,0 c -1.12,0.022 -2.391,-0.175 -2.391,-1.273 0,-0.664 0.443,-0.979 0.968,-0.979 0.735,0 1.201,0.467 1.366,0.945 C -0.023,-1.201 0,-1.086 0,-0.981 L 0,0 z m 0.992,-1.53 c 0,-0.49 0.024,-0.967 0.094,-1.353 l -0.934,0 -0.082,0.713 -0.034,0 c -0.316,-0.444 -0.922,-0.841 -1.728,-0.841 -1.143,0 -1.727,0.805 -1.727,1.622 0,1.364 1.215,2.112 3.396,2.1 l 0,0.118 c 0,0.466 -0.128,1.306 -1.284,1.306 -0.525,0 -1.074,-0.163 -1.469,-0.42 l -0.235,0.677 c 0.468,0.304 1.144,0.501 1.856,0.501 1.727,0 2.147,-1.178 2.147,-2.309 l 0,-2.114 z"
         style="fill:#231f20;fill-opacity:1;fill-rule:nonzero;stroke:none"
         id="path346"
         inkscape:connector-curvature="0" /></g><g
       id="g348"
       transform="translate(532.6234,676.0967)"><path
         d="m 0,0 0,-1.354 1.469,0 0,-0.781 -1.469,0 0,-3.046 c 0,-0.701 0.197,-1.097 0.769,-1.097 0.281,0 0.444,0.023 0.595,0.07 L 1.412,-6.979 C 1.213,-7.06 0.898,-7.13 0.501,-7.13 c -0.479,0 -0.863,0.163 -1.108,0.443 -0.292,0.303 -0.397,0.805 -0.397,1.47 l 0,3.082 -0.876,0 0,0.781 0.876,0 0,1.039 L 0,0 z"
         style="fill:#231f20;fill-opacity:1;fill-rule:nonzero;stroke:none"
         id="path350"
         inkscape:connector-curvature="0" /></g><path
       d="m 535.252,674.742 1.026,0 0,-5.648 -1.026,0 0,5.648 z m 1.143,1.587 c 0.011,-0.349 -0.246,-0.629 -0.654,-0.629 -0.361,0 -0.618,0.28 -0.618,0.629 0,0.363 0.269,0.642 0.641,0.642 0.385,0 0.631,-0.279 0.631,-0.642"
       style="fill:#231f20;fill-opacity:1;fill-rule:nonzero;stroke:none"
       id="path352"
       inkscape:connector-curvature="0" /><g
       id="g354"
       transform="translate(538.613,671.9062)"><path
         d="m 0,0 c 0,-1.235 0.712,-2.169 1.715,-2.169 0.981,0 1.717,0.921 1.717,2.194 0,0.956 -0.479,2.17 -1.692,2.17 C 0.525,2.195 0,1.074 0,0 m 4.481,0.06 c 0,-2.089 -1.446,-3 -2.813,-3 -1.527,0 -2.706,1.121 -2.706,2.906 0,1.89 1.236,2.998 2.8,2.998 1.623,0 2.719,-1.178 2.719,-2.904"
         style="fill:#231f20;fill-opacity:1;fill-rule:nonzero;stroke:none"
         id="path356"
         inkscape:connector-curvature="0" /></g><g
       id="g358"
       transform="translate(544.3926,673.2151)"><path
         d="m 0,0 c 0,0.583 -0.012,1.061 -0.047,1.527 l 0.91,0 0.059,-0.933 0.023,0 c 0.28,0.536 0.934,1.062 1.868,1.062 0.781,0 1.995,-0.466 1.995,-2.403 l 0,-3.373 -1.027,0 0,3.255 c 0,0.912 -0.339,1.67 -1.307,1.67 -0.677,0 -1.203,-0.479 -1.378,-1.05 -0.046,-0.13 -0.07,-0.304 -0.07,-0.48 l 0,-3.395 L 0,-4.12 0,0 z"
         style="fill:#231f20;fill-opacity:1;fill-rule:nonzero;stroke:none"
         id="path360"
         inkscape:connector-curvature="0" /></g><g
       id="g362"
       transform="translate(557.1974,672.4434)"><path
         d="m 0,0 c 0,0.13 -0.011,0.304 -0.046,0.432 -0.152,0.654 -0.712,1.191 -1.481,1.191 -1.063,0 -1.692,-0.934 -1.692,-2.182 0,-1.144 0.559,-2.089 1.667,-2.089 0.689,0 1.32,0.454 1.506,1.226 C -0.011,-1.283 0,-1.143 0,-0.98 L 0,0 z m 1.027,4.936 0,-6.826 c 0,-0.501 0.012,-1.073 0.047,-1.459 l -0.921,0 -0.047,0.981 -0.023,0 c -0.315,-0.63 -1.004,-1.109 -1.927,-1.109 -1.364,0 -2.414,1.156 -2.414,2.871 -0.012,1.879 1.155,3.033 2.532,3.033 0.863,0 1.447,-0.407 1.704,-0.862 l 0.022,0 0,3.371 1.027,0 z"
         style="fill:#231f20;fill-opacity:1;fill-rule:nonzero;stroke:none"
         id="path364"
         inkscape:connector-curvature="0" /></g><g
       id="g366"
       transform="translate(564.6594,670.6359)"><path
         d="m 0,0 c 0,-0.584 0.012,-1.097 0.047,-1.541 l -0.91,0 -0.058,0.922 -0.025,0 c -0.267,-0.455 -0.863,-1.051 -1.866,-1.051 -0.887,0 -1.949,0.491 -1.949,2.475 l 0,3.301 1.027,0 0,-3.126 c 0,-1.075 0.327,-1.797 1.26,-1.797 0.689,0 1.167,0.477 1.354,0.933 0.059,0.151 0.092,0.338 0.092,0.525 l 0,3.465 L 0,4.106 0,0 z"
         style="fill:#231f20;fill-opacity:1;fill-rule:nonzero;stroke:none"
         id="path368"
         inkscape:connector-curvature="0" /></g><path
       d="m 568.842,677.38 1.027,0 0,-8.285 -1.027,0 0,8.285 z"
       style="fill:#231f20;fill-opacity:1;fill-rule:nonzero;stroke:none"
       id="path370"
       inkscape:connector-curvature="0" /><g
       id="g372"
       transform="translate(572.2264,671.9062)"><path
         d="m 0,0 c 0,-1.235 0.712,-2.169 1.715,-2.169 0.981,0 1.717,0.921 1.717,2.194 0,0.956 -0.479,2.17 -1.692,2.17 C 0.525,2.195 0,1.074 0,0 m 4.481,0.06 c 0,-2.089 -1.446,-3 -2.813,-3 -1.527,0 -2.706,1.121 -2.706,2.906 0,1.89 1.236,2.998 2.8,2.998 1.623,0 2.719,-1.178 2.719,-2.904"
         style="fill:#231f20;fill-opacity:1;fill-rule:nonzero;stroke:none"
         id="path374"
         inkscape:connector-curvature="0" /></g><g
       id="g376"
       transform="translate(581.811,672.5146)"><path
         d="m 0,0 c 0,0.174 -0.012,0.326 -0.058,0.466 -0.187,0.595 -0.688,1.086 -1.435,1.086 -0.981,0 -1.681,-0.829 -1.681,-2.136 0,-1.108 0.56,-2.03 1.668,-2.03 0.63,0 1.202,0.396 1.424,1.049 C -0.023,-1.389 0,-1.191 0,-1.016 L 0,0 z m 1.016,-2.604 c 0,-1.295 -0.257,-2.089 -0.806,-2.578 -0.549,-0.513 -1.341,-0.677 -2.055,-0.677 -0.676,0 -1.422,0.164 -1.877,0.467 l 0.257,0.782 c 0.372,-0.234 0.956,-0.443 1.656,-0.443 1.05,0 1.821,0.548 1.821,1.972 l 0,0.629 -0.024,0 c -0.315,-0.524 -0.921,-0.945 -1.797,-0.945 -1.401,0 -2.404,1.19 -2.404,2.755 0,1.913 1.249,2.998 2.544,2.998 0.981,0 1.517,-0.512 1.762,-0.979 l 0.024,0 0.046,0.851 0.899,0 C 1.038,1.82 1.016,1.365 1.016,0.676 l 0,-3.28 z"
         style="fill:#231f20;fill-opacity:1;fill-rule:nonzero;stroke:none"
         id="path378"
         inkscape:connector-curvature="0" /></g><g
       id="g380"
       transform="translate(585.1643,671.9062)"><path
         d="m 0,0 c 0,-1.235 0.711,-2.169 1.714,-2.169 0.981,0 1.716,0.921 1.716,2.194 0,0.956 -0.478,2.17 -1.691,2.17 C 0.524,2.195 0,1.074 0,0 m 4.48,0.06 c 0,-2.089 -1.447,-3 -2.813,-3 -1.527,0 -2.706,1.121 -2.706,2.906 0,1.89 1.236,2.998 2.8,2.998 1.623,0 2.719,-1.178 2.719,-2.904"
         style="fill:#231f20;fill-opacity:1;fill-rule:nonzero;stroke:none"
         id="path382"
         inkscape:connector-curvature="0" /></g><g
       id="g384"
       transform="translate(597.0012,672.4678)"><path
         d="M 0,0 C 0.012,0.653 -0.267,1.668 -1.424,1.668 -2.461,1.668 -2.918,0.711 -2.998,0 L 0,0 z m -3.01,-0.736 c 0.023,-1.388 0.909,-1.96 1.937,-1.96 0.734,0 1.178,0.129 1.563,0.291 L 0.666,-3.14 c -0.362,-0.163 -0.98,-0.362 -1.879,-0.362 -1.739,0 -2.778,1.156 -2.778,2.86 0,1.703 1.004,3.045 2.649,3.045 1.844,0 2.334,-1.622 2.334,-2.66 0,-0.211 -0.023,-0.373 -0.035,-0.479 l -3.967,0 z"
         style="fill:#231f20;fill-opacity:1;fill-rule:nonzero;stroke:none"
         id="path386"
         inkscape:connector-curvature="0" /></g><g
       id="g388"
       transform="translate(599.2687,673.2151)"><path
         d="m 0,0 c 0,0.583 -0.012,1.061 -0.047,1.527 l 0.91,0 0.059,-0.933 0.022,0 c 0.281,0.536 0.934,1.062 1.869,1.062 0.781,0 1.995,-0.466 1.995,-2.403 l 0,-3.373 -1.027,0 0,3.255 c 0,0.912 -0.339,1.67 -1.307,1.67 -0.677,0 -1.203,-0.479 -1.378,-1.05 -0.046,-0.13 -0.07,-0.304 -0.07,-0.48 l 0,-3.395 L 0,-4.12 0,0 z"
         style="fill:#231f20;fill-opacity:1;fill-rule:nonzero;stroke:none"
         id="path390"
         inkscape:connector-curvature="0" /></g><g
       id="g392"
       transform="translate(609.2397,671.3937)"><path
         d="m 0,0 c 0,-0.152 0.022,-0.292 0.046,-0.419 0.186,-0.714 0.805,-1.203 1.54,-1.203 1.085,0 1.716,0.886 1.716,2.181 0,1.133 -0.596,2.102 -1.681,2.102 C 0.921,2.661 0.267,2.16 0.069,1.388 0.034,1.26 0,1.108 0,0.969 L 0,0 z m -1.016,1.505 c 0,0.724 -0.023,1.308 -0.048,1.844 l 0.924,0 0.047,-0.968 0.022,0 c 0.42,0.689 1.086,1.096 2.007,1.096 1.366,0 2.392,-1.155 2.392,-2.871 0,-2.029 -1.236,-3.033 -2.567,-3.033 -0.746,0 -1.4,0.327 -1.739,0.887 l -0.022,0 0,-3.068 -1.016,0 0,6.113 z"
         style="fill:#231f20;fill-opacity:1;fill-rule:nonzero;stroke:none"
         id="path394"
         inkscape:connector-curvature="0" /></g><g
       id="g396"
       transform="translate(618.4484,672.4678)"><path
         d="M 0,0 C 0.012,0.653 -0.267,1.668 -1.423,1.668 -2.461,1.668 -2.918,0.711 -2.998,0 L 0,0 z m -3.01,-0.736 c 0.023,-1.388 0.911,-1.96 1.937,-1.96 0.734,0 1.178,0.129 1.563,0.291 L 0.666,-3.14 c -0.362,-0.163 -0.98,-0.362 -1.879,-0.362 -1.739,0 -2.778,1.156 -2.778,2.86 0,1.703 1.004,3.045 2.649,3.045 1.844,0 2.334,-1.622 2.334,-2.66 0,-0.211 -0.023,-0.373 -0.035,-0.479 l -3.967,0 z"
         style="fill:#231f20;fill-opacity:1;fill-rule:nonzero;stroke:none"
         id="path398"
         inkscape:connector-curvature="0" /></g><g
       id="g400"
       transform="translate(621.9522,676.0967)"><path
         d="m 0,0 0,-1.354 1.47,0 0,-0.781 -1.47,0 0,-3.046 c 0,-0.701 0.199,-1.097 0.77,-1.097 0.281,0 0.443,0.023 0.595,0.07 L 1.412,-6.979 C 1.213,-7.06 0.899,-7.13 0.502,-7.13 c -0.479,0 -0.863,0.163 -1.108,0.443 -0.292,0.303 -0.397,0.805 -0.397,1.47 l 0,3.082 -0.876,0 0,0.781 0.876,0 0,1.039 L 0,0 z"
         style="fill:#231f20;fill-opacity:1;fill-rule:nonzero;stroke:none"
         id="path402"
         inkscape:connector-curvature="0" /></g><path
       d="m 624.581,674.742 1.027,0 0,-5.648 -1.027,0 0,5.648 z m 1.144,1.587 c 0.011,-0.349 -0.245,-0.629 -0.654,-0.629 -0.361,0 -0.618,0.28 -0.618,0.629 0,0.363 0.268,0.642 0.641,0.642 0.386,0 0.631,-0.279 0.631,-0.642"
       style="fill:#231f20;fill-opacity:1;fill-rule:nonzero;stroke:none"
       id="path404"
       inkscape:connector-curvature="0" /><g
       id="g406"
       transform="translate(628.5503,676.0967)"><path
         d="m 0,0 0,-1.354 1.469,0 0,-0.781 -1.469,0 0,-3.046 c 0,-0.701 0.198,-1.097 0.769,-1.097 0.281,0 0.444,0.023 0.596,0.07 L 1.411,-6.979 C 1.213,-7.06 0.898,-7.13 0.501,-7.13 c -0.479,0 -0.863,0.163 -1.108,0.443 -0.292,0.303 -0.397,0.805 -0.397,1.47 l 0,3.082 -0.876,0 0,0.781 0.876,0 0,1.039 L 0,0 z"
         style="fill:#231f20;fill-opacity:1;fill-rule:nonzero;stroke:none"
         id="path408"
         inkscape:connector-curvature="0" /></g><g
       id="g410"
       transform="translate(634.6894,672.4678)"><path
         d="M 0,0 C 0.012,0.653 -0.267,1.668 -1.423,1.668 -2.461,1.668 -2.918,0.711 -2.998,0 L 0,0 z m -3.01,-0.736 c 0.023,-1.388 0.911,-1.96 1.938,-1.96 0.733,0 1.177,0.129 1.562,0.291 L 0.666,-3.14 c -0.362,-0.163 -0.98,-0.362 -1.879,-0.362 -1.739,0 -2.777,1.156 -2.777,2.86 0,1.703 1.003,3.045 2.648,3.045 1.844,0 2.334,-1.622 2.334,-2.66 0,-0.211 -0.022,-0.373 -0.035,-0.479 l -3.967,0 z"
         style="fill:#231f20;fill-opacity:1;fill-rule:nonzero;stroke:none"
         id="path412"
         inkscape:connector-curvature="0" /></g><g
       id="g414"
       transform="translate(640.6685,676.0967)"><path
         d="m 0,0 0,-1.354 1.469,0 0,-0.781 -1.469,0 0,-3.046 c 0,-0.701 0.199,-1.097 0.769,-1.097 0.281,0 0.444,0.023 0.596,0.07 L 1.412,-6.979 C 1.213,-7.06 0.898,-7.13 0.501,-7.13 c -0.479,0 -0.863,0.163 -1.108,0.443 -0.292,0.303 -0.397,0.805 -0.397,1.47 l 0,3.082 -0.876,0 0,0.781 0.876,0 0,1.039 L 0,0 z"
         style="fill:#231f20;fill-opacity:1;fill-rule:nonzero;stroke:none"
         id="path416"
         inkscape:connector-curvature="0" /></g><g
       id="g418"
       transform="translate(646.2718,671.9775)"><path
         d="m 0,0 c -1.121,0.022 -2.391,-0.175 -2.391,-1.273 0,-0.664 0.442,-0.979 0.968,-0.979 0.735,0 1.201,0.467 1.366,0.945 C -0.023,-1.201 0,-1.086 0,-0.981 L 0,0 z m 0.992,-1.53 c 0,-0.49 0.024,-0.967 0.094,-1.353 l -0.934,0 -0.082,0.713 -0.034,0 c -0.316,-0.444 -0.922,-0.841 -1.728,-0.841 -1.143,0 -1.727,0.805 -1.727,1.622 0,1.364 1.215,2.112 3.396,2.1 l 0,0.118 c 0,0.466 -0.128,1.306 -1.284,1.306 -0.525,0 -1.074,-0.163 -1.47,-0.42 l -0.234,0.677 c 0.468,0.304 1.144,0.501 1.856,0.501 1.727,0 2.147,-1.178 2.147,-2.309 l 0,-2.114 z"
         style="fill:#231f20;fill-opacity:1;fill-rule:nonzero;stroke:none"
         id="path420"
         inkscape:connector-curvature="0" /></g><path
       d="m 648.924,674.742 1.027,0 0,-5.648 -1.027,0 0,5.648 z m 1.144,1.587 c 0.011,-0.349 -0.246,-0.629 -0.653,-0.629 -0.362,0 -0.618,0.28 -0.618,0.629 0,0.363 0.268,0.642 0.64,0.642 0.385,0 0.631,-0.279 0.631,-0.642"
       style="fill:#231f20;fill-opacity:1;fill-rule:nonzero;stroke:none"
       id="path422"
       inkscape:connector-curvature="0" /><path
       d="m 651.657,677.38 1.027,0 0,-8.285 -1.027,0 0,8.285 z"
       style="fill:#231f20;fill-opacity:1;fill-rule:nonzero;stroke:none"
       id="path424"
       inkscape:connector-curvature="0" /><path
       d="m 654.411,677.38 1.027,0 0,-8.285 -1.027,0 0,8.285 z"
       style="fill:#231f20;fill-opacity:1;fill-rule:nonzero;stroke:none"
       id="path426"
       inkscape:connector-curvature="0" /><g
       id="g428"
       transform="translate(660.7498,672.4678)"><path
         d="M 0,0 C 0.012,0.653 -0.269,1.668 -1.425,1.668 -2.463,1.668 -2.918,0.711 -3,0 l 3,0 z m -3.01,-0.736 c 0.022,-1.388 0.909,-1.96 1.936,-1.96 0.735,0 1.179,0.129 1.564,0.291 L 0.664,-3.14 c -0.36,-0.163 -0.979,-0.362 -1.877,-0.362 -1.739,0 -2.778,1.156 -2.778,2.86 0,1.703 1.003,3.045 2.648,3.045 1.845,0 2.334,-1.622 2.334,-2.66 0,-0.211 -0.022,-0.373 -0.035,-0.479 l -3.966,0 z"
         style="fill:#231f20;fill-opacity:1;fill-rule:nonzero;stroke:none"
         id="path430"
         inkscape:connector-curvature="0" /></g><g
       id="g436"><g
         id="g438"
         clip-path="url(#clipPath440)"><g
           id="g444"
           transform="matrix(112.16382,0,0,146.15836,407.4863,266.41964)" /></g></g><g
       id="g446"><g
         id="g448"
         clip-path="url(#clipPath450)"><g
           id="g454"
           transform="matrix(41.472189,0,0,108.67358,498.9407,266.33506)" /></g></g><g
       id="g456"><g
         id="g458"
         clip-path="url(#clipPath460)"><g
           id="g464"
           transform="matrix(337.96855,0,0,176.22646,181.76534,266.45133)" /></g></g><g
       id="g466"><g
         id="g468"
         clip-path="url(#clipPath470)"><g
           id="g474"
           transform="matrix(-90.167349,0,0,146.34015,499.255,120.26128)" /></g></g><g
       id="g476"><g
         id="g478"
         clip-path="url(#clipPath480)"><g
           id="g484"
           transform="matrix(41.472189,0,0,-108.67358,498.9407,266.50423)" /></g></g><g
       id="g486"><g
         id="g488"
         clip-path="url(#clipPath490)"><g
           id="g494"
           transform="matrix(178.82622,0,0,-176.59785,181.57965,266.98527)" /></g></g><g
       id="g496"><g
         id="g498"
         clip-path="url(#clipPath500)"><g
           id="g504"
           transform="matrix(36.025219,0,0,-176.59785,360.03447,266.98527)" /></g></g><g
       id="g506"><g
         id="g508"
         clip-path="url(#clipPath510)"><g
           id="g514"
           transform="matrix(36.210916,0,0,-35.653825,395.68829,266.98527)" /></g></g><g
       id="g516"><g
         id="g518"
         clip-path="url(#clipPath520)"><g
           id="g524"
           transform="matrix(36.025219,0,0,-35.653825,467.18164,266.98527)" /></g></g><g
       id="g526"><g
         id="g528"
         clip-path="url(#clipPath530)"><g
           id="g534"
           transform="matrix(11.14182,0,0,-63.508375,197.92098,257.51473)" /></g></g><g
       id="g536"><g
         id="g538"
         clip-path="url(#clipPath540)"><g
           id="g544"
           transform="matrix(51.066676,0,0,-6.6850922,209.80559,266.42818)" /></g></g><g
       id="g546"><g
         id="g548"
         clip-path="url(#clipPath550)"><g
           id="g554"
           transform="matrix(53.29504,0,0,0.742788,332.92271,266.26564)" /></g></g><g
       id="g556"><g
         id="g558"
         clip-path="url(#clipPath560)"><g
           id="g564"
           transform="matrix(-90.167349,0,0,9.6348176,499.255,256.96662)" /></g></g><g
       id="g566"><g
         id="g568"
         clip-path="url(#clipPath570)"><g
           id="g574"
           transform="matrix(20.794835,0,0,-8.3414313,498.9407,265.56436)" /></g></g><g
       id="g576"><g
         id="g578"
         clip-path="url(#clipPath580)"><g
           id="g584"
           transform="translate(241.6141,69.5452)"><path
             d="m 0,0 c 0,32.573 -9.263,56.181 -39.743,56.181 -44.521,0 -69.92,-67.833 -69.92,-127.591 0,-32.871 9.263,-56.182 41.235,-56.182 C -25.101,-127.592 0,-62.152 0,0 m -153.888,-58.564 c 0,76.197 57.971,129.983 115.043,129.983 46.016,0 82.77,-31.677 82.77,-85.458 0,-76.496 -56.474,-129.089 -113.846,-129.089 -46.017,0 -83.967,31.975 -83.967,84.564"
             style="fill:#d13d18;fill-opacity:1;fill-rule:nonzero;stroke:none"
             id="path586"
             inkscape:connector-curvature="0" /></g><g
           id="g588"
           transform="translate(115.8807,130.6244)"><path
             d="m 0,0 c 0,16.264 -13.188,29.451 -29.456,29.451 -16.268,0 -29.453,-13.187 -29.453,-29.451 0,-16.271 13.185,-29.453 29.453,-29.453 1.793,0 3.545,0.182 5.246,0.491 -5.052,-8.037 -13.924,-15.708 -28.088,-22.048 l 2.639,-5.516 c 24.561,8.55 44.748,27.425 48.853,47.753 C -0.188,-5.265 0,-3.06 0,0"
             style="fill:#d13d18;fill-opacity:1;fill-rule:nonzero;stroke:none"
             id="path590"
             inkscape:connector-curvature="0" /></g></g></g></g></svg>