<?xml version="1.0" encoding="UTF-8" standalone="no"?>
<!-- Generator: Adobe Illustrator 19.1.0, SVG Export Plug-In . SVG Version: 6.00 Build 0)  -->
<svg xmlns:dc="http://purl.org/dc/elements/1.1/" xmlns:cc="http://creativecommons.org/ns#" xmlns:rdf="http://www.w3.org/1999/02/22-rdf-syntax-ns#" xmlns:svg="http://www.w3.org/2000/svg" xmlns="http://www.w3.org/2000/svg" xmlns:sodipodi="http://sodipodi.sourceforge.net/DTD/sodipodi-0.dtd" xmlns:inkscape="http://www.inkscape.org/namespaces/inkscape" version="1.1" x="0px" y="0px" viewBox="0 0 744.07257 104.67255" xml:space="preserve" id="svg44" sodipodi:docname="HuffPost.svg" width="744.07257" height="104.67255" inkscape:version="0.92.2 5c3e80d, 2017-08-06"><metadata id="metadata50"><rdf:RDF><cc:Work rdf:about=""><dc:format>image/svg+xml</dc:format><dc:type rdf:resource="http://purl.org/dc/dcmitype/StillImage"/><dc:title/></cc:Work></rdf:RDF></metadata><defs id="defs48"/><sodipodi:namedview pagecolor="#ffffff" bordercolor="#666666" borderopacity="1" objecttolerance="10" gridtolerance="10" guidetolerance="10" inkscape:pageopacity="0" inkscape:pageshadow="2" inkscape:window-width="1271" inkscape:window-height="670" id="namedview46" showgrid="false" inkscape:snap-page="true" inkscape:object-paths="true" fit-margin-top="0" fit-margin-left="0" fit-margin-right="0" fit-margin-bottom="0" inkscape:zoom="0.40953268" inkscape:cx="241.36489" inkscape:cy="-81.263002" inkscape:window-x="0" inkscape:window-y="0" inkscape:window-maximized="0" inkscape:current-layer="svg44"/><style type="text/css" id="style2">
	.st0{display:none;}
	.st1{display:inline;}
	.st2{fill:#FFFFFF;}
	.st3{fill:#0DBE98;}
</style><rect style="opacity:1;fill:#000000;fill-opacity:1;fill-rule:nonzero;stroke:none;stroke-width:0.18897636;stroke-linecap:round;stroke-linejoin:miter;stroke-miterlimit:4;stroke-dasharray:none;stroke-dashoffset:0;stroke-opacity:1;paint-order:markers fill stroke" id="rect860" width="744.07257" height="104.67255" x="0" y="0"/><g id="Layer_2" class="st0" style="display:none" transform="translate(11.986276,7.2862759)"><rect class="st1" width="720" height="90" id="rect4" x="0" y="0" style="display:inline"/></g><g id="Layer_1" transform="translate(11.986276,7.2862759)"><g id="g41"><g id="g9"><path class="st2" d="m 93.1,85.4 h 26.3 L 133.5,4.7 H 107.2 L 102,33.6 H 79.2 L 84.4,4.7 H 58.1 L 44,85.4 h 26.3 l 5.3,-30.2 h 22.8 z" id="path7" inkscape:connector-curvature="0" style="fill:#ffffff"/></g><g id="g13"><path class="st2" d="m 148.4,4.6 -8,44.9 c -0.7,3.5 -1,6.9 -1,10.1 0,23.8 20.8,27.4 33.3,27.4 26.2,0 37.5,-8.7 41.6,-32.2 l 8.8,-50.3 h -26.3 l -7.5,42.2 c -2.4,13.2 -4.1,20.1 -13.9,20.1 -6.4,0 -9.5,-3.4 -9.5,-10.4 0,-2.7 0.4,-6 1.2,-10.1 l 7.6,-41.8 h -26.3 z" id="path11" inkscape:connector-curvature="0" style="fill:#ffffff"/></g><g id="g17"><path class="st2" d="m 362.1,85.4 h 26.3 l 3.7,-20.8 h 12.4 c 22.9,0 35.6,-12.4 35.6,-35 0,-15.9 -11,-25 -30.3,-25 h -33.6 z m 41,-40.7 h -7.6 l 3.5,-19 h 7.1 c 5.8,0 8.9,2.9 8.9,8.2 0,6.7 -4.5,10.8 -11.9,10.8 z" id="path15" inkscape:connector-curvature="0" style="fill:#ffffff"/></g><g id="g21"><path class="st2" d="m 491.2,2.9 c -28.6,0 -45.7,18.5 -45.7,49.6 0,21.6 13.6,34.6 36.4,34.6 28.6,0 45.7,-18.5 45.7,-49.6 C 527.7,15.8 514.1,2.9 491.2,2.9 Z m -7.7,63.3 c -6.8,0 -10.8,-4.9 -10.8,-13.1 0,-3.1 0.3,-5.8 0.9,-8.9 2,-10.6 5.4,-20.3 16.1,-20.3 6.8,0 10.8,4.9 10.8,13.1 0,3.1 -0.3,5.8 -0.9,8.9 -2,10.5 -5.4,20.3 -16.1,20.3 z" id="path19" inkscape:connector-curvature="0" style="fill:#ffffff"/></g><g id="g25"><path class="st2" d="m 619.1,85.4 h 26.3 l 10.4,-59.1 h 19.8 l 3.8,-21.6 h -67.3 l -3.8,21.6 h 21 z" id="path23" inkscape:connector-curvature="0" style="fill:#ffffff"/></g><path class="st2" d="m 575.5,34.5 c -8.3,-2.6 -11.7,-3.7 -11.7,-7.6 0,-2.6 1.7,-5.7 6.7,-5.7 3.7,0 6.8,2.1 8,5.2 l 23.2,-6.3 C 599,8.7 589.2,2.9 572.3,2.9 540.5,2.9 538,24.2 538,30.7 c 0,13.2 7,21.3 22.2,25.5 4,1.1 8.6,2.3 8.6,6.7 0,3.5 -2.6,5.7 -7.1,5.7 -4.1,0 -8.5,-2.4 -10,-6.6 l -22.9,6.2 c 2.5,12 13.8,18.8 31.5,18.8 13.5,0 36.1,-3.6 36.1,-28 0.1,-12.2 -6.8,-20.2 -20.9,-24.5 z" id="path27" inkscape:connector-curvature="0" style="fill:#ffffff"/><g id="g31"><path class="st3" d="M 29.3,85.4 43.5,4.7 H 0 v 80.7 z" id="path29" inkscape:connector-curvature="0" style="fill:#0dbe98"/></g><g id="g35"><path class="st3" d="m 690.7,4.7 -14.1,80.7 h 43.5 V 4.7 Z" id="path33" inkscape:connector-curvature="0" style="fill:#0dbe98"/></g><polygon class="st2" points="250.3,85.4 254.5,61.6 276.6,61.6 280.2,41.3 258.1,41.3 260.6,26.3 291.5,26.3 295.3,4.6 238.1,4.6 224,85.4 " id="polygon37" style="fill:#ffffff"/><polygon class="st2" points="319.3,85.4 323.4,61.6 345.6,61.6 349.2,41.3 327.1,41.3 329.6,26.3 360.5,26.3 364.3,4.6 307.1,4.6 293,85.4 " id="polygon39" style="fill:#ffffff"/></g></g></svg>