<?xml version="1.0" encoding="UTF-8" standalone="no"?>
<!-- Created with Inkscape (http://www.inkscape.org/) -->
<svg xmlns:dc="http://purl.org/dc/elements/1.1/" xmlns:cc="http://creativecommons.org/ns#" xmlns:rdf="http://www.w3.org/1999/02/22-rdf-syntax-ns#" xmlns:svg="http://www.w3.org/2000/svg" xmlns="http://www.w3.org/2000/svg" xmlns:sodipodi="http://sodipodi.sourceforge.net/DTD/sodipodi-0.dtd" xmlns:inkscape="http://www.inkscape.org/namespaces/inkscape" id="svg3039" version="1.1" inkscape:version="0.48.4 r9939" width="351.68686" height="102.61996" sodipodi:docname="logo_le_canard_enchaine.jpg">
  <metadata id="metadata3045">
    <rdf:RDF>
      <cc:Work rdf:about="">
        <dc:format>image/svg+xml</dc:format>
        <dc:type rdf:resource="http://purl.org/dc/dcmitype/StillImage"/>
        <dc:title/>
      </cc:Work>
    </rdf:RDF>
  </metadata>
  <defs id="defs3043"/>
  <sodipodi:namedview pagecolor="#ffffff" bordercolor="#666666" borderopacity="1" objecttolerance="10" gridtolerance="10" guidetolerance="10" inkscape:pageopacity="0" inkscape:pageshadow="2" inkscape:window-width="1276" inkscape:window-height="761" id="namedview3041" showgrid="false" fit-margin-top="0" fit-margin-left="0" fit-margin-right="0" fit-margin-bottom="0" inkscape:zoom="1" inkscape:cx="365.51924" inkscape:cy="66.942335" inkscape:window-x="0" inkscape:window-y="18" inkscape:window-maximized="0" inkscape:current-layer="svg3039"/>
  <path inkscape:connector-curvature="0" id="path3051" d="m 77.230946,102.32043 c -2.4315,-0.19918 -2.71103,-0.30567 -2.62585,-1.00039 0.0524,-0.42761 0.16292,-2.35187 0.24553,-4.27612 0.0826,-1.92426 0.17091,-3.71732 0.19623,-3.98458 0.0294,-0.30993 0.6796,-0.48592 1.79535,-0.48592 l 1.74933,0 0.081,-3.49865 c 0.18105,-7.82129 0.31593,-7.11003 -1.44157,-7.60229 l -1.55496,-0.43552 -0.0983,-4.04742 c -0.0541,-2.22609 0.0542,-4.28306 0.24061,-4.57106 0.32334,-0.49957 3.93009,-0.74012 4.6282,-0.30867 0.16378,0.10123 2.20955,0.031 4.54615,-0.156 4.79839,-0.38405 5.44989,-0.17346 5.05305,1.63335 -0.30613,1.3938 0.0962,1.40429 2.67748,0.0698 1.10055,-0.56896 2.33765,-1.20177 2.74913,-1.40625 3.88359,-1.92996 12.334514,1.41321 13.312254,5.26631 0.17532,0.69089 0.3197,4.04777 0.32085,7.45976 l 0.002,6.20359 1.2634,0.36402 1.2634,0.364 0,4.97443 c 0,2.73593 -0.16031,5.07351 -0.35625,5.19461 -0.19594,0.12109 -3.82579,0.24477 -8.06633,0.27484 l -7.710074,0.0547 0.10828,-0.93219 c 0.0596,-0.51271 0.10887,-2.60154 0.10959,-4.64186 l 10e-4,-3.70966 1.19184,-0.44986 1.19183,-0.44987 -0.14538,-4.84306 c -0.13784,-4.59172 -0.19529,-4.88458 -1.10706,-5.64319 -2.04659,-1.70281 -6.36415,-0.48576 -7.02039,1.97893 -0.15458,0.58058 -0.24788,2.8182 -0.20732,4.97248 0.0708,3.76246 0.11577,3.95073 1.13988,4.77548 l 1.06614,0.85859 -0.30242,3.88739 -0.30243,3.88739 -5.11765,0 c -2.81471,0 -5.24919,0.1312 -5.40995,0.29155 -0.16076,0.16036 -0.39434,0.26067 -0.51906,0.22291 -0.12472,-0.0378 -1.45129,-0.16895 -2.94794,-0.29155 z m 48.326234,-0.38708 c -2.69635,-0.37706 -7.51198,-3.93041 -9.08584,-6.70425 -2.04063,-3.59648 -3.01019,-7.75393 -2.47305,-10.60443 0.53666,-2.84801 1.19123,-4.53888 2.29039,-5.91652 0.5403,-0.67719 1.30092,-1.6887 1.69027,-2.2478 1.68373,-2.41779 6.99447,-4.49008 11.5069,-4.49008 2.95932,0 7.3147,1.37658 9.92137,3.1358 0.95723,0.64603 2.51164,2.08528 3.45426,3.19833 1.921,2.26836 3.90431,6.11603 3.40825,6.61208 -0.45644,0.45645 -13.64351,0.74643 -13.64351,0.30002 0,-0.19701 -0.45288,-0.89642 -1.0064,-1.55424 -1.13171,-1.34496 -3.15741,-1.64157 -4.18604,-0.61294 -0.32071,0.32071 -0.84621,0.58311 -1.16779,0.58311 -0.55799,0 -1.28037,1.38069 -1.08919,2.0818 0.0499,0.18285 -0.1014,0.56389 -0.33614,0.84674 -0.3151,0.37966 -0.26568,0.82583 0.18882,1.70474 0.96524,1.86656 2.20923,2.48753 4.38207,2.18743 3.51282,-0.48517 16.82053,-0.68619 16.82053,-0.25408 0,0.98968 -3.36147,5.12878 -6.14968,7.57232 -4.82272,4.22655 -7.85346,5.09496 -14.52522,4.16197 z m 23.62801,0.0306 c -0.10965,-0.17742 -0.18049,-2.62526 -0.15743,-5.43966 l 0.0419,-5.11708 1.108,0 c 1.09236,0 1.109,-0.0343 1.17938,-2.42961 0.12034,-4.09573 -0.0567,-13.62357 -0.25687,-13.82373 -0.10387,-0.10388 -0.93557,-0.26207 -1.8482,-0.35154 -0.91264,-0.0895 -1.7948,-0.29523 -1.96037,-0.45724 -0.38896,-0.38063 -0.56397,-7.4884 -0.19819,-8.05007 0.18425,-0.28292 2.92099,-0.45239 8.10103,-0.50163 l 7.82278,-0.0744 -0.10463,5.16651 c -0.11488,5.67207 -0.0993,5.70152 2.12217,4.01995 2.87654,-2.17741 4.89442,-2.93566 7.78661,-2.92594 1.51825,0.005 3.43919,0.16674 4.26877,0.3592 1.74288,0.40435 4.10893,2.52612 5.56695,4.99223 0.96837,1.6379 0.98101,1.76052 0.7077,6.86338 -0.15305,2.85763 -0.16663,5.54746 -0.0302,5.97741 0.13646,0.42995 0.72394,0.9476 1.30552,1.15034 l 1.05742,0.36862 -0.083,5.16374 -0.083,5.16373 -8.08476,0.004 -8.08475,0.004 0.13832,-4.82369 c 0.10283,-3.58633 0.28819,-4.99311 0.72259,-5.48415 0.41199,-0.46571 0.63645,-1.8682 0.76124,-4.75646 l 0.17697,-4.09601 -1.36314,-0.65004 c -1.27007,-0.60565 -1.47807,-0.60614 -3.04641,-0.007 -2.70927,1.03468 -4.02645,2.4909 -4.29363,4.74684 -0.12562,1.06063 -0.10156,2.53983 0.0535,3.28713 0.2335,1.12558 0.4325,1.33717 1.15979,1.23316 1.61354,-0.23074 1.80736,0.35312 1.74063,5.24324 -0.0345,2.53043 -0.0783,4.81275 -0.0972,5.07182 -0.0403,0.55157 -15.7911,0.72038 -16.12948,0.17287 z m 45.20061,-0.0783 c -2.35991,-0.38459 -3.13163,-0.83075 -4.56307,-2.63808 -1.34712,-1.70088 -1.8258,-3.85913 -1.43457,-6.46809 0.21381,-1.42572 0.63073,-2.1343 2.12631,-3.61372 1.0232,-1.01215 2.63018,-2.22071 3.57108,-2.68568 0.94089,-0.46498 3.02271,-1.47575 4.62626,-2.24616 3.36214,-1.6153 6.09659,-3.74474 5.67814,-4.42181 -0.59236,-0.95845 -2.55366,-0.32482 -4.70629,1.52045 -1.08463,0.92976 -12.24528,1.3756 -12.24528,0.48917 0,-1.74426 3.97173,-6.01159 7.15087,-7.6831 1.04659,-0.55027 2.09618,-1.1459 2.33243,-1.32362 0.81422,-0.6125 6.67341,-1.62216 9.37942,-1.61628 1.49176,0.003 3.41202,0.23037 4.26724,0.50472 1.63853,0.52563 4.07513,1.86224 4.0793,2.23772 0.001,0.12185 0.52243,0.80395 1.15795,1.51578 1.80626,2.02314 2.41863,4.76965 2.19932,9.86404 -0.20327,4.72187 0.12386,5.69752 1.91034,5.69752 0.4777,0 1.26567,0.32158 1.75106,0.71462 0.82355,0.66687 0.8524,0.83422 0.4318,2.50457 -0.24789,0.98448 -0.45071,2.56529 -0.45071,3.51292 0,0.94762 -0.10559,2.25088 -0.23464,2.89613 l -0.23463,1.17317 -3.16683,-0.10246 c -1.74176,-0.0563 -4.76831,-0.12508 -6.72567,-0.15273 l -3.55885,-0.0503 0.20857,-1.55495 c 0.11471,-0.85523 0.0543,-1.5599 -0.13418,-1.56593 -0.18851,-0.006 -1.39233,0.5068 -2.67517,1.13963 -4.77801,2.35703 -7.30955,2.91152 -10.7402,2.35244 z m 11.87462,-9.93689 c 0.4347,-0.1668 0.6149,-0.74877 0.6149,-1.98583 0,-1.70521 -0.0267,-1.74317 -1.04532,-1.48751 -2.25933,0.56705 -3.92309,2.49871 -2.97164,3.45015 0.32391,0.32392 2.57835,0.33929 3.40206,0.0232 z m 18.51242,9.38581 c -0.18212,-0.22176 -0.3885,-2.50241 -0.45861,-5.06808 l -0.12749,-4.66487 1.35432,-0.43975 1.35431,-0.43975 0,-5.19696 0,-5.19696 -1.64741,-0.1193 -1.64741,-0.11931 0.0405,-3.87026 c 0.0252,-2.41459 0.20558,-3.9723 0.47946,-4.14157 0.24145,-0.14923 2.01417,-0.23737 3.93938,-0.19589 1.9252,0.0415 4.49545,-0.0658 5.71166,-0.23848 2.71159,-0.38494 3.55986,-0.012 3.24986,1.42855 -0.12266,0.57004 -0.23923,3.39803 -0.25904,6.28441 -0.0673,9.80644 -0.0231,10.42693 0.8008,11.25088 0.65257,0.65257 0.77117,1.41927 0.87466,5.65445 0.11318,4.63152 0.0772,4.90926 -0.65775,5.07767 -1.7127,0.39246 -12.6843,0.38844 -13.00721,-0.005 z m 15.55879,-5.22327 -0.0223,-5.48152 1.16499,0 c 1.12212,0 1.16723,-0.068 1.22584,-1.84651 0.0335,-1.01558 0.0952,-2.35553 0.13727,-2.97766 0.13785,-2.04032 -0.58702,-4.06181 -1.50333,-4.19245 -0.79654,-0.11357 -0.83494,-0.32666 -0.88082,-4.88827 -0.0264,-2.62323 0.0755,-4.84583 0.22644,-4.93911 0.15093,-0.0933 3.14636,-0.19474 6.65653,-0.22546 l 6.38212,-0.0559 0.1175,1.98225 c 0.14873,2.50913 0.60025,2.53887 3.53536,0.23292 1.22463,-0.96213 2.50727,-1.74932 2.85031,-1.74932 0.34304,0 0.6893,-0.1968 0.76948,-0.43734 0.27066,-0.81196 5.24045,-0.52967 7.25064,0.41185 3.28286,1.53761 4.29104,4.39769 4.35485,12.3542 0.0222,2.76587 0.16945,5.23779 0.32728,5.49316 0.15782,0.25536 0.71181,0.41709 1.23108,0.35939 l 0.94413,-0.10491 0.24964,5.0536 c 0.13808,2.79531 0.0953,5.24438 -0.0958,5.48051 -0.34265,0.42345 -16.16196,0.41032 -16.58605,-0.0138 -0.30802,-0.30802 -0.58016,-8.69948 -0.31624,-9.75104 0.13303,-0.53002 0.50093,-0.96368 0.81757,-0.96368 0.43636,0 0.58684,-0.54102 0.62173,-2.23524 0.0253,-1.22939 0.009,-2.41019 -0.0358,-2.62399 -0.045,-0.21381 -0.0832,-0.96048 -0.0849,-1.65927 -0.004,-1.50834 -0.76562,-2.03375 -2.94942,-2.03375 -2.37871,0 -2.80698,0.76089 -2.80698,4.98702 0,3.52077 0.0118,3.56523 0.9489,3.56523 0.5219,0 1.05168,0.16628 1.17729,0.36952 0.1256,0.20324 0.31085,2.73976 0.41167,5.63671 l 0.18329,5.26719 -7.28884,0.005 c -4.00886,0.003 -7.67184,0.10802 -8.13995,0.23355 -0.84546,0.22673 -0.85125,0.19188 -0.87344,-5.25328 z m -195.94911,4.11792 c -3.968105,-1.18628 -5.681071,-2.17598 -7.982751,-4.61222 -3.898828,-4.12678 -5.234367,-6.42003 -5.234367,-8.98794 0,-1.62646 1.47489,-6.40794 2.08972,-6.77471 0.279985,-0.16702 0.830987,-0.80285 1.224445,-1.41296 1.531503,-2.37476 7.435092,-6.00977 12.095894,-7.44779 3.136901,-0.96784 6.148413,-1.02469 8.337102,-0.15738 0.553268,0.21925 1.165532,0.36047 1.360585,0.31383 1.034123,-0.24726 5.450277,1.69674 7.92215,3.48735 1.558027,1.12863 2.909866,2.6413 3.857828,4.31678 1.63262,2.88559 2.37489,4.4802 2.37489,5.10194 0,0.38316 0.17493,0.80475 0.38874,0.93689 0.21381,0.13214 0.38874,0.7514 0.38874,1.37612 0,1.61688 -0.84249,1.72686 -9.493756,1.23929 -8.486346,-0.47826 -17.160158,-0.41673 -17.691221,0.12551 -0.42556,0.43451 0.813268,1.97285 2.43097,3.01868 0.888112,0.57416 1.751902,0.68695 4.625917,0.60405 3.044132,-0.0878 3.682635,-0.2271 4.607126,-1.00501 1.061121,-0.89287 1.15146,-0.90035 8.005542,-0.66249 3.812773,0.13232 7.073202,0.32692 7.245392,0.43245 0.74776,0.45826 0.29629,0.95453 -5.561053,6.11281 -0.99722,0.8782 -6.035923,3.3363 -6.838883,3.3363 -0.419593,0 -1.16229,0.27974 -1.650433,0.62165 -0.647584,0.45359 -2.063511,0.66042 -5.237283,0.76505 -3.658996,0.12063 -4.812753,0.005 -7.265294,-0.7282 z M 58.377115,82.45306 c 0,-1.06519 -3.810627,-2.30654 -7.102206,-2.31362 -2.147109,-0.005 -2.916622,0.17419 -4.178942,0.97106 -0.850976,0.5372 -1.547231,1.12879 -1.547231,1.31464 0,0.18585 2.886386,0.33125 6.41419,0.32311 3.527804,-0.008 6.414189,-0.14098 6.414189,-0.29519 z M 290.8429,100.87005 c -3.01831,-0.54801 -7.75307,-3.18352 -10.2049,-5.68035 -2.60248,-2.65024 -4.21192,-8.33951 -3.34808,-11.83525 0.79592,-3.22089 1.9904,-5.07505 4.61198,-7.15901 3.99109,-3.17262 9.52296,-4.74572 16.5214,-4.6982 4.23477,0.0288 6.47157,0.60898 8.59681,2.22998 0.69528,0.53032 1.43435,0.96422 1.64236,0.96422 0.20802,0 1.00862,0.83093 1.77912,1.84651 0.7705,1.01558 2.07657,2.69462 2.9024,3.73122 3.01332,3.78242 3.01632,6.5544 0.008,7.06272 -0.81886,0.13834 -3.72553,0.0581 -6.45926,-0.17838 -3.76701,-0.32583 -14.17872,-0.35641 -17.31286,-0.0509 -0.67386,0.0657 -0.19957,1.11765 1.11337,2.46938 0.98058,1.00956 1.77311,1.4636 2.62398,1.50327 3.05796,0.14255 4.72181,-0.11233 7.15392,-1.09585 1.99024,-0.80484 3.45571,-1.0942 6.11605,-1.20763 8.54017,-0.36414 8.22216,-0.41315 7.61863,1.17424 -1.12302,2.95377 -9.26299,8.73642 -14.49865,10.29987 -2.04941,0.61198 -7.00785,0.96111 -8.8639,0.62412 z m 10.49594,-19.0618 c 0.10691,-0.10406 -0.31813,-0.59876 -0.94453,-1.09934 -1.44323,-1.15333 -4.47035,-1.61218 -6.16931,-0.93514 -1.80523,0.71939 -3.51632,1.9805 -3.06534,2.25922 0.44226,0.27333 9.88162,0.0649 10.17918,-0.22474 z M 226.60381,69.37343 c -1.42154,-0.23401 -1.34768,-0.66619 0.28644,-1.67613 0.74551,-0.46075 1.66214,-1.35688 2.03696,-1.9914 0.84746,-1.43462 1.59882,-1.62982 4.76512,-1.23795 2.06676,0.25578 2.58926,0.46951 2.95837,1.2101 0.24656,0.4947 0.94832,1.42138 1.55947,2.05928 0.93402,0.97491 1.0193,1.22055 0.5349,1.54071 -0.31695,0.20949 -1.10107,0.25309 -1.74249,0.0969 -1.45638,-0.35466 -5.27027,-0.38905 -7.58041,-0.0684 -0.96213,0.13357 -2.23039,0.16365 -2.81836,0.0669 z m 66.18278,-0.46366 c 0,-0.57675 1.5752,-3.93455 1.8647,-3.9749 3.02609,-0.42174 8.91722,-0.58299 9.2471,-0.25311 0.5362,0.5362 -0.24394,2.06128 -1.28885,2.51953 -3.12898,1.37227 -9.82295,2.53653 -9.82295,1.70848 z m -61.14454,-5.34516 c -0.1001,-0.10009 -3.57063,-0.21776 -7.71231,-0.26147 l -7.53032,-0.0795 0.15643,-4.08175 c 0.086,-2.24497 0.17349,-5.21598 0.19437,-6.60225 0.0374,-2.48217 0.0556,-2.52358 1.19801,-2.72392 0.99939,-0.17526 1.19459,-0.41579 1.40928,-1.7366 0.13706,-0.84323 0.18006,-4.60304 0.0956,-8.35513 -0.22825,-10.13446 -1.24099,-12.64035 -4.72893,-11.70114 -2.05568,0.55353 -4.33928,3.04773 -4.37923,4.78311 -0.016,0.69425 -0.06,4.62768 -0.0978,8.74095 -0.07,7.60899 0.032,8.17183 1.3903,7.67402 1.23651,-0.45316 1.42196,0.40561 1.48626,6.88232 0.0353,3.55389 -0.0363,6.62425 -0.15919,6.82301 -0.20117,0.3255 -18.11681,0.21575 -18.47451,-0.11316 -0.0771,-0.0709 -0.10413,-2.01921 -0.0601,-4.32965 0.1951,-10.24934 0.0309,-9.3638 1.79595,-9.68387 0.60938,-0.11051 1.14573,-0.23868 1.19188,-0.28483 0.0462,-0.0462 0.12382,-4.70482 0.1726,-10.35261 l 0.0887,-10.2687 -2.02213,-0.45542 c -1.11217,-0.25049 -2.11484,-0.54814 -2.22816,-0.66146 -0.40335,-0.40334 -0.26454,-13.20048 0.14592,-13.45315 0.22075,-0.13589 4.13466,-0.24707 8.69758,-0.24707 l 8.29622,0 -0.0567,3.59584 c -0.04,2.53593 0.0785,3.59583 0.40202,3.59583 0.25231,0 1.4149,-0.97501 2.58353,-2.1667 2.9602,-3.01858 4.47987,-3.68546 8.53897,-3.74714 3.8121,-0.0579 5.19866,0.46943 7.42928,2.82556 3.5561,3.75619 4.42209,7.54183 3.95288,17.27974 -0.37301,7.74122 -0.35266,14.64351 0.0451,15.28704 0.15446,0.24991 0.70784,0.45439 1.22974,0.45439 l 0.9489,0 0,5.60491 c 0,3.08271 0.10103,5.86821 0.22452,6.19001 0.13147,0.34261 -0.0699,0.73614 -0.48592,0.94956 -0.85594,0.43912 -3.48345,0.87433 -3.73854,0.61923 z m 48.12672,-0.0784 c -0.85252,-0.0694 -1.74446,-0.28752 -1.98211,-0.48474 -0.29782,-0.24718 -0.38345,-2.44248 -0.27558,-7.06552 0.16315,-6.99167 0.26344,-7.87298 0.85435,-7.50778 0.19602,0.12115 0.63612,0.11293 0.978,-0.0183 0.55116,-0.2115 0.61143,-1.40444 0.53183,-10.52807 l -0.0898,-10.28955 -1.27423,-0.5324 c -1.26731,-0.52952 -1.27449,-0.5478 -1.32282,-3.3706 -0.0267,-1.56101 -0.10042,-4.36704 -0.16377,-6.23563 -0.0633,-1.86859 0.0255,-3.48437 0.19743,-3.59063 0.17193,-0.10626 3.16588,-0.2943 6.65322,-0.41786 3.48734,-0.12356 6.43795,-0.23408 6.55692,-0.2456 1.0284,-0.0996 1.18813,0.22355 1.18813,2.40357 0,1.28283 0.16603,2.33243 0.36896,2.33243 0.20292,0 0.83251,-0.60776 1.39908,-1.35057 0.56855,-0.74541 1.97436,-1.79726 3.13744,-2.34748 2.75464,-1.30316 4.93927,-1.21404 8.59238,0.3505 3.76807,1.61377 4.62003,3.08453 5.12055,8.83978 0.39785,4.57473 0.36114,7.92312 -0.0918,8.3761 -0.16923,0.16923 -2.70135,0.36357 -5.62693,0.43187 -6.42598,0.15002 -6.71882,0.0191 -6.97921,-3.12084 -0.14939,-1.8015 -0.33022,-2.22333 -1.1043,-2.57602 -1.18386,-0.5394 -2.62176,-0.0176 -3.4548,1.2538 -0.79965,1.22044 -1.27773,5.71621 -1.05839,9.95327 0.0945,1.82575 0.16905,5.02514 0.16565,7.10975 l -0.006,3.7902 1.47052,0 c 0.80878,0 1.63821,0.21867 1.84318,0.48592 0.20813,0.27141 0.35786,3.4892 0.33915,7.28886 l -0.0335,6.80292 -7.19167,0.19437 c -3.95542,0.10691 -7.88918,0.13761 -8.74169,0.0682 z M 61.345389,62.83215 c -0.122484,-0.31919 -0.641112,-0.58035 -1.152502,-0.58035 -0.51139,0 -1.574244,-0.43733 -2.361895,-0.97185 -0.787655,-0.53452 -1.510464,-0.97185 -1.606245,-0.97185 -0.50856,0 -2.294426,-1.93404 -2.929493,-3.17256 -1.641134,-3.20055 -1.827966,-6.06989 -1.375432,-21.12361 0.330133,-10.98204 0.397929,-11.51161 1.804592,-14.09641 2.024831,-3.72072 3.969594,-5.40808 7.528999,-6.5325 5.223218,-1.65001 10.003313,-1.90545 12.673253,-0.67723 0.96213,0.44259 2.14292,0.92481 2.62399,1.0716 0.48106,0.14679 0.87466,0.48199 0.87466,0.74491 0,0.2629 0.70086,1.16238 1.55745,1.99883 1.67472,1.63531 3.25773,5.1026 3.15479,6.90994 -0.0339,0.59471 0.11136,1.40447 0.32275,1.79945 0.21138,0.39499 0.47665,1.83265 0.58948,3.19483 0.11283,1.36216 0.37689,3.61373 0.5868,5.00347 0.20991,1.38974 0.38517,3.53267 0.38947,4.76205 l 0.008,2.23525 -3.98457,0.0518 c -2.19151,0.0285 -6.69602,0.0757 -10.01002,0.105 -3.314,0.0292 -6.219732,0.17612 -6.457182,0.32638 -0.676452,0.42805 -0.369197,4.94197 0.450607,6.61991 0.777034,1.5904 2.316766,2.29631 4.033137,1.84902 1.107178,-0.28853 1.459518,-0.84994 1.775768,-2.82947 0.26767,-1.67545 -0.1995,-1.59171 8.54545,-1.53164 5.37167,0.0369 5.78539,0.25549 5.22281,2.75937 -0.8341,3.71229 -2.90067,6.90595 -6.06022,9.3654 -4.0726,3.17018 -6.12083,3.88045 -11.843149,4.10687 -3.416279,0.13517 -4.17727,0.0625 -4.361112,-0.41661 z M 72.696176,31.93573 c 0.0716,-0.47998 -0.0596,-1.06245 -0.29155,-1.29436 -0.23191,-0.23191 -0.42165,-0.8819 -0.42165,-1.44443 0,-1.53034 -1.37404,-2.10193 -4.314118,-1.79463 -2.692774,0.28145 -3.139166,0.66089 -3.883566,3.30113 -0.331746,1.17664 -0.351167,1.76612 -0.06405,1.9437 0.226662,0.14018 2.30947,0.23383 4.628472,0.20809 4.055452,-0.045 4.221332,-0.0801 4.346462,-0.9195 z M 271.98907,62.98914 c -1.06904,-0.18291 -2.73089,-0.44325 -3.69302,-0.57854 -1.90405,-0.26774 -4.19164,-1.29607 -5.26016,-2.36458 -0.94435,-0.94435 -2.82943,-0.77265 -6.96085,0.63405 -5.96177,2.02991 -11.4253,1.51366 -13.5549,-1.28081 -1.87115,-2.45532 -3.03605,-5.30966 -3.25388,-7.97296 -0.20043,-2.45048 -0.12509,-2.76372 1.43762,-5.97767 1.98221,-4.07669 5.07275,-7.22992 10.01111,-10.21418 4.09347,-2.47368 4.76228,-3.06041 6.25275,-5.48533 1.88738,-3.07071 1.54646,-4.39875 -1.13522,-4.4222 -1.11389,-0.01 -2.30855,1.49705 -2.30855,2.9117 0,0.87989 -0.23518,1.45763 -0.69312,1.70272 -0.82543,0.44175 -11.73504,0.33837 -12.47379,-0.1182 -0.54436,-0.33644 -0.48302,-1.06021 0.41965,-4.95113 0.28057,-1.20942 0.79161,-2.52141 1.13563,-2.91554 0.34402,-0.39414 0.69206,-0.92431 0.77341,-1.17817 0.0813,-0.25385 1.11004,-1.5977 2.28597,-2.98633 2.0139,-2.37815 2.32996,-2.58839 5.44234,-3.6202 4.26025,-1.41235 10.48061,-1.57487 13.02275,-0.34025 2.36272,1.14748 6.27631,4.73998 7.1662,6.57825 1.77277,3.66205 2.42328,7.43806 2.38647,13.85284 -0.019,3.31399 -0.11263,7.40772 -0.20804,9.09716 -0.17051,3.01907 0.0742,4.07025 1.21272,5.20873 0.28694,0.28694 0.52909,1.34015 0.5381,2.34046 0.009,1.0003 0.0528,4.16503 0.0972,7.03272 0.05,3.22766 -0.0673,5.24561 -0.30795,5.297 -0.21381,0.0457 -1.2634,-0.0666 -2.33243,-0.24954 z M 259.62156,48.57818 c 0.69641,-0.65425 0.89971,-1.26395 0.89971,-2.69823 0,-1.01914 -0.17132,-1.95887 -0.3807,-2.08828 -1.03057,-0.63692 -4.6729,2.54971 -4.6729,4.08826 0,1.34064 0.2479,1.54349 1.88624,1.54349 0.86946,0 1.69578,-0.308 2.26765,-0.84524 z M 122.0315,62.60723 c -4.3045,-1.01449 -8.17282,-4.213 -9.42334,-7.79165 -0.66833,-1.9126 -0.73745,-3.63805 -0.82337,-20.55297 -0.0791,-15.58437 -0.006,-18.60155 0.46995,-19.33976 0.31005,-0.48106 0.48115,-0.87466 0.38023,-0.87466 -0.33113,0 1.00585,-2.86649 1.85835,-3.98429 0.45871,-0.60147 1.84651,-2.109 3.08398,-3.35007 1.95527,-1.96095 2.68048,-2.39956 5.537,-3.34874 2.82732,-0.93949 3.67436,-1.05978 6.05645,-0.86007 3.26837,0.274 4.76361,1.13359 6.3593,3.65583 1.58927,2.51209 2.20944,2.04153 1.59886,-1.21315 -0.4387,-2.33845 0.18032,-2.57382 6.25541,-2.37845 2.90062,0.0933 5.37332,0.26907 5.4949,0.39064 0.24025,0.24025 0.13068,6.40601 -0.12108,6.81337 -0.0847,0.13707 -0.18232,3.74248 -0.2169,8.01202 -0.043,5.30468 -0.20962,7.96348 -0.5263,8.39657 -0.3789,0.51818 -1.05705,0.61035 -3.7178,0.5053 -1.7899,-0.0707 -3.67502,0.0314 -4.18915,0.22692 -1.73611,0.66007 -2.19793,-0.0359 -2.62254,-3.95215 -0.31845,-2.9372 -0.52874,-3.66297 -1.16314,-4.01433 -0.42592,-0.2359 -1.27027,-0.8225 -1.87633,-1.30357 -1.39014,-1.10342 -3.3927,-1.13331 -5.26548,-0.0786 -1.14217,0.64325 -1.55488,1.22159 -2.14993,3.01272 -0.6364,1.91562 -0.75991,3.77412 -0.90935,13.68446 -0.1675,11.1069 -0.14653,11.52652 0.66621,13.33418 1.23038,2.73654 3.75591,3.42544 6.34015,1.72944 1.91415,-1.25622 2.73351,-2.83364 2.97834,-5.73389 l 0.21332,-2.52681 5.83108,0 5.83108,0 -0.13687,10.69032 c -0.0753,5.87967 -0.2608,10.82336 -0.41228,10.98598 -0.15148,0.16261 -2.53894,0.16261 -5.30547,0 l -5.03007,-0.29566 0.11015,-1.42682 c 0.0606,-0.78475 -0.069,-1.53757 -0.28806,-1.67292 -0.46645,-0.28829 -2.31882,0.96184 -2.33667,1.57697 -0.007,0.2315 -0.93061,0.61032 -2.0531,0.84182 -1.12248,0.23149 -2.7406,0.60643 -3.59583,0.8332 -1.83547,0.48669 -4.85769,0.49055 -6.9017,0.009 z m 62.5309,-0.43559 c -2.65193,-0.34122 -5.42516,-1.56797 -6.26941,-2.77331 l -0.58635,-0.83713 -2.42298,0.9205 c -5.36057,2.03648 -6.79975,2.45692 -9.10742,2.66058 -3.14841,0.27786 -5.67479,-0.39075 -7.67755,-2.03186 -3.63033,-2.97478 -4.63542,-8.29465 -2.38634,-12.6307 2.62788,-5.06633 4.21695,-6.74331 8.71133,-9.19319 3.26383,-1.77912 7.52485,-4.76786 8.12018,-5.69561 0.78568,-1.22439 1.21553,-3.15991 0.85245,-3.83834 -0.48873,-0.9132 -2.32899,-0.929 -3.43626,-0.0295 -0.72637,0.59007 -0.90808,1.13427 -1.14806,3.43828 -0.0503,0.48303 -10.82739,1.0988 -11.91651,0.68087 -0.56283,-0.21598 -0.63461,-0.66743 -0.47903,-3.01267 0.14059,-2.11922 0.51044,-3.44505 1.59567,-5.72017 1.36506,-2.86176 1.90722,-3.47844 5.89207,-6.70187 1.75464,-1.41937 5.24832,-2.53531 9.87402,-3.15394 3.79549,-0.50759 5.83086,-0.25187 6.99771,0.87922 0.29726,0.28815 0.92862,0.77822 1.40301,1.08906 1.24408,0.81515 3.18674,4.7516 3.67572,7.44818 0.2312,1.27502 0.48378,6.32519 0.56129,11.2226 0.15816,9.99361 0.43001,11.19381 2.91373,12.86406 l 1.31944,0.88729 -0.0319,6.70672 c -0.0175,3.6887 -0.0429,6.79419 -0.0564,6.90109 -0.0376,0.2977 -3.831,0.25018 -6.39844,-0.0802 z M 172.77507,50.1514 c 1.91209,-0.384 2.2328,-0.5836 2.59164,-1.61296 0.60833,-1.74506 0.51907,-4.15099 -0.16373,-4.413 -0.60207,-0.23104 -2.96879,1.06524 -4.2087,2.30514 -0.4007,0.4007 -0.98857,1.35088 -1.30638,2.1115 -0.47567,1.13845 -0.48683,1.44066 -0.0631,1.7093 0.65489,0.41521 0.57184,0.41785 3.15029,-0.1 z M 0.84276357,61.66747 c -0.469522,-0.56574 -0.523569,-1.33107 -0.439158,-6.2186 0.03324,-1.92426 0.01466,-5.07304 -0.04126,-6.9973 l -0.101682,-3.49865 1.61515503,-0.11773 c 1.351217,-0.0985 1.6549,-0.27608 1.85837,-1.08677 0.243684,-0.97093 0.265388,-9.23966 0.05958,-22.70247 L 3.6838366,13.85474 2.2440376,13.62071 C 1.4521496,13.49199 0.64785657,13.22938 0.45672157,13.03714 0.05792657,12.63603 -0.19258043,0.96036 0.18941357,0.57837 0.52817257,0.23961 1.8431236,0.18708 12.505935,0.0863 L 21.641297,0 21.497926,6.72347 c -0.156413,7.33523 -0.266022,7.67551 -2.480617,7.70112 -0.973034,0.0112 -1.069494,0.14327 -1.07418,1.47014 -0.0028,0.80177 -0.07826,3.11963 -0.167613,5.15079 -0.08936,2.03116 -0.218238,8.76606 -0.286405,14.96644 -0.102563,9.32885 -0.03307,11.25431 0.402901,11.1626 0.289763,-0.061 0.748654,0.0733 1.019759,0.29826 0.271105,0.225 0.733756,0.32463 1.028113,0.22142 0.294357,-0.10322 2.2079,-0.27043 4.252312,-0.37158 2.605658,-0.12892 4.084779,-0.39447 4.946686,-0.88807 1.220244,-0.69882 3.305003,-3.92381 3.150604,-4.87377 -0.04427,-0.27239 0.03456,-0.80139 0.175185,-1.17555 0.140626,-0.37416 0.32829,-0.91828 0.417031,-1.20915 0.12875,-0.422 1.130211,-0.49151 4.956419,-0.34403 2.63729,0.10165 4.970002,0.34831 5.183808,0.54812 0.213807,0.19981 0.354025,1.27302 0.311598,2.38491 -0.04243,1.11189 -0.190319,5.9576 -0.328648,10.76824 -0.150138,5.22133 -0.418123,8.94934 -0.664899,9.24959 C 41.738858,62.51433 1.4525466,62.40225 0.84275857,61.6675 z M 341.37893,61.48704 l -7.5804,-0.20709 0,-1.22968 c 0,-1.80549 -0.39899,-1.92806 -1.92233,-0.59055 -1.55601,1.36619 -3.28613,1.83194 -6.62992,1.78475 -4.20366,-0.0593 -6.19623,-0.77407 -8.11863,-2.91225 -2.86715,-3.18895 -3.01053,-4.33035 -2.87714,-22.9034 0.12118,-16.87142 0.0791,-16.50978 2.18583,-18.76794 1.45485,-1.55941 4.94191,-3.11957 6.43312,-2.87828 3.3902,0.54857 6.03431,1.56064 8.0366,3.07611 1.06502,0.80608 1.99464,1.46561 2.06583,1.46561 0.0712,0 0.24254,-1.33786 0.38076,-2.97302 0.29379,-3.47559 0.0118,-4.02428 -2.06827,-4.02428 -2.37294,0 -2.86016,-0.89342 -2.97171,-5.44925 -0.0521,-2.1281 0.0432,-3.95454 0.21182,-4.05874 0.1686,-0.10421 4.48556,-0.22096 9.59323,-0.25945 l 9.28667,-0.07 -0.12655,3.0722 c -0.41284,10.02256 0.13203,39.08711 0.75494,40.27054 0.20841,0.39595 0.9244,0.7048 1.80238,0.77748 l 1.45661,0.12058 0.26941,7.56726 c 0.28966,8.13629 0.19803,8.62799 -1.58041,8.48094 -0.56179,-0.0464 -4.43261,-0.17765 -8.60184,-0.29156 z M 331.8396,47.23741 c 0.3473,-0.13327 0.95552,-0.87753 1.3516,-1.65391 0.6358,-1.24627 0.69927,-2.11708 0.5419,-7.43528 -0.17882,-6.04297 -0.69184,-8.7024 -1.96179,-10.16955 -0.77911,-0.9001 -3.1535,-0.55811 -4.34304,0.62554 -0.89484,0.89042 -0.926,1.11507 -0.87446,6.30359 0.0673,6.77122 0.42682,11.45807 0.92723,12.086 0.40293,0.50561 3.2597,0.66528 4.35856,0.24361 z" style="fill:#000000" sodipodi:nodetypes="csscscsscsscsssssccccscscsccccssssscccsscccsssssssssssssssssssscscsscsssscsssssscscccccssscssssssscccsssssssssscscssssssscsscscscccssscccscccccccsssssssssccccssssscscsssssssscssssscccsssssccsccssssssssssssssssssssssssssssssscsssssssssssssssssccsssssssssssssssssssscscsssssssssscssscscsssscsssssssscsssccssscscscssscssssssssssssscssscscccssssssssssscsssscssssssssssccssssssssssssssssscssssssssssssssssssscssscsssssssssssssssssssssssssscccssscsscsscccscssssssssssssssssssscscccsssssssssscssscsssscscsssssssssssssssssscsssssssssssssscssscsssssssssss"/>
</svg>