<?xml version="1.0" encoding="UTF-8" standalone="no"?>
<!DOCTYPE svg PUBLIC "-//W3C//DTD SVG 1.1//EN"
 "http://www.w3.org/Graphics/SVG/1.1/DTD/svg11.dtd">
<!-- Generated by graphviz version 2.49.3 (20211023.0002)
 -->
<!-- Title: G Pages: 1 -->
<svg width="697pt" height="131pt"
 viewBox="0.00 0.00 697.29 131.00" xmlns="http://www.w3.org/2000/svg" xmlns:xlink="http://www.w3.org/1999/xlink">
<g id="page0,1_graph0" class="graph" transform="scale(1 1) rotate(0) translate(4 127)">
<title>G</title>
<polygon fill="white" stroke="transparent" points="-4,4 -4,-127 693.29,-127 693.29,4 -4,4"/>
<!-- w:Nicolas_Beytout -->
<g id="node1" class="node">
<title>w:Nicolas_Beytout</title>
<ellipse fill="none" stroke="black" cx="81.24" cy="-105" rx="81.49" ry="18"/>
<text text-anchor="middle" x="81.24" y="-101.3" font-family="Times,serif" font-size="14.00">w:Nicolas_Beytout</text>
</g>
<!-- w:L&#39;Opinion_(quotidien,_2013) -->
<g id="node2" class="node">
<title>w:L&#39;Opinion_(quotidien,_2013)</title>
<ellipse fill="none" stroke="black" cx="357.24" cy="-18" rx="126.98" ry="18"/>
<text text-anchor="middle" x="357.24" y="-14.3" font-family="Times,serif" font-size="14.00">w:L&#39;Opinion_(quotidien,_2013)</text>
</g>
<!-- w:Nicolas_Beytout&#45;&gt;w:L&#39;Opinion_(quotidien,_2013) -->
<g id="edge1" class="edge">
<title>w:Nicolas_Beytout&#45;&gt;w:L&#39;Opinion_(quotidien,_2013)</title>
<path fill="none" stroke="black" d="M126.82,-89.96C173.28,-75.66 245.6,-53.38 296.82,-37.61"/>
<polygon fill="black" stroke="black" points="297.92,-40.93 306.44,-34.64 295.86,-34.24 297.92,-40.93"/>
<text text-anchor="middle" x="249.24" y="-57.8" font-family="Times,serif" font-size="14.00">30%</text>
</g>
<!-- w:Bernard_Arnault -->
<g id="node3" class="node">
<title>w:Bernard_Arnault</title>
<ellipse fill="none" stroke="black" cx="261.24" cy="-105" rx="81.49" ry="18"/>
<text text-anchor="middle" x="261.24" y="-101.3" font-family="Times,serif" font-size="14.00">w:Bernard_Arnault</text>
</g>
<!-- w:Bernard_Arnault&#45;&gt;w:L&#39;Opinion_(quotidien,_2013) -->
<g id="edge2" class="edge">
<title>w:Bernard_Arnault&#45;&gt;w:L&#39;Opinion_(quotidien,_2013)</title>
<path fill="none" stroke="black" d="M280.21,-87.21C294.58,-74.48 314.51,-56.84 330.5,-42.68"/>
<polygon fill="black" stroke="black" points="332.82,-45.3 337.99,-36.05 328.18,-40.06 332.82,-45.3"/>
<text text-anchor="middle" x="328.24" y="-57.8" font-family="Times,serif" font-size="14.00">44%</text>
</g>
<!-- w:Liliane_Bettencourt -->
<g id="node4" class="node">
<title>w:Liliane_Bettencourt</title>
<ellipse fill="none" stroke="black" cx="453.24" cy="-105" rx="92.08" ry="18"/>
<text text-anchor="middle" x="453.24" y="-101.3" font-family="Times,serif" font-size="14.00">w:Liliane_Bettencourt</text>
</g>
<!-- w:Liliane_Bettencourt&#45;&gt;w:L&#39;Opinion_(quotidien,_2013) -->
<g id="edge3" class="edge">
<title>w:Liliane_Bettencourt&#45;&gt;w:L&#39;Opinion_(quotidien,_2013)</title>
<path fill="none" stroke="black" d="M434.28,-87.21C419.91,-74.48 399.98,-56.84 383.99,-42.68"/>
<polygon fill="black" stroke="black" points="386.31,-40.06 376.5,-36.05 381.67,-45.3 386.31,-40.06"/>
<text text-anchor="middle" x="424.24" y="-57.8" font-family="Times,serif" font-size="14.00">13%</text>
</g>
<!-- w:News_Corp -->
<g id="node5" class="node">
<title>w:News_Corp</title>
<ellipse fill="none" stroke="black" cx="626.24" cy="-105" rx="63.09" ry="18"/>
<text text-anchor="middle" x="626.24" y="-101.3" font-family="Times,serif" font-size="14.00">w:News_Corp</text>
</g>
<!-- w:News_Corp&#45;&gt;w:L&#39;Opinion_(quotidien,_2013) -->
<g id="edge4" class="edge">
<title>w:News_Corp&#45;&gt;w:L&#39;Opinion_(quotidien,_2013)</title>
<path fill="none" stroke="black" d="M585.68,-91.18C540.73,-76.98 467.82,-53.94 416.48,-37.72"/>
<polygon fill="black" stroke="black" points="417.43,-34.35 406.84,-34.67 415.32,-41.02 417.43,-34.35"/>
<text text-anchor="middle" x="520.24" y="-57.8" font-family="Times,serif" font-size="14.00">15%</text>
</g>
</g>
</svg>
