<?xml version="1.0" encoding="UTF-8" standalone="no"?>
<!DOCTYPE svg PUBLIC "-//W3C//DTD SVG 1.1//EN"
 "http://www.w3.org/Graphics/SVG/1.1/DTD/svg11.dtd">
<!-- Generated by graphviz version 2.49.3 (20211023.0002)
 -->
<!-- Title: G Pages: 1 -->
<svg width="183pt" height="218pt"
 viewBox="0.00 0.00 183.48 218.00" xmlns="http://www.w3.org/2000/svg" xmlns:xlink="http://www.w3.org/1999/xlink">
<g id="page0,1_graph0" class="graph" transform="scale(1 1) rotate(0) translate(4 214)">
<title>G</title>
<polygon fill="white" stroke="transparent" points="-4,4 -4,-214 179.48,-214 179.48,4 -4,4"/>
<!-- w:Artémis_(holding) -->
<g id="node1" class="node">
<title>w:Artémis_(holding)</title>
<ellipse fill="none" stroke="black" cx="87.74" cy="-105" rx="87.99" ry="18"/>
<text text-anchor="middle" x="87.74" y="-101.3" font-family="Times,serif" font-size="14.00">w:Artémis_(holding)</text>
</g>
<!-- w:Le_Point -->
<g id="node2" class="node">
<title>w:Le_Point</title>
<ellipse fill="none" stroke="black" cx="87.74" cy="-18" rx="53.09" ry="18"/>
<text text-anchor="middle" x="87.74" y="-14.3" font-family="Times,serif" font-size="14.00">w:Le_Point</text>
</g>
<!-- w:Artémis_(holding)&#45;&gt;w:Le_Point -->
<g id="edge1" class="edge">
<title>w:Artémis_(holding)&#45;&gt;w:Le_Point</title>
<path fill="none" stroke="black" d="M87.74,-86.8C87.74,-75.16 87.74,-59.55 87.74,-46.24"/>
<polygon fill="black" stroke="black" points="91.24,-46.18 87.74,-36.18 84.24,-46.18 91.24,-46.18"/>
<text text-anchor="middle" x="104.24" y="-57.8" font-family="Times,serif" font-size="14.00">100%</text>
</g>
<!-- w:François_Pinault -->
<g id="node3" class="node">
<title>w:François_Pinault</title>
<ellipse fill="none" stroke="black" cx="87.74" cy="-192" rx="81.49" ry="18"/>
<text text-anchor="middle" x="87.74" y="-188.3" font-family="Times,serif" font-size="14.00">w:François_Pinault</text>
</g>
<!-- w:François_Pinault&#45;&gt;w:Artémis_(holding) -->
<g id="edge2" class="edge">
<title>w:François_Pinault&#45;&gt;w:Artémis_(holding)</title>
<path fill="none" stroke="black" d="M87.74,-173.8C87.74,-162.16 87.74,-146.55 87.74,-133.24"/>
<polygon fill="black" stroke="black" points="91.24,-133.18 87.74,-123.18 84.24,-133.18 91.24,-133.18"/>
<text text-anchor="middle" x="104.24" y="-144.8" font-family="Times,serif" font-size="14.00">100%</text>
</g>
</g>
</svg>
