<?xml version="1.0" encoding="UTF-8" standalone="no"?>
<!DOCTYPE svg PUBLIC "-//W3C//DTD SVG 1.1//EN"
 "http://www.w3.org/Graphics/SVG/1.1/DTD/svg11.dtd">
<!-- Generated by graphviz version 2.49.3 (20211023.0002)
 -->
<!-- Title: G Pages: 1 -->
<svg width="185pt" height="305pt"
 viewBox="0.00 0.00 184.78 305.00" xmlns="http://www.w3.org/2000/svg" xmlns:xlink="http://www.w3.org/1999/xlink">
<g id="page0,1_graph0" class="graph" transform="scale(1 1) rotate(0) translate(4 301)">
<title>G</title>
<polygon fill="white" stroke="transparent" points="-4,4 -4,-301 180.78,-301 180.78,4 -4,4"/>
<!-- w:Société_du_Figaro -->
<g id="node1" class="node">
<title>w:Société_du_Figaro</title>
<ellipse fill="none" stroke="black" cx="88.39" cy="-105" rx="88.28" ry="18"/>
<text text-anchor="middle" x="88.39" y="-101.3" font-family="Times,serif" font-size="14.00">w:Société_du_Figaro</text>
</g>
<!-- w:Le_Figaro -->
<g id="node2" class="node">
<title>w:Le_Figaro</title>
<ellipse fill="none" stroke="black" cx="88.39" cy="-18" rx="57.69" ry="18"/>
<text text-anchor="middle" x="88.39" y="-14.3" font-family="Times,serif" font-size="14.00">w:Le_Figaro</text>
</g>
<!-- w:Société_du_Figaro&#45;&gt;w:Le_Figaro -->
<g id="edge1" class="edge">
<title>w:Société_du_Figaro&#45;&gt;w:Le_Figaro</title>
<path fill="none" stroke="black" d="M88.39,-86.8C88.39,-75.16 88.39,-59.55 88.39,-46.24"/>
<polygon fill="black" stroke="black" points="91.89,-46.18 88.39,-36.18 84.89,-46.18 91.89,-46.18"/>
<text text-anchor="middle" x="104.89" y="-57.8" font-family="Times,serif" font-size="14.00">100%</text>
</g>
<!-- w:Socpresse -->
<g id="node3" class="node">
<title>w:Socpresse</title>
<ellipse fill="none" stroke="black" cx="88.39" cy="-192" rx="55.79" ry="18"/>
<text text-anchor="middle" x="88.39" y="-188.3" font-family="Times,serif" font-size="14.00">w:Socpresse</text>
</g>
<!-- w:Socpresse&#45;&gt;w:Société_du_Figaro -->
<g id="edge2" class="edge">
<title>w:Socpresse&#45;&gt;w:Société_du_Figaro</title>
<path fill="none" stroke="black" d="M88.39,-173.8C88.39,-162.16 88.39,-146.55 88.39,-133.24"/>
<polygon fill="black" stroke="black" points="91.89,-133.18 88.39,-123.18 84.89,-133.18 91.89,-133.18"/>
<text text-anchor="middle" x="104.89" y="-144.8" font-family="Times,serif" font-size="14.00">100%</text>
</g>
<!-- w:Serge_Dassault -->
<g id="node4" class="node">
<title>w:Serge_Dassault</title>
<ellipse fill="none" stroke="black" cx="88.39" cy="-279" rx="76.09" ry="18"/>
<text text-anchor="middle" x="88.39" y="-275.3" font-family="Times,serif" font-size="14.00">w:Serge_Dassault</text>
</g>
<!-- w:Serge_Dassault&#45;&gt;w:Socpresse -->
<g id="edge3" class="edge">
<title>w:Serge_Dassault&#45;&gt;w:Socpresse</title>
<path fill="none" stroke="black" d="M88.39,-260.8C88.39,-249.16 88.39,-233.55 88.39,-220.24"/>
<polygon fill="black" stroke="black" points="91.89,-220.18 88.39,-210.18 84.89,-220.18 91.89,-220.18"/>
<text text-anchor="middle" x="104.89" y="-231.8" font-family="Times,serif" font-size="14.00">100%</text>
</g>
</g>
</svg>
