<?xml version="1.0" encoding="UTF-8" standalone="no"?>
<!DOCTYPE svg PUBLIC "-//W3C//DTD SVG 1.1//EN"
 "http://www.w3.org/Graphics/SVG/1.1/DTD/svg11.dtd">
<!-- Generated by graphviz version 2.49.3 (20211023.0002)
 -->
<!-- Title: G Pages: 1 -->
<svg width="1140pt" height="392pt"
 viewBox="0.00 0.00 1140.48 392.00" xmlns="http://www.w3.org/2000/svg" xmlns:xlink="http://www.w3.org/1999/xlink">
<g id="page0,1_graph0" class="graph" transform="scale(1 1) rotate(0) translate(4 388)">
<title>G</title>
<polygon fill="white" stroke="transparent" points="-4,4 -4,-388 1136.48,-388 1136.48,4 -4,4"/>
<!-- w:Groupe_Perdriel -->
<g id="node1" class="node">
<title>w:Groupe_Perdriel</title>
<ellipse fill="none" stroke="black" cx="591.59" cy="-105" rx="80.69" ry="18"/>
<text text-anchor="middle" x="591.59" y="-101.3" font-family="Times,serif" font-size="14.00">w:Groupe_Perdriel</text>
</g>
<!-- w:Challenges -->
<g id="node2" class="node">
<title>w:Challenges</title>
<ellipse fill="none" stroke="black" cx="591.59" cy="-18" rx="60.39" ry="18"/>
<text text-anchor="middle" x="591.59" y="-14.3" font-family="Times,serif" font-size="14.00">w:Challenges</text>
</g>
<!-- w:Groupe_Perdriel&#45;&gt;w:Challenges -->
<g id="edge1" class="edge">
<title>w:Groupe_Perdriel&#45;&gt;w:Challenges</title>
<path fill="none" stroke="black" d="M591.59,-86.8C591.59,-75.16 591.59,-59.55 591.59,-46.24"/>
<polygon fill="black" stroke="black" points="595.09,-46.18 591.59,-36.18 588.09,-46.18 595.09,-46.18"/>
<text text-anchor="middle" x="608.09" y="-57.8" font-family="Times,serif" font-size="14.00">100%</text>
</g>
<!-- w:Claude_Perdriel -->
<g id="node3" class="node">
<title>w:Claude_Perdriel</title>
<ellipse fill="none" stroke="black" cx="435.59" cy="-192" rx="78.79" ry="18"/>
<text text-anchor="middle" x="435.59" y="-188.3" font-family="Times,serif" font-size="14.00">w:Claude_Perdriel</text>
</g>
<!-- w:Claude_Perdriel&#45;&gt;w:Groupe_Perdriel -->
<g id="edge2" class="edge">
<title>w:Claude_Perdriel&#45;&gt;w:Groupe_Perdriel</title>
<path fill="none" stroke="black" d="M464.57,-175.21C489.67,-161.54 526.15,-141.66 553.58,-126.71"/>
<polygon fill="black" stroke="black" points="555.4,-129.71 562.51,-121.85 552.05,-123.56 555.4,-129.71"/>
<text text-anchor="middle" x="536.59" y="-144.8" font-family="Times,serif" font-size="14.00">93%</text>
</g>
<!-- w:Le_Monde -->
<g id="node4" class="node">
<title>w:Le_Monde</title>
<ellipse fill="none" stroke="black" cx="591.59" cy="-192" rx="59.59" ry="18"/>
<text text-anchor="middle" x="591.59" y="-188.3" font-family="Times,serif" font-size="14.00">w:Le_Monde</text>
</g>
<!-- w:Le_Monde&#45;&gt;w:Groupe_Perdriel -->
<g id="edge3" class="edge">
<title>w:Le_Monde&#45;&gt;w:Groupe_Perdriel</title>
<path fill="none" stroke="black" d="M591.59,-173.8C591.59,-162.16 591.59,-146.55 591.59,-133.24"/>
<polygon fill="black" stroke="black" points="595.09,-133.18 591.59,-123.18 588.09,-133.18 595.09,-133.18"/>
<text text-anchor="middle" x="601.09" y="-144.8" font-family="Times,serif" font-size="14.00">6%</text>
</g>
<!-- lml -->
<g id="node5" class="node">
<title>lml</title>
<ellipse fill="none" stroke="black" cx="404.59" cy="-279" rx="27" ry="18"/>
<text text-anchor="middle" x="404.59" y="-275.3" font-family="Times,serif" font-size="14.00">lml</text>
</g>
<!-- lml&#45;&gt;w:Le_Monde -->
<g id="edge4" class="edge">
<title>lml&#45;&gt;w:Le_Monde</title>
<path fill="none" stroke="black" d="M426.41,-268.08C456.79,-254.28 512.39,-229 550.63,-211.62"/>
<polygon fill="black" stroke="black" points="552.3,-214.71 559.95,-207.38 549.4,-208.33 552.3,-214.71"/>
<text text-anchor="middle" x="522.59" y="-231.8" font-family="Times,serif" font-size="14.00">64%</text>
</g>
<!-- w:Pierre_Bergé -->
<g id="node6" class="node">
<title>w:Pierre_Bergé</title>
<ellipse fill="none" stroke="black" cx="67.59" cy="-366" rx="67.69" ry="18"/>
<text text-anchor="middle" x="67.59" y="-362.3" font-family="Times,serif" font-size="14.00">w:Pierre_Bergé</text>
</g>
<!-- w:Pierre_Bergé&#45;&gt;lml -->
<g id="edge5" class="edge">
<title>w:Pierre_Bergé&#45;&gt;lml</title>
<path fill="none" stroke="black" d="M114.81,-353.09C183.3,-335.82 308.68,-304.19 369.57,-288.83"/>
<polygon fill="black" stroke="black" points="370.62,-292.18 379.46,-286.34 368.91,-285.39 370.62,-292.18"/>
<text text-anchor="middle" x="269.59" y="-318.8" font-family="Times,serif" font-size="14.00">26%</text>
</g>
<!-- w:Matthieu_Pigasse -->
<g id="node7" class="node">
<title>w:Matthieu_Pigasse</title>
<ellipse fill="none" stroke="black" cx="237.59" cy="-366" rx="84.49" ry="18"/>
<text text-anchor="middle" x="237.59" y="-362.3" font-family="Times,serif" font-size="14.00">w:Matthieu_Pigasse</text>
</g>
<!-- w:Matthieu_Pigasse&#45;&gt;lml -->
<g id="edge6" class="edge">
<title>w:Matthieu_Pigasse&#45;&gt;lml</title>
<path fill="none" stroke="black" d="M268.61,-349.21C298.91,-333.79 344.72,-310.47 374.65,-295.24"/>
<polygon fill="black" stroke="black" points="376.44,-298.26 383.77,-290.6 373.27,-292.02 376.44,-298.26"/>
<text text-anchor="middle" x="344.59" y="-318.8" font-family="Times,serif" font-size="14.00">26%</text>
</g>
<!-- w:Xavier_Niel -->
<g id="node8" class="node">
<title>w:Xavier_Niel</title>
<ellipse fill="none" stroke="black" cx="404.59" cy="-366" rx="64.99" ry="18"/>
<text text-anchor="middle" x="404.59" y="-362.3" font-family="Times,serif" font-size="14.00">w:Xavier_Niel</text>
</g>
<!-- w:Xavier_Niel&#45;&gt;lml -->
<g id="edge7" class="edge">
<title>w:Xavier_Niel&#45;&gt;lml</title>
<path fill="none" stroke="black" d="M404.59,-347.8C404.59,-336.16 404.59,-320.55 404.59,-307.24"/>
<polygon fill="black" stroke="black" points="408.09,-307.18 404.59,-297.18 401.09,-307.18 408.09,-307.18"/>
<text text-anchor="middle" x="417.59" y="-318.8" font-family="Times,serif" font-size="14.00">26%</text>
</g>
<!-- w:Prisa -->
<g id="node9" class="node">
<title>w:Prisa</title>
<ellipse fill="none" stroke="black" cx="525.59" cy="-366" rx="38.19" ry="18"/>
<text text-anchor="middle" x="525.59" y="-362.3" font-family="Times,serif" font-size="14.00">w:Prisa</text>
</g>
<!-- w:Prisa&#45;&gt;lml -->
<g id="edge8" class="edge">
<title>w:Prisa&#45;&gt;lml</title>
<path fill="none" stroke="black" d="M505.07,-350.58C484.59,-336.2 453.06,-314.04 430.79,-298.4"/>
<polygon fill="black" stroke="black" points="432.65,-295.43 422.46,-292.55 428.63,-301.16 432.65,-295.43"/>
<text text-anchor="middle" x="485.59" y="-318.8" font-family="Times,serif" font-size="14.00">23%</text>
</g>
<!-- lmpa -->
<g id="node10" class="node">
<title>lmpa</title>
<ellipse fill="none" stroke="black" cx="714.59" cy="-279" rx="28.7" ry="18"/>
<text text-anchor="middle" x="714.59" y="-275.3" font-family="Times,serif" font-size="14.00">lmpa</text>
</g>
<!-- lmpa&#45;&gt;w:Le_Monde -->
<g id="edge9" class="edge">
<title>lmpa&#45;&gt;w:Le_Monde</title>
<path fill="none" stroke="black" d="M695.91,-265.09C676.61,-251.75 646.12,-230.68 623.08,-214.76"/>
<polygon fill="black" stroke="black" points="624.87,-211.74 614.65,-208.93 620.89,-217.5 624.87,-211.74"/>
<text text-anchor="middle" x="673.59" y="-231.8" font-family="Times,serif" font-size="14.00">34%</text>
</g>
<!-- actionnaires_internes_Le_Monde -->
<g id="node11" class="node">
<title>actionnaires_internes_Le_Monde</title>
<ellipse fill="none" stroke="black" cx="714.59" cy="-366" rx="132.68" ry="18"/>
<text text-anchor="middle" x="714.59" y="-362.3" font-family="Times,serif" font-size="14.00">actionnaires_internes_Le_Monde</text>
</g>
<!-- actionnaires_internes_Le_Monde&#45;&gt;lmpa -->
<g id="edge10" class="edge">
<title>actionnaires_internes_Le_Monde&#45;&gt;lmpa</title>
<path fill="none" stroke="black" d="M714.59,-347.8C714.59,-336.16 714.59,-320.55 714.59,-307.24"/>
<polygon fill="black" stroke="black" points="718.09,-307.18 714.59,-297.18 711.09,-307.18 718.09,-307.18"/>
<text text-anchor="middle" x="727.59" y="-318.8" font-family="Times,serif" font-size="14.00">52%</text>
</g>
<!-- actionnaires_externes_Le_Monde -->
<g id="node12" class="node">
<title>actionnaires_externes_Le_Monde</title>
<ellipse fill="none" stroke="black" cx="998.59" cy="-366" rx="133.78" ry="18"/>
<text text-anchor="middle" x="998.59" y="-362.3" font-family="Times,serif" font-size="14.00">actionnaires_externes_Le_Monde</text>
</g>
<!-- actionnaires_externes_Le_Monde&#45;&gt;lmpa -->
<g id="edge11" class="edge">
<title>actionnaires_externes_Le_Monde&#45;&gt;lmpa</title>
<path fill="none" stroke="black" d="M946.5,-349.41C889.28,-332.28 798.95,-305.25 749.61,-290.48"/>
<polygon fill="black" stroke="black" points="750.61,-287.13 740.02,-287.61 748.6,-293.83 750.61,-287.13"/>
<text text-anchor="middle" x="886.59" y="-318.8" font-family="Times,serif" font-size="14.00">48%</text>
</g>
<!-- société_rédacteurs_perdriel -->
<g id="node13" class="node">
<title>société_rédacteurs_perdriel</title>
<ellipse fill="none" stroke="black" cx="779.59" cy="-192" rx="110.48" ry="18"/>
<text text-anchor="middle" x="779.59" y="-188.3" font-family="Times,serif" font-size="14.00">société_rédacteurs_perdriel</text>
</g>
<!-- société_rédacteurs_perdriel&#45;&gt;w:Groupe_Perdriel -->
<g id="edge12" class="edge">
<title>société_rédacteurs_perdriel&#45;&gt;w:Groupe_Perdriel</title>
<path fill="none" stroke="black" d="M743.79,-174.81C712.86,-160.83 668.07,-140.58 635.08,-125.66"/>
<polygon fill="black" stroke="black" points="636.23,-122.34 625.68,-121.41 633.35,-128.72 636.23,-122.34"/>
<text text-anchor="middle" x="706.09" y="-144.8" font-family="Times,serif" font-size="14.00">1%</text>
</g>
</g>
</svg>
