<?xml version="1.0" encoding="UTF-8" standalone="no"?>
<!DOCTYPE svg PUBLIC "-//W3C//DTD SVG 1.1//EN"
 "http://www.w3.org/Graphics/SVG/1.1/DTD/svg11.dtd">
<!-- Generated by graphviz version 2.49.3 (20211023.0002)
 -->
<!-- Title: G Pages: 1 -->
<svg width="177pt" height="218pt"
 viewBox="0.00 0.00 176.99 218.00" xmlns="http://www.w3.org/2000/svg" xmlns:xlink="http://www.w3.org/1999/xlink">
<g id="page0,1_graph0" class="graph" transform="scale(1 1) rotate(0) translate(4 214)">
<title>G</title>
<polygon fill="white" stroke="transparent" points="-4,4 -4,-214 172.99,-214 172.99,4 -4,4"/>
<!-- w:Groupe_Bayard -->
<g id="node1" class="node">
<title>w:Groupe_Bayard</title>
<ellipse fill="none" stroke="black" cx="84.49" cy="-105" rx="77.99" ry="18"/>
<text text-anchor="middle" x="84.49" y="-101.3" font-family="Times,serif" font-size="14.00">w:Groupe_Bayard</text>
</g>
<!-- w:La_Croix -->
<g id="node2" class="node">
<title>w:La_Croix</title>
<ellipse fill="none" stroke="black" cx="84.49" cy="-18" rx="54.69" ry="18"/>
<text text-anchor="middle" x="84.49" y="-14.3" font-family="Times,serif" font-size="14.00">w:La_Croix</text>
</g>
<!-- w:Groupe_Bayard&#45;&gt;w:La_Croix -->
<g id="edge1" class="edge">
<title>w:Groupe_Bayard&#45;&gt;w:La_Croix</title>
<path fill="none" stroke="black" d="M84.49,-86.8C84.49,-75.16 84.49,-59.55 84.49,-46.24"/>
<polygon fill="black" stroke="black" points="87.99,-46.18 84.49,-36.18 80.99,-46.18 87.99,-46.18"/>
<text text-anchor="middle" x="100.99" y="-57.8" font-family="Times,serif" font-size="14.00">100%</text>
</g>
<!-- w:Assomptionnistes -->
<g id="node3" class="node">
<title>w:Assomptionnistes</title>
<ellipse fill="none" stroke="black" cx="84.49" cy="-192" rx="84.49" ry="18"/>
<text text-anchor="middle" x="84.49" y="-188.3" font-family="Times,serif" font-size="14.00">w:Assomptionnistes</text>
</g>
<!-- w:Assomptionnistes&#45;&gt;w:Groupe_Bayard -->
<g id="edge2" class="edge">
<title>w:Assomptionnistes&#45;&gt;w:Groupe_Bayard</title>
<path fill="none" stroke="black" d="M84.49,-173.8C84.49,-162.16 84.49,-146.55 84.49,-133.24"/>
<polygon fill="black" stroke="black" points="87.99,-133.18 84.49,-123.18 80.99,-133.18 87.99,-133.18"/>
<text text-anchor="middle" x="100.99" y="-144.8" font-family="Times,serif" font-size="14.00">100%</text>
</g>
</g>
</svg>
