<?xml version="1.0" encoding="UTF-8" standalone="no"?>
<!DOCTYPE svg PUBLIC "-//W3C//DTD SVG 1.1//EN"
 "http://www.w3.org/Graphics/SVG/1.1/DTD/svg11.dtd">
<!-- Generated by graphviz version 2.49.3 (20211023.0002)
 -->
<!-- Title: G Pages: 1 -->
<svg width="1140pt" height="218pt"
 viewBox="0.00 0.00 1139.93 218.00" xmlns="http://www.w3.org/2000/svg" xmlns:xlink="http://www.w3.org/1999/xlink">
<g id="page0,1_graph0" class="graph" transform="scale(1 1) rotate(0) translate(4 214)">
<title>G</title>
<polygon fill="white" stroke="transparent" points="-4,4 -4,-214 1135.93,-214 1135.93,4 -4,4"/>
<!-- lml -->
<g id="node1" class="node">
<title>lml</title>
<ellipse fill="none" stroke="black" cx="805.59" cy="-105" rx="27" ry="18"/>
<text text-anchor="middle" x="805.59" y="-101.3" font-family="Times,serif" font-size="14.00">lml</text>
</g>
<!-- w:Le_Monde -->
<g id="node2" class="node">
<title>w:Le_Monde</title>
<ellipse fill="none" stroke="black" cx="610.59" cy="-18" rx="59.59" ry="18"/>
<text text-anchor="middle" x="610.59" y="-14.3" font-family="Times,serif" font-size="14.00">w:Le_Monde</text>
</g>
<!-- lml&#45;&gt;w:Le_Monde -->
<g id="edge1" class="edge">
<title>lml&#45;&gt;w:Le_Monde</title>
<path fill="none" stroke="black" d="M783.6,-94.41C751.88,-80.59 692.68,-54.78 652.46,-37.25"/>
<polygon fill="black" stroke="black" points="653.74,-33.99 643.18,-33.21 650.95,-40.41 653.74,-33.99"/>
<text text-anchor="middle" x="733.59" y="-57.8" font-family="Times,serif" font-size="14.00">64%</text>
</g>
<!-- w:Pierre_Bergé -->
<g id="node3" class="node">
<title>w:Pierre_Bergé</title>
<ellipse fill="none" stroke="black" cx="635.59" cy="-192" rx="67.69" ry="18"/>
<text text-anchor="middle" x="635.59" y="-188.3" font-family="Times,serif" font-size="14.00">w:Pierre_Bergé</text>
</g>
<!-- w:Pierre_Bergé&#45;&gt;lml -->
<g id="edge2" class="edge">
<title>w:Pierre_Bergé&#45;&gt;lml</title>
<path fill="none" stroke="black" d="M665.98,-175.8C696.97,-160.31 744.74,-136.42 775.58,-121"/>
<polygon fill="black" stroke="black" points="777.2,-124.11 784.58,-116.51 774.07,-117.85 777.2,-124.11"/>
<text text-anchor="middle" x="744.59" y="-144.8" font-family="Times,serif" font-size="14.00">26%</text>
</g>
<!-- w:Matthieu_Pigasse -->
<g id="node4" class="node">
<title>w:Matthieu_Pigasse</title>
<ellipse fill="none" stroke="black" cx="805.59" cy="-192" rx="84.49" ry="18"/>
<text text-anchor="middle" x="805.59" y="-188.3" font-family="Times,serif" font-size="14.00">w:Matthieu_Pigasse</text>
</g>
<!-- w:Matthieu_Pigasse&#45;&gt;lml -->
<g id="edge3" class="edge">
<title>w:Matthieu_Pigasse&#45;&gt;lml</title>
<path fill="none" stroke="black" d="M805.59,-173.8C805.59,-162.16 805.59,-146.55 805.59,-133.24"/>
<polygon fill="black" stroke="black" points="809.09,-133.18 805.59,-123.18 802.09,-133.18 809.09,-133.18"/>
<text text-anchor="middle" x="818.59" y="-144.8" font-family="Times,serif" font-size="14.00">26%</text>
</g>
<!-- w:Xavier_Niel -->
<g id="node5" class="node">
<title>w:Xavier_Niel</title>
<ellipse fill="none" stroke="black" cx="972.59" cy="-192" rx="64.99" ry="18"/>
<text text-anchor="middle" x="972.59" y="-188.3" font-family="Times,serif" font-size="14.00">w:Xavier_Niel</text>
</g>
<!-- w:Xavier_Niel&#45;&gt;lml -->
<g id="edge4" class="edge">
<title>w:Xavier_Niel&#45;&gt;lml</title>
<path fill="none" stroke="black" d="M942.73,-175.8C912.59,-160.46 866.29,-136.9 835.97,-121.46"/>
<polygon fill="black" stroke="black" points="837.22,-118.17 826.72,-116.76 834.05,-124.41 837.22,-118.17"/>
<text text-anchor="middle" x="912.59" y="-144.8" font-family="Times,serif" font-size="14.00">26%</text>
</g>
<!-- w:Prisa -->
<g id="node6" class="node">
<title>w:Prisa</title>
<ellipse fill="none" stroke="black" cx="1093.59" cy="-192" rx="38.19" ry="18"/>
<text text-anchor="middle" x="1093.59" y="-188.3" font-family="Times,serif" font-size="14.00">w:Prisa</text>
</g>
<!-- w:Prisa&#45;&gt;lml -->
<g id="edge5" class="edge">
<title>w:Prisa&#45;&gt;lml</title>
<path fill="none" stroke="black" d="M1064.62,-180.15C1058.68,-178.03 1052.45,-175.89 1046.59,-174 973.71,-150.57 887.07,-127.2 840.08,-114.89"/>
<polygon fill="black" stroke="black" points="840.96,-111.51 830.4,-112.37 839.19,-118.28 840.96,-111.51"/>
<text text-anchor="middle" x="999.59" y="-144.8" font-family="Times,serif" font-size="14.00">23%</text>
</g>
<!-- lmpa -->
<g id="node7" class="node">
<title>lmpa</title>
<ellipse fill="none" stroke="black" cx="416.59" cy="-105" rx="28.7" ry="18"/>
<text text-anchor="middle" x="416.59" y="-101.3" font-family="Times,serif" font-size="14.00">lmpa</text>
</g>
<!-- lmpa&#45;&gt;w:Le_Monde -->
<g id="edge6" class="edge">
<title>lmpa&#45;&gt;w:Le_Monde</title>
<path fill="none" stroke="black" d="M439.6,-93.92C471.34,-80.01 529.09,-54.71 568.62,-37.39"/>
<polygon fill="black" stroke="black" points="570.5,-40.39 578.25,-33.17 567.69,-33.98 570.5,-40.39"/>
<text text-anchor="middle" x="538.59" y="-57.8" font-family="Times,serif" font-size="14.00">34%</text>
</g>
<!-- actionnaires_internes_Le_Monde -->
<g id="node8" class="node">
<title>actionnaires_internes_Le_Monde</title>
<ellipse fill="none" stroke="black" cx="132.59" cy="-192" rx="132.68" ry="18"/>
<text text-anchor="middle" x="132.59" y="-188.3" font-family="Times,serif" font-size="14.00">actionnaires_internes_Le_Monde</text>
</g>
<!-- actionnaires_internes_Le_Monde&#45;&gt;lmpa -->
<g id="edge7" class="edge">
<title>actionnaires_internes_Le_Monde&#45;&gt;lmpa</title>
<path fill="none" stroke="black" d="M184.68,-175.41C241.91,-158.28 332.23,-131.25 381.57,-116.48"/>
<polygon fill="black" stroke="black" points="382.58,-119.83 391.16,-113.61 380.57,-113.13 382.58,-119.83"/>
<text text-anchor="middle" x="305.59" y="-144.8" font-family="Times,serif" font-size="14.00">52%</text>
</g>
<!-- actionnaires_externes_Le_Monde -->
<g id="node9" class="node">
<title>actionnaires_externes_Le_Monde</title>
<ellipse fill="none" stroke="black" cx="416.59" cy="-192" rx="133.78" ry="18"/>
<text text-anchor="middle" x="416.59" y="-188.3" font-family="Times,serif" font-size="14.00">actionnaires_externes_Le_Monde</text>
</g>
<!-- actionnaires_externes_Le_Monde&#45;&gt;lmpa -->
<g id="edge8" class="edge">
<title>actionnaires_externes_Le_Monde&#45;&gt;lmpa</title>
<path fill="none" stroke="black" d="M416.59,-173.8C416.59,-162.16 416.59,-146.55 416.59,-133.24"/>
<polygon fill="black" stroke="black" points="420.09,-133.18 416.59,-123.18 413.09,-133.18 420.09,-133.18"/>
<text text-anchor="middle" x="429.59" y="-144.8" font-family="Times,serif" font-size="14.00">48%</text>
</g>
</g>
</svg>
