<?xml version="1.0" encoding="UTF-8" standalone="no"?>
<!DOCTYPE svg PUBLIC "-//W3C//DTD SVG 1.1//EN"
 "http://www.w3.org/Graphics/SVG/1.1/DTD/svg11.dtd">
<!-- Generated by graphviz version 2.49.3 (20211023.0002)
 -->
<!-- Title: G Pages: 1 -->
<svg width="966pt" height="305pt"
 viewBox="0.00 0.00 965.54 305.00" xmlns="http://www.w3.org/2000/svg" xmlns:xlink="http://www.w3.org/1999/xlink">
<g id="page0,1_graph0" class="graph" transform="scale(1 1) rotate(0) translate(4 301)">
<title>G</title>
<polygon fill="white" stroke="transparent" points="-4,4 -4,-301 961.54,-301 961.54,4 -4,4"/>
<!-- w:Société_française_du_radiotéléphone -->
<g id="node1" class="node">
<title>w:Société_française_du_radiotéléphone</title>
<ellipse fill="none" stroke="black" cx="536.84" cy="-105" rx="155.97" ry="18"/>
<text text-anchor="middle" x="536.84" y="-101.3" font-family="Times,serif" font-size="14.00">w:Société_française_du_radiotéléphone</text>
</g>
<!-- w:Libération_(journal) -->
<g id="node2" class="node">
<title>w:Libération_(journal)</title>
<ellipse fill="none" stroke="black" cx="536.84" cy="-18" rx="94.48" ry="18"/>
<text text-anchor="middle" x="536.84" y="-14.3" font-family="Times,serif" font-size="14.00">w:Libération_(journal)</text>
</g>
<!-- w:Société_française_du_radiotéléphone&#45;&gt;w:Libération_(journal) -->
<g id="edge1" class="edge">
<title>w:Société_française_du_radiotéléphone&#45;&gt;w:Libération_(journal)</title>
<path fill="none" stroke="black" d="M536.84,-86.8C536.84,-75.16 536.84,-59.55 536.84,-46.24"/>
<polygon fill="black" stroke="black" points="540.34,-46.18 536.84,-36.18 533.34,-46.18 540.34,-46.18"/>
<text text-anchor="middle" x="553.34" y="-57.8" font-family="Times,serif" font-size="14.00">100%</text>
</g>
<!-- w:Altice -->
<g id="node3" class="node">
<title>w:Altice</title>
<ellipse fill="none" stroke="black" cx="466.84" cy="-192" rx="42.49" ry="18"/>
<text text-anchor="middle" x="466.84" y="-188.3" font-family="Times,serif" font-size="14.00">w:Altice</text>
</g>
<!-- w:Altice&#45;&gt;w:Société_française_du_radiotéléphone -->
<g id="edge2" class="edge">
<title>w:Altice&#45;&gt;w:Société_française_du_radiotéléphone</title>
<path fill="none" stroke="black" d="M480.34,-174.61C490.5,-162.27 504.61,-145.14 516.19,-131.08"/>
<polygon fill="black" stroke="black" points="519.01,-133.16 522.67,-123.21 513.61,-128.71 519.01,-133.16"/>
<text text-anchor="middle" x="519.84" y="-144.8" font-family="Times,serif" font-size="14.00">78%</text>
</g>
<!-- w:Patrick_Drahi -->
<g id="node4" class="node">
<title>w:Patrick_Drahi</title>
<ellipse fill="none" stroke="black" cx="70.84" cy="-279" rx="70.69" ry="18"/>
<text text-anchor="middle" x="70.84" y="-275.3" font-family="Times,serif" font-size="14.00">w:Patrick_Drahi</text>
</g>
<!-- w:Patrick_Drahi&#45;&gt;w:Altice -->
<g id="edge3" class="edge">
<title>w:Patrick_Drahi&#45;&gt;w:Altice</title>
<path fill="none" stroke="black" d="M123.02,-266.8C200.65,-250.14 345.38,-219.07 419.87,-203.08"/>
<polygon fill="black" stroke="black" points="420.86,-206.45 429.9,-200.93 419.39,-199.61 420.86,-206.45"/>
<text text-anchor="middle" x="305.84" y="-231.8" font-family="Times,serif" font-size="14.00">58%</text>
</g>
<!-- Europacific Growth Fund -->
<g id="node5" class="node">
<title>Europacific Growth Fund</title>
<ellipse fill="none" stroke="black" cx="263.84" cy="-279" rx="103.98" ry="18"/>
<text text-anchor="middle" x="263.84" y="-275.3" font-family="Times,serif" font-size="14.00">Europacific Growth Fund</text>
</g>
<!-- Europacific Growth Fund&#45;&gt;w:Altice -->
<g id="edge4" class="edge">
<title>Europacific Growth Fund&#45;&gt;w:Altice</title>
<path fill="none" stroke="black" d="M301.55,-262.21C337.76,-247.05 392.18,-224.26 428.57,-209.02"/>
<polygon fill="black" stroke="black" points="430,-212.22 437.87,-205.13 427.3,-205.76 430,-212.22"/>
<text text-anchor="middle" x="387.34" y="-231.8" font-family="Times,serif" font-size="14.00">5%</text>
</g>
<!-- Carmignac Gestion -->
<g id="node6" class="node">
<title>Carmignac Gestion</title>
<ellipse fill="none" stroke="black" cx="466.84" cy="-279" rx="81.49" ry="18"/>
<text text-anchor="middle" x="466.84" y="-275.3" font-family="Times,serif" font-size="14.00">Carmignac Gestion</text>
</g>
<!-- Carmignac Gestion&#45;&gt;w:Altice -->
<g id="edge5" class="edge">
<title>Carmignac Gestion&#45;&gt;w:Altice</title>
<path fill="none" stroke="black" d="M466.84,-260.8C466.84,-249.16 466.84,-233.55 466.84,-220.24"/>
<polygon fill="black" stroke="black" points="470.34,-220.18 466.84,-210.18 463.34,-220.18 470.34,-220.18"/>
<text text-anchor="middle" x="476.34" y="-231.8" font-family="Times,serif" font-size="14.00">3%</text>
</g>
<!-- w:Fidelity_Investments -->
<g id="node7" class="node">
<title>w:Fidelity_Investments</title>
<ellipse fill="none" stroke="black" cx="662.84" cy="-279" rx="96.68" ry="18"/>
<text text-anchor="middle" x="662.84" y="-275.3" font-family="Times,serif" font-size="14.00">w:Fidelity_Investments</text>
</g>
<!-- w:Fidelity_Investments&#45;&gt;w:Altice -->
<g id="edge6" class="edge">
<title>w:Fidelity_Investments&#45;&gt;w:Altice</title>
<path fill="none" stroke="black" d="M626.44,-262.21C591.83,-247.2 539.99,-224.72 504.86,-209.49"/>
<polygon fill="black" stroke="black" points="505.99,-206.16 495.42,-205.39 503.2,-212.58 505.99,-206.16"/>
<text text-anchor="middle" x="585.34" y="-231.8" font-family="Times,serif" font-size="14.00">3%</text>
</g>
<!-- capital_flottant_altice -->
<g id="node8" class="node">
<title>capital_flottant_altice</title>
<ellipse fill="none" stroke="black" cx="867.84" cy="-279" rx="89.88" ry="18"/>
<text text-anchor="middle" x="867.84" y="-275.3" font-family="Times,serif" font-size="14.00">capital_flottant_altice</text>
</g>
<!-- capital_flottant_altice&#45;&gt;w:Altice -->
<g id="edge7" class="edge">
<title>capital_flottant_altice&#45;&gt;w:Altice</title>
<path fill="none" stroke="black" d="M803.39,-266.43C717.9,-250.91 571.64,-223.72 518.84,-210 515.43,-209.11 511.91,-208.13 508.4,-207.09"/>
<polygon fill="black" stroke="black" points="509.15,-203.66 498.56,-204.06 507.09,-210.35 509.15,-203.66"/>
<text text-anchor="middle" x="686.84" y="-231.8" font-family="Times,serif" font-size="14.00">31%</text>
</g>
<!-- capital_flottant_sfr -->
<g id="node9" class="node">
<title>capital_flottant_sfr</title>
<ellipse fill="none" stroke="black" cx="606.84" cy="-192" rx="79.09" ry="18"/>
<text text-anchor="middle" x="606.84" y="-188.3" font-family="Times,serif" font-size="14.00">capital_flottant_sfr</text>
</g>
<!-- capital_flottant_sfr&#45;&gt;w:Société_française_du_radiotéléphone -->
<g id="edge8" class="edge">
<title>capital_flottant_sfr&#45;&gt;w:Société_française_du_radiotéléphone</title>
<path fill="none" stroke="black" d="M593.01,-174.21C582.82,-161.83 568.79,-144.8 557.31,-130.85"/>
<polygon fill="black" stroke="black" points="559.94,-128.54 550.88,-123.05 554.54,-132.99 559.94,-128.54"/>
<text text-anchor="middle" x="588.84" y="-144.8" font-family="Times,serif" font-size="14.00">22%</text>
</g>
</g>
</svg>
