<?xml version="1.0" encoding="UTF-8" standalone="no"?>
<!DOCTYPE svg PUBLIC "-//W3C//DTD SVG 1.1//EN"
 "http://www.w3.org/Graphics/SVG/1.1/DTD/svg11.dtd">
<!-- Generated by graphviz version 2.49.3 (20211023.0002)
 -->
<!-- Title: G Pages: 1 -->
<svg width="1340pt" height="131pt"
 viewBox="0.00 0.00 1339.93 131.00" xmlns="http://www.w3.org/2000/svg" xmlns:xlink="http://www.w3.org/1999/xlink">
<g id="page0,1_graph0" class="graph" transform="scale(1 1) rotate(0) translate(4 127)">
<title>G</title>
<polygon fill="white" stroke="transparent" points="-4,4 -4,-127 1335.93,-127 1335.93,4 -4,4"/>
<!-- fondateurs_les_jours -->
<g id="node1" class="node">
<title>fondateurs_les_jours</title>
<ellipse fill="none" stroke="black" cx="86.44" cy="-105" rx="86.38" ry="18"/>
<text text-anchor="middle" x="86.44" y="-101.3" font-family="Times,serif" font-size="14.00">fondateurs_les_jours</text>
</g>
<!-- w:Les_Jours -->
<g id="node2" class="node">
<title>w:Les_Jours</title>
<ellipse fill="none" stroke="black" cx="609.44" cy="-18" rx="56.59" ry="18"/>
<text text-anchor="middle" x="609.44" y="-14.3" font-family="Times,serif" font-size="14.00">w:Les_Jours</text>
</g>
<!-- fondateurs_les_jours&#45;&gt;w:Les_Jours -->
<g id="edge1" class="edge">
<title>fondateurs_les_jours&#45;&gt;w:Les_Jours</title>
<path fill="none" stroke="black" d="M149.28,-92.63C160,-90.73 171.04,-88.79 181.44,-87 270.23,-71.73 292.47,-68.17 381.44,-54 438.25,-44.95 503.09,-35.04 549.06,-28.08"/>
<polygon fill="black" stroke="black" points="549.79,-31.51 559.15,-26.55 548.74,-24.59 549.79,-31.51"/>
<text text-anchor="middle" x="394.44" y="-57.8" font-family="Times,serif" font-size="14.00">89%</text>
</g>
<!-- w:Xavier_Niel -->
<g id="node3" class="node">
<title>w:Xavier_Niel</title>
<ellipse fill="none" stroke="black" cx="255.44" cy="-105" rx="64.99" ry="18"/>
<text text-anchor="middle" x="255.44" y="-101.3" font-family="Times,serif" font-size="14.00">w:Xavier_Niel</text>
</g>
<!-- w:Xavier_Niel&#45;&gt;w:Les_Jours -->
<g id="edge2" class="edge">
<title>w:Xavier_Niel&#45;&gt;w:Les_Jours</title>
<path fill="none" stroke="black" d="M302.82,-92.62C368.54,-76.84 487.05,-48.39 555.9,-31.86"/>
<polygon fill="black" stroke="black" points="556.78,-35.25 565.68,-29.51 555.14,-28.44 556.78,-35.25"/>
<text text-anchor="middle" x="463.94" y="-57.8" font-family="Times,serif" font-size="14.00">3%</text>
</g>
<!-- w:Olivier_Legrain -->
<g id="node4" class="node">
<title>w:Olivier_Legrain</title>
<ellipse fill="none" stroke="black" cx="417.44" cy="-105" rx="78.79" ry="18"/>
<text text-anchor="middle" x="417.44" y="-101.3" font-family="Times,serif" font-size="14.00">w:Olivier_Legrain</text>
</g>
<!-- w:Olivier_Legrain&#45;&gt;w:Les_Jours -->
<g id="edge3" class="edge">
<title>w:Olivier_Legrain&#45;&gt;w:Les_Jours</title>
<path fill="none" stroke="black" d="M451.77,-88.8C484.4,-74.36 533.53,-52.61 568.26,-37.23"/>
<polygon fill="black" stroke="black" points="569.92,-40.33 577.64,-33.08 567.08,-33.92 569.92,-40.33"/>
<text text-anchor="middle" x="534.94" y="-57.8" font-family="Times,serif" font-size="14.00">2%</text>
</g>
<!-- w:Marc&#45;Olivier_Fogiel -->
<g id="node5" class="node">
<title>w:Marc&#45;Olivier_Fogiel</title>
<ellipse fill="none" stroke="black" cx="609.44" cy="-105" rx="95.58" ry="18"/>
<text text-anchor="middle" x="609.44" y="-101.3" font-family="Times,serif" font-size="14.00">w:Marc&#45;Olivier_Fogiel</text>
</g>
<!-- w:Marc&#45;Olivier_Fogiel&#45;&gt;w:Les_Jours -->
<g id="edge4" class="edge">
<title>w:Marc&#45;Olivier_Fogiel&#45;&gt;w:Les_Jours</title>
<path fill="none" stroke="black" d="M609.44,-86.8C609.44,-75.16 609.44,-59.55 609.44,-46.24"/>
<polygon fill="black" stroke="black" points="612.94,-46.18 609.44,-36.18 605.94,-46.18 612.94,-46.18"/>
<text text-anchor="middle" x="618.94" y="-57.8" font-family="Times,serif" font-size="14.00">1%</text>
</g>
<!-- w:Pierre&#45;Antoine_Capton -->
<g id="node6" class="node">
<title>w:Pierre&#45;Antoine_Capton</title>
<ellipse fill="none" stroke="black" cx="827.44" cy="-105" rx="104.78" ry="18"/>
<text text-anchor="middle" x="827.44" y="-101.3" font-family="Times,serif" font-size="14.00">w:Pierre&#45;Antoine_Capton</text>
</g>
<!-- w:Pierre&#45;Antoine_Capton&#45;&gt;w:Les_Jours -->
<g id="edge5" class="edge">
<title>w:Pierre&#45;Antoine_Capton&#45;&gt;w:Les_Jours</title>
<path fill="none" stroke="black" d="M787.2,-88.31C749.21,-73.5 692.38,-51.34 653.25,-36.08"/>
<polygon fill="black" stroke="black" points="654.3,-32.73 643.71,-32.36 651.76,-39.26 654.3,-32.73"/>
<text text-anchor="middle" x="741.94" y="-57.8" font-family="Times,serif" font-size="14.00">1%</text>
</g>
<!-- w:Matthieu_Pigasse -->
<g id="node7" class="node">
<title>w:Matthieu_Pigasse</title>
<ellipse fill="none" stroke="black" cx="1034.44" cy="-105" rx="84.49" ry="18"/>
<text text-anchor="middle" x="1034.44" y="-101.3" font-family="Times,serif" font-size="14.00">w:Matthieu_Pigasse</text>
</g>
<!-- w:Matthieu_Pigasse&#45;&gt;w:Les_Jours -->
<g id="edge6" class="edge">
<title>w:Matthieu_Pigasse&#45;&gt;w:Les_Jours</title>
<path fill="none" stroke="black" d="M974.9,-92.09C892.96,-75.7 746.49,-46.41 666.1,-30.33"/>
<polygon fill="black" stroke="black" points="666.65,-26.87 656.16,-28.34 665.28,-33.74 666.65,-26.87"/>
<text text-anchor="middle" x="856.94" y="-57.8" font-family="Times,serif" font-size="14.00">1%</text>
</g>
<!-- Famille_amis_les_jours -->
<g id="node8" class="node">
<title>Famille_amis_les_jours</title>
<ellipse fill="none" stroke="black" cx="1234.44" cy="-105" rx="97.48" ry="18"/>
<text text-anchor="middle" x="1234.44" y="-101.3" font-family="Times,serif" font-size="14.00">Famille_amis_les_jours</text>
</g>
<!-- Famille_amis_les_jours&#45;&gt;w:Les_Jours -->
<g id="edge7" class="edge">
<title>Famille_amis_les_jours&#45;&gt;w:Les_Jours</title>
<path fill="none" stroke="black" d="M1163.98,-92.53C1151.8,-90.62 1139.26,-88.71 1127.44,-87 962.94,-63.14 768.5,-38.59 671.29,-26.57"/>
<polygon fill="black" stroke="black" points="671.69,-23.09 661.34,-25.34 670.84,-30.04 671.69,-23.09"/>
<text text-anchor="middle" x="993.94" y="-57.8" font-family="Times,serif" font-size="14.00">1%</text>
</g>
</g>
</svg>
