<?xml version="1.0" encoding="UTF-8" standalone="no"?>
<!DOCTYPE svg PUBLIC "-//W3C//DTD SVG 1.1//EN"
 "http://www.w3.org/Graphics/SVG/1.1/DTD/svg11.dtd">
<!-- Generated by graphviz version 2.49.3 (20211023.0002)
 -->
<!-- Title: G Pages: 1 -->
<svg width="423pt" height="218pt"
 viewBox="0.00 0.00 422.64 218.00" xmlns="http://www.w3.org/2000/svg" xmlns:xlink="http://www.w3.org/1999/xlink">
<g id="page0,1_graph0" class="graph" transform="scale(1 1) rotate(0) translate(4 214)">
<title>G</title>
<polygon fill="white" stroke="transparent" points="-4,4 -4,-214 418.64,-214 418.64,4 -4,4"/>
<!-- w:Les_Nouvelles_Éditions_indépendantes -->
<g id="node1" class="node">
<title>w:Les_Nouvelles_Éditions_indépendantes</title>
<ellipse fill="none" stroke="black" cx="219.49" cy="-105" rx="165.97" ry="18"/>
<text text-anchor="middle" x="219.49" y="-101.3" font-family="Times,serif" font-size="14.00">w:Les_Nouvelles_Éditions_indépendantes</text>
</g>
<!-- w:Les_Inrockuptibles -->
<g id="node2" class="node">
<title>w:Les_Inrockuptibles</title>
<ellipse fill="none" stroke="black" cx="219.49" cy="-18" rx="90.18" ry="18"/>
<text text-anchor="middle" x="219.49" y="-14.3" font-family="Times,serif" font-size="14.00">w:Les_Inrockuptibles</text>
</g>
<!-- w:Les_Nouvelles_Éditions_indépendantes&#45;&gt;w:Les_Inrockuptibles -->
<g id="edge1" class="edge">
<title>w:Les_Nouvelles_Éditions_indépendantes&#45;&gt;w:Les_Inrockuptibles</title>
<path fill="none" stroke="black" d="M219.49,-86.8C219.49,-75.16 219.49,-59.55 219.49,-46.24"/>
<polygon fill="black" stroke="black" points="222.99,-46.18 219.49,-36.18 215.99,-46.18 222.99,-46.18"/>
<text text-anchor="middle" x="235.99" y="-57.8" font-family="Times,serif" font-size="14.00">100%</text>
</g>
<!-- w:Matthieu_Pigasse -->
<g id="node3" class="node">
<title>w:Matthieu_Pigasse</title>
<ellipse fill="none" stroke="black" cx="84.49" cy="-192" rx="84.49" ry="18"/>
<text text-anchor="middle" x="84.49" y="-188.3" font-family="Times,serif" font-size="14.00">w:Matthieu_Pigasse</text>
</g>
<!-- w:Matthieu_Pigasse&#45;&gt;w:Les_Nouvelles_Éditions_indépendantes -->
<g id="edge2" class="edge">
<title>w:Matthieu_Pigasse&#45;&gt;w:Les_Nouvelles_Éditions_indépendantes</title>
<path fill="none" stroke="black" d="M110.2,-174.81C131.1,-161.66 160.8,-142.96 183.96,-128.37"/>
<polygon fill="black" stroke="black" points="185.89,-131.29 192.49,-123 182.16,-125.37 185.89,-131.29"/>
<text text-anchor="middle" x="173.49" y="-144.8" font-family="Times,serif" font-size="14.00">78%</text>
</g>
<!-- orium -->
<g id="node4" class="node">
<title>orium</title>
<ellipse fill="none" stroke="black" cx="219.49" cy="-192" rx="32.49" ry="18"/>
<text text-anchor="middle" x="219.49" y="-188.3" font-family="Times,serif" font-size="14.00">orium</text>
</g>
<!-- orium&#45;&gt;w:Les_Nouvelles_Éditions_indépendantes -->
<g id="edge3" class="edge">
<title>orium&#45;&gt;w:Les_Nouvelles_Éditions_indépendantes</title>
<path fill="none" stroke="black" d="M219.49,-173.8C219.49,-162.16 219.49,-146.55 219.49,-133.24"/>
<polygon fill="black" stroke="black" points="222.99,-133.18 219.49,-123.18 215.99,-133.18 222.99,-133.18"/>
<text text-anchor="middle" x="232.49" y="-144.8" font-family="Times,serif" font-size="14.00">18%</text>
</g>
<!-- Christian_Fevret -->
<g id="node5" class="node">
<title>Christian_Fevret</title>
<ellipse fill="none" stroke="black" cx="342.49" cy="-192" rx="72.29" ry="18"/>
<text text-anchor="middle" x="342.49" y="-188.3" font-family="Times,serif" font-size="14.00">Christian_Fevret</text>
</g>
<!-- Christian_Fevret&#45;&gt;w:Les_Nouvelles_Éditions_indépendantes -->
<g id="edge4" class="edge">
<title>Christian_Fevret&#45;&gt;w:Les_Nouvelles_Éditions_indépendantes</title>
<path fill="none" stroke="black" d="M319.07,-174.81C300.2,-161.77 273.45,-143.29 252.42,-128.76"/>
<polygon fill="black" stroke="black" points="254.31,-125.81 244.09,-123 250.33,-131.57 254.31,-125.81"/>
<text text-anchor="middle" x="296.99" y="-144.8" font-family="Times,serif" font-size="14.00">2%</text>
</g>
</g>
</svg>
