<?xml version="1.0" encoding="UTF-8" standalone="no"?>
<!DOCTYPE svg PUBLIC "-//W3C//DTD SVG 1.1//EN"
 "http://www.w3.org/Graphics/SVG/1.1/DTD/svg11.dtd">
<!-- Generated by graphviz version 2.49.3 (20211023.0002)
 -->
<!-- Title: G Pages: 1 -->
<svg width="921pt" height="218pt"
 viewBox="0.00 0.00 921.14 218.00" xmlns="http://www.w3.org/2000/svg" xmlns:xlink="http://www.w3.org/1999/xlink">
<g id="page0,1_graph0" class="graph" transform="scale(1 1) rotate(0) translate(4 214)">
<title>G</title>
<polygon fill="white" stroke="transparent" points="-4,4 -4,-214 917.14,-214 917.14,4 -4,4"/>
<!-- w:LVMH -->
<g id="node1" class="node">
<title>w:LVMH</title>
<ellipse fill="none" stroke="black" cx="494.24" cy="-105" rx="45.49" ry="18"/>
<text text-anchor="middle" x="494.24" y="-101.3" font-family="Times,serif" font-size="14.00">w:LVMH</text>
</g>
<!-- w:Le_Parisien -->
<g id="node2" class="node">
<title>w:Le_Parisien</title>
<ellipse fill="none" stroke="black" cx="494.24" cy="-18" rx="63.09" ry="18"/>
<text text-anchor="middle" x="494.24" y="-14.3" font-family="Times,serif" font-size="14.00">w:Le_Parisien</text>
</g>
<!-- w:LVMH&#45;&gt;w:Le_Parisien -->
<g id="edge1" class="edge">
<title>w:LVMH&#45;&gt;w:Le_Parisien</title>
<path fill="none" stroke="black" d="M494.24,-86.8C494.24,-75.16 494.24,-59.55 494.24,-46.24"/>
<polygon fill="black" stroke="black" points="497.74,-46.18 494.24,-36.18 490.74,-46.18 497.74,-46.18"/>
<text text-anchor="middle" x="510.74" y="-57.8" font-family="Times,serif" font-size="14.00">100%</text>
</g>
<!-- w:Bernard_Arnault -->
<g id="node3" class="node">
<title>w:Bernard_Arnault</title>
<ellipse fill="none" stroke="black" cx="81.24" cy="-192" rx="81.49" ry="18"/>
<text text-anchor="middle" x="81.24" y="-188.3" font-family="Times,serif" font-size="14.00">w:Bernard_Arnault</text>
</g>
<!-- w:Bernard_Arnault&#45;&gt;w:LVMH -->
<g id="edge2" class="edge">
<title>w:Bernard_Arnault&#45;&gt;w:LVMH</title>
<path fill="none" stroke="black" d="M138.67,-179.18C220.23,-162.4 368.22,-131.94 445.03,-116.13"/>
<polygon fill="black" stroke="black" points="445.84,-119.54 454.93,-114.09 444.43,-112.68 445.84,-119.54"/>
<text text-anchor="middle" x="326.24" y="-144.8" font-family="Times,serif" font-size="14.00">47%</text>
</g>
<!-- institutionnels_étrangers -->
<g id="node4" class="node">
<title>institutionnels_étrangers</title>
<ellipse fill="none" stroke="black" cx="280.24" cy="-192" rx="100.18" ry="18"/>
<text text-anchor="middle" x="280.24" y="-188.3" font-family="Times,serif" font-size="14.00">institutionnels_étrangers</text>
</g>
<!-- institutionnels_étrangers&#45;&gt;w:LVMH -->
<g id="edge3" class="edge">
<title>institutionnels_étrangers&#45;&gt;w:LVMH</title>
<path fill="none" stroke="black" d="M319.49,-175.41C357.65,-160.25 415.33,-137.35 453.86,-122.04"/>
<polygon fill="black" stroke="black" points="455.22,-125.27 463.22,-118.32 452.64,-118.76 455.22,-125.27"/>
<text text-anchor="middle" x="413.24" y="-144.8" font-family="Times,serif" font-size="14.00">34%</text>
</g>
<!-- institutionnels_français -->
<g id="node5" class="node">
<title>institutionnels_français</title>
<ellipse fill="none" stroke="black" cx="494.24" cy="-192" rx="95.58" ry="18"/>
<text text-anchor="middle" x="494.24" y="-188.3" font-family="Times,serif" font-size="14.00">institutionnels_français</text>
</g>
<!-- institutionnels_français&#45;&gt;w:LVMH -->
<g id="edge4" class="edge">
<title>institutionnels_français&#45;&gt;w:LVMH</title>
<path fill="none" stroke="black" d="M494.24,-173.8C494.24,-162.16 494.24,-146.55 494.24,-133.24"/>
<polygon fill="black" stroke="black" points="497.74,-133.18 494.24,-123.18 490.74,-133.18 497.74,-133.18"/>
<text text-anchor="middle" x="507.24" y="-144.8" font-family="Times,serif" font-size="14.00">14%</text>
</g>
<!-- personnes_physiques -->
<g id="node6" class="node">
<title>personnes_physiques</title>
<ellipse fill="none" stroke="black" cx="695.24" cy="-192" rx="87.99" ry="18"/>
<text text-anchor="middle" x="695.24" y="-188.3" font-family="Times,serif" font-size="14.00">personnes_physiques</text>
</g>
<!-- personnes_physiques&#45;&gt;w:LVMH -->
<g id="edge5" class="edge">
<title>personnes_physiques&#45;&gt;w:LVMH</title>
<path fill="none" stroke="black" d="M658.84,-175.61C623.43,-160.63 569.79,-137.95 533.45,-122.58"/>
<polygon fill="black" stroke="black" points="534.72,-119.32 524.15,-118.65 532,-125.77 534.72,-119.32"/>
<text text-anchor="middle" x="616.74" y="-144.8" font-family="Times,serif" font-size="14.00">5%</text>
</g>
<!-- autocontrôle -->
<g id="node7" class="node">
<title>autocontrôle</title>
<ellipse fill="none" stroke="black" cx="857.24" cy="-192" rx="55.79" ry="18"/>
<text text-anchor="middle" x="857.24" y="-188.3" font-family="Times,serif" font-size="14.00">autocontrôle</text>
</g>
<!-- autocontrôle&#45;&gt;w:LVMH -->
<g id="edge6" class="edge">
<title>autocontrôle&#45;&gt;w:LVMH</title>
<path fill="none" stroke="black" d="M815.68,-179.92C807.9,-177.91 799.83,-175.86 792.24,-174 704.78,-152.59 602.34,-129.69 543.2,-116.68"/>
<polygon fill="black" stroke="black" points="543.9,-113.25 533.39,-114.52 542.4,-120.08 543.9,-113.25"/>
<text text-anchor="middle" x="719.74" y="-144.8" font-family="Times,serif" font-size="14.00">1%</text>
</g>
</g>
</svg>
