<?xml version="1.0" encoding="UTF-8" standalone="no"?>
<!DOCTYPE svg PUBLIC "-//W3C//DTD SVG 1.1//EN"
 "http://www.w3.org/Graphics/SVG/1.1/DTD/svg11.dtd">
<!-- Generated by graphviz version 2.49.3 (20211023.0002)
 -->
<!-- Title: G Pages: 1 -->
<svg width="808pt" height="131pt"
 viewBox="0.00 0.00 807.93 131.00" xmlns="http://www.w3.org/2000/svg" xmlns:xlink="http://www.w3.org/1999/xlink">
<g id="page0,1_graph0" class="graph" transform="scale(1 1) rotate(0) translate(4 127)">
<title>G</title>
<polygon fill="white" stroke="transparent" points="-4,4 -4,-127 803.93,-127 803.93,4 -4,4"/>
<!-- w:Benjamin_de_Rothschild -->
<g id="node1" class="node">
<title>w:Benjamin_de_Rothschild</title>
<ellipse fill="none" stroke="black" cx="112.44" cy="-105" rx="112.38" ry="18"/>
<text text-anchor="middle" x="112.44" y="-101.3" font-family="Times,serif" font-size="14.00">w:Benjamin_de_Rothschild</text>
</g>
<!-- w:Slate_(magazine) -->
<g id="node2" class="node">
<title>w:Slate_(magazine)</title>
<ellipse fill="none" stroke="black" cx="406.44" cy="-18" rx="83.39" ry="18"/>
<text text-anchor="middle" x="406.44" y="-14.3" font-family="Times,serif" font-size="14.00">w:Slate_(magazine)</text>
</g>
<!-- w:Benjamin_de_Rothschild&#45;&gt;w:Slate_(magazine) -->
<g id="edge1" class="edge">
<title>w:Benjamin_de_Rothschild&#45;&gt;w:Slate_(magazine)</title>
<path fill="none" stroke="black" d="M164.32,-89C216,-74.06 295.16,-51.17 348.78,-35.67"/>
<polygon fill="black" stroke="black" points="349.85,-39.01 358.48,-32.87 347.9,-32.28 349.85,-39.01"/>
<text text-anchor="middle" x="290.44" y="-57.8" font-family="Times,serif" font-size="14.00">29%</text>
</g>
<!-- Financière_Viveris -->
<g id="node3" class="node">
<title>Financière_Viveris</title>
<ellipse fill="none" stroke="black" cx="322.44" cy="-105" rx="79.89" ry="18"/>
<text text-anchor="middle" x="322.44" y="-101.3" font-family="Times,serif" font-size="14.00">Financière_Viveris</text>
</g>
<!-- Financière_Viveris&#45;&gt;w:Slate_(magazine) -->
<g id="edge2" class="edge">
<title>Financière_Viveris&#45;&gt;w:Slate_(magazine)</title>
<path fill="none" stroke="black" d="M339.04,-87.21C351.46,-74.63 368.64,-57.25 382.54,-43.18"/>
<polygon fill="black" stroke="black" points="385.34,-45.33 389.88,-35.76 380.36,-40.41 385.34,-45.33"/>
<text text-anchor="middle" x="383.44" y="-57.8" font-family="Times,serif" font-size="14.00">22%</text>
</g>
<!-- fondateurs_slate -->
<g id="node4" class="node">
<title>fondateurs_slate</title>
<ellipse fill="none" stroke="black" cx="490.44" cy="-105" rx="70.39" ry="18"/>
<text text-anchor="middle" x="490.44" y="-101.3" font-family="Times,serif" font-size="14.00">fondateurs_slate</text>
</g>
<!-- fondateurs_slate&#45;&gt;w:Slate_(magazine) -->
<g id="edge3" class="edge">
<title>fondateurs_slate&#45;&gt;w:Slate_(magazine)</title>
<path fill="none" stroke="black" d="M473.84,-87.21C461.42,-74.63 444.24,-57.25 430.34,-43.18"/>
<polygon fill="black" stroke="black" points="432.52,-40.41 423,-35.76 427.54,-45.33 432.52,-40.41"/>
<text text-anchor="middle" x="467.44" y="-57.8" font-family="Times,serif" font-size="14.00">25%</text>
</g>
<!-- actionnaires_externes_slate -->
<g id="node5" class="node">
<title>actionnaires_externes_slate</title>
<ellipse fill="none" stroke="black" cx="689.44" cy="-105" rx="110.48" ry="18"/>
<text text-anchor="middle" x="689.44" y="-101.3" font-family="Times,serif" font-size="14.00">actionnaires_externes_slate</text>
</g>
<!-- actionnaires_externes_slate&#45;&gt;w:Slate_(magazine) -->
<g id="edge4" class="edge">
<title>actionnaires_externes_slate&#45;&gt;w:Slate_(magazine)</title>
<path fill="none" stroke="black" d="M639.17,-88.9C589.63,-74.02 514.08,-51.33 462.6,-35.87"/>
<polygon fill="black" stroke="black" points="463.54,-32.5 452.96,-32.97 461.53,-39.2 463.54,-32.5"/>
<text text-anchor="middle" x="577.44" y="-57.8" font-family="Times,serif" font-size="14.00">24%</text>
</g>
</g>
</svg>
