<?xml version="1.0" encoding="UTF-8" standalone="no"?>
<!DOCTYPE svg PUBLIC "-//W3C//DTD SVG 1.1//EN"
 "http://www.w3.org/Graphics/SVG/1.1/DTD/svg11.dtd">
<!-- Generated by graphviz version 2.49.3 (20211023.0002)
 -->
<!-- Title: G Pages: 1 -->
<svg width="1388pt" height="305pt"
 viewBox="0.00 0.00 1388.03 305.00" xmlns="http://www.w3.org/2000/svg" xmlns:xlink="http://www.w3.org/1999/xlink">
<g id="page0,1_graph0" class="graph" transform="scale(1 1) rotate(0) translate(4 301)">
<title>G</title>
<polygon fill="white" stroke="transparent" points="-4,4 -4,-301 1384.03,-301 1384.03,4 -4,4"/>
<!-- w:Les_Nouvelles_Éditions_indépendantes -->
<g id="node1" class="node">
<title>w:Les_Nouvelles_Éditions_indépendantes</title>
<ellipse fill="none" stroke="black" cx="254.14" cy="-192" rx="165.97" ry="18"/>
<text text-anchor="middle" x="254.14" y="-188.3" font-family="Times,serif" font-size="14.00">w:Les_Nouvelles_Éditions_indépendantes</text>
</g>
<!-- w:Huffington_Post -->
<g id="node2" class="node">
<title>w:Huffington_Post</title>
<ellipse fill="none" stroke="black" cx="497.14" cy="-18" rx="79.89" ry="18"/>
<text text-anchor="middle" x="497.14" y="-14.3" font-family="Times,serif" font-size="14.00">w:Huffington_Post</text>
</g>
<!-- w:Les_Nouvelles_Éditions_indépendantes&#45;&gt;w:Huffington_Post -->
<g id="edge1" class="edge">
<title>w:Les_Nouvelles_Éditions_indépendantes&#45;&gt;w:Huffington_Post</title>
<path fill="none" stroke="black" d="M278.33,-173.88C322.61,-142.54 416.65,-75.97 465.78,-41.2"/>
<polygon fill="black" stroke="black" points="467.98,-43.93 474.12,-35.3 463.94,-38.22 467.98,-43.93"/>
<text text-anchor="middle" x="412.14" y="-101.3" font-family="Times,serif" font-size="14.00">11%</text>
</g>
<!-- w:Matthieu_Pigasse -->
<g id="node3" class="node">
<title>w:Matthieu_Pigasse</title>
<ellipse fill="none" stroke="black" cx="330.14" cy="-279" rx="84.49" ry="18"/>
<text text-anchor="middle" x="330.14" y="-275.3" font-family="Times,serif" font-size="14.00">w:Matthieu_Pigasse</text>
</g>
<!-- w:Matthieu_Pigasse&#45;&gt;w:Les_Nouvelles_Éditions_indépendantes -->
<g id="edge2" class="edge">
<title>w:Matthieu_Pigasse&#45;&gt;w:Les_Nouvelles_Éditions_indépendantes</title>
<path fill="none" stroke="black" d="M315.13,-261.21C304.06,-248.83 288.83,-231.8 276.36,-217.85"/>
<polygon fill="black" stroke="black" points="278.66,-215.17 269.39,-210.05 273.44,-219.84 278.66,-215.17"/>
<text text-anchor="middle" x="309.14" y="-231.8" font-family="Times,serif" font-size="14.00">78%</text>
</g>
<!-- lml -->
<g id="node7" class="node">
<title>lml</title>
<ellipse fill="none" stroke="black" cx="497.14" cy="-192" rx="27" ry="18"/>
<text text-anchor="middle" x="497.14" y="-188.3" font-family="Times,serif" font-size="14.00">lml</text>
</g>
<!-- w:Matthieu_Pigasse&#45;&gt;lml -->
<g id="edge8" class="edge">
<title>w:Matthieu_Pigasse&#45;&gt;lml</title>
<path fill="none" stroke="black" d="M361.16,-262.21C391.46,-246.79 437.27,-223.47 467.2,-208.24"/>
<polygon fill="black" stroke="black" points="468.99,-211.26 476.32,-203.6 465.82,-205.02 468.99,-211.26"/>
<text text-anchor="middle" x="436.14" y="-231.8" font-family="Times,serif" font-size="14.00">26%</text>
</g>
<!-- orium -->
<g id="node4" class="node">
<title>orium</title>
<ellipse fill="none" stroke="black" cx="195.14" cy="-279" rx="32.49" ry="18"/>
<text text-anchor="middle" x="195.14" y="-275.3" font-family="Times,serif" font-size="14.00">orium</text>
</g>
<!-- orium&#45;&gt;w:Les_Nouvelles_Éditions_indépendantes -->
<g id="edge3" class="edge">
<title>orium&#45;&gt;w:Les_Nouvelles_Éditions_indépendantes</title>
<path fill="none" stroke="black" d="M206.24,-262.01C214.76,-249.75 226.67,-232.57 236.49,-218.43"/>
<polygon fill="black" stroke="black" points="239.46,-220.29 242.29,-210.08 233.71,-216.3 239.46,-220.29"/>
<text text-anchor="middle" x="241.14" y="-231.8" font-family="Times,serif" font-size="14.00">18%</text>
</g>
<!-- Christian_Fevret -->
<g id="node5" class="node">
<title>Christian_Fevret</title>
<ellipse fill="none" stroke="black" cx="72.14" cy="-279" rx="72.29" ry="18"/>
<text text-anchor="middle" x="72.14" y="-275.3" font-family="Times,serif" font-size="14.00">Christian_Fevret</text>
</g>
<!-- Christian_Fevret&#45;&gt;w:Les_Nouvelles_Éditions_indépendantes -->
<g id="edge4" class="edge">
<title>Christian_Fevret&#45;&gt;w:Les_Nouvelles_Éditions_indépendantes</title>
<path fill="none" stroke="black" d="M104.68,-262.8C133.81,-249.2 176.79,-229.12 209.2,-213.99"/>
<polygon fill="black" stroke="black" points="210.88,-217.07 218.46,-209.66 207.92,-210.72 210.88,-217.07"/>
<text text-anchor="middle" x="182.64" y="-231.8" font-family="Times,serif" font-size="14.00">2%</text>
</g>
<!-- w:Le_Monde -->
<g id="node6" class="node">
<title>w:Le_Monde</title>
<ellipse fill="none" stroke="black" cx="497.14" cy="-105" rx="59.59" ry="18"/>
<text text-anchor="middle" x="497.14" y="-101.3" font-family="Times,serif" font-size="14.00">w:Le_Monde</text>
</g>
<!-- w:Le_Monde&#45;&gt;w:Huffington_Post -->
<g id="edge5" class="edge">
<title>w:Le_Monde&#45;&gt;w:Huffington_Post</title>
<path fill="none" stroke="black" d="M497.14,-86.8C497.14,-75.16 497.14,-59.55 497.14,-46.24"/>
<polygon fill="black" stroke="black" points="500.64,-46.18 497.14,-36.18 493.64,-46.18 500.64,-46.18"/>
<text text-anchor="middle" x="510.14" y="-57.8" font-family="Times,serif" font-size="14.00">34%</text>
</g>
<!-- lml&#45;&gt;w:Le_Monde -->
<g id="edge6" class="edge">
<title>lml&#45;&gt;w:Le_Monde</title>
<path fill="none" stroke="black" d="M497.14,-173.8C497.14,-162.16 497.14,-146.55 497.14,-133.24"/>
<polygon fill="black" stroke="black" points="500.64,-133.18 497.14,-123.18 493.64,-133.18 500.64,-133.18"/>
<text text-anchor="middle" x="510.14" y="-144.8" font-family="Times,serif" font-size="14.00">64%</text>
</g>
<!-- w:Pierre_Bergé -->
<g id="node8" class="node">
<title>w:Pierre_Bergé</title>
<ellipse fill="none" stroke="black" cx="595.14" cy="-279" rx="67.69" ry="18"/>
<text text-anchor="middle" x="595.14" y="-275.3" font-family="Times,serif" font-size="14.00">w:Pierre_Bergé</text>
</g>
<!-- w:Pierre_Bergé&#45;&gt;lml -->
<g id="edge7" class="edge">
<title>w:Pierre_Bergé&#45;&gt;lml</title>
<path fill="none" stroke="black" d="M576.25,-261.61C560.47,-247.93 537.91,-228.35 520.91,-213.61"/>
<polygon fill="black" stroke="black" points="522.91,-210.72 513.07,-206.81 518.33,-216.01 522.91,-210.72"/>
<text text-anchor="middle" x="564.14" y="-231.8" font-family="Times,serif" font-size="14.00">26%</text>
</g>
<!-- w:Xavier_Niel -->
<g id="node9" class="node">
<title>w:Xavier_Niel</title>
<ellipse fill="none" stroke="black" cx="746.14" cy="-279" rx="64.99" ry="18"/>
<text text-anchor="middle" x="746.14" y="-275.3" font-family="Times,serif" font-size="14.00">w:Xavier_Niel</text>
</g>
<!-- w:Xavier_Niel&#45;&gt;lml -->
<g id="edge9" class="edge">
<title>w:Xavier_Niel&#45;&gt;lml</title>
<path fill="none" stroke="black" d="M706.96,-264.63C658.32,-248.02 576.21,-219.99 530.46,-204.37"/>
<polygon fill="black" stroke="black" points="531.33,-200.97 520.74,-201.05 529.07,-207.6 531.33,-200.97"/>
<text text-anchor="middle" x="649.14" y="-231.8" font-family="Times,serif" font-size="14.00">26%</text>
</g>
<!-- w:Prisa -->
<g id="node10" class="node">
<title>w:Prisa</title>
<ellipse fill="none" stroke="black" cx="471.14" cy="-279" rx="38.19" ry="18"/>
<text text-anchor="middle" x="471.14" y="-275.3" font-family="Times,serif" font-size="14.00">w:Prisa</text>
</g>
<!-- w:Prisa&#45;&gt;lml -->
<g id="edge10" class="edge">
<title>w:Prisa&#45;&gt;lml</title>
<path fill="none" stroke="black" d="M476.41,-260.8C480.02,-248.97 484.9,-233.03 489.01,-219.58"/>
<polygon fill="black" stroke="black" points="492.4,-220.47 491.98,-209.89 485.71,-218.42 492.4,-220.47"/>
<text text-anchor="middle" x="498.14" y="-231.8" font-family="Times,serif" font-size="14.00">23%</text>
</g>
<!-- lmpa -->
<g id="node11" class="node">
<title>lmpa</title>
<ellipse fill="none" stroke="black" cx="962.14" cy="-192" rx="28.7" ry="18"/>
<text text-anchor="middle" x="962.14" y="-188.3" font-family="Times,serif" font-size="14.00">lmpa</text>
</g>
<!-- lmpa&#45;&gt;w:Le_Monde -->
<g id="edge11" class="edge">
<title>lmpa&#45;&gt;w:Le_Monde</title>
<path fill="none" stroke="black" d="M934.65,-186.97C870.07,-177.36 703.74,-151.72 566.14,-123 561.21,-121.97 556.1,-120.84 550.99,-119.66"/>
<polygon fill="black" stroke="black" points="551.74,-116.24 541.21,-117.35 550.14,-123.05 551.74,-116.24"/>
<text text-anchor="middle" x="752.14" y="-144.8" font-family="Times,serif" font-size="14.00">34%</text>
</g>
<!-- actionnaires_internes_Le_Monde -->
<g id="node12" class="node">
<title>actionnaires_internes_Le_Monde</title>
<ellipse fill="none" stroke="black" cx="962.14" cy="-279" rx="132.68" ry="18"/>
<text text-anchor="middle" x="962.14" y="-275.3" font-family="Times,serif" font-size="14.00">actionnaires_internes_Le_Monde</text>
</g>
<!-- actionnaires_internes_Le_Monde&#45;&gt;lmpa -->
<g id="edge12" class="edge">
<title>actionnaires_internes_Le_Monde&#45;&gt;lmpa</title>
<path fill="none" stroke="black" d="M962.14,-260.8C962.14,-249.16 962.14,-233.55 962.14,-220.24"/>
<polygon fill="black" stroke="black" points="965.64,-220.18 962.14,-210.18 958.64,-220.18 965.64,-220.18"/>
<text text-anchor="middle" x="975.14" y="-231.8" font-family="Times,serif" font-size="14.00">52%</text>
</g>
<!-- actionnaires_externes_Le_Monde -->
<g id="node13" class="node">
<title>actionnaires_externes_Le_Monde</title>
<ellipse fill="none" stroke="black" cx="1246.14" cy="-279" rx="133.78" ry="18"/>
<text text-anchor="middle" x="1246.14" y="-275.3" font-family="Times,serif" font-size="14.00">actionnaires_externes_Le_Monde</text>
</g>
<!-- actionnaires_externes_Le_Monde&#45;&gt;lmpa -->
<g id="edge13" class="edge">
<title>actionnaires_externes_Le_Monde&#45;&gt;lmpa</title>
<path fill="none" stroke="black" d="M1194.05,-262.41C1136.83,-245.28 1046.5,-218.25 997.16,-203.48"/>
<polygon fill="black" stroke="black" points="998.16,-200.13 987.57,-200.61 996.15,-206.83 998.16,-200.13"/>
<text text-anchor="middle" x="1134.14" y="-231.8" font-family="Times,serif" font-size="14.00">48%</text>
</g>
<!-- w:AOL -->
<g id="node14" class="node">
<title>w:AOL</title>
<ellipse fill="none" stroke="black" cx="613.14" cy="-105" rx="38.19" ry="18"/>
<text text-anchor="middle" x="613.14" y="-101.3" font-family="Times,serif" font-size="14.00">w:AOL</text>
</g>
<!-- w:AOL&#45;&gt;w:Huffington_Post -->
<g id="edge14" class="edge">
<title>w:AOL&#45;&gt;w:Huffington_Post</title>
<path fill="none" stroke="black" d="M593.2,-89.39C575.21,-76.2 548.47,-56.61 527.77,-41.44"/>
<polygon fill="black" stroke="black" points="529.73,-38.54 519.6,-35.45 525.6,-44.19 529.73,-38.54"/>
<text text-anchor="middle" x="574.14" y="-57.8" font-family="Times,serif" font-size="14.00">51%</text>
</g>
</g>
</svg>
