<?xml version="1.0" encoding="UTF-8" standalone="no"?>
<!DOCTYPE svg PUBLIC "-//W3C//DTD SVG 1.1//EN"
 "http://www.w3.org/Graphics/SVG/1.1/DTD/svg11.dtd">
<!-- Generated by graphviz version 2.49.3 (20211023.0002)
 -->
<!-- Title: G Pages: 1 -->
<svg width="921pt" height="305pt"
 viewBox="0.00 0.00 921.14 305.00" xmlns="http://www.w3.org/2000/svg" xmlns:xlink="http://www.w3.org/1999/xlink">
<g id="page0,1_graph0" class="graph" transform="scale(1 1) rotate(0) translate(4 301)">
<title>G</title>
<polygon fill="white" stroke="transparent" points="-4,4 -4,-301 917.14,-301 917.14,4 -4,4"/>
<!-- w:Groupe_Les_Échos -->
<g id="node1" class="node">
<title>w:Groupe_Les_Échos</title>
<ellipse fill="none" stroke="black" cx="494.24" cy="-105" rx="91.78" ry="18"/>
<text text-anchor="middle" x="494.24" y="-101.3" font-family="Times,serif" font-size="14.00">w:Groupe_Les_Échos</text>
</g>
<!-- w:Les_Échos -->
<g id="node2" class="node">
<title>w:Les_Échos</title>
<ellipse fill="none" stroke="black" cx="494.24" cy="-18" rx="59.59" ry="18"/>
<text text-anchor="middle" x="494.24" y="-14.3" font-family="Times,serif" font-size="14.00">w:Les_Échos</text>
</g>
<!-- w:Groupe_Les_Échos&#45;&gt;w:Les_Échos -->
<g id="edge1" class="edge">
<title>w:Groupe_Les_Échos&#45;&gt;w:Les_Échos</title>
<path fill="none" stroke="black" d="M494.24,-86.8C494.24,-75.16 494.24,-59.55 494.24,-46.24"/>
<polygon fill="black" stroke="black" points="497.74,-46.18 494.24,-36.18 490.74,-46.18 497.74,-46.18"/>
<text text-anchor="middle" x="510.74" y="-57.8" font-family="Times,serif" font-size="14.00">100%</text>
</g>
<!-- w:LVMH -->
<g id="node3" class="node">
<title>w:LVMH</title>
<ellipse fill="none" stroke="black" cx="494.24" cy="-192" rx="45.49" ry="18"/>
<text text-anchor="middle" x="494.24" y="-188.3" font-family="Times,serif" font-size="14.00">w:LVMH</text>
</g>
<!-- w:LVMH&#45;&gt;w:Groupe_Les_Échos -->
<g id="edge2" class="edge">
<title>w:LVMH&#45;&gt;w:Groupe_Les_Échos</title>
<path fill="none" stroke="black" d="M494.24,-173.8C494.24,-162.16 494.24,-146.55 494.24,-133.24"/>
<polygon fill="black" stroke="black" points="497.74,-133.18 494.24,-123.18 490.74,-133.18 497.74,-133.18"/>
<text text-anchor="middle" x="510.74" y="-144.8" font-family="Times,serif" font-size="14.00">100%</text>
</g>
<!-- w:Bernard_Arnault -->
<g id="node4" class="node">
<title>w:Bernard_Arnault</title>
<ellipse fill="none" stroke="black" cx="81.24" cy="-279" rx="81.49" ry="18"/>
<text text-anchor="middle" x="81.24" y="-275.3" font-family="Times,serif" font-size="14.00">w:Bernard_Arnault</text>
</g>
<!-- w:Bernard_Arnault&#45;&gt;w:LVMH -->
<g id="edge3" class="edge">
<title>w:Bernard_Arnault&#45;&gt;w:LVMH</title>
<path fill="none" stroke="black" d="M138.67,-266.18C220.23,-249.4 368.22,-218.94 445.03,-203.13"/>
<polygon fill="black" stroke="black" points="445.84,-206.54 454.93,-201.09 444.43,-199.68 445.84,-206.54"/>
<text text-anchor="middle" x="326.24" y="-231.8" font-family="Times,serif" font-size="14.00">47%</text>
</g>
<!-- institutionnels_étrangers -->
<g id="node5" class="node">
<title>institutionnels_étrangers</title>
<ellipse fill="none" stroke="black" cx="280.24" cy="-279" rx="100.18" ry="18"/>
<text text-anchor="middle" x="280.24" y="-275.3" font-family="Times,serif" font-size="14.00">institutionnels_étrangers</text>
</g>
<!-- institutionnels_étrangers&#45;&gt;w:LVMH -->
<g id="edge4" class="edge">
<title>institutionnels_étrangers&#45;&gt;w:LVMH</title>
<path fill="none" stroke="black" d="M319.49,-262.41C357.65,-247.25 415.33,-224.35 453.86,-209.04"/>
<polygon fill="black" stroke="black" points="455.22,-212.27 463.22,-205.32 452.64,-205.76 455.22,-212.27"/>
<text text-anchor="middle" x="413.24" y="-231.8" font-family="Times,serif" font-size="14.00">34%</text>
</g>
<!-- institutionnels_français -->
<g id="node6" class="node">
<title>institutionnels_français</title>
<ellipse fill="none" stroke="black" cx="494.24" cy="-279" rx="95.58" ry="18"/>
<text text-anchor="middle" x="494.24" y="-275.3" font-family="Times,serif" font-size="14.00">institutionnels_français</text>
</g>
<!-- institutionnels_français&#45;&gt;w:LVMH -->
<g id="edge5" class="edge">
<title>institutionnels_français&#45;&gt;w:LVMH</title>
<path fill="none" stroke="black" d="M494.24,-260.8C494.24,-249.16 494.24,-233.55 494.24,-220.24"/>
<polygon fill="black" stroke="black" points="497.74,-220.18 494.24,-210.18 490.74,-220.18 497.74,-220.18"/>
<text text-anchor="middle" x="507.24" y="-231.8" font-family="Times,serif" font-size="14.00">14%</text>
</g>
<!-- personnes_physiques -->
<g id="node7" class="node">
<title>personnes_physiques</title>
<ellipse fill="none" stroke="black" cx="695.24" cy="-279" rx="87.99" ry="18"/>
<text text-anchor="middle" x="695.24" y="-275.3" font-family="Times,serif" font-size="14.00">personnes_physiques</text>
</g>
<!-- personnes_physiques&#45;&gt;w:LVMH -->
<g id="edge6" class="edge">
<title>personnes_physiques&#45;&gt;w:LVMH</title>
<path fill="none" stroke="black" d="M658.84,-262.61C623.43,-247.63 569.79,-224.95 533.45,-209.58"/>
<polygon fill="black" stroke="black" points="534.72,-206.32 524.15,-205.65 532,-212.77 534.72,-206.32"/>
<text text-anchor="middle" x="616.74" y="-231.8" font-family="Times,serif" font-size="14.00">5%</text>
</g>
<!-- autocontrôle -->
<g id="node8" class="node">
<title>autocontrôle</title>
<ellipse fill="none" stroke="black" cx="857.24" cy="-279" rx="55.79" ry="18"/>
<text text-anchor="middle" x="857.24" y="-275.3" font-family="Times,serif" font-size="14.00">autocontrôle</text>
</g>
<!-- autocontrôle&#45;&gt;w:LVMH -->
<g id="edge7" class="edge">
<title>autocontrôle&#45;&gt;w:LVMH</title>
<path fill="none" stroke="black" d="M815.68,-266.92C807.9,-264.91 799.83,-262.86 792.24,-261 704.78,-239.59 602.34,-216.69 543.2,-203.68"/>
<polygon fill="black" stroke="black" points="543.9,-200.25 533.39,-201.52 542.4,-207.08 543.9,-200.25"/>
<text text-anchor="middle" x="719.74" y="-231.8" font-family="Times,serif" font-size="14.00">1%</text>
</g>
</g>
</svg>
