<?xml version="1.0" encoding="UTF-8" standalone="no"?>
<!DOCTYPE svg PUBLIC "-//W3C//DTD SVG 1.1//EN"
 "http://www.w3.org/Graphics/SVG/1.1/DTD/svg11.dtd">
<!-- Generated by graphviz version 2.49.3 (20211023.0002)
 -->
<!-- Title: G Pages: 1 -->
<svg width="1140pt" height="392pt"
 viewBox="0.00 0.00 1139.93 392.00" xmlns="http://www.w3.org/2000/svg" xmlns:xlink="http://www.w3.org/1999/xlink">
<g id="page0,1_graph0" class="graph" transform="scale(1 1) rotate(0) translate(4 388)">
<title>G</title>
<polygon fill="white" stroke="transparent" points="-4,4 -4,-388 1135.93,-388 1135.93,4 -4,4"/>
<!-- lml -->
<g id="node1" class="node">
<title>lml</title>
<ellipse fill="none" stroke="black" cx="854.59" cy="-279" rx="27" ry="18"/>
<text text-anchor="middle" x="854.59" y="-275.3" font-family="Times,serif" font-size="14.00">lml</text>
</g>
<!-- w:L&#39;Obs -->
<g id="node2" class="node">
<title>w:L&#39;Obs</title>
<ellipse fill="none" stroke="black" cx="785.59" cy="-18" rx="41.69" ry="18"/>
<text text-anchor="middle" x="785.59" y="-14.3" font-family="Times,serif" font-size="14.00">w:L&#39;Obs</text>
</g>
<!-- lml&#45;&gt;w:L&#39;Obs -->
<g id="edge1" class="edge">
<title>lml&#45;&gt;w:L&#39;Obs</title>
<path fill="none" stroke="black" d="M852.17,-260.92C849.08,-240.19 843.2,-204.26 835.59,-174 824.06,-128.18 806.28,-76.13 795.32,-45.51"/>
<polygon fill="black" stroke="black" points="798.57,-44.21 791.88,-35.99 791.98,-46.58 798.57,-44.21"/>
<text text-anchor="middle" x="844.59" y="-144.8" font-family="Times,serif" font-size="14.00">66%</text>
</g>
<!-- w:Le_Monde -->
<g id="node9" class="node">
<title>w:Le_Monde</title>
<ellipse fill="none" stroke="black" cx="528.59" cy="-192" rx="59.59" ry="18"/>
<text text-anchor="middle" x="528.59" y="-188.3" font-family="Times,serif" font-size="14.00">w:Le_Monde</text>
</g>
<!-- lml&#45;&gt;w:Le_Monde -->
<g id="edge9" class="edge">
<title>lml&#45;&gt;w:Le_Monde</title>
<path fill="none" stroke="black" d="M829.82,-271.54C777.24,-257.83 653.45,-225.56 582,-206.93"/>
<polygon fill="black" stroke="black" points="582.84,-203.53 572.28,-204.39 581.07,-210.3 582.84,-203.53"/>
<text text-anchor="middle" x="724.59" y="-231.8" font-family="Times,serif" font-size="14.00">64%</text>
</g>
<!-- w:Pierre_Bergé -->
<g id="node3" class="node">
<title>w:Pierre_Bergé</title>
<ellipse fill="none" stroke="black" cx="635.59" cy="-366" rx="67.69" ry="18"/>
<text text-anchor="middle" x="635.59" y="-362.3" font-family="Times,serif" font-size="14.00">w:Pierre_Bergé</text>
</g>
<!-- w:Pierre_Bergé&#45;&gt;lml -->
<g id="edge2" class="edge">
<title>w:Pierre_Bergé&#45;&gt;lml</title>
<path fill="none" stroke="black" d="M643.89,-347.98C650.21,-336.85 659.98,-322.94 672.59,-315 716.77,-287.19 778.05,-280.57 817.01,-279.45"/>
<polygon fill="black" stroke="black" points="817.44,-282.95 827.38,-279.27 817.32,-275.95 817.44,-282.95"/>
<text text-anchor="middle" x="685.59" y="-318.8" font-family="Times,serif" font-size="14.00">26%</text>
</g>
<!-- w:Pierre_Bergé&#45;&gt;lml -->
<g id="edge10" class="edge">
<title>w:Pierre_Bergé&#45;&gt;lml</title>
<path fill="none" stroke="black" d="M672.24,-350.77C714.23,-334.48 782.35,-308.04 822.38,-292.5"/>
<polygon fill="black" stroke="black" points="823.86,-295.68 831.91,-288.8 821.32,-289.16 823.86,-295.68"/>
<text text-anchor="middle" x="771.59" y="-318.8" font-family="Times,serif" font-size="14.00">26%</text>
</g>
<!-- w:Matthieu_Pigasse -->
<g id="node4" class="node">
<title>w:Matthieu_Pigasse</title>
<ellipse fill="none" stroke="black" cx="805.59" cy="-366" rx="84.49" ry="18"/>
<text text-anchor="middle" x="805.59" y="-362.3" font-family="Times,serif" font-size="14.00">w:Matthieu_Pigasse</text>
</g>
<!-- w:Matthieu_Pigasse&#45;&gt;lml -->
<g id="edge3" class="edge">
<title>w:Matthieu_Pigasse&#45;&gt;lml</title>
<path fill="none" stroke="black" d="M802.29,-347.86C801.2,-337.75 801.37,-325.01 806.59,-315 810.66,-307.18 817.38,-300.67 824.5,-295.48"/>
<polygon fill="black" stroke="black" points="826.47,-298.38 832.93,-289.99 822.64,-292.52 826.47,-298.38"/>
<text text-anchor="middle" x="819.59" y="-318.8" font-family="Times,serif" font-size="14.00">26%</text>
</g>
<!-- w:Matthieu_Pigasse&#45;&gt;lml -->
<g id="edge11" class="edge">
<title>w:Matthieu_Pigasse&#45;&gt;lml</title>
<path fill="none" stroke="black" d="M819.92,-348.14C824.29,-342.57 828.91,-336.2 832.59,-330 837.01,-322.55 841.08,-314.04 844.49,-306.18"/>
<polygon fill="black" stroke="black" points="847.82,-307.29 848.42,-296.71 841.35,-304.6 847.82,-307.29"/>
<text text-anchor="middle" x="853.59" y="-318.8" font-family="Times,serif" font-size="14.00">26%</text>
</g>
<!-- w:Xavier_Niel -->
<g id="node5" class="node">
<title>w:Xavier_Niel</title>
<ellipse fill="none" stroke="black" cx="972.59" cy="-366" rx="64.99" ry="18"/>
<text text-anchor="middle" x="972.59" y="-362.3" font-family="Times,serif" font-size="14.00">w:Xavier_Niel</text>
</g>
<!-- w:Xavier_Niel&#45;&gt;lml -->
<g id="edge4" class="edge">
<title>w:Xavier_Niel&#45;&gt;lml</title>
<path fill="none" stroke="black" d="M947.8,-349.16C938.82,-343.28 928.65,-336.47 919.59,-330 906.06,-320.35 891.37,-309.11 879.37,-299.74"/>
<polygon fill="black" stroke="black" points="881.2,-296.72 871.17,-293.29 876.87,-302.22 881.2,-296.72"/>
<text text-anchor="middle" x="932.59" y="-318.8" font-family="Times,serif" font-size="14.00">26%</text>
</g>
<!-- w:Xavier_Niel&#45;&gt;lml -->
<g id="edge12" class="edge">
<title>w:Xavier_Niel&#45;&gt;lml</title>
<path fill="none" stroke="black" d="M966.8,-347.71C962.45,-337.02 955.51,-323.73 945.59,-315 929.93,-301.23 908.27,-292.61 890.01,-287.37"/>
<polygon fill="black" stroke="black" points="890.84,-283.97 880.28,-284.79 889.05,-290.73 890.84,-283.97"/>
<text text-anchor="middle" x="970.59" y="-318.8" font-family="Times,serif" font-size="14.00">26%</text>
</g>
<!-- w:Prisa -->
<g id="node6" class="node">
<title>w:Prisa</title>
<ellipse fill="none" stroke="black" cx="1093.59" cy="-366" rx="38.19" ry="18"/>
<text text-anchor="middle" x="1093.59" y="-362.3" font-family="Times,serif" font-size="14.00">w:Prisa</text>
</g>
<!-- w:Prisa&#45;&gt;lml -->
<g id="edge5" class="edge">
<title>w:Prisa&#45;&gt;lml</title>
<path fill="none" stroke="black" d="M1069.29,-351.97C1048.15,-341.02 1016.46,-325.51 987.59,-315 955.16,-303.2 916.95,-293.57 889.83,-287.42"/>
<polygon fill="black" stroke="black" points="890.53,-283.99 880.01,-285.23 889.01,-290.82 890.53,-283.99"/>
<text text-anchor="middle" x="1036.59" y="-318.8" font-family="Times,serif" font-size="14.00">23%</text>
</g>
<!-- w:Prisa&#45;&gt;lml -->
<g id="edge13" class="edge">
<title>w:Prisa&#45;&gt;lml</title>
<path fill="none" stroke="black" d="M1084.64,-348.39C1077.68,-337.15 1066.98,-322.94 1053.59,-315 1026.75,-299.09 941.16,-288.4 891.4,-283.35"/>
<polygon fill="black" stroke="black" points="891.65,-279.86 881.36,-282.36 890.97,-286.82 891.65,-279.86"/>
<text text-anchor="middle" x="1084.59" y="-318.8" font-family="Times,serif" font-size="14.00">23%</text>
</g>
<!-- w:Groupe_Perdriel -->
<g id="node7" class="node">
<title>w:Groupe_Perdriel</title>
<ellipse fill="none" stroke="black" cx="622.59" cy="-105" rx="80.69" ry="18"/>
<text text-anchor="middle" x="622.59" y="-101.3" font-family="Times,serif" font-size="14.00">w:Groupe_Perdriel</text>
</g>
<!-- w:Groupe_Perdriel&#45;&gt;w:L&#39;Obs -->
<g id="edge6" class="edge">
<title>w:Groupe_Perdriel&#45;&gt;w:L&#39;Obs</title>
<path fill="none" stroke="black" d="M652.87,-88.21C680.7,-73.7 721.93,-52.2 751.04,-37.02"/>
<polygon fill="black" stroke="black" points="752.78,-40.06 760.03,-32.33 749.54,-33.85 752.78,-40.06"/>
<text text-anchor="middle" x="727.59" y="-57.8" font-family="Times,serif" font-size="14.00">34%</text>
</g>
<!-- w:Claude_Perdriel -->
<g id="node8" class="node">
<title>w:Claude_Perdriel</title>
<ellipse fill="none" stroke="black" cx="372.59" cy="-192" rx="78.79" ry="18"/>
<text text-anchor="middle" x="372.59" y="-188.3" font-family="Times,serif" font-size="14.00">w:Claude_Perdriel</text>
</g>
<!-- w:Claude_Perdriel&#45;&gt;w:Groupe_Perdriel -->
<g id="edge7" class="edge">
<title>w:Claude_Perdriel&#45;&gt;w:Groupe_Perdriel</title>
<path fill="none" stroke="black" d="M414.71,-176.68C457.72,-162.06 524.53,-139.34 570.75,-123.62"/>
<polygon fill="black" stroke="black" points="571.95,-126.91 580.29,-120.38 569.69,-120.29 571.95,-126.91"/>
<text text-anchor="middle" x="525.59" y="-144.8" font-family="Times,serif" font-size="14.00">93%</text>
</g>
<!-- w:Le_Monde&#45;&gt;w:Groupe_Perdriel -->
<g id="edge8" class="edge">
<title>w:Le_Monde&#45;&gt;w:Groupe_Perdriel</title>
<path fill="none" stroke="black" d="M546.71,-174.61C560.93,-161.76 580.89,-143.71 596.77,-129.34"/>
<polygon fill="black" stroke="black" points="599.13,-131.93 604.2,-122.63 594.43,-126.74 599.13,-131.93"/>
<text text-anchor="middle" x="591.09" y="-144.8" font-family="Times,serif" font-size="14.00">6%</text>
</g>
<!-- lmpa -->
<g id="node10" class="node">
<title>lmpa</title>
<ellipse fill="none" stroke="black" cx="416.59" cy="-279" rx="28.7" ry="18"/>
<text text-anchor="middle" x="416.59" y="-275.3" font-family="Times,serif" font-size="14.00">lmpa</text>
</g>
<!-- lmpa&#45;&gt;w:Le_Monde -->
<g id="edge14" class="edge">
<title>lmpa&#45;&gt;w:Le_Monde</title>
<path fill="none" stroke="black" d="M434.09,-264.72C451.5,-251.5 478.54,-230.99 499.24,-215.28"/>
<polygon fill="black" stroke="black" points="501.54,-217.92 507.39,-209.09 497.31,-212.35 501.54,-217.92"/>
<text text-anchor="middle" x="492.59" y="-231.8" font-family="Times,serif" font-size="14.00">34%</text>
</g>
<!-- actionnaires_internes_Le_Monde -->
<g id="node11" class="node">
<title>actionnaires_internes_Le_Monde</title>
<ellipse fill="none" stroke="black" cx="132.59" cy="-366" rx="132.68" ry="18"/>
<text text-anchor="middle" x="132.59" y="-362.3" font-family="Times,serif" font-size="14.00">actionnaires_internes_Le_Monde</text>
</g>
<!-- actionnaires_internes_Le_Monde&#45;&gt;lmpa -->
<g id="edge15" class="edge">
<title>actionnaires_internes_Le_Monde&#45;&gt;lmpa</title>
<path fill="none" stroke="black" d="M184.68,-349.41C241.91,-332.28 332.23,-305.25 381.57,-290.48"/>
<polygon fill="black" stroke="black" points="382.58,-293.83 391.16,-287.61 380.57,-287.13 382.58,-293.83"/>
<text text-anchor="middle" x="305.59" y="-318.8" font-family="Times,serif" font-size="14.00">52%</text>
</g>
<!-- actionnaires_externes_Le_Monde -->
<g id="node12" class="node">
<title>actionnaires_externes_Le_Monde</title>
<ellipse fill="none" stroke="black" cx="416.59" cy="-366" rx="133.78" ry="18"/>
<text text-anchor="middle" x="416.59" y="-362.3" font-family="Times,serif" font-size="14.00">actionnaires_externes_Le_Monde</text>
</g>
<!-- actionnaires_externes_Le_Monde&#45;&gt;lmpa -->
<g id="edge16" class="edge">
<title>actionnaires_externes_Le_Monde&#45;&gt;lmpa</title>
<path fill="none" stroke="black" d="M416.59,-347.8C416.59,-336.16 416.59,-320.55 416.59,-307.24"/>
<polygon fill="black" stroke="black" points="420.09,-307.18 416.59,-297.18 413.09,-307.18 420.09,-307.18"/>
<text text-anchor="middle" x="429.59" y="-318.8" font-family="Times,serif" font-size="14.00">48%</text>
</g>
<!-- société_rédacteurs_perdriel -->
<g id="node13" class="node">
<title>société_rédacteurs_perdriel</title>
<ellipse fill="none" stroke="black" cx="716.59" cy="-192" rx="110.48" ry="18"/>
<text text-anchor="middle" x="716.59" y="-188.3" font-family="Times,serif" font-size="14.00">société_rédacteurs_perdriel</text>
</g>
<!-- société_rédacteurs_perdriel&#45;&gt;w:Groupe_Perdriel -->
<g id="edge17" class="edge">
<title>société_rédacteurs_perdriel&#45;&gt;w:Groupe_Perdriel</title>
<path fill="none" stroke="black" d="M698.02,-174.21C683.98,-161.52 664.53,-143.93 648.9,-129.79"/>
<polygon fill="black" stroke="black" points="650.89,-126.87 641.12,-122.76 646.19,-132.06 650.89,-126.87"/>
<text text-anchor="middle" x="685.09" y="-144.8" font-family="Times,serif" font-size="14.00">1%</text>
</g>
</g>
</svg>
