<?xml version="1.0" encoding="UTF-8" standalone="no"?>
<!DOCTYPE svg PUBLIC "-//W3C//DTD SVG 1.1//EN"
 "http://www.w3.org/Graphics/SVG/1.1/DTD/svg11.dtd">
<!-- Generated by graphviz version 2.49.3 (20211023.0002)
 -->
<!-- Title: G Pages: 1 -->
<svg width="1270pt" height="305pt"
 viewBox="0.00 0.00 1269.93 305.00" xmlns="http://www.w3.org/2000/svg" xmlns:xlink="http://www.w3.org/1999/xlink">
<g id="page0,1_graph0" class="graph" transform="scale(1 1) rotate(0) translate(4 301)">
<title>G</title>
<polygon fill="white" stroke="transparent" points="-4,4 -4,-301 1265.93,-301 1265.93,4 -4,4"/>
<!-- Les Nouvelles Éditions indépendantes -->
<g id="node1" class="node">
<title>Les Nouvelles Éditions indépendantes</title>
<ellipse fill="none" stroke="black" cx="239.54" cy="-192" rx="150.27" ry="18"/>
<text text-anchor="middle" x="239.54" y="-188.3" font-family="Times,serif" font-size="14.00">Les Nouvelles Éditions indépendantes</text>
</g>
<!-- Huffington Post -->
<g id="node2" class="node">
<title>Huffington Post</title>
<ellipse fill="none" stroke="black" cx="459.54" cy="-18" rx="68.79" ry="18"/>
<text text-anchor="middle" x="459.54" y="-14.3" font-family="Times,serif" font-size="14.00">Huffington Post</text>
</g>
<!-- Les Nouvelles Éditions indépendantes&#45;&gt;Huffington Post -->
<g id="edge1" class="edge">
<title>Les Nouvelles Éditions indépendantes&#45;&gt;Huffington Post</title>
<path fill="none" stroke="black" d="M261.44,-173.88C301.37,-142.67 385.97,-76.52 430.59,-41.63"/>
<polygon fill="black" stroke="black" points="432.98,-44.21 438.7,-35.3 428.67,-38.7 432.98,-44.21"/>
<text text-anchor="middle" x="383.54" y="-101.3" font-family="Times,serif" font-size="14.00">11%</text>
</g>
<!-- Matthieu Pigasse -->
<g id="node3" class="node">
<title>Matthieu Pigasse</title>
<ellipse fill="none" stroke="black" cx="313.54" cy="-279" rx="73.39" ry="18"/>
<text text-anchor="middle" x="313.54" y="-275.3" font-family="Times,serif" font-size="14.00">Matthieu Pigasse</text>
</g>
<!-- Matthieu Pigasse&#45;&gt;Les Nouvelles Éditions indépendantes -->
<g id="edge2" class="edge">
<title>Matthieu Pigasse&#45;&gt;Les Nouvelles Éditions indépendantes</title>
<path fill="none" stroke="black" d="M298.92,-261.21C288.15,-248.83 273.32,-231.8 261.18,-217.85"/>
<polygon fill="black" stroke="black" points="263.59,-215.29 254.39,-210.05 258.31,-219.89 263.59,-215.29"/>
<text text-anchor="middle" x="293.54" y="-231.8" font-family="Times,serif" font-size="14.00">78%</text>
</g>
<!-- lml -->
<g id="node7" class="node">
<title>lml</title>
<ellipse fill="none" stroke="black" cx="459.54" cy="-192" rx="27" ry="18"/>
<text text-anchor="middle" x="459.54" y="-188.3" font-family="Times,serif" font-size="14.00">lml</text>
</g>
<!-- Matthieu Pigasse&#45;&gt;lml -->
<g id="edge8" class="edge">
<title>Matthieu Pigasse&#45;&gt;lml</title>
<path fill="none" stroke="black" d="M340.66,-262.21C366.33,-247.27 404.74,-224.91 430.9,-209.68"/>
<polygon fill="black" stroke="black" points="432.72,-212.67 439.6,-204.61 429.2,-206.62 432.72,-212.67"/>
<text text-anchor="middle" x="407.54" y="-231.8" font-family="Times,serif" font-size="14.00">26%</text>
</g>
<!-- orium -->
<g id="node4" class="node">
<title>orium</title>
<ellipse fill="none" stroke="black" cx="189.54" cy="-279" rx="32.49" ry="18"/>
<text text-anchor="middle" x="189.54" y="-275.3" font-family="Times,serif" font-size="14.00">orium</text>
</g>
<!-- orium&#45;&gt;Les Nouvelles Éditions indépendantes -->
<g id="edge3" class="edge">
<title>orium&#45;&gt;Les Nouvelles Éditions indépendantes</title>
<path fill="none" stroke="black" d="M199.18,-261.61C206.31,-249.5 216.15,-232.77 224.33,-218.87"/>
<polygon fill="black" stroke="black" points="227.36,-220.61 229.42,-210.21 221.33,-217.06 227.36,-220.61"/>
<text text-anchor="middle" x="229.54" y="-231.8" font-family="Times,serif" font-size="14.00">18%</text>
</g>
<!-- Christian Fevret -->
<g id="node5" class="node">
<title>Christian Fevret</title>
<ellipse fill="none" stroke="black" cx="69.54" cy="-279" rx="69.59" ry="18"/>
<text text-anchor="middle" x="69.54" y="-275.3" font-family="Times,serif" font-size="14.00">Christian Fevret</text>
</g>
<!-- Christian Fevret&#45;&gt;Les Nouvelles Éditions indépendantes -->
<g id="edge4" class="edge">
<title>Christian Fevret&#45;&gt;Les Nouvelles Éditions indépendantes</title>
<path fill="none" stroke="black" d="M99.94,-262.8C127.03,-249.26 166.95,-229.3 197.17,-214.19"/>
<polygon fill="black" stroke="black" points="198.84,-217.27 206.22,-209.66 195.71,-211.01 198.84,-217.27"/>
<text text-anchor="middle" x="174.04" y="-231.8" font-family="Times,serif" font-size="14.00">2%</text>
</g>
<!-- Le Monde -->
<g id="node6" class="node">
<title>Le Monde</title>
<ellipse fill="none" stroke="black" cx="459.54" cy="-105" rx="48.19" ry="18"/>
<text text-anchor="middle" x="459.54" y="-101.3" font-family="Times,serif" font-size="14.00">Le Monde</text>
</g>
<!-- Le Monde&#45;&gt;Huffington Post -->
<g id="edge5" class="edge">
<title>Le Monde&#45;&gt;Huffington Post</title>
<path fill="none" stroke="black" d="M459.54,-86.8C459.54,-75.16 459.54,-59.55 459.54,-46.24"/>
<polygon fill="black" stroke="black" points="463.04,-46.18 459.54,-36.18 456.04,-46.18 463.04,-46.18"/>
<text text-anchor="middle" x="472.54" y="-57.8" font-family="Times,serif" font-size="14.00">34%</text>
</g>
<!-- lml&#45;&gt;Le Monde -->
<g id="edge6" class="edge">
<title>lml&#45;&gt;Le Monde</title>
<path fill="none" stroke="black" d="M459.54,-173.8C459.54,-162.16 459.54,-146.55 459.54,-133.24"/>
<polygon fill="black" stroke="black" points="463.04,-133.18 459.54,-123.18 456.04,-133.18 463.04,-133.18"/>
<text text-anchor="middle" x="472.54" y="-144.8" font-family="Times,serif" font-size="14.00">64%</text>
</g>
<!-- Pierre Bergé -->
<g id="node8" class="node">
<title>Pierre Bergé</title>
<ellipse fill="none" stroke="black" cx="538.54" cy="-279" rx="56.59" ry="18"/>
<text text-anchor="middle" x="538.54" y="-275.3" font-family="Times,serif" font-size="14.00">Pierre Bergé</text>
</g>
<!-- Pierre Bergé&#45;&gt;lml -->
<g id="edge7" class="edge">
<title>Pierre Bergé&#45;&gt;lml</title>
<path fill="none" stroke="black" d="M523.31,-261.61C511.05,-248.42 493.71,-229.76 480.2,-215.22"/>
<polygon fill="black" stroke="black" points="482.52,-212.58 473.15,-207.64 477.39,-217.34 482.52,-212.58"/>
<text text-anchor="middle" x="516.54" y="-231.8" font-family="Times,serif" font-size="14.00">26%</text>
</g>
<!-- Xavier Niel -->
<g id="node9" class="node">
<title>Xavier Niel</title>
<ellipse fill="none" stroke="black" cx="666.54" cy="-279" rx="53.09" ry="18"/>
<text text-anchor="middle" x="666.54" y="-275.3" font-family="Times,serif" font-size="14.00">Xavier Niel</text>
</g>
<!-- Xavier Niel&#45;&gt;lml -->
<g id="edge9" class="edge">
<title>Xavier Niel&#45;&gt;lml</title>
<path fill="none" stroke="black" d="M633.74,-264.53C594.81,-248.55 530.32,-222.06 491.68,-206.2"/>
<polygon fill="black" stroke="black" points="492.56,-202.77 481.98,-202.21 489.9,-209.25 492.56,-202.77"/>
<text text-anchor="middle" x="587.54" y="-231.8" font-family="Times,serif" font-size="14.00">26%</text>
</g>
<!-- Prisa -->
<g id="node10" class="node">
<title>Prisa</title>
<ellipse fill="none" stroke="black" cx="434.54" cy="-279" rx="29.5" ry="18"/>
<text text-anchor="middle" x="434.54" y="-275.3" font-family="Times,serif" font-size="14.00">Prisa</text>
</g>
<!-- Prisa&#45;&gt;lml -->
<g id="edge10" class="edge">
<title>Prisa&#45;&gt;lml</title>
<path fill="none" stroke="black" d="M439.48,-261.21C442.98,-249.33 447.73,-233.17 451.73,-219.56"/>
<polygon fill="black" stroke="black" points="455.15,-220.34 454.61,-209.76 448.44,-218.36 455.15,-220.34"/>
<text text-anchor="middle" x="460.54" y="-231.8" font-family="Times,serif" font-size="14.00">23%</text>
</g>
<!-- lmpa -->
<g id="node11" class="node">
<title>lmpa</title>
<ellipse fill="none" stroke="black" cx="863.54" cy="-192" rx="28.7" ry="18"/>
<text text-anchor="middle" x="863.54" y="-188.3" font-family="Times,serif" font-size="14.00">lmpa</text>
</g>
<!-- lmpa&#45;&gt;Le Monde -->
<g id="edge11" class="edge">
<title>lmpa&#45;&gt;Le Monde</title>
<path fill="none" stroke="black" d="M835.91,-186.52C776.88,-176.73 634.26,-152.02 516.54,-123 512.76,-122.07 508.85,-121.04 504.94,-119.97"/>
<polygon fill="black" stroke="black" points="505.85,-116.59 495.28,-117.23 503.95,-123.32 505.85,-116.59"/>
<text text-anchor="middle" x="671.54" y="-144.8" font-family="Times,serif" font-size="14.00">34%</text>
</g>
<!-- actionnaires internes Le Monde -->
<g id="node12" class="node">
<title>actionnaires internes Le Monde</title>
<ellipse fill="none" stroke="black" cx="863.54" cy="-279" rx="125.38" ry="18"/>
<text text-anchor="middle" x="863.54" y="-275.3" font-family="Times,serif" font-size="14.00">actionnaires internes Le Monde</text>
</g>
<!-- actionnaires internes Le Monde&#45;&gt;lmpa -->
<g id="edge12" class="edge">
<title>actionnaires internes Le Monde&#45;&gt;lmpa</title>
<path fill="none" stroke="black" d="M863.54,-260.8C863.54,-249.16 863.54,-233.55 863.54,-220.24"/>
<polygon fill="black" stroke="black" points="867.04,-220.18 863.54,-210.18 860.04,-220.18 867.04,-220.18"/>
<text text-anchor="middle" x="876.54" y="-231.8" font-family="Times,serif" font-size="14.00">52%</text>
</g>
<!-- actionnaires externes Le Monde -->
<g id="node13" class="node">
<title>actionnaires externes Le Monde</title>
<ellipse fill="none" stroke="black" cx="1134.54" cy="-279" rx="127.28" ry="18"/>
<text text-anchor="middle" x="1134.54" y="-275.3" font-family="Times,serif" font-size="14.00">actionnaires externes Le Monde</text>
</g>
<!-- actionnaires externes Le Monde&#45;&gt;lmpa -->
<g id="edge13" class="edge">
<title>actionnaires externes Le Monde&#45;&gt;lmpa</title>
<path fill="none" stroke="black" d="M1084.84,-262.41C1030.74,-245.44 945.65,-218.75 898.3,-203.9"/>
<polygon fill="black" stroke="black" points="899.1,-200.48 888.51,-200.83 897,-207.16 899.1,-200.48"/>
<text text-anchor="middle" x="1027.54" y="-231.8" font-family="Times,serif" font-size="14.00">48%</text>
</g>
<!-- AOL -->
<g id="node14" class="node">
<title>AOL</title>
<ellipse fill="none" stroke="black" cx="554.54" cy="-105" rx="29.5" ry="18"/>
<text text-anchor="middle" x="554.54" y="-101.3" font-family="Times,serif" font-size="14.00">AOL</text>
</g>
<!-- AOL&#45;&gt;Huffington Post -->
<g id="edge14" class="edge">
<title>AOL&#45;&gt;Huffington Post</title>
<path fill="none" stroke="black" d="M538.43,-89.58C524.05,-76.72 502.73,-57.64 485.88,-42.57"/>
<polygon fill="black" stroke="black" points="487.81,-39.59 478.02,-35.53 483.14,-44.81 487.81,-39.59"/>
<text text-anchor="middle" x="525.54" y="-57.8" font-family="Times,serif" font-size="14.00">51%</text>
</g>
</g>
</svg>
