<?xml version="1.0" encoding="UTF-8" standalone="no"?>
<!DOCTYPE svg PUBLIC "-//W3C//DTD SVG 1.1//EN"
 "http://www.w3.org/Graphics/SVG/1.1/DTD/svg11.dtd">
<!-- Generated by graphviz version 2.49.3 (20211023.0002)
 -->
<!-- Title: G Pages: 1 -->
<svg width="672pt" height="218pt"
 viewBox="0.00 0.00 671.83 218.00" xmlns="http://www.w3.org/2000/svg" xmlns:xlink="http://www.w3.org/1999/xlink">
<g id="page0,1_graph0" class="graph" transform="scale(1 1) rotate(0) translate(4 214)">
<title>G</title>
<polygon fill="white" stroke="transparent" points="-4,4 -4,-214 667.83,-214 667.83,4 -4,4"/>
<!-- fondateurs mediapart -->
<g id="node1" class="node">
<title>fondateurs mediapart</title>
<ellipse fill="none" stroke="black" cx="486.24" cy="-105" rx="87.99" ry="18"/>
<text text-anchor="middle" x="486.24" y="-101.3" font-family="Times,serif" font-size="14.00">fondateurs mediapart</text>
</g>
<!-- Mediapart -->
<g id="node2" class="node">
<title>Mediapart</title>
<ellipse fill="none" stroke="black" cx="304.24" cy="-18" rx="48.19" ry="18"/>
<text text-anchor="middle" x="304.24" y="-14.3" font-family="Times,serif" font-size="14.00">Mediapart</text>
</g>
<!-- fondateurs mediapart&#45;&gt;Mediapart -->
<g id="edge1" class="edge">
<title>fondateurs mediapart&#45;&gt;Mediapart</title>
<path fill="none" stroke="black" d="M452.44,-88.21C421.19,-73.62 374.8,-51.95 342.27,-36.76"/>
<polygon fill="black" stroke="black" points="343.61,-33.53 333.07,-32.46 340.65,-39.87 343.61,-33.53"/>
<text text-anchor="middle" x="419.24" y="-57.8" font-family="Times,serif" font-size="14.00">37%</text>
</g>
<!-- Edwy Plenel -->
<g id="node3" class="node">
<title>Edwy Plenel</title>
<ellipse fill="none" stroke="black" cx="401.24" cy="-192" rx="57.39" ry="18"/>
<text text-anchor="middle" x="401.24" y="-188.3" font-family="Times,serif" font-size="14.00">Edwy Plenel</text>
</g>
<!-- Edwy Plenel&#45;&gt;fondateurs mediapart -->
<g id="edge2" class="edge">
<title>Edwy Plenel&#45;&gt;fondateurs mediapart</title>
<path fill="none" stroke="black" d="M417.63,-174.61C430.28,-161.96 447.98,-144.26 462.23,-130.01"/>
<polygon fill="black" stroke="black" points="464.73,-132.47 469.32,-122.92 459.78,-127.52 464.73,-132.47"/>
<text text-anchor="middle" x="462.24" y="-144.8" font-family="Times,serif" font-size="14.00">42%</text>
</g>
<!-- Marie&#45;Hélène Smiejan -->
<g id="node4" class="node">
<title>Marie&#45;Hélène Smiejan</title>
<ellipse fill="none" stroke="black" cx="570.24" cy="-192" rx="93.68" ry="18"/>
<text text-anchor="middle" x="570.24" y="-188.3" font-family="Times,serif" font-size="14.00">Marie&#45;Hélène Smiejan</text>
</g>
<!-- Marie&#45;Hélène Smiejan&#45;&gt;fondateurs mediapart -->
<g id="edge3" class="edge">
<title>Marie&#45;Hélène Smiejan&#45;&gt;fondateurs mediapart</title>
<path fill="none" stroke="black" d="M553.65,-174.21C541.22,-161.63 524.04,-144.25 510.14,-130.18"/>
<polygon fill="black" stroke="black" points="512.32,-127.41 502.8,-122.76 507.34,-132.33 512.32,-127.41"/>
<text text-anchor="middle" x="547.24" y="-144.8" font-family="Times,serif" font-size="14.00">42%</text>
</g>
<!-- société amis mediapart -->
<g id="node5" class="node">
<title>société amis mediapart</title>
<ellipse fill="none" stroke="black" cx="94.24" cy="-105" rx="94.48" ry="18"/>
<text text-anchor="middle" x="94.24" y="-101.3" font-family="Times,serif" font-size="14.00">société amis mediapart</text>
</g>
<!-- société amis mediapart&#45;&gt;Mediapart -->
<g id="edge4" class="edge">
<title>société amis mediapart&#45;&gt;Mediapart</title>
<path fill="none" stroke="black" d="M132.76,-88.41C169.72,-73.45 225.34,-50.94 263.14,-35.64"/>
<polygon fill="black" stroke="black" points="264.86,-38.72 272.82,-31.72 262.23,-32.23 264.86,-38.72"/>
<text text-anchor="middle" x="225.24" y="-57.8" font-family="Times,serif" font-size="14.00">15%</text>
</g>
<!-- Xavier Niel -->
<g id="node6" class="node">
<title>Xavier Niel</title>
<ellipse fill="none" stroke="black" cx="94.24" cy="-192" rx="53.09" ry="18"/>
<text text-anchor="middle" x="94.24" y="-188.3" font-family="Times,serif" font-size="14.00">Xavier Niel</text>
</g>
<!-- Xavier Niel&#45;&gt;société amis mediapart -->
<g id="edge5" class="edge">
<title>Xavier Niel&#45;&gt;société amis mediapart</title>
<path fill="none" stroke="black" d="M94.24,-173.8C94.24,-162.16 94.24,-146.55 94.24,-133.24"/>
<polygon fill="black" stroke="black" points="97.74,-133.18 94.24,-123.18 90.74,-133.18 97.74,-133.18"/>
<text text-anchor="middle" x="107.24" y="-144.8" font-family="Times,serif" font-size="14.00">40%</text>
</g>
<!-- ecofinance -->
<g id="node7" class="node">
<title>ecofinance</title>
<ellipse fill="none" stroke="black" cx="256.24" cy="-105" rx="49.29" ry="18"/>
<text text-anchor="middle" x="256.24" y="-101.3" font-family="Times,serif" font-size="14.00">ecofinance</text>
</g>
<!-- ecofinance&#45;&gt;Mediapart -->
<g id="edge6" class="edge">
<title>ecofinance&#45;&gt;Mediapart</title>
<path fill="none" stroke="black" d="M265.72,-87.21C272.56,-75.1 281.92,-58.53 289.7,-44.76"/>
<polygon fill="black" stroke="black" points="292.91,-46.19 294.78,-35.76 286.81,-42.74 292.91,-46.19"/>
<text text-anchor="middle" x="296.24" y="-57.8" font-family="Times,serif" font-size="14.00">18%</text>
</g>
<!-- doxa -->
<g id="node8" class="node">
<title>doxa</title>
<ellipse fill="none" stroke="black" cx="352.24" cy="-105" rx="28.7" ry="18"/>
<text text-anchor="middle" x="352.24" y="-101.3" font-family="Times,serif" font-size="14.00">doxa</text>
</g>
<!-- doxa&#45;&gt;Mediapart -->
<g id="edge7" class="edge">
<title>doxa&#45;&gt;Mediapart</title>
<path fill="none" stroke="black" d="M342.99,-87.61C336.17,-75.54 326.76,-58.88 318.92,-45"/>
<polygon fill="black" stroke="black" points="321.76,-42.91 313.8,-35.92 315.67,-46.35 321.76,-42.91"/>
<text text-anchor="middle" x="344.24" y="-57.8" font-family="Times,serif" font-size="14.00">28%</text>
</g>
</g>
</svg>
