<?xml version="1.0" encoding="UTF-8" standalone="no"?>
<!DOCTYPE svg PUBLIC "-//W3C//DTD SVG 1.1//EN"
 "http://www.w3.org/Graphics/SVG/1.1/DTD/svg11.dtd">
<!-- Generated by graphviz version 2.49.3 (20211023.0002)
 -->
<!-- Title: G Pages: 1 -->
<svg width="1118pt" height="131pt"
 viewBox="0.00 0.00 1118.18 131.00" xmlns="http://www.w3.org/2000/svg" xmlns:xlink="http://www.w3.org/1999/xlink">
<g id="page0,1_graph0" class="graph" transform="scale(1 1) rotate(0) translate(4 127)">
<title>G</title>
<polygon fill="white" stroke="transparent" points="-4,4 -4,-127 1114.18,-127 1114.18,4 -4,4"/>
<!-- salariés altereco -->
<g id="node1" class="node">
<title>salariés altereco</title>
<ellipse fill="none" stroke="black" cx="68.89" cy="-105" rx="68.79" ry="18"/>
<text text-anchor="middle" x="68.89" y="-101.3" font-family="Times,serif" font-size="14.00">salariés altereco</text>
</g>
<!-- Alternatives économiques -->
<g id="node2" class="node">
<title>Alternatives économiques</title>
<ellipse fill="none" stroke="black" cx="526.89" cy="-18" rx="105.08" ry="18"/>
<text text-anchor="middle" x="526.89" y="-14.3" font-family="Times,serif" font-size="14.00">Alternatives économiques</text>
</g>
<!-- salariés altereco&#45;&gt;Alternatives économiques -->
<g id="edge1" class="edge">
<title>salariés altereco&#45;&gt;Alternatives économiques</title>
<path fill="none" stroke="black" d="M119.61,-92.66C128.68,-90.71 138.06,-88.75 146.89,-87 249.13,-66.72 367.39,-45.98 444.47,-32.83"/>
<polygon fill="black" stroke="black" points="445.33,-36.24 454.6,-31.11 444.16,-29.33 445.33,-36.24"/>
<text text-anchor="middle" x="326.89" y="-57.8" font-family="Times,serif" font-size="14.00">62%</text>
</g>
<!-- société civile lecteurs altereco -->
<g id="node3" class="node">
<title>société civile lecteurs altereco</title>
<ellipse fill="none" stroke="black" cx="275.89" cy="-105" rx="120.48" ry="18"/>
<text text-anchor="middle" x="275.89" y="-101.3" font-family="Times,serif" font-size="14.00">société civile lecteurs altereco</text>
</g>
<!-- société civile lecteurs altereco&#45;&gt;Alternatives économiques -->
<g id="edge2" class="edge">
<title>société civile lecteurs altereco&#45;&gt;Alternatives économiques</title>
<path fill="none" stroke="black" d="M322.22,-88.31C364.59,-73.97 427.29,-52.73 472.12,-37.55"/>
<polygon fill="black" stroke="black" points="473.33,-40.83 481.68,-34.31 471.09,-34.2 473.33,-40.83"/>
<text text-anchor="middle" x="429.89" y="-57.8" font-family="Times,serif" font-size="14.00">22%</text>
</g>
<!-- association lecteurs altereco -->
<g id="node4" class="node">
<title>association lecteurs altereco</title>
<ellipse fill="none" stroke="black" cx="526.89" cy="-105" rx="113.18" ry="18"/>
<text text-anchor="middle" x="526.89" y="-101.3" font-family="Times,serif" font-size="14.00">association lecteurs altereco</text>
</g>
<!-- association lecteurs altereco&#45;&gt;Alternatives économiques -->
<g id="edge3" class="edge">
<title>association lecteurs altereco&#45;&gt;Alternatives économiques</title>
<path fill="none" stroke="black" d="M526.89,-86.8C526.89,-75.16 526.89,-59.55 526.89,-46.24"/>
<polygon fill="black" stroke="black" points="530.39,-46.18 526.89,-36.18 523.39,-46.18 530.39,-46.18"/>
<text text-anchor="middle" x="536.39" y="-57.8" font-family="Times,serif" font-size="14.00">1%</text>
</g>
<!-- anciens salariés altereco -->
<g id="node5" class="node">
<title>anciens salariés altereco</title>
<ellipse fill="none" stroke="black" cx="756.89" cy="-105" rx="98.58" ry="18"/>
<text text-anchor="middle" x="756.89" y="-101.3" font-family="Times,serif" font-size="14.00">anciens salariés altereco</text>
</g>
<!-- anciens salariés altereco&#45;&gt;Alternatives économiques -->
<g id="edge4" class="edge">
<title>anciens salariés altereco&#45;&gt;Alternatives économiques</title>
<path fill="none" stroke="black" d="M715.24,-88.61C676.89,-74.43 619.86,-53.36 578.61,-38.11"/>
<polygon fill="black" stroke="black" points="579.61,-34.75 569.01,-34.57 577.18,-41.32 579.61,-34.75"/>
<text text-anchor="middle" x="665.39" y="-57.8" font-family="Times,serif" font-size="14.00">3%</text>
</g>
<!-- actionnaires externes altereco -->
<g id="node6" class="node">
<title>actionnaires externes altereco</title>
<ellipse fill="none" stroke="black" cx="991.89" cy="-105" rx="118.08" ry="18"/>
<text text-anchor="middle" x="991.89" y="-101.3" font-family="Times,serif" font-size="14.00">actionnaires externes altereco</text>
</g>
<!-- actionnaires externes altereco&#45;&gt;Alternatives économiques -->
<g id="edge5" class="edge">
<title>actionnaires externes altereco&#45;&gt;Alternatives économiques</title>
<path fill="none" stroke="black" d="M919.49,-90.77C834.45,-75.22 693.85,-49.52 606,-33.46"/>
<polygon fill="black" stroke="black" points="606.55,-30 596.09,-31.65 605.3,-36.89 606.55,-30"/>
<text text-anchor="middle" x="800.89" y="-57.8" font-family="Times,serif" font-size="14.00">12%</text>
</g>
</g>
</svg>
