<?xml version="1.0" encoding="UTF-8" standalone="no"?>
<!DOCTYPE svg PUBLIC "-//W3C//DTD SVG 1.1//EN"
 "http://www.w3.org/Graphics/SVG/1.1/DTD/svg11.dtd">
<!-- Generated by graphviz version 2.49.3 (20211023.0002)
 -->
<!-- Title: G Pages: 1 -->
<svg width="886pt" height="305pt"
 viewBox="0.00 0.00 886.44 305.00" xmlns="http://www.w3.org/2000/svg" xmlns:xlink="http://www.w3.org/1999/xlink">
<g id="page0,1_graph0" class="graph" transform="scale(1 1) rotate(0) translate(4 301)">
<title>G</title>
<polygon fill="white" stroke="transparent" points="-4,4 -4,-301 882.44,-301 882.44,4 -4,4"/>
<!-- Groupe Les Échos -->
<g id="node1" class="node">
<title>Groupe Les Échos</title>
<ellipse fill="none" stroke="black" cx="465.54" cy="-105" rx="77.99" ry="18"/>
<text text-anchor="middle" x="465.54" y="-101.3" font-family="Times,serif" font-size="14.00">Groupe Les Échos</text>
</g>
<!-- Les Échos -->
<g id="node2" class="node">
<title>Les Échos</title>
<ellipse fill="none" stroke="black" cx="465.54" cy="-18" rx="48.19" ry="18"/>
<text text-anchor="middle" x="465.54" y="-14.3" font-family="Times,serif" font-size="14.00">Les Échos</text>
</g>
<!-- Groupe Les Échos&#45;&gt;Les Échos -->
<g id="edge1" class="edge">
<title>Groupe Les Échos&#45;&gt;Les Échos</title>
<path fill="none" stroke="black" d="M465.54,-86.8C465.54,-75.16 465.54,-59.55 465.54,-46.24"/>
<polygon fill="black" stroke="black" points="469.04,-46.18 465.54,-36.18 462.04,-46.18 469.04,-46.18"/>
<text text-anchor="middle" x="482.04" y="-57.8" font-family="Times,serif" font-size="14.00">100%</text>
</g>
<!-- LVMH -->
<g id="node3" class="node">
<title>LVMH</title>
<ellipse fill="none" stroke="black" cx="465.54" cy="-192" rx="36.29" ry="18"/>
<text text-anchor="middle" x="465.54" y="-188.3" font-family="Times,serif" font-size="14.00">LVMH</text>
</g>
<!-- LVMH&#45;&gt;Groupe Les Échos -->
<g id="edge2" class="edge">
<title>LVMH&#45;&gt;Groupe Les Échos</title>
<path fill="none" stroke="black" d="M465.54,-173.8C465.54,-162.16 465.54,-146.55 465.54,-133.24"/>
<polygon fill="black" stroke="black" points="469.04,-133.18 465.54,-123.18 462.04,-133.18 469.04,-133.18"/>
<text text-anchor="middle" x="482.04" y="-144.8" font-family="Times,serif" font-size="14.00">100%</text>
</g>
<!-- Bernard Arnault -->
<g id="node4" class="node">
<title>Bernard Arnault</title>
<ellipse fill="none" stroke="black" cx="69.54" cy="-279" rx="69.59" ry="18"/>
<text text-anchor="middle" x="69.54" y="-275.3" font-family="Times,serif" font-size="14.00">Bernard Arnault</text>
</g>
<!-- Bernard Arnault&#45;&gt;LVMH -->
<g id="edge3" class="edge">
<title>Bernard Arnault&#45;&gt;LVMH</title>
<path fill="none" stroke="black" d="M121.39,-266.84C130.44,-264.89 139.77,-262.89 148.54,-261 246.6,-239.93 361.74,-215.25 422.67,-202.19"/>
<polygon fill="black" stroke="black" points="423.64,-205.56 432.69,-200.04 422.17,-198.71 423.64,-205.56"/>
<text text-anchor="middle" x="309.54" y="-231.8" font-family="Times,serif" font-size="14.00">47%</text>
</g>
<!-- institutionnels étrangers -->
<g id="node5" class="node">
<title>institutionnels étrangers</title>
<ellipse fill="none" stroke="black" cx="255.54" cy="-279" rx="98.28" ry="18"/>
<text text-anchor="middle" x="255.54" y="-275.3" font-family="Times,serif" font-size="14.00">institutionnels étrangers</text>
</g>
<!-- institutionnels étrangers&#45;&gt;LVMH -->
<g id="edge4" class="edge">
<title>institutionnels étrangers&#45;&gt;LVMH</title>
<path fill="none" stroke="black" d="M294.06,-262.41C332.43,-246.88 390.92,-223.2 428.69,-207.92"/>
<polygon fill="black" stroke="black" points="430.34,-211.03 438.3,-204.03 427.71,-204.54 430.34,-211.03"/>
<text text-anchor="middle" x="386.54" y="-231.8" font-family="Times,serif" font-size="14.00">34%</text>
</g>
<!-- institutionnels français -->
<g id="node6" class="node">
<title>institutionnels français</title>
<ellipse fill="none" stroke="black" cx="465.54" cy="-279" rx="93.68" ry="18"/>
<text text-anchor="middle" x="465.54" y="-275.3" font-family="Times,serif" font-size="14.00">institutionnels français</text>
</g>
<!-- institutionnels français&#45;&gt;LVMH -->
<g id="edge5" class="edge">
<title>institutionnels français&#45;&gt;LVMH</title>
<path fill="none" stroke="black" d="M465.54,-260.8C465.54,-249.16 465.54,-233.55 465.54,-220.24"/>
<polygon fill="black" stroke="black" points="469.04,-220.18 465.54,-210.18 462.04,-220.18 469.04,-220.18"/>
<text text-anchor="middle" x="478.54" y="-231.8" font-family="Times,serif" font-size="14.00">14%</text>
</g>
<!-- personnes physiques -->
<g id="node7" class="node">
<title>personnes physiques</title>
<ellipse fill="none" stroke="black" cx="662.54" cy="-279" rx="85.59" ry="18"/>
<text text-anchor="middle" x="662.54" y="-275.3" font-family="Times,serif" font-size="14.00">personnes physiques</text>
</g>
<!-- personnes physiques&#45;&gt;LVMH -->
<g id="edge6" class="edge">
<title>personnes physiques&#45;&gt;LVMH</title>
<path fill="none" stroke="black" d="M626.87,-262.61C591.4,-247.3 537.27,-223.95 501.65,-208.58"/>
<polygon fill="black" stroke="black" points="502.69,-205.22 492.12,-204.47 499.92,-211.64 502.69,-205.22"/>
<text text-anchor="middle" x="586.04" y="-231.8" font-family="Times,serif" font-size="14.00">5%</text>
</g>
<!-- autocontrôle -->
<g id="node8" class="node">
<title>autocontrôle</title>
<ellipse fill="none" stroke="black" cx="822.54" cy="-279" rx="55.79" ry="18"/>
<text text-anchor="middle" x="822.54" y="-275.3" font-family="Times,serif" font-size="14.00">autocontrôle</text>
</g>
<!-- autocontrôle&#45;&gt;LVMH -->
<g id="edge7" class="edge">
<title>autocontrôle&#45;&gt;LVMH</title>
<path fill="none" stroke="black" d="M780.98,-266.95C773.2,-264.93 765.13,-262.88 757.54,-261 669.06,-239.13 565.01,-215.37 508.09,-202.53"/>
<polygon fill="black" stroke="black" points="508.54,-199.04 498.02,-200.26 507.01,-205.87 508.54,-199.04"/>
<text text-anchor="middle" x="686.04" y="-231.8" font-family="Times,serif" font-size="14.00">1%</text>
</g>
</g>
</svg>
