<?xml version="1.0" encoding="UTF-8" standalone="no"?>
<!DOCTYPE svg PUBLIC "-//W3C//DTD SVG 1.1//EN"
 "http://www.w3.org/Graphics/SVG/1.1/DTD/svg11.dtd">
<!-- Generated by graphviz version 2.49.3 (20211023.0002)
 -->
<!-- Title: G Pages: 1 -->
<svg width="532pt" height="218pt"
 viewBox="0.00 0.00 531.85 218.00" xmlns="http://www.w3.org/2000/svg" xmlns:xlink="http://www.w3.org/1999/xlink">
<g id="page0,1_graph0" class="graph" transform="scale(1 1) rotate(0) translate(4 214)">
<title>G</title>
<polygon fill="white" stroke="transparent" points="-4,4 -4,-214 527.85,-214 527.85,4 -4,4"/>
<!-- Groupe SIPA &#45; Ouest&#45;France -->
<g id="node1" class="node">
<title>Groupe SIPA &#45; Ouest&#45;France</title>
<ellipse fill="none" stroke="black" cx="261.93" cy="-105" rx="115.08" ry="18"/>
<text text-anchor="middle" x="261.93" y="-101.3" font-family="Times,serif" font-size="14.00">Groupe SIPA &#45; Ouest&#45;France</text>
</g>
<!-- Ouest&#45;France -->
<g id="node2" class="node">
<title>Ouest&#45;France</title>
<ellipse fill="none" stroke="black" cx="261.93" cy="-18" rx="59.59" ry="18"/>
<text text-anchor="middle" x="261.93" y="-14.3" font-family="Times,serif" font-size="14.00">Ouest&#45;France</text>
</g>
<!-- Groupe SIPA &#45; Ouest&#45;France&#45;&gt;Ouest&#45;France -->
<g id="edge1" class="edge">
<title>Groupe SIPA &#45; Ouest&#45;France&#45;&gt;Ouest&#45;France</title>
<path fill="none" stroke="black" d="M261.93,-86.8C261.93,-75.16 261.93,-59.55 261.93,-46.24"/>
<polygon fill="black" stroke="black" points="265.43,-46.18 261.93,-36.18 258.43,-46.18 265.43,-46.18"/>
<text text-anchor="middle" x="278.43" y="-57.8" font-family="Times,serif" font-size="14.00">100%</text>
</g>
<!-- Association pour le soutien des principes de la démocratie humaniste -->
<g id="node3" class="node">
<title>Association pour le soutien des principes de la démocratie humaniste</title>
<ellipse fill="none" stroke="black" cx="261.93" cy="-192" rx="261.85" ry="18"/>
<text text-anchor="middle" x="261.93" y="-188.3" font-family="Times,serif" font-size="14.00">Association pour le soutien des principes de la démocratie humaniste</text>
</g>
<!-- Association pour le soutien des principes de la démocratie humaniste&#45;&gt;Groupe SIPA &#45; Ouest&#45;France -->
<g id="edge2" class="edge">
<title>Association pour le soutien des principes de la démocratie humaniste&#45;&gt;Groupe SIPA &#45; Ouest&#45;France</title>
<path fill="none" stroke="black" d="M261.93,-173.8C261.93,-162.16 261.93,-146.55 261.93,-133.24"/>
<polygon fill="black" stroke="black" points="265.43,-133.18 261.93,-123.18 258.43,-133.18 265.43,-133.18"/>
<text text-anchor="middle" x="278.43" y="-144.8" font-family="Times,serif" font-size="14.00">100%</text>
</g>
</g>
</svg>
