<?xml version="1.0" encoding="UTF-8" standalone="no"?>
<!DOCTYPE svg PUBLIC "-//W3C//DTD SVG 1.1//EN"
 "http://www.w3.org/Graphics/SVG/1.1/DTD/svg11.dtd">
<!-- Generated by graphviz version 2.49.3 (20211023.0002)
 -->
<!-- Title: G Pages: 1 -->
<svg width="1204pt" height="131pt"
 viewBox="0.00 0.00 1203.88 131.00" xmlns="http://www.w3.org/2000/svg" xmlns:xlink="http://www.w3.org/1999/xlink">
<g id="page0,1_graph0" class="graph" transform="scale(1 1) rotate(0) translate(4 127)">
<title>G</title>
<polygon fill="white" stroke="transparent" points="-4,4 -4,-127 1199.88,-127 1199.88,4 -4,4"/>
<!-- fondateurs les jours -->
<g id="node1" class="node">
<title>fondateurs les jours</title>
<ellipse fill="none" stroke="black" cx="81.89" cy="-105" rx="81.79" ry="18"/>
<text text-anchor="middle" x="81.89" y="-101.3" font-family="Times,serif" font-size="14.00">fondateurs les jours</text>
</g>
<!-- Les Jours -->
<g id="node2" class="node">
<title>Les Jours</title>
<ellipse fill="none" stroke="black" cx="541.89" cy="-18" rx="45.49" ry="18"/>
<text text-anchor="middle" x="541.89" y="-14.3" font-family="Times,serif" font-size="14.00">Les Jours</text>
</g>
<!-- fondateurs les jours&#45;&gt;Les Jours -->
<g id="edge1" class="edge">
<title>fondateurs les jours&#45;&gt;Les Jours</title>
<path fill="none" stroke="black" d="M140.47,-92.37C192.92,-82.04 271.98,-66.65 340.89,-54 391.8,-44.66 450.07,-34.58 490.72,-27.64"/>
<polygon fill="black" stroke="black" points="491.39,-31.08 500.66,-25.95 490.22,-24.18 491.39,-31.08"/>
<text text-anchor="middle" x="353.89" y="-57.8" font-family="Times,serif" font-size="14.00">89%</text>
</g>
<!-- Xavier Niel -->
<g id="node3" class="node">
<title>Xavier Niel</title>
<ellipse fill="none" stroke="black" cx="234.89" cy="-105" rx="53.09" ry="18"/>
<text text-anchor="middle" x="234.89" y="-101.3" font-family="Times,serif" font-size="14.00">Xavier Niel</text>
</g>
<!-- Xavier Niel&#45;&gt;Les Jours -->
<g id="edge2" class="edge">
<title>Xavier Niel&#45;&gt;Les Jours</title>
<path fill="none" stroke="black" d="M274.71,-92.97C331.46,-77.26 435.36,-48.5 495.51,-31.84"/>
<polygon fill="black" stroke="black" points="496.79,-35.12 505.49,-29.08 494.92,-28.37 496.79,-35.12"/>
<text text-anchor="middle" x="416.39" y="-57.8" font-family="Times,serif" font-size="14.00">3%</text>
</g>
<!-- Olivier Legrain -->
<g id="node4" class="node">
<title>Olivier Legrain</title>
<ellipse fill="none" stroke="black" cx="372.89" cy="-105" rx="66.89" ry="18"/>
<text text-anchor="middle" x="372.89" y="-101.3" font-family="Times,serif" font-size="14.00">Olivier Legrain</text>
</g>
<!-- Olivier Legrain&#45;&gt;Les Jours -->
<g id="edge3" class="edge">
<title>Olivier Legrain&#45;&gt;Les Jours</title>
<path fill="none" stroke="black" d="M403.11,-88.8C431.93,-74.31 475.37,-52.46 505.96,-37.08"/>
<polygon fill="black" stroke="black" points="507.64,-40.14 515,-32.52 504.5,-33.89 507.64,-40.14"/>
<text text-anchor="middle" x="477.39" y="-57.8" font-family="Times,serif" font-size="14.00">2%</text>
</g>
<!-- Marc&#45;Olivier Fogiel -->
<g id="node5" class="node">
<title>Marc&#45;Olivier Fogiel</title>
<ellipse fill="none" stroke="black" cx="541.89" cy="-105" rx="84.49" ry="18"/>
<text text-anchor="middle" x="541.89" y="-101.3" font-family="Times,serif" font-size="14.00">Marc&#45;Olivier Fogiel</text>
</g>
<!-- Marc&#45;Olivier Fogiel&#45;&gt;Les Jours -->
<g id="edge4" class="edge">
<title>Marc&#45;Olivier Fogiel&#45;&gt;Les Jours</title>
<path fill="none" stroke="black" d="M541.89,-86.8C541.89,-75.16 541.89,-59.55 541.89,-46.24"/>
<polygon fill="black" stroke="black" points="545.39,-46.18 541.89,-36.18 538.39,-46.18 545.39,-46.18"/>
<text text-anchor="middle" x="551.39" y="-57.8" font-family="Times,serif" font-size="14.00">1%</text>
</g>
<!-- Pierre&#45;Antoine Capton -->
<g id="node6" class="node">
<title>Pierre&#45;Antoine Capton</title>
<ellipse fill="none" stroke="black" cx="737.89" cy="-105" rx="93.68" ry="18"/>
<text text-anchor="middle" x="737.89" y="-101.3" font-family="Times,serif" font-size="14.00">Pierre&#45;Antoine Capton</text>
</g>
<!-- Pierre&#45;Antoine Capton&#45;&gt;Les Jours -->
<g id="edge5" class="edge">
<title>Pierre&#45;Antoine Capton&#45;&gt;Les Jours</title>
<path fill="none" stroke="black" d="M701.49,-88.21C667.18,-73.33 615.94,-51.11 580.84,-35.89"/>
<polygon fill="black" stroke="black" points="581.95,-32.56 571.39,-31.79 579.17,-38.98 581.95,-32.56"/>
<text text-anchor="middle" x="661.39" y="-57.8" font-family="Times,serif" font-size="14.00">1%</text>
</g>
<!-- Matthieu Pigasse -->
<g id="node7" class="node">
<title>Matthieu Pigasse</title>
<ellipse fill="none" stroke="black" cx="922.89" cy="-105" rx="73.39" ry="18"/>
<text text-anchor="middle" x="922.89" y="-101.3" font-family="Times,serif" font-size="14.00">Matthieu Pigasse</text>
</g>
<!-- Matthieu Pigasse&#45;&gt;Les Jours -->
<g id="edge6" class="edge">
<title>Matthieu Pigasse&#45;&gt;Les Jours</title>
<path fill="none" stroke="black" d="M870.32,-92.27C796.38,-75.78 662.7,-45.95 590.8,-29.91"/>
<polygon fill="black" stroke="black" points="591.18,-26.41 580.66,-27.65 589.66,-33.24 591.18,-26.41"/>
<text text-anchor="middle" x="765.39" y="-57.8" font-family="Times,serif" font-size="14.00">1%</text>
</g>
<!-- Famille amis les jours -->
<g id="node8" class="node">
<title>Famille amis les jours</title>
<ellipse fill="none" stroke="black" cx="1104.89" cy="-105" rx="90.98" ry="18"/>
<text text-anchor="middle" x="1104.89" y="-101.3" font-family="Times,serif" font-size="14.00">Famille amis les jours</text>
</g>
<!-- Famille amis les jours&#45;&gt;Les Jours -->
<g id="edge7" class="edge">
<title>Famille amis les jours&#45;&gt;Les Jours</title>
<path fill="none" stroke="black" d="M1038.76,-92.54C1027.47,-90.65 1015.85,-88.74 1004.89,-87 856.07,-63.42 679.88,-38.32 594.08,-26.27"/>
<polygon fill="black" stroke="black" points="594.46,-22.79 584.07,-24.87 593.49,-29.73 594.46,-22.79"/>
<text text-anchor="middle" x="886.39" y="-57.8" font-family="Times,serif" font-size="14.00">1%</text>
</g>
</g>
</svg>
