<?xml version="1.0" encoding="UTF-8" standalone="no"?>
<!DOCTYPE svg PUBLIC "-//W3C//DTD SVG 1.1//EN"
 "http://www.w3.org/Graphics/SVG/1.1/DTD/svg11.dtd">
<!-- Generated by graphviz version 2.49.3 (20211023.0002)
 -->
<!-- Title: G Pages: 1 -->
<svg width="831pt" height="305pt"
 viewBox="0.00 0.00 830.82 305.00" xmlns="http://www.w3.org/2000/svg" xmlns:xlink="http://www.w3.org/1999/xlink">
<g id="graph0" class="graph" transform="scale(1 1) rotate(0) translate(4 301)">
<title>G</title>
<polygon fill="white" stroke="transparent" points="-4,4 -4,-301 826.82,-301 826.82,4 -4,4"/>
<!-- Groupe SIPA &#45; Ouest&#45;France -->
<g id="node1" class="node">
<title>Groupe SIPA &#45; Ouest&#45;France</title>
<ellipse fill="none" stroke="black" cx="523.89" cy="-105" rx="115.08" ry="18"/>
<text text-anchor="middle" x="523.89" y="-101.3" font-family="Times,serif" font-size="14.00">Groupe SIPA &#45; Ouest&#45;France</text>
</g>
<!-- 20 minutes -->
<g id="node2" class="node">
<title>20 minutes</title>
<ellipse fill="none" stroke="black" cx="387.89" cy="-18" rx="50.89" ry="18"/>
<text text-anchor="middle" x="387.89" y="-14.3" font-family="Times,serif" font-size="14.00">20 minutes</text>
</g>
<!-- Groupe SIPA &#45; Ouest&#45;France&#45;&gt;20 minutes -->
<g id="edge1" class="edge">
<title>Groupe SIPA &#45; Ouest&#45;France&#45;&gt;20 minutes</title>
<path fill="none" stroke="black" d="M497.35,-87.41C475.41,-73.7 444.17,-54.18 420.68,-39.49"/>
<polygon fill="black" stroke="black" points="422.43,-36.45 412.09,-34.12 418.72,-42.39 422.43,-36.45"/>
<text text-anchor="middle" x="477.89" y="-57.8" font-family="Times,serif" font-size="14.00">50%</text>
</g>
<!-- Association pour le soutien des principes de la démocratie humaniste -->
<g id="node3" class="node">
<title>Association pour le soutien des principes de la démocratie humaniste</title>
<ellipse fill="none" stroke="black" cx="560.89" cy="-192" rx="261.85" ry="18"/>
<text text-anchor="middle" x="560.89" y="-188.3" font-family="Times,serif" font-size="14.00">Association pour le soutien des principes de la démocratie humaniste</text>
</g>
<!-- Association pour le soutien des principes de la démocratie humaniste&#45;&gt;Groupe SIPA &#45; Ouest&#45;France -->
<g id="edge2" class="edge">
<title>Association pour le soutien des principes de la démocratie humaniste&#45;&gt;Groupe SIPA &#45; Ouest&#45;France</title>
<path fill="none" stroke="black" d="M553.41,-173.8C548.24,-161.93 541.27,-145.93 535.41,-132.45"/>
<polygon fill="black" stroke="black" points="538.57,-130.95 531.37,-123.18 532.15,-133.74 538.57,-130.95"/>
<text text-anchor="middle" x="561.39" y="-144.8" font-family="Times,serif" font-size="14.00">100%</text>
</g>
<!-- Groupe La Voix -->
<g id="node4" class="node">
<title>Groupe La Voix</title>
<ellipse fill="none" stroke="black" cx="215.89" cy="-105" rx="68.79" ry="18"/>
<text text-anchor="middle" x="215.89" y="-101.3" font-family="Times,serif" font-size="14.00">Groupe La Voix</text>
</g>
<!-- Groupe La Voix&#45;&gt;20 minutes -->
<g id="edge3" class="edge">
<title>Groupe La Voix&#45;&gt;20 minutes</title>
<path fill="none" stroke="black" d="M246.64,-88.8C275.63,-74.48 319.14,-52.98 350.2,-37.63"/>
<polygon fill="black" stroke="black" points="351.99,-40.65 359.41,-33.08 348.89,-34.37 351.99,-40.65"/>
<text text-anchor="middle" x="325.89" y="-57.8" font-family="Times,serif" font-size="14.00">49%</text>
</g>
<!-- Groupe Rossel -->
<g id="node5" class="node">
<title>Groupe Rossel</title>
<ellipse fill="none" stroke="black" cx="68.89" cy="-192" rx="64.19" ry="18"/>
<text text-anchor="middle" x="68.89" y="-188.3" font-family="Times,serif" font-size="14.00">Groupe Rossel</text>
</g>
<!-- Groupe Rossel&#45;&gt;Groupe La Voix -->
<g id="edge4" class="edge">
<title>Groupe Rossel&#45;&gt;Groupe La Voix</title>
<path fill="none" stroke="black" d="M95.51,-175.61C119.12,-161.96 153.81,-141.9 179.89,-126.82"/>
<polygon fill="black" stroke="black" points="181.82,-129.75 188.72,-121.71 178.32,-123.69 181.82,-129.75"/>
<text text-anchor="middle" x="164.89" y="-144.8" font-family="Times,serif" font-size="14.00">73%</text>
</g>
<!-- Famille hurbain -->
<g id="node6" class="node">
<title>Famille hurbain</title>
<ellipse fill="none" stroke="black" cx="68.89" cy="-279" rx="68.79" ry="18"/>
<text text-anchor="middle" x="68.89" y="-275.3" font-family="Times,serif" font-size="14.00">Famille hurbain</text>
</g>
<!-- Famille hurbain&#45;&gt;Groupe Rossel -->
<g id="edge5" class="edge">
<title>Famille hurbain&#45;&gt;Groupe Rossel</title>
<path fill="none" stroke="black" d="M68.89,-260.8C68.89,-249.16 68.89,-233.55 68.89,-220.24"/>
<polygon fill="black" stroke="black" points="72.39,-220.18 68.89,-210.18 65.39,-220.18 72.39,-220.18"/>
<text text-anchor="middle" x="81.89" y="-231.8" font-family="Times,serif" font-size="14.00">83%</text>
</g>
<!-- Crédit agricole -->
<g id="node7" class="node">
<title>Crédit agricole</title>
<ellipse fill="none" stroke="black" cx="215.89" cy="-192" rx="64.99" ry="18"/>
<text text-anchor="middle" x="215.89" y="-188.3" font-family="Times,serif" font-size="14.00">Crédit agricole</text>
</g>
<!-- Crédit agricole&#45;&gt;Groupe La Voix -->
<g id="edge6" class="edge">
<title>Crédit agricole&#45;&gt;Groupe La Voix</title>
<path fill="none" stroke="black" d="M215.89,-173.8C215.89,-162.16 215.89,-146.55 215.89,-133.24"/>
<polygon fill="black" stroke="black" points="219.39,-133.18 215.89,-123.18 212.39,-133.18 219.39,-133.18"/>
<text text-anchor="middle" x="228.89" y="-144.8" font-family="Times,serif" font-size="14.00">25%</text>
</g>
</g>
</svg>
