<?xml version="1.0" encoding="UTF-8" standalone="no"?>
<!DOCTYPE svg PUBLIC "-//W3C//DTD SVG 1.1//EN"
 "http://www.w3.org/Graphics/SVG/1.1/DTD/svg11.dtd">
<!-- Generated by graphviz version 2.49.3 (20211023.0002)
 -->
<!-- Title: G Pages: 1 -->
<svg width="1153pt" height="392pt"
 viewBox="0.00 0.00 1152.79 392.00" xmlns="http://www.w3.org/2000/svg" xmlns:xlink="http://www.w3.org/1999/xlink">
<g id="page0,1_graph0" class="graph" transform="scale(1 1) rotate(0) translate(4 388)">
<title>G</title>
<polygon fill="white" stroke="transparent" points="-4,4 -4,-388 1148.79,-388 1148.79,4 -4,4"/>
<!-- Bolloré -->
<g id="node1" class="node">
<title>Bolloré</title>
<ellipse fill="none" stroke="black" cx="868.54" cy="-105" rx="37.89" ry="18"/>
<text text-anchor="middle" x="868.54" y="-101.3" font-family="Times,serif" font-size="14.00">Bolloré</text>
</g>
<!-- CNews Matin -->
<g id="node2" class="node">
<title>CNews Matin</title>
<ellipse fill="none" stroke="black" cx="738.54" cy="-18" rx="61.99" ry="18"/>
<text text-anchor="middle" x="738.54" y="-14.3" font-family="Times,serif" font-size="14.00">CNews Matin</text>
</g>
<!-- Bolloré&#45;&gt;CNews Matin -->
<g id="edge1" class="edge">
<title>Bolloré&#45;&gt;CNews Matin</title>
<path fill="none" stroke="black" d="M847.08,-89.96C826.49,-76.5 795.11,-55.98 771.38,-40.47"/>
<polygon fill="black" stroke="black" points="772.98,-37.33 762.7,-34.79 769.15,-43.19 772.98,-37.33"/>
<text text-anchor="middle" x="823.54" y="-57.8" font-family="Times,serif" font-size="14.00">70%</text>
</g>
<!-- Financière de l&#39;Odet -->
<g id="node3" class="node">
<title>Financière de l&#39;Odet</title>
<ellipse fill="none" stroke="black" cx="945.54" cy="-192" rx="83.69" ry="18"/>
<text text-anchor="middle" x="945.54" y="-188.3" font-family="Times,serif" font-size="14.00">Financière de l&#39;Odet</text>
</g>
<!-- Financière de l&#39;Odet&#45;&gt;Bolloré -->
<g id="edge2" class="edge">
<title>Financière de l&#39;Odet&#45;&gt;Bolloré</title>
<path fill="none" stroke="black" d="M930.33,-174.21C918.72,-161.39 902.58,-143.57 889.71,-129.36"/>
<polygon fill="black" stroke="black" points="892.25,-126.96 882.94,-121.9 887.06,-131.66 892.25,-126.96"/>
<text text-anchor="middle" x="924.54" y="-144.8" font-family="Times,serif" font-size="14.00">64%</text>
</g>
<!-- Sofibol -->
<g id="node4" class="node">
<title>Sofibol</title>
<ellipse fill="none" stroke="black" cx="1076.54" cy="-279" rx="37.09" ry="18"/>
<text text-anchor="middle" x="1076.54" y="-275.3" font-family="Times,serif" font-size="14.00">Sofibol</text>
</g>
<!-- Sofibol&#45;&gt;Financière de l&#39;Odet -->
<g id="edge3" class="edge">
<title>Sofibol&#45;&gt;Financière de l&#39;Odet</title>
<path fill="none" stroke="black" d="M1055.21,-264.15C1034.67,-250.83 1003.3,-230.48 979.36,-214.94"/>
<polygon fill="black" stroke="black" points="981.21,-211.97 970.92,-209.46 977.4,-217.84 981.21,-211.97"/>
<text text-anchor="middle" x="1031.54" y="-231.8" font-family="Times,serif" font-size="14.00">55%</text>
</g>
<!-- Vincent Bolloré -->
<g id="node5" class="node">
<title>Vincent Bolloré</title>
<ellipse fill="none" stroke="black" cx="1076.54" cy="-366" rx="68.49" ry="18"/>
<text text-anchor="middle" x="1076.54" y="-362.3" font-family="Times,serif" font-size="14.00">Vincent Bolloré</text>
</g>
<!-- Vincent Bolloré&#45;&gt;Sofibol -->
<g id="edge4" class="edge">
<title>Vincent Bolloré&#45;&gt;Sofibol</title>
<path fill="none" stroke="black" d="M1076.54,-347.8C1076.54,-336.16 1076.54,-320.55 1076.54,-307.24"/>
<polygon fill="black" stroke="black" points="1080.05,-307.18 1076.54,-297.18 1073.05,-307.18 1080.05,-307.18"/>
<text text-anchor="middle" x="1093.04" y="-318.8" font-family="Times,serif" font-size="14.00">100%</text>
</g>
<!-- Le Monde -->
<g id="node6" class="node">
<title>Le Monde</title>
<ellipse fill="none" stroke="black" cx="687.54" cy="-105" rx="48.19" ry="18"/>
<text text-anchor="middle" x="687.54" y="-101.3" font-family="Times,serif" font-size="14.00">Le Monde</text>
</g>
<!-- Le Monde&#45;&gt;CNews Matin -->
<g id="edge5" class="edge">
<title>Le Monde&#45;&gt;CNews Matin</title>
<path fill="none" stroke="black" d="M697.62,-87.21C704.91,-75.06 714.89,-58.43 723.17,-44.63"/>
<polygon fill="black" stroke="black" points="726.17,-46.43 728.32,-36.05 720.17,-42.82 726.17,-46.43"/>
<text text-anchor="middle" x="728.54" y="-57.8" font-family="Times,serif" font-size="14.00">30%</text>
</g>
<!-- lml -->
<g id="node7" class="node">
<title>lml</title>
<ellipse fill="none" stroke="black" cx="349.54" cy="-192" rx="27" ry="18"/>
<text text-anchor="middle" x="349.54" y="-188.3" font-family="Times,serif" font-size="14.00">lml</text>
</g>
<!-- lml&#45;&gt;Le Monde -->
<g id="edge6" class="edge">
<title>lml&#45;&gt;Le Monde</title>
<path fill="none" stroke="black" d="M374.4,-184.75C430.09,-170.74 565.73,-136.63 638.88,-118.24"/>
<polygon fill="black" stroke="black" points="639.93,-121.58 648.77,-115.75 638.22,-114.8 639.93,-121.58"/>
<text text-anchor="middle" x="551.54" y="-144.8" font-family="Times,serif" font-size="14.00">64%</text>
</g>
<!-- Pierre Bergé -->
<g id="node8" class="node">
<title>Pierre Bergé</title>
<ellipse fill="none" stroke="black" cx="56.54" cy="-279" rx="56.59" ry="18"/>
<text text-anchor="middle" x="56.54" y="-275.3" font-family="Times,serif" font-size="14.00">Pierre Bergé</text>
</g>
<!-- Pierre Bergé&#45;&gt;lml -->
<g id="edge7" class="edge">
<title>Pierre Bergé&#45;&gt;lml</title>
<path fill="none" stroke="black" d="M96.98,-266.27C155.09,-249.41 261.18,-218.64 315.51,-202.87"/>
<polygon fill="black" stroke="black" points="316.71,-206.17 325.34,-200.02 314.76,-199.45 316.71,-206.17"/>
<text text-anchor="middle" x="234.54" y="-231.8" font-family="Times,serif" font-size="14.00">26%</text>
</g>
<!-- Matthieu Pigasse -->
<g id="node9" class="node">
<title>Matthieu Pigasse</title>
<ellipse fill="none" stroke="black" cx="204.54" cy="-279" rx="73.39" ry="18"/>
<text text-anchor="middle" x="204.54" y="-275.3" font-family="Times,serif" font-size="14.00">Matthieu Pigasse</text>
</g>
<!-- Matthieu Pigasse&#45;&gt;lml -->
<g id="edge8" class="edge">
<title>Matthieu Pigasse&#45;&gt;lml</title>
<path fill="none" stroke="black" d="M231.48,-262.21C256.97,-247.27 295.11,-224.91 321.09,-209.68"/>
<polygon fill="black" stroke="black" points="322.88,-212.69 329.74,-204.61 319.34,-206.65 322.88,-212.69"/>
<text text-anchor="middle" x="299.54" y="-231.8" font-family="Times,serif" font-size="14.00">26%</text>
</g>
<!-- Xavier Niel -->
<g id="node10" class="node">
<title>Xavier Niel</title>
<ellipse fill="none" stroke="black" cx="349.54" cy="-279" rx="53.09" ry="18"/>
<text text-anchor="middle" x="349.54" y="-275.3" font-family="Times,serif" font-size="14.00">Xavier Niel</text>
</g>
<!-- Xavier Niel&#45;&gt;lml -->
<g id="edge9" class="edge">
<title>Xavier Niel&#45;&gt;lml</title>
<path fill="none" stroke="black" d="M349.54,-260.8C349.54,-249.16 349.54,-233.55 349.54,-220.24"/>
<polygon fill="black" stroke="black" points="353.05,-220.18 349.54,-210.18 346.05,-220.18 353.05,-220.18"/>
<text text-anchor="middle" x="362.54" y="-231.8" font-family="Times,serif" font-size="14.00">26%</text>
</g>
<!-- Prisa -->
<g id="node11" class="node">
<title>Prisa</title>
<ellipse fill="none" stroke="black" cx="450.54" cy="-279" rx="29.5" ry="18"/>
<text text-anchor="middle" x="450.54" y="-275.3" font-family="Times,serif" font-size="14.00">Prisa</text>
</g>
<!-- Prisa&#45;&gt;lml -->
<g id="edge10" class="edge">
<title>Prisa&#45;&gt;lml</title>
<path fill="none" stroke="black" d="M433.87,-263.96C417.37,-250.08 391.96,-228.7 373.35,-213.03"/>
<polygon fill="black" stroke="black" points="375.48,-210.26 365.58,-206.49 370.98,-215.61 375.48,-210.26"/>
<text text-anchor="middle" x="418.54" y="-231.8" font-family="Times,serif" font-size="14.00">23%</text>
</g>
<!-- lmpa -->
<g id="node12" class="node">
<title>lmpa</title>
<ellipse fill="none" stroke="black" cx="687.54" cy="-192" rx="28.7" ry="18"/>
<text text-anchor="middle" x="687.54" y="-188.3" font-family="Times,serif" font-size="14.00">lmpa</text>
</g>
<!-- lmpa&#45;&gt;Le Monde -->
<g id="edge11" class="edge">
<title>lmpa&#45;&gt;Le Monde</title>
<path fill="none" stroke="black" d="M687.54,-173.8C687.54,-162.16 687.54,-146.55 687.54,-133.24"/>
<polygon fill="black" stroke="black" points="691.05,-133.18 687.54,-123.18 684.05,-133.18 691.05,-133.18"/>
<text text-anchor="middle" x="700.54" y="-144.8" font-family="Times,serif" font-size="14.00">34%</text>
</g>
<!-- actionnaires internes Le Monde -->
<g id="node13" class="node">
<title>actionnaires internes Le Monde</title>
<ellipse fill="none" stroke="black" cx="623.54" cy="-279" rx="125.38" ry="18"/>
<text text-anchor="middle" x="623.54" y="-275.3" font-family="Times,serif" font-size="14.00">actionnaires internes Le Monde</text>
</g>
<!-- actionnaires internes Le Monde&#45;&gt;lmpa -->
<g id="edge12" class="edge">
<title>actionnaires internes Le Monde&#45;&gt;lmpa</title>
<path fill="none" stroke="black" d="M636.5,-260.8C646.05,-248.1 659.18,-230.68 669.72,-216.67"/>
<polygon fill="black" stroke="black" points="672.69,-218.55 675.9,-208.46 667.09,-214.34 672.69,-218.55"/>
<text text-anchor="middle" x="671.54" y="-231.8" font-family="Times,serif" font-size="14.00">52%</text>
</g>
<!-- actionnaires externes Le Monde -->
<g id="node14" class="node">
<title>actionnaires externes Le Monde</title>
<ellipse fill="none" stroke="black" cx="894.54" cy="-279" rx="127.28" ry="18"/>
<text text-anchor="middle" x="894.54" y="-275.3" font-family="Times,serif" font-size="14.00">actionnaires externes Le Monde</text>
</g>
<!-- actionnaires externes Le Monde&#45;&gt;lmpa -->
<g id="edge13" class="edge">
<title>actionnaires externes Le Monde&#45;&gt;lmpa</title>
<path fill="none" stroke="black" d="M855.12,-261.81C816.09,-245.79 757.02,-221.53 720.44,-206.51"/>
<polygon fill="black" stroke="black" points="721.33,-203.09 710.75,-202.53 718.67,-209.57 721.33,-203.09"/>
<text text-anchor="middle" x="815.54" y="-231.8" font-family="Times,serif" font-size="14.00">48%</text>
</g>
</g>
</svg>
