<?xml version="1.0" encoding="UTF-8" standalone="no"?>
<!DOCTYPE svg PUBLIC "-//W3C//DTD SVG 1.1//EN"
 "http://www.w3.org/Graphics/SVG/1.1/DTD/svg11.dtd">
<!-- Generated by graphviz version 2.49.3 (20211023.0002)
 -->
<!-- Title: G Pages: 1 -->
<svg width="607pt" height="131pt"
 viewBox="0.00 0.00 606.54 131.00" xmlns="http://www.w3.org/2000/svg" xmlns:xlink="http://www.w3.org/1999/xlink">
<g id="page0,1_graph0" class="graph" transform="scale(1 1) rotate(0) translate(4 127)">
<title>G</title>
<polygon fill="white" stroke="transparent" points="-4,4 -4,-127 602.54,-127 602.54,4 -4,4"/>
<!-- Nicolas Beytout -->
<g id="node1" class="node">
<title>Nicolas Beytout</title>
<ellipse fill="none" stroke="black" cx="69.54" cy="-105" rx="69.59" ry="18"/>
<text text-anchor="middle" x="69.54" y="-101.3" font-family="Times,serif" font-size="14.00">Nicolas Beytout</text>
</g>
<!-- L&#39;Opinion -->
<g id="node2" class="node">
<title>L&#39;Opinion</title>
<ellipse fill="none" stroke="black" cx="310.54" cy="-18" rx="47.39" ry="18"/>
<text text-anchor="middle" x="310.54" y="-14.3" font-family="Times,serif" font-size="14.00">L&#39;Opinion</text>
</g>
<!-- Nicolas Beytout&#45;&gt;L&#39;Opinion -->
<g id="edge1" class="edge">
<title>Nicolas Beytout&#45;&gt;L&#39;Opinion</title>
<path fill="none" stroke="black" d="M109.07,-90.06C152.61,-74.7 222.41,-50.08 267.36,-34.23"/>
<polygon fill="black" stroke="black" points="268.57,-37.52 276.83,-30.89 266.24,-30.91 268.57,-37.52"/>
<text text-anchor="middle" x="217.54" y="-57.8" font-family="Times,serif" font-size="14.00">30%</text>
</g>
<!-- Bernard Arnault -->
<g id="node3" class="node">
<title>Bernard Arnault</title>
<ellipse fill="none" stroke="black" cx="226.54" cy="-105" rx="69.59" ry="18"/>
<text text-anchor="middle" x="226.54" y="-101.3" font-family="Times,serif" font-size="14.00">Bernard Arnault</text>
</g>
<!-- Bernard Arnault&#45;&gt;L&#39;Opinion -->
<g id="edge2" class="edge">
<title>Bernard Arnault&#45;&gt;L&#39;Opinion</title>
<path fill="none" stroke="black" d="M243.14,-87.21C255.73,-74.47 273.19,-56.8 287.19,-42.64"/>
<polygon fill="black" stroke="black" points="290.01,-44.75 294.55,-35.18 285.03,-39.83 290.01,-44.75"/>
<text text-anchor="middle" x="287.54" y="-57.8" font-family="Times,serif" font-size="14.00">44%</text>
</g>
<!-- Liliane Bettencourt -->
<g id="node4" class="node">
<title>Liliane Bettencourt</title>
<ellipse fill="none" stroke="black" cx="395.54" cy="-105" rx="81.49" ry="18"/>
<text text-anchor="middle" x="395.54" y="-101.3" font-family="Times,serif" font-size="14.00">Liliane Bettencourt</text>
</g>
<!-- Liliane Bettencourt&#45;&gt;L&#39;Opinion -->
<g id="edge3" class="edge">
<title>Liliane Bettencourt&#45;&gt;L&#39;Opinion</title>
<path fill="none" stroke="black" d="M378.75,-87.21C366.01,-74.47 348.34,-56.8 334.18,-42.64"/>
<polygon fill="black" stroke="black" points="336.27,-39.78 326.73,-35.18 331.32,-44.73 336.27,-39.78"/>
<text text-anchor="middle" x="371.54" y="-57.8" font-family="Times,serif" font-size="14.00">13%</text>
</g>
<!-- News Corp -->
<g id="node5" class="node">
<title>News Corp</title>
<ellipse fill="none" stroke="black" cx="546.54" cy="-105" rx="51.99" ry="18"/>
<text text-anchor="middle" x="546.54" y="-101.3" font-family="Times,serif" font-size="14.00">News Corp</text>
</g>
<!-- News Corp&#45;&gt;L&#39;Opinion -->
<g id="edge4" class="edge">
<title>News Corp&#45;&gt;L&#39;Opinion</title>
<path fill="none" stroke="black" d="M511.97,-91.55C469.87,-76.38 398.75,-50.77 353.26,-34.38"/>
<polygon fill="black" stroke="black" points="354.27,-31.03 343.68,-30.93 351.9,-37.62 354.27,-31.03"/>
<text text-anchor="middle" x="455.54" y="-57.8" font-family="Times,serif" font-size="14.00">15%</text>
</g>
</g>
</svg>
