<?xml version="1.0" encoding="UTF-8" standalone="no"?>
<!DOCTYPE svg PUBLIC "-//W3C//DTD SVG 1.1//EN"
 "http://www.w3.org/Graphics/SVG/1.1/DTD/svg11.dtd">
<!-- Generated by graphviz version 2.49.3 (20211023.0002)
 -->
<!-- Title: G Pages: 1 -->
<svg width="1271pt" height="305pt"
 viewBox="0.00 0.00 1270.63 305.00" xmlns="http://www.w3.org/2000/svg" xmlns:xlink="http://www.w3.org/1999/xlink">
<g id="page0,1_graph0" class="graph" transform="scale(1 1) rotate(0) translate(4 301)">
<title>G</title>
<polygon fill="white" stroke="transparent" points="-4,4 -4,-301 1266.63,-301 1266.63,4 -4,4"/>
<!-- Le Monde -->
<g id="node1" class="node">
<title>Le Monde</title>
<ellipse fill="none" stroke="black" cx="754.24" cy="-105" rx="48.19" ry="18"/>
<text text-anchor="middle" x="754.24" y="-101.3" font-family="Times,serif" font-size="14.00">Le Monde</text>
</g>
<!-- Le Monde diplomatique -->
<g id="node2" class="node">
<title>Le Monde diplomatique</title>
<ellipse fill="none" stroke="black" cx="473.24" cy="-18" rx="98.58" ry="18"/>
<text text-anchor="middle" x="473.24" y="-14.3" font-family="Times,serif" font-size="14.00">Le Monde diplomatique</text>
</g>
<!-- Le Monde&#45;&gt;Le Monde diplomatique -->
<g id="edge1" class="edge">
<title>Le Monde&#45;&gt;Le Monde diplomatique</title>
<path fill="none" stroke="black" d="M718.08,-93.06C670.95,-78.81 587.95,-53.7 531.8,-36.71"/>
<polygon fill="black" stroke="black" points="532.57,-33.29 521.99,-33.75 530.55,-39.99 532.57,-33.29"/>
<text text-anchor="middle" x="644.24" y="-57.8" font-family="Times,serif" font-size="14.00">51%</text>
</g>
<!-- lml -->
<g id="node3" class="node">
<title>lml</title>
<ellipse fill="none" stroke="black" cx="590.24" cy="-192" rx="27" ry="18"/>
<text text-anchor="middle" x="590.24" y="-188.3" font-family="Times,serif" font-size="14.00">lml</text>
</g>
<!-- lml&#45;&gt;Le Monde -->
<g id="edge2" class="edge">
<title>lml&#45;&gt;Le Monde</title>
<path fill="none" stroke="black" d="M611.01,-180.23C637.84,-166.33 684.99,-141.89 717.83,-124.87"/>
<polygon fill="black" stroke="black" points="719.84,-127.77 727.1,-120.06 716.61,-121.56 719.84,-127.77"/>
<text text-anchor="middle" x="695.24" y="-144.8" font-family="Times,serif" font-size="14.00">64%</text>
</g>
<!-- Pierre Bergé -->
<g id="node4" class="node">
<title>Pierre Bergé</title>
<ellipse fill="none" stroke="black" cx="297.24" cy="-279" rx="56.59" ry="18"/>
<text text-anchor="middle" x="297.24" y="-275.3" font-family="Times,serif" font-size="14.00">Pierre Bergé</text>
</g>
<!-- Pierre Bergé&#45;&gt;lml -->
<g id="edge3" class="edge">
<title>Pierre Bergé&#45;&gt;lml</title>
<path fill="none" stroke="black" d="M337.67,-266.27C395.78,-249.41 501.87,-218.64 556.2,-202.87"/>
<polygon fill="black" stroke="black" points="557.4,-206.17 566.03,-200.02 555.45,-199.45 557.4,-206.17"/>
<text text-anchor="middle" x="475.24" y="-231.8" font-family="Times,serif" font-size="14.00">26%</text>
</g>
<!-- Matthieu Pigasse -->
<g id="node5" class="node">
<title>Matthieu Pigasse</title>
<ellipse fill="none" stroke="black" cx="445.24" cy="-279" rx="73.39" ry="18"/>
<text text-anchor="middle" x="445.24" y="-275.3" font-family="Times,serif" font-size="14.00">Matthieu Pigasse</text>
</g>
<!-- Matthieu Pigasse&#45;&gt;lml -->
<g id="edge4" class="edge">
<title>Matthieu Pigasse&#45;&gt;lml</title>
<path fill="none" stroke="black" d="M472.17,-262.21C497.67,-247.27 535.81,-224.91 561.79,-209.68"/>
<polygon fill="black" stroke="black" points="563.57,-212.69 570.43,-204.61 560.03,-206.65 563.57,-212.69"/>
<text text-anchor="middle" x="540.24" y="-231.8" font-family="Times,serif" font-size="14.00">26%</text>
</g>
<!-- Xavier Niel -->
<g id="node6" class="node">
<title>Xavier Niel</title>
<ellipse fill="none" stroke="black" cx="590.24" cy="-279" rx="53.09" ry="18"/>
<text text-anchor="middle" x="590.24" y="-275.3" font-family="Times,serif" font-size="14.00">Xavier Niel</text>
</g>
<!-- Xavier Niel&#45;&gt;lml -->
<g id="edge5" class="edge">
<title>Xavier Niel&#45;&gt;lml</title>
<path fill="none" stroke="black" d="M590.24,-260.8C590.24,-249.16 590.24,-233.55 590.24,-220.24"/>
<polygon fill="black" stroke="black" points="593.74,-220.18 590.24,-210.18 586.74,-220.18 593.74,-220.18"/>
<text text-anchor="middle" x="603.24" y="-231.8" font-family="Times,serif" font-size="14.00">26%</text>
</g>
<!-- Prisa -->
<g id="node7" class="node">
<title>Prisa</title>
<ellipse fill="none" stroke="black" cx="691.24" cy="-279" rx="29.5" ry="18"/>
<text text-anchor="middle" x="691.24" y="-275.3" font-family="Times,serif" font-size="14.00">Prisa</text>
</g>
<!-- Prisa&#45;&gt;lml -->
<g id="edge6" class="edge">
<title>Prisa&#45;&gt;lml</title>
<path fill="none" stroke="black" d="M674.56,-263.96C658.06,-250.08 632.66,-228.7 614.04,-213.03"/>
<polygon fill="black" stroke="black" points="616.18,-210.26 606.27,-206.49 611.67,-215.61 616.18,-210.26"/>
<text text-anchor="middle" x="660.24" y="-231.8" font-family="Times,serif" font-size="14.00">23%</text>
</g>
<!-- lmpa -->
<g id="node8" class="node">
<title>lmpa</title>
<ellipse fill="none" stroke="black" cx="864.24" cy="-192" rx="28.7" ry="18"/>
<text text-anchor="middle" x="864.24" y="-188.3" font-family="Times,serif" font-size="14.00">lmpa</text>
</g>
<!-- lmpa&#45;&gt;Le Monde -->
<g id="edge7" class="edge">
<title>lmpa&#45;&gt;Le Monde</title>
<path fill="none" stroke="black" d="M846.57,-177.34C829.27,-163.98 802.65,-143.41 782.44,-127.79"/>
<polygon fill="black" stroke="black" points="784.54,-124.99 774.48,-121.64 780.26,-130.53 784.54,-124.99"/>
<text text-anchor="middle" x="829.24" y="-144.8" font-family="Times,serif" font-size="14.00">34%</text>
</g>
<!-- actionnaires internes Le Monde -->
<g id="node9" class="node">
<title>actionnaires internes Le Monde</title>
<ellipse fill="none" stroke="black" cx="864.24" cy="-279" rx="125.38" ry="18"/>
<text text-anchor="middle" x="864.24" y="-275.3" font-family="Times,serif" font-size="14.00">actionnaires internes Le Monde</text>
</g>
<!-- actionnaires internes Le Monde&#45;&gt;lmpa -->
<g id="edge8" class="edge">
<title>actionnaires internes Le Monde&#45;&gt;lmpa</title>
<path fill="none" stroke="black" d="M864.24,-260.8C864.24,-249.16 864.24,-233.55 864.24,-220.24"/>
<polygon fill="black" stroke="black" points="867.74,-220.18 864.24,-210.18 860.74,-220.18 867.74,-220.18"/>
<text text-anchor="middle" x="877.24" y="-231.8" font-family="Times,serif" font-size="14.00">52%</text>
</g>
<!-- actionnaires externes Le Monde -->
<g id="node10" class="node">
<title>actionnaires externes Le Monde</title>
<ellipse fill="none" stroke="black" cx="1135.24" cy="-279" rx="127.28" ry="18"/>
<text text-anchor="middle" x="1135.24" y="-275.3" font-family="Times,serif" font-size="14.00">actionnaires externes Le Monde</text>
</g>
<!-- actionnaires externes Le Monde&#45;&gt;lmpa -->
<g id="edge9" class="edge">
<title>actionnaires externes Le Monde&#45;&gt;lmpa</title>
<path fill="none" stroke="black" d="M1085.53,-262.41C1031.44,-245.44 946.35,-218.75 898.99,-203.9"/>
<polygon fill="black" stroke="black" points="899.79,-200.48 889.2,-200.83 897.7,-207.16 899.79,-200.48"/>
<text text-anchor="middle" x="1028.24" y="-231.8" font-family="Times,serif" font-size="14.00">48%</text>
</g>
<!-- Amis du Monde diplomatique -->
<g id="node11" class="node">
<title>Amis du Monde diplomatique</title>
<ellipse fill="none" stroke="black" cx="120.24" cy="-105" rx="120.48" ry="18"/>
<text text-anchor="middle" x="120.24" y="-101.3" font-family="Times,serif" font-size="14.00">Amis du Monde diplomatique</text>
</g>
<!-- Amis du Monde diplomatique&#45;&gt;Le Monde diplomatique -->
<g id="edge10" class="edge">
<title>Amis du Monde diplomatique&#45;&gt;Le Monde diplomatique</title>
<path fill="none" stroke="black" d="M180.92,-89.39C243.73,-74.26 341.58,-50.7 406.53,-35.06"/>
<polygon fill="black" stroke="black" points="407.36,-38.46 416.26,-32.72 405.72,-31.66 407.36,-38.46"/>
<text text-anchor="middle" x="331.24" y="-57.8" font-family="Times,serif" font-size="14.00">25%</text>
</g>
<!-- Günter Holzmann#Association G.C3.BCnter Holzmann -->
<g id="node12" class="node">
<title>Günter Holzmann#Association G.C3.BCnter Holzmann</title>
<ellipse fill="none" stroke="black" cx="473.24" cy="-105" rx="214.46" ry="18"/>
<text text-anchor="middle" x="473.24" y="-101.3" font-family="Times,serif" font-size="14.00">Günter Holzmann#Association G.C3.BCnter Holzmann</text>
</g>
<!-- Günter Holzmann#Association G.C3.BCnter Holzmann&#45;&gt;Le Monde diplomatique -->
<g id="edge11" class="edge">
<title>Günter Holzmann#Association G.C3.BCnter Holzmann&#45;&gt;Le Monde diplomatique</title>
<path fill="none" stroke="black" d="M473.24,-86.8C473.24,-75.16 473.24,-59.55 473.24,-46.24"/>
<polygon fill="black" stroke="black" points="476.74,-46.18 473.24,-36.18 469.74,-46.18 476.74,-46.18"/>
<text text-anchor="middle" x="486.24" y="-57.8" font-family="Times,serif" font-size="14.00">24%</text>
</g>
</g>
</svg>
