<?xml version="1.0" encoding="UTF-8" standalone="no"?>
<!DOCTYPE svg PUBLIC "-//W3C//DTD SVG 1.1//EN"
 "http://www.w3.org/Graphics/SVG/1.1/DTD/svg11.dtd">
<!-- Generated by graphviz version 2.49.3 (20211023.0002)
 -->
<!-- Title: G Pages: 1 -->
<svg width="1030pt" height="305pt"
 viewBox="0.00 0.00 1029.93 305.00" xmlns="http://www.w3.org/2000/svg" xmlns:xlink="http://www.w3.org/1999/xlink">
<g id="page0,1_graph0" class="graph" transform="scale(1 1) rotate(0) translate(4 301)">
<title>G</title>
<polygon fill="white" stroke="transparent" points="-4,4 -4,-301 1025.93,-301 1025.93,4 -4,4"/>
<!-- Le Monde -->
<g id="node1" class="node">
<title>Le Monde</title>
<ellipse fill="none" stroke="black" cx="485.54" cy="-105" rx="48.19" ry="18"/>
<text text-anchor="middle" x="485.54" y="-101.3" font-family="Times,serif" font-size="14.00">Le Monde</text>
</g>
<!-- Télérama -->
<g id="node2" class="node">
<title>Télérama</title>
<ellipse fill="none" stroke="black" cx="485.54" cy="-18" rx="44.69" ry="18"/>
<text text-anchor="middle" x="485.54" y="-14.3" font-family="Times,serif" font-size="14.00">Télérama</text>
</g>
<!-- Le Monde&#45;&gt;Télérama -->
<g id="edge1" class="edge">
<title>Le Monde&#45;&gt;Télérama</title>
<path fill="none" stroke="black" d="M485.54,-86.8C485.54,-75.16 485.54,-59.55 485.54,-46.24"/>
<polygon fill="black" stroke="black" points="489.05,-46.18 485.54,-36.18 482.05,-46.18 489.05,-46.18"/>
<text text-anchor="middle" x="502.04" y="-57.8" font-family="Times,serif" font-size="14.00">100%</text>
</g>
<!-- lml -->
<g id="node3" class="node">
<title>lml</title>
<ellipse fill="none" stroke="black" cx="349.54" cy="-192" rx="27" ry="18"/>
<text text-anchor="middle" x="349.54" y="-188.3" font-family="Times,serif" font-size="14.00">lml</text>
</g>
<!-- lml&#45;&gt;Le Monde -->
<g id="edge2" class="edge">
<title>lml&#45;&gt;Le Monde</title>
<path fill="none" stroke="black" d="M368.74,-179C390.71,-165.27 427.05,-142.56 453.37,-126.11"/>
<polygon fill="black" stroke="black" points="455.25,-129.06 461.88,-120.79 451.54,-123.13 455.25,-129.06"/>
<text text-anchor="middle" x="439.54" y="-144.8" font-family="Times,serif" font-size="14.00">64%</text>
</g>
<!-- Pierre Bergé -->
<g id="node4" class="node">
<title>Pierre Bergé</title>
<ellipse fill="none" stroke="black" cx="56.54" cy="-279" rx="56.59" ry="18"/>
<text text-anchor="middle" x="56.54" y="-275.3" font-family="Times,serif" font-size="14.00">Pierre Bergé</text>
</g>
<!-- Pierre Bergé&#45;&gt;lml -->
<g id="edge3" class="edge">
<title>Pierre Bergé&#45;&gt;lml</title>
<path fill="none" stroke="black" d="M96.98,-266.27C155.09,-249.41 261.18,-218.64 315.51,-202.87"/>
<polygon fill="black" stroke="black" points="316.71,-206.17 325.34,-200.02 314.76,-199.45 316.71,-206.17"/>
<text text-anchor="middle" x="234.54" y="-231.8" font-family="Times,serif" font-size="14.00">26%</text>
</g>
<!-- Matthieu Pigasse -->
<g id="node5" class="node">
<title>Matthieu Pigasse</title>
<ellipse fill="none" stroke="black" cx="204.54" cy="-279" rx="73.39" ry="18"/>
<text text-anchor="middle" x="204.54" y="-275.3" font-family="Times,serif" font-size="14.00">Matthieu Pigasse</text>
</g>
<!-- Matthieu Pigasse&#45;&gt;lml -->
<g id="edge4" class="edge">
<title>Matthieu Pigasse&#45;&gt;lml</title>
<path fill="none" stroke="black" d="M231.48,-262.21C256.97,-247.27 295.11,-224.91 321.09,-209.68"/>
<polygon fill="black" stroke="black" points="322.88,-212.69 329.74,-204.61 319.34,-206.65 322.88,-212.69"/>
<text text-anchor="middle" x="299.54" y="-231.8" font-family="Times,serif" font-size="14.00">26%</text>
</g>
<!-- Xavier Niel -->
<g id="node6" class="node">
<title>Xavier Niel</title>
<ellipse fill="none" stroke="black" cx="349.54" cy="-279" rx="53.09" ry="18"/>
<text text-anchor="middle" x="349.54" y="-275.3" font-family="Times,serif" font-size="14.00">Xavier Niel</text>
</g>
<!-- Xavier Niel&#45;&gt;lml -->
<g id="edge5" class="edge">
<title>Xavier Niel&#45;&gt;lml</title>
<path fill="none" stroke="black" d="M349.54,-260.8C349.54,-249.16 349.54,-233.55 349.54,-220.24"/>
<polygon fill="black" stroke="black" points="353.05,-220.18 349.54,-210.18 346.05,-220.18 353.05,-220.18"/>
<text text-anchor="middle" x="362.54" y="-231.8" font-family="Times,serif" font-size="14.00">26%</text>
</g>
<!-- Prisa -->
<g id="node7" class="node">
<title>Prisa</title>
<ellipse fill="none" stroke="black" cx="450.54" cy="-279" rx="29.5" ry="18"/>
<text text-anchor="middle" x="450.54" y="-275.3" font-family="Times,serif" font-size="14.00">Prisa</text>
</g>
<!-- Prisa&#45;&gt;lml -->
<g id="edge6" class="edge">
<title>Prisa&#45;&gt;lml</title>
<path fill="none" stroke="black" d="M433.87,-263.96C417.37,-250.08 391.96,-228.7 373.35,-213.03"/>
<polygon fill="black" stroke="black" points="375.48,-210.26 365.58,-206.49 370.98,-215.61 375.48,-210.26"/>
<text text-anchor="middle" x="419.54" y="-231.8" font-family="Times,serif" font-size="14.00">23%</text>
</g>
<!-- lmpa -->
<g id="node8" class="node">
<title>lmpa</title>
<ellipse fill="none" stroke="black" cx="623.54" cy="-192" rx="28.7" ry="18"/>
<text text-anchor="middle" x="623.54" y="-188.3" font-family="Times,serif" font-size="14.00">lmpa</text>
</g>
<!-- lmpa&#45;&gt;Le Monde -->
<g id="edge7" class="edge">
<title>lmpa&#45;&gt;Le Monde</title>
<path fill="none" stroke="black" d="M603.77,-178.82C581.41,-165.05 544.65,-142.4 518.05,-126.02"/>
<polygon fill="black" stroke="black" points="519.8,-122.99 509.45,-120.73 516.13,-128.95 519.8,-122.99"/>
<text text-anchor="middle" x="576.54" y="-144.8" font-family="Times,serif" font-size="14.00">34%</text>
</g>
<!-- actionnaires internes Le Monde -->
<g id="node9" class="node">
<title>actionnaires internes Le Monde</title>
<ellipse fill="none" stroke="black" cx="623.54" cy="-279" rx="125.38" ry="18"/>
<text text-anchor="middle" x="623.54" y="-275.3" font-family="Times,serif" font-size="14.00">actionnaires internes Le Monde</text>
</g>
<!-- actionnaires internes Le Monde&#45;&gt;lmpa -->
<g id="edge8" class="edge">
<title>actionnaires internes Le Monde&#45;&gt;lmpa</title>
<path fill="none" stroke="black" d="M623.54,-260.8C623.54,-249.16 623.54,-233.55 623.54,-220.24"/>
<polygon fill="black" stroke="black" points="627.05,-220.18 623.54,-210.18 620.05,-220.18 627.05,-220.18"/>
<text text-anchor="middle" x="636.54" y="-231.8" font-family="Times,serif" font-size="14.00">52%</text>
</g>
<!-- actionnaires externes Le Monde -->
<g id="node10" class="node">
<title>actionnaires externes Le Monde</title>
<ellipse fill="none" stroke="black" cx="894.54" cy="-279" rx="127.28" ry="18"/>
<text text-anchor="middle" x="894.54" y="-275.3" font-family="Times,serif" font-size="14.00">actionnaires externes Le Monde</text>
</g>
<!-- actionnaires externes Le Monde&#45;&gt;lmpa -->
<g id="edge9" class="edge">
<title>actionnaires externes Le Monde&#45;&gt;lmpa</title>
<path fill="none" stroke="black" d="M844.84,-262.41C790.74,-245.44 705.65,-218.75 658.3,-203.9"/>
<polygon fill="black" stroke="black" points="659.1,-200.48 648.51,-200.83 657,-207.16 659.1,-200.48"/>
<text text-anchor="middle" x="787.54" y="-231.8" font-family="Times,serif" font-size="14.00">48%</text>
</g>
</g>
</svg>
