<?xml version="1.0" encoding="UTF-8" standalone="no"?>
<!DOCTYPE svg PUBLIC "-//W3C//DTD SVG 1.1//EN"
 "http://www.w3.org/Graphics/SVG/1.1/DTD/svg11.dtd">
<!-- Generated by graphviz version 2.49.3 (20211023.0002)
 -->
<!-- Title: G Pages: 1 -->
<svg width="1030pt" height="392pt"
 viewBox="0.00 0.00 1029.93 392.00" xmlns="http://www.w3.org/2000/svg" xmlns:xlink="http://www.w3.org/1999/xlink">
<g id="page0,1_graph0" class="graph" transform="scale(1 1) rotate(0) translate(4 388)">
<title>G</title>
<polygon fill="white" stroke="transparent" points="-4,4 -4,-388 1025.93,-388 1025.93,4 -4,4"/>
<!-- Groupe Perdriel -->
<g id="node1" class="node">
<title>Groupe Perdriel</title>
<ellipse fill="none" stroke="black" cx="514.54" cy="-105" rx="68.79" ry="18"/>
<text text-anchor="middle" x="514.54" y="-101.3" font-family="Times,serif" font-size="14.00">Groupe Perdriel</text>
</g>
<!-- Challenges -->
<g id="node2" class="node">
<title>Challenges</title>
<ellipse fill="none" stroke="black" cx="514.54" cy="-18" rx="51.19" ry="18"/>
<text text-anchor="middle" x="514.54" y="-14.3" font-family="Times,serif" font-size="14.00">Challenges</text>
</g>
<!-- Groupe Perdriel&#45;&gt;Challenges -->
<g id="edge1" class="edge">
<title>Groupe Perdriel&#45;&gt;Challenges</title>
<path fill="none" stroke="black" d="M514.54,-86.8C514.54,-75.16 514.54,-59.55 514.54,-46.24"/>
<polygon fill="black" stroke="black" points="518.05,-46.18 514.54,-36.18 511.05,-46.18 518.05,-46.18"/>
<text text-anchor="middle" x="531.04" y="-57.8" font-family="Times,serif" font-size="14.00">100%</text>
</g>
<!-- Claude Perdriel -->
<g id="node3" class="node">
<title>Claude Perdriel</title>
<ellipse fill="none" stroke="black" cx="380.54" cy="-192" rx="67.69" ry="18"/>
<text text-anchor="middle" x="380.54" y="-188.3" font-family="Times,serif" font-size="14.00">Claude Perdriel</text>
</g>
<!-- Claude Perdriel&#45;&gt;Groupe Perdriel -->
<g id="edge2" class="edge">
<title>Claude Perdriel&#45;&gt;Groupe Perdriel</title>
<path fill="none" stroke="black" d="M405.44,-175.21C426.64,-161.76 457.32,-142.3 480.74,-127.44"/>
<polygon fill="black" stroke="black" points="482.76,-130.3 489.33,-121.99 479.01,-124.39 482.76,-130.3"/>
<text text-anchor="middle" x="469.54" y="-144.8" font-family="Times,serif" font-size="14.00">93%</text>
</g>
<!-- Le Monde -->
<g id="node4" class="node">
<title>Le Monde</title>
<ellipse fill="none" stroke="black" cx="514.54" cy="-192" rx="48.19" ry="18"/>
<text text-anchor="middle" x="514.54" y="-188.3" font-family="Times,serif" font-size="14.00">Le Monde</text>
</g>
<!-- Le Monde&#45;&gt;Groupe Perdriel -->
<g id="edge3" class="edge">
<title>Le Monde&#45;&gt;Groupe Perdriel</title>
<path fill="none" stroke="black" d="M514.54,-173.8C514.54,-162.16 514.54,-146.55 514.54,-133.24"/>
<polygon fill="black" stroke="black" points="518.05,-133.18 514.54,-123.18 511.05,-133.18 518.05,-133.18"/>
<text text-anchor="middle" x="524.04" y="-144.8" font-family="Times,serif" font-size="14.00">6%</text>
</g>
<!-- lml -->
<g id="node5" class="node">
<title>lml</title>
<ellipse fill="none" stroke="black" cx="349.54" cy="-279" rx="27" ry="18"/>
<text text-anchor="middle" x="349.54" y="-275.3" font-family="Times,serif" font-size="14.00">lml</text>
</g>
<!-- lml&#45;&gt;Le Monde -->
<g id="edge4" class="edge">
<title>lml&#45;&gt;Le Monde</title>
<path fill="none" stroke="black" d="M370.44,-267.23C397.63,-253.23 445.56,-228.54 478.63,-211.5"/>
<polygon fill="black" stroke="black" points="480.24,-214.61 487.53,-206.92 477.04,-208.38 480.24,-214.61"/>
<text text-anchor="middle" x="455.54" y="-231.8" font-family="Times,serif" font-size="14.00">64%</text>
</g>
<!-- Pierre Bergé -->
<g id="node6" class="node">
<title>Pierre Bergé</title>
<ellipse fill="none" stroke="black" cx="56.54" cy="-366" rx="56.59" ry="18"/>
<text text-anchor="middle" x="56.54" y="-362.3" font-family="Times,serif" font-size="14.00">Pierre Bergé</text>
</g>
<!-- Pierre Bergé&#45;&gt;lml -->
<g id="edge5" class="edge">
<title>Pierre Bergé&#45;&gt;lml</title>
<path fill="none" stroke="black" d="M96.98,-353.27C155.09,-336.41 261.18,-305.64 315.51,-289.87"/>
<polygon fill="black" stroke="black" points="316.71,-293.17 325.34,-287.02 314.76,-286.45 316.71,-293.17"/>
<text text-anchor="middle" x="234.54" y="-318.8" font-family="Times,serif" font-size="14.00">26%</text>
</g>
<!-- Matthieu Pigasse -->
<g id="node7" class="node">
<title>Matthieu Pigasse</title>
<ellipse fill="none" stroke="black" cx="204.54" cy="-366" rx="73.39" ry="18"/>
<text text-anchor="middle" x="204.54" y="-362.3" font-family="Times,serif" font-size="14.00">Matthieu Pigasse</text>
</g>
<!-- Matthieu Pigasse&#45;&gt;lml -->
<g id="edge6" class="edge">
<title>Matthieu Pigasse&#45;&gt;lml</title>
<path fill="none" stroke="black" d="M231.48,-349.21C256.97,-334.27 295.11,-311.91 321.09,-296.68"/>
<polygon fill="black" stroke="black" points="322.88,-299.69 329.74,-291.61 319.34,-293.65 322.88,-299.69"/>
<text text-anchor="middle" x="299.54" y="-318.8" font-family="Times,serif" font-size="14.00">26%</text>
</g>
<!-- Xavier Niel -->
<g id="node8" class="node">
<title>Xavier Niel</title>
<ellipse fill="none" stroke="black" cx="349.54" cy="-366" rx="53.09" ry="18"/>
<text text-anchor="middle" x="349.54" y="-362.3" font-family="Times,serif" font-size="14.00">Xavier Niel</text>
</g>
<!-- Xavier Niel&#45;&gt;lml -->
<g id="edge7" class="edge">
<title>Xavier Niel&#45;&gt;lml</title>
<path fill="none" stroke="black" d="M349.54,-347.8C349.54,-336.16 349.54,-320.55 349.54,-307.24"/>
<polygon fill="black" stroke="black" points="353.05,-307.18 349.54,-297.18 346.05,-307.18 353.05,-307.18"/>
<text text-anchor="middle" x="362.54" y="-318.8" font-family="Times,serif" font-size="14.00">26%</text>
</g>
<!-- Prisa -->
<g id="node9" class="node">
<title>Prisa</title>
<ellipse fill="none" stroke="black" cx="450.54" cy="-366" rx="29.5" ry="18"/>
<text text-anchor="middle" x="450.54" y="-362.3" font-family="Times,serif" font-size="14.00">Prisa</text>
</g>
<!-- Prisa&#45;&gt;lml -->
<g id="edge8" class="edge">
<title>Prisa&#45;&gt;lml</title>
<path fill="none" stroke="black" d="M433.87,-350.96C417.37,-337.08 391.96,-315.7 373.35,-300.03"/>
<polygon fill="black" stroke="black" points="375.48,-297.26 365.58,-293.49 370.98,-302.61 375.48,-297.26"/>
<text text-anchor="middle" x="419.54" y="-318.8" font-family="Times,serif" font-size="14.00">23%</text>
</g>
<!-- lmpa -->
<g id="node10" class="node">
<title>lmpa</title>
<ellipse fill="none" stroke="black" cx="623.54" cy="-279" rx="28.7" ry="18"/>
<text text-anchor="middle" x="623.54" y="-275.3" font-family="Times,serif" font-size="14.00">lmpa</text>
</g>
<!-- lmpa&#45;&gt;Le Monde -->
<g id="edge9" class="edge">
<title>lmpa&#45;&gt;Le Monde</title>
<path fill="none" stroke="black" d="M606.03,-264.34C588.97,-251.04 562.75,-230.59 542.75,-215"/>
<polygon fill="black" stroke="black" points="544.64,-212.03 534.6,-208.64 540.34,-217.55 544.64,-212.03"/>
<text text-anchor="middle" x="589.54" y="-231.8" font-family="Times,serif" font-size="14.00">34%</text>
</g>
<!-- actionnaires internes Le Monde -->
<g id="node11" class="node">
<title>actionnaires internes Le Monde</title>
<ellipse fill="none" stroke="black" cx="623.54" cy="-366" rx="125.38" ry="18"/>
<text text-anchor="middle" x="623.54" y="-362.3" font-family="Times,serif" font-size="14.00">actionnaires internes Le Monde</text>
</g>
<!-- actionnaires internes Le Monde&#45;&gt;lmpa -->
<g id="edge10" class="edge">
<title>actionnaires internes Le Monde&#45;&gt;lmpa</title>
<path fill="none" stroke="black" d="M623.54,-347.8C623.54,-336.16 623.54,-320.55 623.54,-307.24"/>
<polygon fill="black" stroke="black" points="627.05,-307.18 623.54,-297.18 620.05,-307.18 627.05,-307.18"/>
<text text-anchor="middle" x="636.54" y="-318.8" font-family="Times,serif" font-size="14.00">52%</text>
</g>
<!-- actionnaires externes Le Monde -->
<g id="node12" class="node">
<title>actionnaires externes Le Monde</title>
<ellipse fill="none" stroke="black" cx="894.54" cy="-366" rx="127.28" ry="18"/>
<text text-anchor="middle" x="894.54" y="-362.3" font-family="Times,serif" font-size="14.00">actionnaires externes Le Monde</text>
</g>
<!-- actionnaires externes Le Monde&#45;&gt;lmpa -->
<g id="edge11" class="edge">
<title>actionnaires externes Le Monde&#45;&gt;lmpa</title>
<path fill="none" stroke="black" d="M844.84,-349.41C790.74,-332.44 705.65,-305.75 658.3,-290.9"/>
<polygon fill="black" stroke="black" points="659.1,-287.48 648.51,-287.83 657,-294.16 659.1,-287.48"/>
<text text-anchor="middle" x="787.54" y="-318.8" font-family="Times,serif" font-size="14.00">48%</text>
</g>
<!-- société rédacteurs perdriel -->
<g id="node13" class="node">
<title>société rédacteurs perdriel</title>
<ellipse fill="none" stroke="black" cx="686.54" cy="-192" rx="105.88" ry="18"/>
<text text-anchor="middle" x="686.54" y="-188.3" font-family="Times,serif" font-size="14.00">société rédacteurs perdriel</text>
</g>
<!-- société rédacteurs perdriel&#45;&gt;Groupe Perdriel -->
<g id="edge12" class="edge">
<title>société rédacteurs perdriel&#45;&gt;Groupe Perdriel</title>
<path fill="none" stroke="black" d="M653.79,-174.81C625.43,-160.8 584.35,-140.5 554.15,-125.57"/>
<polygon fill="black" stroke="black" points="555.67,-122.42 545.16,-121.13 552.57,-128.7 555.67,-122.42"/>
<text text-anchor="middle" x="620.04" y="-144.8" font-family="Times,serif" font-size="14.00">1%</text>
</g>
</g>
</svg>
