<?xml version="1.0" encoding="UTF-8" standalone="no"?>
<!DOCTYPE svg PUBLIC "-//W3C//DTD SVG 1.1//EN"
 "http://www.w3.org/Graphics/SVG/1.1/DTD/svg11.dtd">
<!-- Generated by graphviz version 2.49.3 (20211023.0002)
 -->
<!-- Title: G Pages: 1 -->
<svg width="159pt" height="218pt"
 viewBox="0.00 0.00 158.79 218.00" xmlns="http://www.w3.org/2000/svg" xmlns:xlink="http://www.w3.org/1999/xlink">
<g id="page0,1_graph0" class="graph" transform="scale(1 1) rotate(0) translate(4 214)">
<title>G</title>
<polygon fill="white" stroke="transparent" points="-4,4 -4,-214 154.79,-214 154.79,4 -4,4"/>
<!-- Groupe Bayard -->
<g id="node1" class="node">
<title>Groupe Bayard</title>
<ellipse fill="none" stroke="black" cx="75.39" cy="-105" rx="66.09" ry="18"/>
<text text-anchor="middle" x="75.39" y="-101.3" font-family="Times,serif" font-size="14.00">Groupe Bayard</text>
</g>
<!-- La Croix -->
<g id="node2" class="node">
<title>La Croix</title>
<ellipse fill="none" stroke="black" cx="75.39" cy="-18" rx="43.59" ry="18"/>
<text text-anchor="middle" x="75.39" y="-14.3" font-family="Times,serif" font-size="14.00">La Croix</text>
</g>
<!-- Groupe Bayard&#45;&gt;La Croix -->
<g id="edge1" class="edge">
<title>Groupe Bayard&#45;&gt;La Croix</title>
<path fill="none" stroke="black" d="M75.39,-86.8C75.39,-75.16 75.39,-59.55 75.39,-46.24"/>
<polygon fill="black" stroke="black" points="78.89,-46.18 75.39,-36.18 71.89,-46.18 78.89,-46.18"/>
<text text-anchor="middle" x="91.89" y="-57.8" font-family="Times,serif" font-size="14.00">100%</text>
</g>
<!-- Assomptionnistes -->
<g id="node3" class="node">
<title>Assomptionnistes</title>
<ellipse fill="none" stroke="black" cx="75.39" cy="-192" rx="75.29" ry="18"/>
<text text-anchor="middle" x="75.39" y="-188.3" font-family="Times,serif" font-size="14.00">Assomptionnistes</text>
</g>
<!-- Assomptionnistes&#45;&gt;Groupe Bayard -->
<g id="edge2" class="edge">
<title>Assomptionnistes&#45;&gt;Groupe Bayard</title>
<path fill="none" stroke="black" d="M75.39,-173.8C75.39,-162.16 75.39,-146.55 75.39,-133.24"/>
<polygon fill="black" stroke="black" points="78.89,-133.18 75.39,-123.18 71.89,-133.18 78.89,-133.18"/>
<text text-anchor="middle" x="91.89" y="-144.8" font-family="Times,serif" font-size="14.00">100%</text>
</g>
</g>
</svg>
