<?xml version="1.0" encoding="UTF-8" standalone="no"?>
<!DOCTYPE svg PUBLIC "-//W3C//DTD SVG 1.1//EN"
 "http://www.w3.org/Graphics/SVG/1.1/DTD/svg11.dtd">
<!-- Generated by graphviz version 2.49.3 (20211023.0002)
 -->
<!-- Title: G Pages: 1 -->
<svg width="148pt" height="218pt"
 viewBox="0.00 0.00 148.39 218.00" xmlns="http://www.w3.org/2000/svg" xmlns:xlink="http://www.w3.org/1999/xlink">
<g id="page0,1_graph0" class="graph" transform="scale(1 1) rotate(0) translate(4 214)">
<title>G</title>
<polygon fill="white" stroke="transparent" points="-4,4 -4,-214 144.39,-214 144.39,4 -4,4"/>
<!-- Artémis -->
<g id="node1" class="node">
<title>Artémis</title>
<ellipse fill="none" stroke="black" cx="70.19" cy="-105" rx="40.09" ry="18"/>
<text text-anchor="middle" x="70.19" y="-101.3" font-family="Times,serif" font-size="14.00">Artémis</text>
</g>
<!-- Le Point -->
<g id="node2" class="node">
<title>Le Point</title>
<ellipse fill="none" stroke="black" cx="70.19" cy="-18" rx="41.69" ry="18"/>
<text text-anchor="middle" x="70.19" y="-14.3" font-family="Times,serif" font-size="14.00">Le Point</text>
</g>
<!-- Artémis&#45;&gt;Le Point -->
<g id="edge1" class="edge">
<title>Artémis&#45;&gt;Le Point</title>
<path fill="none" stroke="black" d="M70.19,-86.8C70.19,-75.16 70.19,-59.55 70.19,-46.24"/>
<polygon fill="black" stroke="black" points="73.69,-46.18 70.19,-36.18 66.69,-46.18 73.69,-46.18"/>
<text text-anchor="middle" x="86.69" y="-57.8" font-family="Times,serif" font-size="14.00">100%</text>
</g>
<!-- François Pinault -->
<g id="node3" class="node">
<title>François Pinault</title>
<ellipse fill="none" stroke="black" cx="70.19" cy="-192" rx="70.39" ry="18"/>
<text text-anchor="middle" x="70.19" y="-188.3" font-family="Times,serif" font-size="14.00">François Pinault</text>
</g>
<!-- François Pinault&#45;&gt;Artémis -->
<g id="edge2" class="edge">
<title>François Pinault&#45;&gt;Artémis</title>
<path fill="none" stroke="black" d="M70.19,-173.8C70.19,-162.16 70.19,-146.55 70.19,-133.24"/>
<polygon fill="black" stroke="black" points="73.69,-133.18 70.19,-123.18 66.69,-133.18 73.69,-133.18"/>
<text text-anchor="middle" x="86.69" y="-144.8" font-family="Times,serif" font-size="14.00">100%</text>
</g>
</g>
</svg>
