<?xml version="1.0" encoding="UTF-8" standalone="no"?>
<!DOCTYPE svg PUBLIC "-//W3C//DTD SVG 1.1//EN"
 "http://www.w3.org/Graphics/SVG/1.1/DTD/svg11.dtd">
<!-- Generated by graphviz version 2.49.3 (20211023.0002)
 -->
<!-- Title: G Pages: 1 -->
<svg width="1030pt" height="392pt"
 viewBox="0.00 0.00 1029.69 392.00" xmlns="http://www.w3.org/2000/svg" xmlns:xlink="http://www.w3.org/1999/xlink">
<g id="page0,1_graph0" class="graph" transform="scale(1 1) rotate(0) translate(4 388)">
<title>G</title>
<polygon fill="white" stroke="transparent" points="-4,4 -4,-388 1025.69,-388 1025.69,4 -4,4"/>
<!-- lml -->
<g id="node1" class="node">
<title>lml</title>
<ellipse fill="none" stroke="black" cx="793.44" cy="-279" rx="27" ry="18"/>
<text text-anchor="middle" x="793.44" y="-275.3" font-family="Times,serif" font-size="14.00">lml</text>
</g>
<!-- L&#39;Obs -->
<g id="node2" class="node">
<title>L&#39;Obs</title>
<ellipse fill="none" stroke="black" cx="726.44" cy="-18" rx="32.49" ry="18"/>
<text text-anchor="middle" x="726.44" y="-14.3" font-family="Times,serif" font-size="14.00">L&#39;Obs</text>
</g>
<!-- lml&#45;&gt;L&#39;Obs -->
<g id="edge1" class="edge">
<title>lml&#45;&gt;L&#39;Obs</title>
<path fill="none" stroke="black" d="M790.96,-260.94C787.81,-240.22 781.87,-204.3 774.44,-174 763.23,-128.28 746.2,-76.2 735.73,-45.55"/>
<polygon fill="black" stroke="black" points="739.01,-44.33 732.44,-36.01 732.39,-46.61 739.01,-44.33"/>
<text text-anchor="middle" x="783.44" y="-144.8" font-family="Times,serif" font-size="14.00">66%</text>
</g>
<!-- Le Monde -->
<g id="node9" class="node">
<title>Le Monde</title>
<ellipse fill="none" stroke="black" cx="487.44" cy="-192" rx="48.19" ry="18"/>
<text text-anchor="middle" x="487.44" y="-188.3" font-family="Times,serif" font-size="14.00">Le Monde</text>
</g>
<!-- lml&#45;&gt;Le Monde -->
<g id="edge9" class="edge">
<title>lml&#45;&gt;Le Monde</title>
<path fill="none" stroke="black" d="M768.65,-271.43C723.81,-259.51 626.31,-233.38 544.44,-210 540.85,-208.98 537.14,-207.9 533.42,-206.81"/>
<polygon fill="black" stroke="black" points="534.17,-203.39 523.59,-203.92 532.19,-210.1 534.17,-203.39"/>
<text text-anchor="middle" x="673.44" y="-231.8" font-family="Times,serif" font-size="14.00">64%</text>
</g>
<!-- Pierre Bergé -->
<g id="node3" class="node">
<title>Pierre Bergé</title>
<ellipse fill="none" stroke="black" cx="598.44" cy="-366" rx="56.59" ry="18"/>
<text text-anchor="middle" x="598.44" y="-362.3" font-family="Times,serif" font-size="14.00">Pierre Bergé</text>
</g>
<!-- Pierre Bergé&#45;&gt;lml -->
<g id="edge2" class="edge">
<title>Pierre Bergé&#45;&gt;lml</title>
<path fill="none" stroke="black" d="M602.87,-347.64C606.57,-336.65 612.97,-323.04 623.44,-315 643.91,-299.27 713.16,-288.92 756.7,-283.79"/>
<polygon fill="black" stroke="black" points="757.36,-287.24 766.9,-282.63 756.57,-280.28 757.36,-287.24"/>
<text text-anchor="middle" x="636.44" y="-318.8" font-family="Times,serif" font-size="14.00">26%</text>
</g>
<!-- Pierre Bergé&#45;&gt;lml -->
<g id="edge10" class="edge">
<title>Pierre Bergé&#45;&gt;lml</title>
<path fill="none" stroke="black" d="M630.36,-350.94C653.2,-340.9 684.7,-327.08 712.44,-315 728.8,-307.88 747.04,-299.99 762.07,-293.51"/>
<polygon fill="black" stroke="black" points="763.63,-296.65 771.42,-289.47 760.85,-290.22 763.63,-296.65"/>
<text text-anchor="middle" x="725.44" y="-318.8" font-family="Times,serif" font-size="14.00">26%</text>
</g>
<!-- Matthieu Pigasse -->
<g id="node4" class="node">
<title>Matthieu Pigasse</title>
<ellipse fill="none" stroke="black" cx="746.44" cy="-366" rx="73.39" ry="18"/>
<text text-anchor="middle" x="746.44" y="-362.3" font-family="Times,serif" font-size="14.00">Matthieu Pigasse</text>
</g>
<!-- Matthieu Pigasse&#45;&gt;lml -->
<g id="edge3" class="edge">
<title>Matthieu Pigasse&#45;&gt;lml</title>
<path fill="none" stroke="black" d="M742.23,-347.9C740.66,-337.8 740.32,-325.06 745.44,-315 749.44,-307.14 756.12,-300.62 763.25,-295.43"/>
<polygon fill="black" stroke="black" points="765.21,-298.33 771.69,-289.94 761.4,-292.46 765.21,-298.33"/>
<text text-anchor="middle" x="758.44" y="-318.8" font-family="Times,serif" font-size="14.00">26%</text>
</g>
<!-- Matthieu Pigasse&#45;&gt;lml -->
<g id="edge11" class="edge">
<title>Matthieu Pigasse&#45;&gt;lml</title>
<path fill="none" stroke="black" d="M759.63,-348.02C763.67,-342.44 767.97,-336.1 771.44,-330 775.73,-322.47 779.76,-313.94 783.17,-306.09"/>
<polygon fill="black" stroke="black" points="786.49,-307.2 787.13,-296.63 780.04,-304.5 786.49,-307.2"/>
<text text-anchor="middle" x="792.44" y="-318.8" font-family="Times,serif" font-size="14.00">26%</text>
</g>
<!-- Xavier Niel -->
<g id="node5" class="node">
<title>Xavier Niel</title>
<ellipse fill="none" stroke="black" cx="891.44" cy="-366" rx="53.09" ry="18"/>
<text text-anchor="middle" x="891.44" y="-362.3" font-family="Times,serif" font-size="14.00">Xavier Niel</text>
</g>
<!-- Xavier Niel&#45;&gt;lml -->
<g id="edge4" class="edge">
<title>Xavier Niel&#45;&gt;lml</title>
<path fill="none" stroke="black" d="M868.9,-349.67C860.68,-343.78 851.43,-336.84 843.44,-330 833.24,-321.27 822.62,-310.87 813.82,-301.83"/>
<polygon fill="black" stroke="black" points="816.34,-299.4 806.89,-294.61 811.29,-304.25 816.34,-299.4"/>
<text text-anchor="middle" x="856.44" y="-318.8" font-family="Times,serif" font-size="14.00">26%</text>
</g>
<!-- Xavier Niel&#45;&gt;lml -->
<g id="edge12" class="edge">
<title>Xavier Niel&#45;&gt;lml</title>
<path fill="none" stroke="black" d="M887.28,-347.93C883.96,-337.34 878.35,-324.06 869.44,-315 858.1,-303.47 842.26,-295.35 827.96,-289.85"/>
<polygon fill="black" stroke="black" points="828.99,-286.5 818.39,-286.46 826.65,-293.1 828.99,-286.5"/>
<text text-anchor="middle" x="893.44" y="-318.8" font-family="Times,serif" font-size="14.00">26%</text>
</g>
<!-- Prisa -->
<g id="node6" class="node">
<title>Prisa</title>
<ellipse fill="none" stroke="black" cx="992.44" cy="-366" rx="29.5" ry="18"/>
<text text-anchor="middle" x="992.44" y="-362.3" font-family="Times,serif" font-size="14.00">Prisa</text>
</g>
<!-- Prisa&#45;&gt;lml -->
<g id="edge5" class="edge">
<title>Prisa&#45;&gt;lml</title>
<path fill="none" stroke="black" d="M973.98,-351.84C957.83,-340.8 933.44,-325.25 910.44,-315 883.95,-303.2 852.37,-294.02 828.7,-288.03"/>
<polygon fill="black" stroke="black" points="829.3,-284.57 818.76,-285.58 827.63,-291.37 829.3,-284.57"/>
<text text-anchor="middle" x="952.44" y="-318.8" font-family="Times,serif" font-size="14.00">23%</text>
</g>
<!-- Prisa&#45;&gt;lml -->
<g id="edge13" class="edge">
<title>Prisa&#45;&gt;lml</title>
<path fill="none" stroke="black" d="M988.88,-348.13C985.67,-337.06 979.79,-323.17 969.44,-315 948.28,-298.31 875.33,-288.19 830.26,-283.39"/>
<polygon fill="black" stroke="black" points="830.57,-279.9 820.27,-282.36 829.86,-286.86 830.57,-279.9"/>
<text text-anchor="middle" x="995.44" y="-318.8" font-family="Times,serif" font-size="14.00">23%</text>
</g>
<!-- Groupe Perdriel -->
<g id="node7" class="node">
<title>Groupe Perdriel</title>
<ellipse fill="none" stroke="black" cx="573.44" cy="-105" rx="68.79" ry="18"/>
<text text-anchor="middle" x="573.44" y="-101.3" font-family="Times,serif" font-size="14.00">Groupe Perdriel</text>
</g>
<!-- Groupe Perdriel&#45;&gt;L&#39;Obs -->
<g id="edge6" class="edge">
<title>Groupe Perdriel&#45;&gt;L&#39;Obs</title>
<path fill="none" stroke="black" d="M601.5,-88.41C628.01,-73.68 667.7,-51.63 695.2,-36.36"/>
<polygon fill="black" stroke="black" points="696.98,-39.37 704.02,-31.45 693.58,-33.25 696.98,-39.37"/>
<text text-anchor="middle" x="672.44" y="-57.8" font-family="Times,serif" font-size="14.00">34%</text>
</g>
<!-- Claude Perdriel -->
<g id="node8" class="node">
<title>Claude Perdriel</title>
<ellipse fill="none" stroke="black" cx="353.44" cy="-192" rx="67.69" ry="18"/>
<text text-anchor="middle" x="353.44" y="-188.3" font-family="Times,serif" font-size="14.00">Claude Perdriel</text>
</g>
<!-- Claude Perdriel&#45;&gt;Groupe Perdriel -->
<g id="edge7" class="edge">
<title>Claude Perdriel&#45;&gt;Groupe Perdriel</title>
<path fill="none" stroke="black" d="M390.26,-176.77C427.86,-162.25 486.33,-139.66 527.06,-123.92"/>
<polygon fill="black" stroke="black" points="528.43,-127.14 536.5,-120.27 525.91,-120.61 528.43,-127.14"/>
<text text-anchor="middle" x="490.44" y="-144.8" font-family="Times,serif" font-size="14.00">93%</text>
</g>
<!-- Le Monde&#45;&gt;Groupe Perdriel -->
<g id="edge8" class="edge">
<title>Le Monde&#45;&gt;Groupe Perdriel</title>
<path fill="none" stroke="black" d="M503.61,-175.01C516.54,-162.24 534.86,-144.14 549.48,-129.68"/>
<polygon fill="black" stroke="black" points="552.1,-132.01 556.75,-122.5 547.18,-127.04 552.1,-132.01"/>
<text text-anchor="middle" x="545.94" y="-144.8" font-family="Times,serif" font-size="14.00">6%</text>
</g>
<!-- lmpa -->
<g id="node10" class="node">
<title>lmpa</title>
<ellipse fill="none" stroke="black" cx="396.44" cy="-279" rx="28.7" ry="18"/>
<text text-anchor="middle" x="396.44" y="-275.3" font-family="Times,serif" font-size="14.00">lmpa</text>
</g>
<!-- lmpa&#45;&gt;Le Monde -->
<g id="edge14" class="edge">
<title>lmpa&#45;&gt;Le Monde</title>
<path fill="none" stroke="black" d="M411.88,-263.58C425.82,-250.56 446.58,-231.16 462.82,-216"/>
<polygon fill="black" stroke="black" points="465.46,-218.32 470.38,-208.94 460.68,-213.21 465.46,-218.32"/>
<text text-anchor="middle" x="460.44" y="-231.8" font-family="Times,serif" font-size="14.00">34%</text>
</g>
<!-- actionnaires internes Le Monde -->
<g id="node11" class="node">
<title>actionnaires internes Le Monde</title>
<ellipse fill="none" stroke="black" cx="125.44" cy="-366" rx="125.38" ry="18"/>
<text text-anchor="middle" x="125.44" y="-362.3" font-family="Times,serif" font-size="14.00">actionnaires internes Le Monde</text>
</g>
<!-- actionnaires internes Le Monde&#45;&gt;lmpa -->
<g id="edge15" class="edge">
<title>actionnaires internes Le Monde&#45;&gt;lmpa</title>
<path fill="none" stroke="black" d="M175.14,-349.41C229.24,-332.44 314.33,-305.75 361.69,-290.9"/>
<polygon fill="black" stroke="black" points="362.98,-294.16 371.47,-287.83 360.89,-287.48 362.98,-294.16"/>
<text text-anchor="middle" x="290.44" y="-318.8" font-family="Times,serif" font-size="14.00">52%</text>
</g>
<!-- actionnaires externes Le Monde -->
<g id="node12" class="node">
<title>actionnaires externes Le Monde</title>
<ellipse fill="none" stroke="black" cx="396.44" cy="-366" rx="127.28" ry="18"/>
<text text-anchor="middle" x="396.44" y="-362.3" font-family="Times,serif" font-size="14.00">actionnaires externes Le Monde</text>
</g>
<!-- actionnaires externes Le Monde&#45;&gt;lmpa -->
<g id="edge16" class="edge">
<title>actionnaires externes Le Monde&#45;&gt;lmpa</title>
<path fill="none" stroke="black" d="M396.44,-347.8C396.44,-336.16 396.44,-320.55 396.44,-307.24"/>
<polygon fill="black" stroke="black" points="399.94,-307.18 396.44,-297.18 392.94,-307.18 399.94,-307.18"/>
<text text-anchor="middle" x="409.44" y="-318.8" font-family="Times,serif" font-size="14.00">48%</text>
</g>
<!-- société rédacteurs perdriel -->
<g id="node13" class="node">
<title>société rédacteurs perdriel</title>
<ellipse fill="none" stroke="black" cx="659.44" cy="-192" rx="105.88" ry="18"/>
<text text-anchor="middle" x="659.44" y="-188.3" font-family="Times,serif" font-size="14.00">société rédacteurs perdriel</text>
</g>
<!-- société rédacteurs perdriel&#45;&gt;Groupe Perdriel -->
<g id="edge17" class="edge">
<title>société rédacteurs perdriel&#45;&gt;Groupe Perdriel</title>
<path fill="none" stroke="black" d="M642.45,-174.21C629.53,-161.43 611.58,-143.7 597.23,-129.52"/>
<polygon fill="black" stroke="black" points="599.67,-127.01 590.1,-122.47 594.75,-131.99 599.67,-127.01"/>
<text text-anchor="middle" x="631.94" y="-144.8" font-family="Times,serif" font-size="14.00">1%</text>
</g>
</g>
</svg>
