<?xml version="1.0" encoding="UTF-8" standalone="no"?>
<!DOCTYPE svg PUBLIC "-//W3C//DTD SVG 1.1//EN"
 "http://www.w3.org/Graphics/SVG/1.1/DTD/svg11.dtd">
<!-- Generated by graphviz version 2.49.3 (20211023.0002)
 -->
<!-- Title: G Pages: 1 -->
<svg width="910pt" height="305pt"
 viewBox="0.00 0.00 909.94 305.00" xmlns="http://www.w3.org/2000/svg" xmlns:xlink="http://www.w3.org/1999/xlink">
<g id="page0,1_graph0" class="graph" transform="scale(1 1) rotate(0) translate(4 301)">
<title>G</title>
<polygon fill="white" stroke="transparent" points="-4,4 -4,-301 905.94,-301 905.94,4 -4,4"/>
<!-- Société française du radiotéléphone -->
<g id="node1" class="node">
<title>Société française du radiotéléphone</title>
<ellipse fill="none" stroke="black" cx="507.79" cy="-105" rx="140.28" ry="18"/>
<text text-anchor="middle" x="507.79" y="-101.3" font-family="Times,serif" font-size="14.00">Société française du radiotéléphone</text>
</g>
<!-- Libération -->
<g id="node2" class="node">
<title>Libération</title>
<ellipse fill="none" stroke="black" cx="507.79" cy="-18" rx="48.99" ry="18"/>
<text text-anchor="middle" x="507.79" y="-14.3" font-family="Times,serif" font-size="14.00">Libération</text>
</g>
<!-- Société française du radiotéléphone&#45;&gt;Libération -->
<g id="edge1" class="edge">
<title>Société française du radiotéléphone&#45;&gt;Libération</title>
<path fill="none" stroke="black" d="M507.79,-86.8C507.79,-75.16 507.79,-59.55 507.79,-46.24"/>
<polygon fill="black" stroke="black" points="511.29,-46.18 507.79,-36.18 504.29,-46.18 511.29,-46.18"/>
<text text-anchor="middle" x="524.29" y="-57.8" font-family="Times,serif" font-size="14.00">100%</text>
</g>
<!-- Altice -->
<g id="node3" class="node">
<title>Altice</title>
<ellipse fill="none" stroke="black" cx="444.79" cy="-192" rx="33.29" ry="18"/>
<text text-anchor="middle" x="444.79" y="-188.3" font-family="Times,serif" font-size="14.00">Altice</text>
</g>
<!-- Altice&#45;&gt;Société française du radiotéléphone -->
<g id="edge2" class="edge">
<title>Altice&#45;&gt;Société française du radiotéléphone</title>
<path fill="none" stroke="black" d="M456.64,-175.01C465.74,-162.75 478.46,-145.57 488.95,-131.43"/>
<polygon fill="black" stroke="black" points="491.99,-133.2 495.13,-123.08 486.37,-129.03 491.99,-133.2"/>
<text text-anchor="middle" x="493.79" y="-144.8" font-family="Times,serif" font-size="14.00">78%</text>
</g>
<!-- Patrick Drahi -->
<g id="node4" class="node">
<title>Patrick Drahi</title>
<ellipse fill="none" stroke="black" cx="59.79" cy="-279" rx="59.59" ry="18"/>
<text text-anchor="middle" x="59.79" y="-275.3" font-family="Times,serif" font-size="14.00">Patrick Drahi</text>
</g>
<!-- Patrick Drahi&#45;&gt;Altice -->
<g id="edge3" class="edge">
<title>Patrick Drahi&#45;&gt;Altice</title>
<path fill="none" stroke="black" d="M104.29,-266.83C112.43,-264.85 120.86,-262.83 128.79,-261 227.52,-238.22 344.18,-213.75 404.36,-201.3"/>
<polygon fill="black" stroke="black" points="405.14,-204.71 414.22,-199.26 403.72,-197.86 405.14,-204.71"/>
<text text-anchor="middle" x="288.79" y="-231.8" font-family="Times,serif" font-size="14.00">58%</text>
</g>
<!-- Europacific Growth Fund -->
<g id="node5" class="node">
<title>Europacific Growth Fund</title>
<ellipse fill="none" stroke="black" cx="241.79" cy="-279" rx="103.98" ry="18"/>
<text text-anchor="middle" x="241.79" y="-275.3" font-family="Times,serif" font-size="14.00">Europacific Growth Fund</text>
</g>
<!-- Europacific Growth Fund&#45;&gt;Altice -->
<g id="edge4" class="edge">
<title>Europacific Growth Fund&#45;&gt;Altice</title>
<path fill="none" stroke="black" d="M279.5,-262.21C316.71,-246.63 373.15,-223 409.5,-207.78"/>
<polygon fill="black" stroke="black" points="411.31,-210.82 419.18,-203.72 408.61,-204.36 411.31,-210.82"/>
<text text-anchor="middle" x="365.29" y="-231.8" font-family="Times,serif" font-size="14.00">5%</text>
</g>
<!-- Carmignac Gestion -->
<g id="node6" class="node">
<title>Carmignac Gestion</title>
<ellipse fill="none" stroke="black" cx="444.79" cy="-279" rx="81.49" ry="18"/>
<text text-anchor="middle" x="444.79" y="-275.3" font-family="Times,serif" font-size="14.00">Carmignac Gestion</text>
</g>
<!-- Carmignac Gestion&#45;&gt;Altice -->
<g id="edge5" class="edge">
<title>Carmignac Gestion&#45;&gt;Altice</title>
<path fill="none" stroke="black" d="M444.79,-260.8C444.79,-249.16 444.79,-233.55 444.79,-220.24"/>
<polygon fill="black" stroke="black" points="448.29,-220.18 444.79,-210.18 441.29,-220.18 448.29,-220.18"/>
<text text-anchor="middle" x="454.29" y="-231.8" font-family="Times,serif" font-size="14.00">3%</text>
</g>
<!-- Fidelity Investments -->
<g id="node7" class="node">
<title>Fidelity Investments</title>
<ellipse fill="none" stroke="black" cx="628.79" cy="-279" rx="85.29" ry="18"/>
<text text-anchor="middle" x="628.79" y="-275.3" font-family="Times,serif" font-size="14.00">Fidelity Investments</text>
</g>
<!-- Fidelity Investments&#45;&gt;Altice -->
<g id="edge6" class="edge">
<title>Fidelity Investments&#45;&gt;Altice</title>
<path fill="none" stroke="black" d="M595.05,-262.41C561.9,-247.1 511.62,-223.87 478.5,-208.57"/>
<polygon fill="black" stroke="black" points="479.77,-205.3 469.22,-204.28 476.83,-211.65 479.77,-205.3"/>
<text text-anchor="middle" x="557.29" y="-231.8" font-family="Times,serif" font-size="14.00">3%</text>
</g>
<!-- capital flottant altice -->
<g id="node8" class="node">
<title>capital flottant altice</title>
<ellipse fill="none" stroke="black" cx="816.79" cy="-279" rx="85.29" ry="18"/>
<text text-anchor="middle" x="816.79" y="-275.3" font-family="Times,serif" font-size="14.00">capital flottant altice</text>
</g>
<!-- capital flottant altice&#45;&gt;Altice -->
<g id="edge7" class="edge">
<title>capital flottant altice&#45;&gt;Altice</title>
<path fill="none" stroke="black" d="M757.73,-265.97C664.56,-246.97 493.3,-211.97 486.79,-210 484.36,-209.26 481.86,-208.44 479.37,-207.56"/>
<polygon fill="black" stroke="black" points="480.44,-204.23 469.85,-204 477.99,-210.78 480.44,-204.23"/>
<text text-anchor="middle" x="647.79" y="-231.8" font-family="Times,serif" font-size="14.00">31%</text>
</g>
<!-- capital flottant sfr -->
<g id="node9" class="node">
<title>capital flottant sfr</title>
<ellipse fill="none" stroke="black" cx="570.79" cy="-192" rx="74.99" ry="18"/>
<text text-anchor="middle" x="570.79" y="-188.3" font-family="Times,serif" font-size="14.00">capital flottant sfr</text>
</g>
<!-- capital flottant sfr&#45;&gt;Société française du radiotéléphone -->
<g id="edge8" class="edge">
<title>capital flottant sfr&#45;&gt;Société française du radiotéléphone</title>
<path fill="none" stroke="black" d="M558.35,-174.21C549.26,-161.95 536.79,-145.11 526.5,-131.24"/>
<polygon fill="black" stroke="black" points="529.2,-129 520.43,-123.05 523.57,-133.17 529.2,-129"/>
<text text-anchor="middle" x="555.79" y="-144.8" font-family="Times,serif" font-size="14.00">22%</text>
</g>
</g>
</svg>
