<?xml version="1.0" encoding="UTF-8" standalone="no"?>
<!DOCTYPE svg PUBLIC "-//W3C//DTD SVG 1.1//EN"
 "http://www.w3.org/Graphics/SVG/1.1/DTD/svg11.dtd">
<!-- Generated by graphviz version 2.49.3 (20211023.0002)
 -->
<!-- Title: G Pages: 1 -->
<svg width="763pt" height="131pt"
 viewBox="0.00 0.00 762.73 131.00" xmlns="http://www.w3.org/2000/svg" xmlns:xlink="http://www.w3.org/1999/xlink">
<g id="page0,1_graph0" class="graph" transform="scale(1 1) rotate(0) translate(4 127)">
<title>G</title>
<polygon fill="white" stroke="transparent" points="-4,4 -4,-127 758.73,-127 758.73,4 -4,4"/>
<!-- Benjamin de Rothschild -->
<g id="node1" class="node">
<title>Benjamin de Rothschild</title>
<ellipse fill="none" stroke="black" cx="98.79" cy="-105" rx="98.58" ry="18"/>
<text text-anchor="middle" x="98.79" y="-101.3" font-family="Times,serif" font-size="14.00">Benjamin de Rothschild</text>
</g>
<!-- Slate -->
<g id="node2" class="node">
<title>Slate</title>
<ellipse fill="none" stroke="black" cx="374.79" cy="-18" rx="28.7" ry="18"/>
<text text-anchor="middle" x="374.79" y="-14.3" font-family="Times,serif" font-size="14.00">Slate</text>
</g>
<!-- Benjamin de Rothschild&#45;&gt;Slate -->
<g id="edge1" class="edge">
<title>Benjamin de Rothschild&#45;&gt;Slate</title>
<path fill="none" stroke="black" d="M146.87,-89.19C201.95,-72.23 290.88,-44.84 339.78,-29.78"/>
<polygon fill="black" stroke="black" points="341.05,-33.05 349.58,-26.76 338.99,-26.36 341.05,-33.05"/>
<text text-anchor="middle" x="266.79" y="-57.8" font-family="Times,serif" font-size="14.00">29%</text>
</g>
<!-- Financière Viveris -->
<g id="node3" class="node">
<title>Financière Viveris</title>
<ellipse fill="none" stroke="black" cx="292.79" cy="-105" rx="77.19" ry="18"/>
<text text-anchor="middle" x="292.79" y="-101.3" font-family="Times,serif" font-size="14.00">Financière Viveris</text>
</g>
<!-- Financière Viveris&#45;&gt;Slate -->
<g id="edge2" class="edge">
<title>Financière Viveris&#45;&gt;Slate</title>
<path fill="none" stroke="black" d="M308.99,-87.21C321.67,-74.06 339.42,-55.66 353.29,-41.29"/>
<polygon fill="black" stroke="black" points="356.12,-43.4 360.54,-33.77 351.08,-38.54 356.12,-43.4"/>
<text text-anchor="middle" x="351.79" y="-57.8" font-family="Times,serif" font-size="14.00">22%</text>
</g>
<!-- fondateurs slate -->
<g id="node4" class="node">
<title>fondateurs slate</title>
<ellipse fill="none" stroke="black" cx="456.79" cy="-105" rx="68.49" ry="18"/>
<text text-anchor="middle" x="456.79" y="-101.3" font-family="Times,serif" font-size="14.00">fondateurs slate</text>
</g>
<!-- fondateurs slate&#45;&gt;Slate -->
<g id="edge3" class="edge">
<title>fondateurs slate&#45;&gt;Slate</title>
<path fill="none" stroke="black" d="M440.59,-87.21C427.91,-74.06 410.16,-55.66 396.29,-41.29"/>
<polygon fill="black" stroke="black" points="398.5,-38.54 389.04,-33.77 393.46,-43.4 398.5,-38.54"/>
<text text-anchor="middle" x="433.79" y="-57.8" font-family="Times,serif" font-size="14.00">25%</text>
</g>
<!-- actionnaires externes slate -->
<g id="node5" class="node">
<title>actionnaires externes slate</title>
<ellipse fill="none" stroke="black" cx="648.79" cy="-105" rx="105.88" ry="18"/>
<text text-anchor="middle" x="648.79" y="-101.3" font-family="Times,serif" font-size="14.00">actionnaires externes slate</text>
</g>
<!-- actionnaires externes slate&#45;&gt;Slate -->
<g id="edge4" class="edge">
<title>actionnaires externes slate&#45;&gt;Slate</title>
<path fill="none" stroke="black" d="M600.12,-88.9C545.42,-71.93 457.97,-44.8 409.67,-29.82"/>
<polygon fill="black" stroke="black" points="410.58,-26.44 399.99,-26.82 408.5,-33.12 410.58,-26.44"/>
<text text-anchor="middle" x="540.79" y="-57.8" font-family="Times,serif" font-size="14.00">24%</text>
</g>
</g>
</svg>
