<?xml version="1.0" encoding="UTF-8" standalone="no"?>
<!DOCTYPE svg PUBLIC "-//W3C//DTD SVG 1.1//EN"
 "http://www.w3.org/Graphics/SVG/1.1/DTD/svg11.dtd">
<!-- Generated by graphviz version 2.49.3 (20211023.0002)
 -->
<!-- Title: G Pages: 1 -->
<svg width="1030pt" height="218pt"
 viewBox="0.00 0.00 1029.69 218.00" xmlns="http://www.w3.org/2000/svg" xmlns:xlink="http://www.w3.org/1999/xlink">
<g id="page0,1_graph0" class="graph" transform="scale(1 1) rotate(0) translate(4 214)">
<title>G</title>
<polygon fill="white" stroke="transparent" points="-4,4 -4,-214 1025.69,-214 1025.69,4 -4,4"/>
<!-- lml -->
<g id="node1" class="node">
<title>lml</title>
<ellipse fill="none" stroke="black" cx="746.44" cy="-105" rx="27" ry="18"/>
<text text-anchor="middle" x="746.44" y="-101.3" font-family="Times,serif" font-size="14.00">lml</text>
</g>
<!-- Le Monde -->
<g id="node2" class="node">
<title>Le Monde</title>
<ellipse fill="none" stroke="black" cx="570.44" cy="-18" rx="48.19" ry="18"/>
<text text-anchor="middle" x="570.44" y="-14.3" font-family="Times,serif" font-size="14.00">Le Monde</text>
</g>
<!-- lml&#45;&gt;Le Monde -->
<g id="edge1" class="edge">
<title>lml&#45;&gt;Le Monde</title>
<path fill="none" stroke="black" d="M725.21,-93.75C696.17,-79.72 643.6,-54.33 607.87,-37.08"/>
<polygon fill="black" stroke="black" points="609.25,-33.86 598.72,-32.66 606.2,-40.16 609.25,-33.86"/>
<text text-anchor="middle" x="682.44" y="-57.8" font-family="Times,serif" font-size="14.00">64%</text>
</g>
<!-- Pierre Bergé -->
<g id="node3" class="node">
<title>Pierre Bergé</title>
<ellipse fill="none" stroke="black" cx="598.44" cy="-192" rx="56.59" ry="18"/>
<text text-anchor="middle" x="598.44" y="-188.3" font-family="Times,serif" font-size="14.00">Pierre Bergé</text>
</g>
<!-- Pierre Bergé&#45;&gt;lml -->
<g id="edge2" class="edge">
<title>Pierre Bergé&#45;&gt;lml</title>
<path fill="none" stroke="black" d="M624.56,-176C650.69,-160.99 690.78,-137.97 717.77,-122.47"/>
<polygon fill="black" stroke="black" points="719.8,-125.34 726.73,-117.32 716.31,-119.27 719.8,-125.34"/>
<text text-anchor="middle" x="694.44" y="-144.8" font-family="Times,serif" font-size="14.00">26%</text>
</g>
<!-- Matthieu Pigasse -->
<g id="node4" class="node">
<title>Matthieu Pigasse</title>
<ellipse fill="none" stroke="black" cx="746.44" cy="-192" rx="73.39" ry="18"/>
<text text-anchor="middle" x="746.44" y="-188.3" font-family="Times,serif" font-size="14.00">Matthieu Pigasse</text>
</g>
<!-- Matthieu Pigasse&#45;&gt;lml -->
<g id="edge3" class="edge">
<title>Matthieu Pigasse&#45;&gt;lml</title>
<path fill="none" stroke="black" d="M746.44,-173.8C746.44,-162.16 746.44,-146.55 746.44,-133.24"/>
<polygon fill="black" stroke="black" points="749.94,-133.18 746.44,-123.18 742.94,-133.18 749.94,-133.18"/>
<text text-anchor="middle" x="759.44" y="-144.8" font-family="Times,serif" font-size="14.00">26%</text>
</g>
<!-- Xavier Niel -->
<g id="node5" class="node">
<title>Xavier Niel</title>
<ellipse fill="none" stroke="black" cx="891.44" cy="-192" rx="53.09" ry="18"/>
<text text-anchor="middle" x="891.44" y="-188.3" font-family="Times,serif" font-size="14.00">Xavier Niel</text>
</g>
<!-- Xavier Niel&#45;&gt;lml -->
<g id="edge4" class="edge">
<title>Xavier Niel&#45;&gt;lml</title>
<path fill="none" stroke="black" d="M865.85,-176C840.4,-161.08 801.42,-138.23 774.98,-122.73"/>
<polygon fill="black" stroke="black" points="776.59,-119.62 766.19,-117.58 773.05,-125.66 776.59,-119.62"/>
<text text-anchor="middle" x="840.44" y="-144.8" font-family="Times,serif" font-size="14.00">26%</text>
</g>
<!-- Prisa -->
<g id="node6" class="node">
<title>Prisa</title>
<ellipse fill="none" stroke="black" cx="992.44" cy="-192" rx="29.5" ry="18"/>
<text text-anchor="middle" x="992.44" y="-188.3" font-family="Times,serif" font-size="14.00">Prisa</text>
</g>
<!-- Prisa&#45;&gt;lml -->
<g id="edge5" class="edge">
<title>Prisa&#45;&gt;lml</title>
<path fill="none" stroke="black" d="M969.47,-180.62C964.23,-178.36 958.67,-176.04 953.44,-174 893.48,-150.67 821.82,-128.32 780.47,-115.95"/>
<polygon fill="black" stroke="black" points="781.22,-112.52 770.64,-113.03 779.23,-119.23 781.22,-112.52"/>
<text text-anchor="middle" x="915.44" y="-144.8" font-family="Times,serif" font-size="14.00">23%</text>
</g>
<!-- lmpa -->
<g id="node7" class="node">
<title>lmpa</title>
<ellipse fill="none" stroke="black" cx="396.44" cy="-105" rx="28.7" ry="18"/>
<text text-anchor="middle" x="396.44" y="-101.3" font-family="Times,serif" font-size="14.00">lmpa</text>
</g>
<!-- lmpa&#45;&gt;Le Monde -->
<g id="edge6" class="edge">
<title>lmpa&#45;&gt;Le Monde</title>
<path fill="none" stroke="black" d="M418.48,-93.23C447.23,-79.19 497.98,-54.4 532.87,-37.35"/>
<polygon fill="black" stroke="black" points="534.8,-40.3 542.25,-32.77 531.73,-34.01 534.8,-40.3"/>
<text text-anchor="middle" x="507.44" y="-57.8" font-family="Times,serif" font-size="14.00">34%</text>
</g>
<!-- actionnaires internes Le Monde -->
<g id="node8" class="node">
<title>actionnaires internes Le Monde</title>
<ellipse fill="none" stroke="black" cx="125.44" cy="-192" rx="125.38" ry="18"/>
<text text-anchor="middle" x="125.44" y="-188.3" font-family="Times,serif" font-size="14.00">actionnaires internes Le Monde</text>
</g>
<!-- actionnaires internes Le Monde&#45;&gt;lmpa -->
<g id="edge7" class="edge">
<title>actionnaires internes Le Monde&#45;&gt;lmpa</title>
<path fill="none" stroke="black" d="M175.14,-175.41C229.24,-158.44 314.33,-131.75 361.69,-116.9"/>
<polygon fill="black" stroke="black" points="362.98,-120.16 371.47,-113.83 360.89,-113.48 362.98,-120.16"/>
<text text-anchor="middle" x="290.44" y="-144.8" font-family="Times,serif" font-size="14.00">52%</text>
</g>
<!-- actionnaires externes Le Monde -->
<g id="node9" class="node">
<title>actionnaires externes Le Monde</title>
<ellipse fill="none" stroke="black" cx="396.44" cy="-192" rx="127.28" ry="18"/>
<text text-anchor="middle" x="396.44" y="-188.3" font-family="Times,serif" font-size="14.00">actionnaires externes Le Monde</text>
</g>
<!-- actionnaires externes Le Monde&#45;&gt;lmpa -->
<g id="edge8" class="edge">
<title>actionnaires externes Le Monde&#45;&gt;lmpa</title>
<path fill="none" stroke="black" d="M396.44,-173.8C396.44,-162.16 396.44,-146.55 396.44,-133.24"/>
<polygon fill="black" stroke="black" points="399.94,-133.18 396.44,-123.18 392.94,-133.18 399.94,-133.18"/>
<text text-anchor="middle" x="409.44" y="-144.8" font-family="Times,serif" font-size="14.00">48%</text>
</g>
</g>
</svg>
