<?xml version="1.0" encoding="UTF-8" standalone="no"?>
<!DOCTYPE svg PUBLIC "-//W3C//DTD SVG 1.1//EN"
 "http://www.w3.org/Graphics/SVG/1.1/DTD/svg11.dtd">
<!-- Generated by graphviz version 2.49.3 (20211023.0002)
 -->
<!-- Title: G Pages: 1 -->
<svg width="938pt" height="305pt"
 viewBox="0.00 0.00 937.77 305.00" xmlns="http://www.w3.org/2000/svg" xmlns:xlink="http://www.w3.org/1999/xlink">
<g id="graph0" class="graph" transform="scale(1 1) rotate(0) translate(4 301)">
<title>G</title>
<polygon fill="white" stroke="transparent" points="-4,4 -4,-301 933.77,-301 933.77,4 -4,4"/>
<!-- w:Groupe_SIPA_&#45;_Ouest&#45;France -->
<g id="node1" class="node">
<title>w:Groupe_SIPA_&#45;_Ouest&#45;France</title>
<ellipse fill="none" stroke="black" cx="595.94" cy="-105" rx="131.88" ry="18"/>
<text text-anchor="middle" x="595.94" y="-101.3" font-family="Times,serif" font-size="14.00">w:Groupe_SIPA_&#45;_Ouest&#45;France</text>
</g>
<!-- w:20_minutes_(France) -->
<g id="node2" class="node">
<title>w:20_minutes_(France)</title>
<ellipse fill="none" stroke="black" cx="443.94" cy="-18" rx="97.48" ry="18"/>
<text text-anchor="middle" x="443.94" y="-14.3" font-family="Times,serif" font-size="14.00">w:20_minutes_(France)</text>
</g>
<!-- w:Groupe_SIPA_&#45;_Ouest&#45;France&#45;&gt;w:20_minutes_(France) -->
<g id="edge1" class="edge">
<title>w:Groupe_SIPA_&#45;_Ouest&#45;France&#45;&gt;w:20_minutes_(France)</title>
<path fill="none" stroke="black" d="M566.27,-87.41C542.16,-73.93 507.99,-54.81 481.89,-40.22"/>
<polygon fill="black" stroke="black" points="483.46,-37.09 473.02,-35.26 480.04,-43.2 483.46,-37.09"/>
<text text-anchor="middle" x="542.94" y="-57.8" font-family="Times,serif" font-size="14.00">50%</text>
</g>
<!-- w:Association_pour_le_soutien_des_principes_de_la_démocratie_humaniste -->
<g id="node3" class="node">
<title>w:Association_pour_le_soutien_des_principes_de_la_démocratie_humaniste</title>
<ellipse fill="none" stroke="black" cx="637.94" cy="-192" rx="291.65" ry="18"/>
<text text-anchor="middle" x="637.94" y="-188.3" font-family="Times,serif" font-size="14.00">w:Association_pour_le_soutien_des_principes_de_la_démocratie_humaniste</text>
</g>
<!-- w:Association_pour_le_soutien_des_principes_de_la_démocratie_humaniste&#45;&gt;w:Groupe_SIPA_&#45;_Ouest&#45;France -->
<g id="edge2" class="edge">
<title>w:Association_pour_le_soutien_des_principes_de_la_démocratie_humaniste&#45;&gt;w:Groupe_SIPA_&#45;_Ouest&#45;France</title>
<path fill="none" stroke="black" d="M629.44,-173.8C623.58,-161.93 615.67,-145.93 609.01,-132.45"/>
<polygon fill="black" stroke="black" points="612,-130.59 604.43,-123.18 605.72,-133.69 612,-130.59"/>
<text text-anchor="middle" x="636.44" y="-144.8" font-family="Times,serif" font-size="14.00">100%</text>
</g>
<!-- w:Groupe_La_Voix -->
<g id="node4" class="node">
<title>w:Groupe_La_Voix</title>
<ellipse fill="none" stroke="black" cx="250.94" cy="-105" rx="82.59" ry="18"/>
<text text-anchor="middle" x="250.94" y="-101.3" font-family="Times,serif" font-size="14.00">w:Groupe_La_Voix</text>
</g>
<!-- w:Groupe_La_Voix&#45;&gt;w:20_minutes_(France) -->
<g id="edge3" class="edge">
<title>w:Groupe_La_Voix&#45;&gt;w:20_minutes_(France)</title>
<path fill="none" stroke="black" d="M285.89,-88.61C317.47,-74.7 364.13,-54.15 398.58,-38.98"/>
<polygon fill="black" stroke="black" points="400.2,-42.09 407.94,-34.85 397.38,-35.68 400.2,-42.09"/>
<text text-anchor="middle" x="372.94" y="-57.8" font-family="Times,serif" font-size="14.00">49%</text>
</g>
<!-- w:Groupe_Rossel -->
<g id="node5" class="node">
<title>w:Groupe_Rossel</title>
<ellipse fill="none" stroke="black" cx="79.94" cy="-192" rx="76.09" ry="18"/>
<text text-anchor="middle" x="79.94" y="-188.3" font-family="Times,serif" font-size="14.00">w:Groupe_Rossel</text>
</g>
<!-- w:Groupe_Rossel&#45;&gt;w:Groupe_La_Voix -->
<g id="edge4" class="edge">
<title>w:Groupe_Rossel&#45;&gt;w:Groupe_La_Voix</title>
<path fill="none" stroke="black" d="M111.31,-175.41C139.09,-161.6 179.84,-141.34 210.15,-126.28"/>
<polygon fill="black" stroke="black" points="211.8,-129.36 219.2,-121.78 208.69,-123.1 211.8,-129.36"/>
<text text-anchor="middle" x="188.94" y="-144.8" font-family="Times,serif" font-size="14.00">73%</text>
</g>
<!-- w:Famille_hurbain -->
<g id="node6" class="node">
<title>w:Famille_hurbain</title>
<ellipse fill="none" stroke="black" cx="79.94" cy="-279" rx="79.89" ry="18"/>
<text text-anchor="middle" x="79.94" y="-275.3" font-family="Times,serif" font-size="14.00">w:Famille_hurbain</text>
</g>
<!-- w:Famille_hurbain&#45;&gt;w:Groupe_Rossel -->
<g id="edge5" class="edge">
<title>w:Famille_hurbain&#45;&gt;w:Groupe_Rossel</title>
<path fill="none" stroke="black" d="M79.94,-260.8C79.94,-249.16 79.94,-233.55 79.94,-220.24"/>
<polygon fill="black" stroke="black" points="83.44,-220.18 79.94,-210.18 76.44,-220.18 83.44,-220.18"/>
<text text-anchor="middle" x="92.94" y="-231.8" font-family="Times,serif" font-size="14.00">83%</text>
</g>
<!-- w:Crédit_agricole -->
<g id="node7" class="node">
<title>w:Crédit_agricole</title>
<ellipse fill="none" stroke="black" cx="250.94" cy="-192" rx="76.89" ry="18"/>
<text text-anchor="middle" x="250.94" y="-188.3" font-family="Times,serif" font-size="14.00">w:Crédit_agricole</text>
</g>
<!-- w:Crédit_agricole&#45;&gt;w:Groupe_La_Voix -->
<g id="edge6" class="edge">
<title>w:Crédit_agricole&#45;&gt;w:Groupe_La_Voix</title>
<path fill="none" stroke="black" d="M250.94,-173.8C250.94,-162.16 250.94,-146.55 250.94,-133.24"/>
<polygon fill="black" stroke="black" points="254.44,-133.18 250.94,-123.18 247.44,-133.18 254.44,-133.18"/>
<text text-anchor="middle" x="263.94" y="-144.8" font-family="Times,serif" font-size="14.00">25%</text>
</g>
</g>
</svg>
