<?xml version="1.0" encoding="UTF-8" standalone="no"?>
<!DOCTYPE svg PUBLIC "-//W3C//DTD SVG 1.1//EN"
 "http://www.w3.org/Graphics/SVG/1.1/DTD/svg11.dtd">
<!-- Generated by graphviz version 2.49.3 (20211023.0002)
 -->
<!-- Title: G Pages: 1 -->
<svg width="878pt" height="305pt"
 viewBox="0.00 0.00 877.87 305.00" xmlns="http://www.w3.org/2000/svg" xmlns:xlink="http://www.w3.org/1999/xlink">
<g id="graph0" class="graph" transform="scale(1 1) rotate(0) translate(4 301)">
<title>G</title>
<polygon fill="white" stroke="transparent" points="-4,4 -4,-301 873.87,-301 873.87,4 -4,4"/>
<!-- Groupe SIPA &#45; Ouest France -->
<g id="node1" class="node">
<title>Groupe SIPA &#45; Ouest France</title>
<ellipse fill="none" stroke="black" cx="569.94" cy="-105" rx="114.28" ry="18"/>
<text text-anchor="middle" x="569.94" y="-101.3" font-family="Times,serif" font-size="14.00">Groupe SIPA &#45; Ouest France</text>
</g>
<!-- 20 minutes -->
<g id="node2" class="node">
<title>20 minutes</title>
<ellipse fill="none" stroke="black" cx="428.94" cy="-18" rx="50.89" ry="18"/>
<text text-anchor="middle" x="428.94" y="-14.3" font-family="Times,serif" font-size="14.00">20 minutes</text>
</g>
<!-- Groupe SIPA &#45; Ouest France&#45;&gt;20 minutes -->
<g id="edge1" class="edge">
<title>Groupe SIPA &#45; Ouest France&#45;&gt;20 minutes</title>
<path fill="none" stroke="black" d="M542.42,-87.41C519.44,-73.55 486.6,-53.76 462.16,-39.02"/>
<polygon fill="black" stroke="black" points="463.94,-36.01 453.56,-33.84 460.32,-42 463.94,-36.01"/>
<text text-anchor="middle" x="520.94" y="-57.8" font-family="Times,serif" font-size="14.00">50%</text>
</g>
<!-- Association pour le soutien des principes de la démocratie humaniste -->
<g id="node3" class="node">
<title>Association pour le soutien des principes de la démocratie humaniste</title>
<ellipse fill="none" stroke="black" cx="607.94" cy="-192" rx="261.85" ry="18"/>
<text text-anchor="middle" x="607.94" y="-188.3" font-family="Times,serif" font-size="14.00">Association pour le soutien des principes de la démocratie humaniste</text>
</g>
<!-- Association pour le soutien des principes de la démocratie humaniste&#45;&gt;Groupe SIPA &#45; Ouest France -->
<g id="edge2" class="edge">
<title>Association pour le soutien des principes de la démocratie humaniste&#45;&gt;Groupe SIPA &#45; Ouest France</title>
<path fill="none" stroke="black" d="M600.25,-173.8C594.95,-161.93 587.79,-145.93 581.77,-132.45"/>
<polygon fill="black" stroke="black" points="584.9,-130.88 577.62,-123.18 578.51,-133.73 584.9,-130.88"/>
<text text-anchor="middle" x="608.44" y="-144.8" font-family="Times,serif" font-size="14.00">100%</text>
</g>
<!-- w:Groupe_La_Voix -->
<g id="node4" class="node">
<title>w:Groupe_La_Voix</title>
<ellipse fill="none" stroke="black" cx="250.94" cy="-105" rx="82.59" ry="18"/>
<text text-anchor="middle" x="250.94" y="-101.3" font-family="Times,serif" font-size="14.00">w:Groupe_La_Voix</text>
</g>
<!-- w:Groupe_La_Voix&#45;&gt;20 minutes -->
<g id="edge3" class="edge">
<title>w:Groupe_La_Voix&#45;&gt;20 minutes</title>
<path fill="none" stroke="black" d="M283.59,-88.41C313.92,-73.93 359.08,-52.36 391,-37.12"/>
<polygon fill="black" stroke="black" points="392.52,-40.27 400.03,-32.8 389.5,-33.96 392.52,-40.27"/>
<text text-anchor="middle" x="363.94" y="-57.8" font-family="Times,serif" font-size="14.00">49%</text>
</g>
<!-- w:Groupe_Rossel -->
<g id="node5" class="node">
<title>w:Groupe_Rossel</title>
<ellipse fill="none" stroke="black" cx="79.94" cy="-192" rx="76.09" ry="18"/>
<text text-anchor="middle" x="79.94" y="-188.3" font-family="Times,serif" font-size="14.00">w:Groupe_Rossel</text>
</g>
<!-- w:Groupe_Rossel&#45;&gt;w:Groupe_La_Voix -->
<g id="edge4" class="edge">
<title>w:Groupe_Rossel&#45;&gt;w:Groupe_La_Voix</title>
<path fill="none" stroke="black" d="M111.31,-175.41C139.09,-161.6 179.84,-141.34 210.15,-126.28"/>
<polygon fill="black" stroke="black" points="211.8,-129.36 219.2,-121.78 208.69,-123.1 211.8,-129.36"/>
<text text-anchor="middle" x="188.94" y="-144.8" font-family="Times,serif" font-size="14.00">73%</text>
</g>
<!-- w:Famille_hurbain -->
<g id="node6" class="node">
<title>w:Famille_hurbain</title>
<ellipse fill="none" stroke="black" cx="79.94" cy="-279" rx="79.89" ry="18"/>
<text text-anchor="middle" x="79.94" y="-275.3" font-family="Times,serif" font-size="14.00">w:Famille_hurbain</text>
</g>
<!-- w:Famille_hurbain&#45;&gt;w:Groupe_Rossel -->
<g id="edge5" class="edge">
<title>w:Famille_hurbain&#45;&gt;w:Groupe_Rossel</title>
<path fill="none" stroke="black" d="M79.94,-260.8C79.94,-249.16 79.94,-233.55 79.94,-220.24"/>
<polygon fill="black" stroke="black" points="83.44,-220.18 79.94,-210.18 76.44,-220.18 83.44,-220.18"/>
<text text-anchor="middle" x="92.94" y="-231.8" font-family="Times,serif" font-size="14.00">83%</text>
</g>
<!-- w:Crédit_agricole -->
<g id="node7" class="node">
<title>w:Crédit_agricole</title>
<ellipse fill="none" stroke="black" cx="250.94" cy="-192" rx="76.89" ry="18"/>
<text text-anchor="middle" x="250.94" y="-188.3" font-family="Times,serif" font-size="14.00">w:Crédit_agricole</text>
</g>
<!-- w:Crédit_agricole&#45;&gt;w:Groupe_La_Voix -->
<g id="edge6" class="edge">
<title>w:Crédit_agricole&#45;&gt;w:Groupe_La_Voix</title>
<path fill="none" stroke="black" d="M250.94,-173.8C250.94,-162.16 250.94,-146.55 250.94,-133.24"/>
<polygon fill="black" stroke="black" points="254.44,-133.18 250.94,-123.18 247.44,-133.18 254.44,-133.18"/>
<text text-anchor="middle" x="263.94" y="-144.8" font-family="Times,serif" font-size="14.00">25%</text>
</g>
</g>
</svg>
