<?xml version="1.0" encoding="UTF-8" standalone="no"?>
<!DOCTYPE svg PUBLIC "-//W3C//DTD SVG 1.1//EN"
 "http://www.w3.org/Graphics/SVG/1.1/DTD/svg11.dtd">
<!-- Generated by graphviz version 2.49.3 (20211023.0002)
 -->
<!-- Title: G Pages: 1 -->
<svg width="697pt" height="218pt"
 viewBox="0.00 0.00 697.38 218.00" xmlns="http://www.w3.org/2000/svg" xmlns:xlink="http://www.w3.org/1999/xlink">
<g id="page0,1_graph0" class="graph" transform="scale(1 1) rotate(0) translate(4 214)">
<title>G</title>
<polygon fill="white" stroke="transparent" points="-4,4 -4,-214 693.38,-214 693.38,4 -4,4"/>
<!-- fondateurs_mediapart -->
<g id="node1" class="node">
<title>fondateurs_mediapart</title>
<ellipse fill="none" stroke="black" cx="505.79" cy="-105" rx="90.18" ry="18"/>
<text text-anchor="middle" x="505.79" y="-101.3" font-family="Times,serif" font-size="14.00">fondateurs_mediapart</text>
</g>
<!-- Mediapart -->
<g id="node2" class="node">
<title>Mediapart</title>
<ellipse fill="none" stroke="black" cx="316.79" cy="-18" rx="48.19" ry="18"/>
<text text-anchor="middle" x="316.79" y="-14.3" font-family="Times,serif" font-size="14.00">Mediapart</text>
</g>
<!-- fondateurs_mediapart&#45;&gt;Mediapart -->
<g id="edge1" class="edge">
<title>fondateurs_mediapart&#45;&gt;Mediapart</title>
<path fill="none" stroke="black" d="M470.68,-88.21C438.14,-73.57 389.78,-51.82 355.98,-36.63"/>
<polygon fill="black" stroke="black" points="356.98,-33.24 346.43,-32.33 354.11,-39.62 356.98,-33.24"/>
<text text-anchor="middle" x="435.79" y="-57.8" font-family="Times,serif" font-size="14.00">37%</text>
</g>
<!-- w:Edwy_Plenel -->
<g id="node3" class="node">
<title>w:Edwy_Plenel</title>
<ellipse fill="none" stroke="black" cx="415.79" cy="-192" rx="68.49" ry="18"/>
<text text-anchor="middle" x="415.79" y="-188.3" font-family="Times,serif" font-size="14.00">w:Edwy_Plenel</text>
</g>
<!-- w:Edwy_Plenel&#45;&gt;fondateurs_mediapart -->
<g id="edge2" class="edge">
<title>w:Edwy_Plenel&#45;&gt;fondateurs_mediapart</title>
<path fill="none" stroke="black" d="M433.57,-174.21C447.01,-161.52 465.63,-143.93 480.6,-129.79"/>
<polygon fill="black" stroke="black" points="483.18,-132.17 488.05,-122.76 478.37,-127.08 483.18,-132.17"/>
<text text-anchor="middle" x="479.79" y="-144.8" font-family="Times,serif" font-size="14.00">42%</text>
</g>
<!-- Marie&#45;Hélène Smiejan -->
<g id="node4" class="node">
<title>Marie&#45;Hélène Smiejan</title>
<ellipse fill="none" stroke="black" cx="595.79" cy="-192" rx="93.68" ry="18"/>
<text text-anchor="middle" x="595.79" y="-188.3" font-family="Times,serif" font-size="14.00">Marie&#45;Hélène Smiejan</text>
</g>
<!-- Marie&#45;Hélène Smiejan&#45;&gt;fondateurs_mediapart -->
<g id="edge3" class="edge">
<title>Marie&#45;Hélène Smiejan&#45;&gt;fondateurs_mediapart</title>
<path fill="none" stroke="black" d="M578.01,-174.21C564.57,-161.52 545.95,-143.93 530.98,-129.79"/>
<polygon fill="black" stroke="black" points="533.21,-127.08 523.54,-122.76 528.4,-132.17 533.21,-127.08"/>
<text text-anchor="middle" x="569.79" y="-144.8" font-family="Times,serif" font-size="14.00">42%</text>
</g>
<!-- société_amis_mediapart -->
<g id="node5" class="node">
<title>société_amis_mediapart</title>
<ellipse fill="none" stroke="black" cx="98.79" cy="-105" rx="98.58" ry="18"/>
<text text-anchor="middle" x="98.79" y="-101.3" font-family="Times,serif" font-size="14.00">société_amis_mediapart</text>
</g>
<!-- société_amis_mediapart&#45;&gt;Mediapart -->
<g id="edge4" class="edge">
<title>société_amis_mediapart&#45;&gt;Mediapart</title>
<path fill="none" stroke="black" d="M138.52,-88.51C177.24,-73.41 235.87,-50.55 275.21,-35.21"/>
<polygon fill="black" stroke="black" points="276.73,-38.38 284.77,-31.48 274.19,-31.86 276.73,-38.38"/>
<text text-anchor="middle" x="234.79" y="-57.8" font-family="Times,serif" font-size="14.00">15%</text>
</g>
<!-- Xavier Niel -->
<g id="node6" class="node">
<title>Xavier Niel</title>
<ellipse fill="none" stroke="black" cx="98.79" cy="-192" rx="53.09" ry="18"/>
<text text-anchor="middle" x="98.79" y="-188.3" font-family="Times,serif" font-size="14.00">Xavier Niel</text>
</g>
<!-- Xavier Niel&#45;&gt;société_amis_mediapart -->
<g id="edge5" class="edge">
<title>Xavier Niel&#45;&gt;société_amis_mediapart</title>
<path fill="none" stroke="black" d="M98.79,-173.8C98.79,-162.16 98.79,-146.55 98.79,-133.24"/>
<polygon fill="black" stroke="black" points="102.29,-133.18 98.79,-123.18 95.29,-133.18 102.29,-133.18"/>
<text text-anchor="middle" x="111.79" y="-144.8" font-family="Times,serif" font-size="14.00">40%</text>
</g>
<!-- Écofinance -->
<g id="node7" class="node">
<title>Écofinance</title>
<ellipse fill="none" stroke="black" cx="266.79" cy="-105" rx="51.19" ry="18"/>
<text text-anchor="middle" x="266.79" y="-101.3" font-family="Times,serif" font-size="14.00">Écofinance</text>
</g>
<!-- Écofinance&#45;&gt;Mediapart -->
<g id="edge6" class="edge">
<title>Écofinance&#45;&gt;Mediapart</title>
<path fill="none" stroke="black" d="M276.67,-87.21C283.79,-75.1 293.54,-58.53 301.64,-44.76"/>
<polygon fill="black" stroke="black" points="304.88,-46.15 306.93,-35.76 298.85,-42.6 304.88,-46.15"/>
<text text-anchor="middle" x="307.79" y="-57.8" font-family="Times,serif" font-size="14.00">18%</text>
</g>
<!-- Doxa -->
<g id="node8" class="node">
<title>Doxa</title>
<ellipse fill="none" stroke="black" cx="366.79" cy="-105" rx="30.59" ry="18"/>
<text text-anchor="middle" x="366.79" y="-101.3" font-family="Times,serif" font-size="14.00">Doxa</text>
</g>
<!-- Doxa&#45;&gt;Mediapart -->
<g id="edge7" class="edge">
<title>Doxa&#45;&gt;Mediapart</title>
<path fill="none" stroke="black" d="M357.15,-87.61C349.93,-75.34 339.93,-58.34 331.69,-44.32"/>
<polygon fill="black" stroke="black" points="334.66,-42.47 326.57,-35.63 328.63,-46.02 334.66,-42.47"/>
<text text-anchor="middle" x="357.79" y="-57.8" font-family="Times,serif" font-size="14.00">28%</text>
</g>
</g>
</svg>
