<?xml version="1.0" encoding="UTF-8" standalone="no"?>
<!DOCTYPE svg PUBLIC "-//W3C//DTD SVG 1.1//EN"
 "http://www.w3.org/Graphics/SVG/1.1/DTD/svg11.dtd">
<!-- Generated by graphviz version 2.49.3 (20211023.0002)
 -->
<!-- Title: G Pages: 1 -->
<svg width="298pt" height="392pt"
 viewBox="0.00 0.00 298.09 392.00" xmlns="http://www.w3.org/2000/svg" xmlns:xlink="http://www.w3.org/1999/xlink">
<g id="page0,1_graph0" class="graph" transform="scale(1 1) rotate(0) translate(4 388)">
<title>G</title>
<polygon fill="white" stroke="transparent" points="-4,4 -4,-388 294.09,-388 294.09,4 -4,4"/>
<!-- w:Bolloré -->
<g id="node1" class="node">
<title>w:Bolloré</title>
<ellipse fill="none" stroke="black" cx="184.79" cy="-105" rx="46.59" ry="18"/>
<text text-anchor="middle" x="184.79" y="-101.3" font-family="Times,serif" font-size="14.00">w:Bolloré</text>
</g>
<!-- CNews Matin -->
<g id="node2" class="node">
<title>CNews Matin</title>
<ellipse fill="none" stroke="black" cx="83.79" cy="-18" rx="61.99" ry="18"/>
<text text-anchor="middle" x="83.79" y="-14.3" font-family="Times,serif" font-size="14.00">CNews Matin</text>
</g>
<!-- w:Bolloré&#45;&gt;CNews Matin -->
<g id="edge1" class="edge">
<title>w:Bolloré&#45;&gt;CNews Matin</title>
<path fill="none" stroke="black" d="M166.27,-88.41C150.76,-75.36 128.42,-56.56 110.9,-41.81"/>
<polygon fill="black" stroke="black" points="113.14,-39.12 103.23,-35.36 108.63,-44.48 113.14,-39.12"/>
<text text-anchor="middle" x="152.79" y="-57.8" font-family="Times,serif" font-size="14.00">70%</text>
</g>
<!-- w:Financière_de_l&#39;Odet -->
<g id="node3" class="node">
<title>w:Financière_de_l&#39;Odet</title>
<ellipse fill="none" stroke="black" cx="184.79" cy="-192" rx="97.48" ry="18"/>
<text text-anchor="middle" x="184.79" y="-188.3" font-family="Times,serif" font-size="14.00">w:Financière_de_l&#39;Odet</text>
</g>
<!-- w:Financière_de_l&#39;Odet&#45;&gt;w:Bolloré -->
<g id="edge2" class="edge">
<title>w:Financière_de_l&#39;Odet&#45;&gt;w:Bolloré</title>
<path fill="none" stroke="black" d="M184.79,-173.8C184.79,-162.16 184.79,-146.55 184.79,-133.24"/>
<polygon fill="black" stroke="black" points="188.29,-133.18 184.79,-123.18 181.29,-133.18 188.29,-133.18"/>
<text text-anchor="middle" x="197.79" y="-144.8" font-family="Times,serif" font-size="14.00">64%</text>
</g>
<!-- Société financière Bolloré -->
<g id="node4" class="node">
<title>Société financière Bolloré</title>
<ellipse fill="none" stroke="black" cx="184.79" cy="-279" rx="105.08" ry="18"/>
<text text-anchor="middle" x="184.79" y="-275.3" font-family="Times,serif" font-size="14.00">Société financière Bolloré</text>
</g>
<!-- Société financière Bolloré&#45;&gt;w:Financière_de_l&#39;Odet -->
<g id="edge3" class="edge">
<title>Société financière Bolloré&#45;&gt;w:Financière_de_l&#39;Odet</title>
<path fill="none" stroke="black" d="M184.79,-260.8C184.79,-249.16 184.79,-233.55 184.79,-220.24"/>
<polygon fill="black" stroke="black" points="188.29,-220.18 184.79,-210.18 181.29,-220.18 188.29,-220.18"/>
<text text-anchor="middle" x="197.79" y="-231.8" font-family="Times,serif" font-size="14.00">55%</text>
</g>
<!-- w:Vincent_Bolloré -->
<g id="node5" class="node">
<title>w:Vincent_Bolloré</title>
<ellipse fill="none" stroke="black" cx="184.79" cy="-366" rx="79.89" ry="18"/>
<text text-anchor="middle" x="184.79" y="-362.3" font-family="Times,serif" font-size="14.00">w:Vincent_Bolloré</text>
</g>
<!-- w:Vincent_Bolloré&#45;&gt;Société financière Bolloré -->
<g id="edge4" class="edge">
<title>w:Vincent_Bolloré&#45;&gt;Société financière Bolloré</title>
<path fill="none" stroke="black" d="M184.79,-347.8C184.79,-336.16 184.79,-320.55 184.79,-307.24"/>
<polygon fill="black" stroke="black" points="188.29,-307.18 184.79,-297.18 181.29,-307.18 188.29,-307.18"/>
<text text-anchor="middle" x="201.29" y="-318.8" font-family="Times,serif" font-size="14.00">100%</text>
</g>
<!-- w:Le_Monde -->
<g id="node6" class="node">
<title>w:Le_Monde</title>
<ellipse fill="none" stroke="black" cx="59.79" cy="-105" rx="59.59" ry="18"/>
<text text-anchor="middle" x="59.79" y="-101.3" font-family="Times,serif" font-size="14.00">w:Le_Monde</text>
</g>
<!-- w:Le_Monde&#45;&gt;CNews Matin -->
<g id="edge5" class="edge">
<title>w:Le_Monde&#45;&gt;CNews Matin</title>
<path fill="none" stroke="black" d="M64.65,-86.8C67.97,-75.05 72.43,-59.24 76.22,-45.84"/>
<polygon fill="black" stroke="black" points="79.6,-46.75 78.95,-36.18 72.86,-44.85 79.6,-46.75"/>
<text text-anchor="middle" x="85.79" y="-57.8" font-family="Times,serif" font-size="14.00">30%</text>
</g>
</g>
</svg>
