<?xml version="1.0" encoding="UTF-8" standalone="no"?>
<!DOCTYPE svg PUBLIC "-//W3C//DTD SVG 1.1//EN"
 "http://www.w3.org/Graphics/SVG/1.1/DTD/svg11.dtd">
<!-- Generated by graphviz version 2.49.3 (20211023.0002)
 -->
<!-- Title: G Pages: 1 -->
<svg width="808pt" height="131pt"
 viewBox="0.00 0.00 807.93 131.00" xmlns="http://www.w3.org/2000/svg" xmlns:xlink="http://www.w3.org/1999/xlink">
<g id="page0,1_graph0" class="graph" transform="scale(1 1) rotate(0) translate(4 127)">
<title>G</title>
<polygon fill="white" stroke="transparent" points="-4,4 -4,-127 803.93,-127 803.93,4 -4,4"/>
<!-- w:Benjamin_de_Rothschild -->
<g id="node1" class="node">
<title>w:Benjamin_de_Rothschild</title>
<ellipse fill="none" stroke="black" cx="112.44" cy="-105" rx="112.38" ry="18"/>
<text text-anchor="middle" x="112.44" y="-101.3" font-family="Times,serif" font-size="14.00">w:Benjamin_de_Rothschild</text>
</g>
<!-- Slate -->
<g id="node2" class="node">
<title>Slate</title>
<ellipse fill="none" stroke="black" cx="406.44" cy="-18" rx="28.7" ry="18"/>
<text text-anchor="middle" x="406.44" y="-14.3" font-family="Times,serif" font-size="14.00">Slate</text>
</g>
<!-- w:Benjamin_de_Rothschild&#45;&gt;Slate -->
<g id="edge1" class="edge">
<title>w:Benjamin_de_Rothschild&#45;&gt;Slate</title>
<path fill="none" stroke="black" d="M164.32,-89C223.82,-71.8 319.76,-44.06 371.19,-29.19"/>
<polygon fill="black" stroke="black" points="372.22,-32.54 380.85,-26.4 370.28,-25.81 372.22,-32.54"/>
<text text-anchor="middle" x="290.44" y="-57.8" font-family="Times,serif" font-size="14.00">29%</text>
</g>
<!-- Financière_Viveris -->
<g id="node3" class="node">
<title>Financière_Viveris</title>
<ellipse fill="none" stroke="black" cx="322.44" cy="-105" rx="79.89" ry="18"/>
<text text-anchor="middle" x="322.44" y="-101.3" font-family="Times,serif" font-size="14.00">Financière_Viveris</text>
</g>
<!-- Financière_Viveris&#45;&gt;Slate -->
<g id="edge2" class="edge">
<title>Financière_Viveris&#45;&gt;Slate</title>
<path fill="none" stroke="black" d="M339.04,-87.21C352.15,-73.94 370.55,-55.32 384.81,-40.89"/>
<polygon fill="black" stroke="black" points="387.3,-43.34 391.84,-33.77 382.32,-38.42 387.3,-43.34"/>
<text text-anchor="middle" x="383.44" y="-57.8" font-family="Times,serif" font-size="14.00">22%</text>
</g>
<!-- fondateurs_slate -->
<g id="node4" class="node">
<title>fondateurs_slate</title>
<ellipse fill="none" stroke="black" cx="490.44" cy="-105" rx="70.39" ry="18"/>
<text text-anchor="middle" x="490.44" y="-101.3" font-family="Times,serif" font-size="14.00">fondateurs_slate</text>
</g>
<!-- fondateurs_slate&#45;&gt;Slate -->
<g id="edge3" class="edge">
<title>fondateurs_slate&#45;&gt;Slate</title>
<path fill="none" stroke="black" d="M473.84,-87.21C460.73,-73.94 442.33,-55.32 428.07,-40.89"/>
<polygon fill="black" stroke="black" points="430.56,-38.42 421.04,-33.77 425.58,-43.34 430.56,-38.42"/>
<text text-anchor="middle" x="467.44" y="-57.8" font-family="Times,serif" font-size="14.00">25%</text>
</g>
<!-- actionnaires_externes_slate -->
<g id="node5" class="node">
<title>actionnaires_externes_slate</title>
<ellipse fill="none" stroke="black" cx="689.44" cy="-105" rx="110.48" ry="18"/>
<text text-anchor="middle" x="689.44" y="-101.3" font-family="Times,serif" font-size="14.00">actionnaires_externes_slate</text>
</g>
<!-- actionnaires_externes_slate&#45;&gt;Slate -->
<g id="edge4" class="edge">
<title>actionnaires_externes_slate&#45;&gt;Slate</title>
<path fill="none" stroke="black" d="M639.17,-88.9C582.26,-71.81 491.02,-44.4 441.38,-29.49"/>
<polygon fill="black" stroke="black" points="442.32,-26.12 431.73,-26.6 440.3,-32.83 442.32,-26.12"/>
<text text-anchor="middle" x="577.44" y="-57.8" font-family="Times,serif" font-size="14.00">24%</text>
</g>
</g>
</svg>
