<?xml version="1.0" encoding="UTF-8" standalone="no"?>
<!DOCTYPE svg PUBLIC "-//W3C//DTD SVG 1.1//EN"
 "http://www.w3.org/Graphics/SVG/1.1/DTD/svg11.dtd">
<!-- Generated by graphviz version 2.49.3 (20211023.0002)
 -->
<!-- Title: G Pages: 1 -->
<svg width="652pt" height="131pt"
 viewBox="0.00 0.00 652.24 131.00" xmlns="http://www.w3.org/2000/svg" xmlns:xlink="http://www.w3.org/1999/xlink">
<g id="page0,1_graph0" class="graph" transform="scale(1 1) rotate(0) translate(4 127)">
<title>G</title>
<polygon fill="white" stroke="transparent" points="-4,4 -4,-127 648.24,-127 648.24,4 -4,4"/>
<!-- w:Nicolas_Beytout -->
<g id="node1" class="node">
<title>w:Nicolas_Beytout</title>
<ellipse fill="none" stroke="black" cx="81.24" cy="-105" rx="81.49" ry="18"/>
<text text-anchor="middle" x="81.24" y="-101.3" font-family="Times,serif" font-size="14.00">w:Nicolas_Beytout</text>
</g>
<!-- l&#39;Opinion -->
<g id="node2" class="node">
<title>l&#39;Opinion</title>
<ellipse fill="none" stroke="black" cx="351.24" cy="-18" rx="44.69" ry="18"/>
<text text-anchor="middle" x="351.24" y="-14.3" font-family="Times,serif" font-size="14.00">l&#39;Opinion</text>
</g>
<!-- w:Nicolas_Beytout&#45;&gt;l&#39;Opinion -->
<g id="edge1" class="edge">
<title>w:Nicolas_Beytout&#45;&gt;l&#39;Opinion</title>
<path fill="none" stroke="black" d="M126.13,-89.87C176.46,-74.02 257.54,-48.5 307.42,-32.79"/>
<polygon fill="black" stroke="black" points="308.48,-36.13 316.97,-29.79 306.38,-29.46 308.48,-36.13"/>
<text text-anchor="middle" x="246.24" y="-57.8" font-family="Times,serif" font-size="14.00">30%</text>
</g>
<!-- w:Bernard_Arnault -->
<g id="node3" class="node">
<title>w:Bernard_Arnault</title>
<ellipse fill="none" stroke="black" cx="261.24" cy="-105" rx="81.49" ry="18"/>
<text text-anchor="middle" x="261.24" y="-101.3" font-family="Times,serif" font-size="14.00">w:Bernard_Arnault</text>
</g>
<!-- w:Bernard_Arnault&#45;&gt;l&#39;Opinion -->
<g id="edge2" class="edge">
<title>w:Bernard_Arnault&#45;&gt;l&#39;Opinion</title>
<path fill="none" stroke="black" d="M279.02,-87.21C292.72,-74.27 311.81,-56.24 326.92,-41.97"/>
<polygon fill="black" stroke="black" points="329.54,-44.31 334.41,-34.9 324.74,-39.22 329.54,-44.31"/>
<text text-anchor="middle" x="325.24" y="-57.8" font-family="Times,serif" font-size="14.00">44%</text>
</g>
<!-- Liliane Bettencourt -->
<g id="node4" class="node">
<title>Liliane Bettencourt</title>
<ellipse fill="none" stroke="black" cx="441.24" cy="-105" rx="81.49" ry="18"/>
<text text-anchor="middle" x="441.24" y="-101.3" font-family="Times,serif" font-size="14.00">Liliane Bettencourt</text>
</g>
<!-- Liliane Bettencourt&#45;&gt;l&#39;Opinion -->
<g id="edge3" class="edge">
<title>Liliane Bettencourt&#45;&gt;l&#39;Opinion</title>
<path fill="none" stroke="black" d="M423.46,-87.21C409.76,-74.27 390.68,-56.24 375.56,-41.97"/>
<polygon fill="black" stroke="black" points="377.75,-39.22 368.07,-34.9 372.94,-44.31 377.75,-39.22"/>
<text text-anchor="middle" x="415.24" y="-57.8" font-family="Times,serif" font-size="14.00">13%</text>
</g>
<!-- News Corp -->
<g id="node5" class="node">
<title>News Corp</title>
<ellipse fill="none" stroke="black" cx="592.24" cy="-105" rx="51.99" ry="18"/>
<text text-anchor="middle" x="592.24" y="-101.3" font-family="Times,serif" font-size="14.00">News Corp</text>
</g>
<!-- News Corp&#45;&gt;l&#39;Opinion -->
<g id="edge4" class="edge">
<title>News Corp&#45;&gt;l&#39;Opinion</title>
<path fill="none" stroke="black" d="M557.2,-91.64C513.81,-76.34 439.97,-50.29 393.49,-33.9"/>
<polygon fill="black" stroke="black" points="394.6,-30.58 384.01,-30.56 392.27,-37.18 394.6,-30.58"/>
<text text-anchor="middle" x="498.24" y="-57.8" font-family="Times,serif" font-size="14.00">15%</text>
</g>
</g>
</svg>
