<?xml version="1.0" encoding="UTF-8" standalone="no"?>
<!DOCTYPE svg PUBLIC "-//W3C//DTD SVG 1.1//EN"
 "http://www.w3.org/Graphics/SVG/1.1/DTD/svg11.dtd">
<!-- Generated by graphviz version 2.49.3 (20211023.0002)
 -->
<!-- Title: G Pages: 1 -->
<svg width="880pt" height="218pt"
 viewBox="0.00 0.00 879.64 218.00" xmlns="http://www.w3.org/2000/svg" xmlns:xlink="http://www.w3.org/1999/xlink">
<g id="page0,1_graph0" class="graph" transform="scale(1 1) rotate(0) translate(4 214)">
<title>G</title>
<polygon fill="white" stroke="transparent" points="-4,4 -4,-214 875.64,-214 875.64,4 -4,4"/>
<!-- Le Monde libre -->
<g id="node1" class="node">
<title>Le Monde libre</title>
<ellipse fill="none" stroke="black" cx="596.39" cy="-105" rx="67.69" ry="18"/>
<text text-anchor="middle" x="596.39" y="-101.3" font-family="Times,serif" font-size="14.00">Le Monde libre</text>
</g>
<!-- Le Monde -->
<g id="node2" class="node">
<title>Le Monde</title>
<ellipse fill="none" stroke="black" cx="439.39" cy="-18" rx="48.19" ry="18"/>
<text text-anchor="middle" x="439.39" y="-14.3" font-family="Times,serif" font-size="14.00">Le Monde</text>
</g>
<!-- Le Monde libre&#45;&gt;Le Monde -->
<g id="edge1" class="edge">
<title>Le Monde libre&#45;&gt;Le Monde</title>
<path fill="none" stroke="black" d="M567.96,-88.61C541.76,-74.42 502.79,-53.33 474.63,-38.08"/>
<polygon fill="black" stroke="black" points="475.99,-34.83 465.53,-33.15 472.65,-40.99 475.99,-34.83"/>
<text text-anchor="middle" x="540.39" y="-57.8" font-family="Times,serif" font-size="14.00">64%</text>
</g>
<!-- Pierre Bergé -->
<g id="node3" class="node">
<title>Pierre Bergé</title>
<ellipse fill="none" stroke="black" cx="448.39" cy="-192" rx="56.59" ry="18"/>
<text text-anchor="middle" x="448.39" y="-188.3" font-family="Times,serif" font-size="14.00">Pierre Bergé</text>
</g>
<!-- Pierre Bergé&#45;&gt;Le Monde libre -->
<g id="edge2" class="edge">
<title>Pierre Bergé&#45;&gt;Le Monde libre</title>
<path fill="none" stroke="black" d="M474.51,-176C498.34,-162.31 533.78,-141.96 560.31,-126.73"/>
<polygon fill="black" stroke="black" points="562.36,-129.58 569.28,-121.57 558.87,-123.51 562.36,-129.58"/>
<text text-anchor="middle" x="544.39" y="-144.8" font-family="Times,serif" font-size="14.00">26%</text>
</g>
<!-- Matthieu Pigasse -->
<g id="node4" class="node">
<title>Matthieu Pigasse</title>
<ellipse fill="none" stroke="black" cx="596.39" cy="-192" rx="73.39" ry="18"/>
<text text-anchor="middle" x="596.39" y="-188.3" font-family="Times,serif" font-size="14.00">Matthieu Pigasse</text>
</g>
<!-- Matthieu Pigasse&#45;&gt;Le Monde libre -->
<g id="edge3" class="edge">
<title>Matthieu Pigasse&#45;&gt;Le Monde libre</title>
<path fill="none" stroke="black" d="M596.39,-173.8C596.39,-162.16 596.39,-146.55 596.39,-133.24"/>
<polygon fill="black" stroke="black" points="599.89,-133.18 596.39,-123.18 592.89,-133.18 599.89,-133.18"/>
<text text-anchor="middle" x="609.39" y="-144.8" font-family="Times,serif" font-size="14.00">26%</text>
</g>
<!-- Xavier Niel -->
<g id="node5" class="node">
<title>Xavier Niel</title>
<ellipse fill="none" stroke="black" cx="741.39" cy="-192" rx="53.09" ry="18"/>
<text text-anchor="middle" x="741.39" y="-188.3" font-family="Times,serif" font-size="14.00">Xavier Niel</text>
</g>
<!-- Xavier Niel&#45;&gt;Le Monde libre -->
<g id="edge4" class="edge">
<title>Xavier Niel&#45;&gt;Le Monde libre</title>
<path fill="none" stroke="black" d="M715.8,-176C692.53,-162.36 657.96,-142.09 631.99,-126.87"/>
<polygon fill="black" stroke="black" points="633.6,-123.75 623.2,-121.71 630.06,-129.79 633.6,-123.75"/>
<text text-anchor="middle" x="691.39" y="-144.8" font-family="Times,serif" font-size="14.00">26%</text>
</g>
<!-- Prisa -->
<g id="node6" class="node">
<title>Prisa</title>
<ellipse fill="none" stroke="black" cx="842.39" cy="-192" rx="29.5" ry="18"/>
<text text-anchor="middle" x="842.39" y="-188.3" font-family="Times,serif" font-size="14.00">Prisa</text>
</g>
<!-- Prisa&#45;&gt;Le Monde libre -->
<g id="edge5" class="edge">
<title>Prisa&#45;&gt;Le Monde libre</title>
<path fill="none" stroke="black" d="M819.42,-180.64C814.18,-178.37 808.62,-176.04 803.39,-174 752.02,-153.92 692.02,-134.65 649.88,-121.79"/>
<polygon fill="black" stroke="black" points="650.69,-118.37 640.1,-118.82 648.65,-125.07 650.69,-118.37"/>
<text text-anchor="middle" x="766.39" y="-144.8" font-family="Times,serif" font-size="14.00">23%</text>
</g>
<!-- Le Monde partenaires et associés -->
<g id="node7" class="node">
<title>Le Monde partenaires et associés</title>
<ellipse fill="none" stroke="black" cx="284.39" cy="-105" rx="131.08" ry="18"/>
<text text-anchor="middle" x="284.39" y="-101.3" font-family="Times,serif" font-size="14.00">Le Monde partenaires et associés</text>
</g>
<!-- Le Monde partenaires et associés&#45;&gt;Le Monde -->
<g id="edge6" class="edge">
<title>Le Monde partenaires et associés&#45;&gt;Le Monde</title>
<path fill="none" stroke="black" d="M314.65,-87.41C340.34,-73.32 377.23,-53.09 404.23,-38.28"/>
<polygon fill="black" stroke="black" points="406.25,-41.17 413.34,-33.29 402.88,-35.03 406.25,-41.17"/>
<text text-anchor="middle" x="384.39" y="-57.8" font-family="Times,serif" font-size="14.00">34%</text>
</g>
<!-- Actionnaires internes -->
<g id="node8" class="node">
<title>Actionnaires internes</title>
<ellipse fill="none" stroke="black" cx="88.39" cy="-192" rx="88.28" ry="18"/>
<text text-anchor="middle" x="88.39" y="-188.3" font-family="Times,serif" font-size="14.00">Actionnaires internes</text>
</g>
<!-- Actionnaires internes&#45;&gt;Le Monde partenaires et associés -->
<g id="edge7" class="edge">
<title>Actionnaires internes&#45;&gt;Le Monde partenaires et associés</title>
<path fill="none" stroke="black" d="M124.34,-175.41C156.06,-161.65 202.51,-141.51 237.21,-126.46"/>
<polygon fill="black" stroke="black" points="238.88,-129.55 246.67,-122.36 236.1,-123.13 238.88,-129.55"/>
<text text-anchor="middle" x="211.39" y="-144.8" font-family="Times,serif" font-size="14.00">52%</text>
</g>
<!-- Actionnaires externes -->
<g id="node9" class="node">
<title>Actionnaires externes</title>
<ellipse fill="none" stroke="black" cx="284.39" cy="-192" rx="89.88" ry="18"/>
<text text-anchor="middle" x="284.39" y="-188.3" font-family="Times,serif" font-size="14.00">Actionnaires externes</text>
</g>
<!-- Actionnaires externes&#45;&gt;Le Monde partenaires et associés -->
<g id="edge8" class="edge">
<title>Actionnaires externes&#45;&gt;Le Monde partenaires et associés</title>
<path fill="none" stroke="black" d="M284.39,-173.8C284.39,-162.16 284.39,-146.55 284.39,-133.24"/>
<polygon fill="black" stroke="black" points="287.89,-133.18 284.39,-123.18 280.89,-133.18 287.89,-133.18"/>
<text text-anchor="middle" x="297.39" y="-144.8" font-family="Times,serif" font-size="14.00">48%</text>
</g>
</g>
</svg>
