<?xml version="1.0" encoding="UTF-8" standalone="no"?>
<!DOCTYPE svg PUBLIC "-//W3C//DTD SVG 1.1//EN"
 "http://www.w3.org/Graphics/SVG/1.1/DTD/svg11.dtd">
<!-- Generated by graphviz version 2.49.3 (20211023.0002)
 -->
<!-- Title: G Pages: 1 -->
<svg width="163pt" height="305pt"
 viewBox="0.00 0.00 162.69 305.00" xmlns="http://www.w3.org/2000/svg" xmlns:xlink="http://www.w3.org/1999/xlink">
<g id="page0,1_graph0" class="graph" transform="scale(1 1) rotate(0) translate(4 301)">
<title>G</title>
<polygon fill="white" stroke="transparent" points="-4,4 -4,-301 158.69,-301 158.69,4 -4,4"/>
<!-- Groupe Artémis -->
<g id="node1" class="node">
<title>Groupe Artémis</title>
<ellipse fill="none" stroke="black" cx="77.34" cy="-105" rx="68.79" ry="18"/>
<text text-anchor="middle" x="77.34" y="-101.3" font-family="Times,serif" font-size="14.00">Groupe Artémis</text>
</g>
<!-- Le Point -->
<g id="node2" class="node">
<title>Le Point</title>
<ellipse fill="none" stroke="black" cx="77.34" cy="-18" rx="41.69" ry="18"/>
<text text-anchor="middle" x="77.34" y="-14.3" font-family="Times,serif" font-size="14.00">Le Point</text>
</g>
<!-- Groupe Artémis&#45;&gt;Le Point -->
<g id="edge1" class="edge">
<title>Groupe Artémis&#45;&gt;Le Point</title>
<path fill="none" stroke="black" d="M77.34,-86.8C77.34,-75.16 77.34,-59.55 77.34,-46.24"/>
<polygon fill="black" stroke="black" points="80.84,-46.18 77.34,-36.18 73.84,-46.18 80.84,-46.18"/>
<text text-anchor="middle" x="93.84" y="-57.8" font-family="Times,serif" font-size="14.00">100%</text>
</g>
<!-- Financière Pinault -->
<g id="node3" class="node">
<title>Financière Pinault</title>
<ellipse fill="none" stroke="black" cx="77.34" cy="-192" rx="77.19" ry="18"/>
<text text-anchor="middle" x="77.34" y="-188.3" font-family="Times,serif" font-size="14.00">Financière Pinault</text>
</g>
<!-- Financière Pinault&#45;&gt;Groupe Artémis -->
<g id="edge2" class="edge">
<title>Financière Pinault&#45;&gt;Groupe Artémis</title>
<path fill="none" stroke="black" d="M77.34,-173.8C77.34,-162.16 77.34,-146.55 77.34,-133.24"/>
<polygon fill="black" stroke="black" points="80.84,-133.18 77.34,-123.18 73.84,-133.18 80.84,-133.18"/>
<text text-anchor="middle" x="93.84" y="-144.8" font-family="Times,serif" font-size="14.00">100%</text>
</g>
<!-- François Pinault -->
<g id="node4" class="node">
<title>François Pinault</title>
<ellipse fill="none" stroke="black" cx="77.34" cy="-279" rx="70.39" ry="18"/>
<text text-anchor="middle" x="77.34" y="-275.3" font-family="Times,serif" font-size="14.00">François Pinault</text>
</g>
<!-- François Pinault&#45;&gt;Financière Pinault -->
<g id="edge3" class="edge">
<title>François Pinault&#45;&gt;Financière Pinault</title>
<path fill="none" stroke="black" d="M77.34,-260.8C77.34,-249.16 77.34,-233.55 77.34,-220.24"/>
<polygon fill="black" stroke="black" points="80.84,-220.18 77.34,-210.18 73.84,-220.18 80.84,-220.18"/>
<text text-anchor="middle" x="93.84" y="-231.8" font-family="Times,serif" font-size="14.00">100%</text>
</g>
</g>
</svg>
