<?xml version="1.0" encoding="UTF-8" standalone="no"?>
<!DOCTYPE svg PUBLIC "-//W3C//DTD SVG 1.1//EN"
 "http://www.w3.org/Graphics/SVG/1.1/DTD/svg11.dtd">
<!-- Generated by graphviz version 2.49.3 (20211023.0002)
 -->
<!-- Title: G Pages: 1 -->
<svg width="592pt" height="218pt"
 viewBox="0.00 0.00 591.65 218.00" xmlns="http://www.w3.org/2000/svg" xmlns:xlink="http://www.w3.org/1999/xlink">
<g id="page0,1_graph0" class="graph" transform="scale(1 1) rotate(0) translate(4 214)">
<title>G</title>
<polygon fill="white" stroke="transparent" points="-4,4 -4,-214 587.65,-214 587.65,4 -4,4"/>
<!-- w:Groupe_SIPA_&#45;_Ouest&#45;France -->
<g id="node1" class="node">
<title>w:Groupe_SIPA_&#45;_Ouest&#45;France</title>
<ellipse fill="none" stroke="black" cx="291.82" cy="-105" rx="131.88" ry="18"/>
<text text-anchor="middle" x="291.82" y="-101.3" font-family="Times,serif" font-size="14.00">w:Groupe_SIPA_&#45;_Ouest&#45;France</text>
</g>
<!-- w:Ouest&#45;France -->
<g id="node2" class="node">
<title>w:Ouest&#45;France</title>
<ellipse fill="none" stroke="black" cx="291.82" cy="-18" rx="68.79" ry="18"/>
<text text-anchor="middle" x="291.82" y="-14.3" font-family="Times,serif" font-size="14.00">w:Ouest&#45;France</text>
</g>
<!-- w:Groupe_SIPA_&#45;_Ouest&#45;France&#45;&gt;w:Ouest&#45;France -->
<g id="edge1" class="edge">
<title>w:Groupe_SIPA_&#45;_Ouest&#45;France&#45;&gt;w:Ouest&#45;France</title>
<path fill="none" stroke="black" d="M291.82,-86.8C291.82,-75.16 291.82,-59.55 291.82,-46.24"/>
<polygon fill="black" stroke="black" points="295.32,-46.18 291.82,-36.18 288.32,-46.18 295.32,-46.18"/>
<text text-anchor="middle" x="308.32" y="-57.8" font-family="Times,serif" font-size="14.00">100%</text>
</g>
<!-- w:Association_pour_le_soutien_des_principes_de_la_démocratie_humaniste -->
<g id="node3" class="node">
<title>w:Association_pour_le_soutien_des_principes_de_la_démocratie_humaniste</title>
<ellipse fill="none" stroke="black" cx="291.82" cy="-192" rx="291.65" ry="18"/>
<text text-anchor="middle" x="291.82" y="-188.3" font-family="Times,serif" font-size="14.00">w:Association_pour_le_soutien_des_principes_de_la_démocratie_humaniste</text>
</g>
<!-- w:Association_pour_le_soutien_des_principes_de_la_démocratie_humaniste&#45;&gt;w:Groupe_SIPA_&#45;_Ouest&#45;France -->
<g id="edge2" class="edge">
<title>w:Association_pour_le_soutien_des_principes_de_la_démocratie_humaniste&#45;&gt;w:Groupe_SIPA_&#45;_Ouest&#45;France</title>
<path fill="none" stroke="black" d="M291.82,-173.8C291.82,-162.16 291.82,-146.55 291.82,-133.24"/>
<polygon fill="black" stroke="black" points="295.32,-133.18 291.82,-123.18 288.32,-133.18 295.32,-133.18"/>
<text text-anchor="middle" x="308.32" y="-144.8" font-family="Times,serif" font-size="14.00">100%</text>
</g>
</g>
</svg>
