<?xml version="1.0" encoding="UTF-8" standalone="no"?>
<!DOCTYPE svg PUBLIC "-//W3C//DTD SVG 1.1//EN"
 "http://www.w3.org/Graphics/SVG/1.1/DTD/svg11.dtd">
<!-- Generated by graphviz version 2.49.3 (20211023.0002)
 -->
<!-- Title: G Pages: 1 -->
<svg width="1297pt" height="131pt"
 viewBox="0.00 0.00 1297.23 131.00" xmlns="http://www.w3.org/2000/svg" xmlns:xlink="http://www.w3.org/1999/xlink">
<g id="page0,1_graph0" class="graph" transform="scale(1 1) rotate(0) translate(4 127)">
<title>G</title>
<polygon fill="white" stroke="transparent" points="-4,4 -4,-127 1293.23,-127 1293.23,4 -4,4"/>
<!-- Fondateurs Les Jours -->
<g id="node1" class="node">
<title>Fondateurs Les Jours</title>
<ellipse fill="none" stroke="black" cx="87.74" cy="-105" rx="87.99" ry="18"/>
<text text-anchor="middle" x="87.74" y="-101.3" font-family="Times,serif" font-size="14.00">Fondateurs Les Jours</text>
</g>
<!-- Les Jours -->
<g id="node2" class="node">
<title>Les Jours</title>
<ellipse fill="none" stroke="black" cx="588.74" cy="-18" rx="45.49" ry="18"/>
<text text-anchor="middle" x="588.74" y="-14.3" font-family="Times,serif" font-size="14.00">Les Jours</text>
</g>
<!-- Fondateurs Les Jours&#45;&gt;Les Jours -->
<g id="edge1" class="edge">
<title>Fondateurs Les Jours&#45;&gt;Les Jours</title>
<path fill="none" stroke="black" d="M148.57,-92.02C202.82,-81.48 284.45,-66 355.74,-54 417.75,-43.56 489.3,-33.04 536.58,-26.3"/>
<polygon fill="black" stroke="black" points="537.17,-29.75 546.58,-24.88 536.19,-22.82 537.17,-29.75"/>
<text text-anchor="middle" x="368.74" y="-57.8" font-family="Times,serif" font-size="14.00">89%</text>
</g>
<!-- Xavier Niel -->
<g id="node3" class="node">
<title>Xavier Niel</title>
<ellipse fill="none" stroke="black" cx="246.74" cy="-105" rx="53.09" ry="18"/>
<text text-anchor="middle" x="246.74" y="-101.3" font-family="Times,serif" font-size="14.00">Xavier Niel</text>
</g>
<!-- Xavier Niel&#45;&gt;Les Jours -->
<g id="edge2" class="edge">
<title>Xavier Niel&#45;&gt;Les Jours</title>
<path fill="none" stroke="black" d="M286.39,-92.94C293.81,-90.93 301.5,-88.87 308.74,-87 389.9,-66.02 484.78,-43.37 540.65,-30.23"/>
<polygon fill="black" stroke="black" points="541.68,-33.58 550.61,-27.89 540.08,-26.77 541.68,-33.58"/>
<text text-anchor="middle" x="449.24" y="-57.8" font-family="Times,serif" font-size="14.00">3%</text>
</g>
<!-- w:Olivier_Legrain -->
<g id="node4" class="node">
<title>w:Olivier_Legrain</title>
<ellipse fill="none" stroke="black" cx="396.74" cy="-105" rx="78.79" ry="18"/>
<text text-anchor="middle" x="396.74" y="-101.3" font-family="Times,serif" font-size="14.00">w:Olivier_Legrain</text>
</g>
<!-- w:Olivier_Legrain&#45;&gt;Les Jours -->
<g id="edge3" class="edge">
<title>w:Olivier_Legrain&#45;&gt;Les Jours</title>
<path fill="none" stroke="black" d="M431.07,-88.8C464.49,-74.01 515.21,-51.55 550.05,-36.13"/>
<polygon fill="black" stroke="black" points="551.7,-39.23 559.43,-31.98 548.87,-32.83 551.7,-39.23"/>
<text text-anchor="middle" x="514.24" y="-57.8" font-family="Times,serif" font-size="14.00">2%</text>
</g>
<!-- w:Marc&#45;Olivier_Fogiel -->
<g id="node5" class="node">
<title>w:Marc&#45;Olivier_Fogiel</title>
<ellipse fill="none" stroke="black" cx="588.74" cy="-105" rx="95.58" ry="18"/>
<text text-anchor="middle" x="588.74" y="-101.3" font-family="Times,serif" font-size="14.00">w:Marc&#45;Olivier_Fogiel</text>
</g>
<!-- w:Marc&#45;Olivier_Fogiel&#45;&gt;Les Jours -->
<g id="edge4" class="edge">
<title>w:Marc&#45;Olivier_Fogiel&#45;&gt;Les Jours</title>
<path fill="none" stroke="black" d="M588.74,-86.8C588.74,-75.16 588.74,-59.55 588.74,-46.24"/>
<polygon fill="black" stroke="black" points="592.24,-46.18 588.74,-36.18 585.24,-46.18 592.24,-46.18"/>
<text text-anchor="middle" x="598.24" y="-57.8" font-family="Times,serif" font-size="14.00">1%</text>
</g>
<!-- w:Pierre&#45;Antoine_Capton -->
<g id="node6" class="node">
<title>w:Pierre&#45;Antoine_Capton</title>
<ellipse fill="none" stroke="black" cx="806.74" cy="-105" rx="104.78" ry="18"/>
<text text-anchor="middle" x="806.74" y="-101.3" font-family="Times,serif" font-size="14.00">w:Pierre&#45;Antoine_Capton</text>
</g>
<!-- w:Pierre&#45;Antoine_Capton&#45;&gt;Les Jours -->
<g id="edge5" class="edge">
<title>w:Pierre&#45;Antoine_Capton&#45;&gt;Les Jours</title>
<path fill="none" stroke="black" d="M766.5,-88.31C727.49,-73.1 668.61,-50.14 629.44,-34.87"/>
<polygon fill="black" stroke="black" points="630.52,-31.53 619.93,-31.16 627.97,-38.05 630.52,-31.53"/>
<text text-anchor="middle" x="721.24" y="-57.8" font-family="Times,serif" font-size="14.00">1%</text>
</g>
<!-- Matthieu Pigasse -->
<g id="node7" class="node">
<title>Matthieu Pigasse</title>
<ellipse fill="none" stroke="black" cx="1002.74" cy="-105" rx="73.39" ry="18"/>
<text text-anchor="middle" x="1002.74" y="-101.3" font-family="Times,serif" font-size="14.00">Matthieu Pigasse</text>
</g>
<!-- Matthieu Pigasse&#45;&gt;Les Jours -->
<g id="edge6" class="edge">
<title>Matthieu Pigasse&#45;&gt;Les Jours</title>
<path fill="none" stroke="black" d="M948.49,-92.73C939.23,-90.82 929.71,-88.85 920.74,-87 820.37,-66.32 702.89,-42.3 638.04,-29.06"/>
<polygon fill="black" stroke="black" points="638.6,-25.6 628.1,-27.03 637.2,-32.46 638.6,-25.6"/>
<text text-anchor="middle" x="839.24" y="-57.8" font-family="Times,serif" font-size="14.00">1%</text>
</g>
<!-- Famille_amis_les_jours -->
<g id="node8" class="node">
<title>Famille_amis_les_jours</title>
<ellipse fill="none" stroke="black" cx="1191.74" cy="-105" rx="97.48" ry="18"/>
<text text-anchor="middle" x="1191.74" y="-101.3" font-family="Times,serif" font-size="14.00">Famille_amis_les_jours</text>
</g>
<!-- Famille_amis_les_jours&#45;&gt;Les Jours -->
<g id="edge7" class="edge">
<title>Famille_amis_les_jours&#45;&gt;Les Jours</title>
<path fill="none" stroke="black" d="M1120.97,-92.59C1108.89,-90.69 1096.46,-88.76 1084.74,-87 923.36,-62.7 731.89,-37.47 641.28,-25.74"/>
<polygon fill="black" stroke="black" points="641.63,-22.26 631.26,-24.44 640.73,-29.2 641.63,-22.26"/>
<text text-anchor="middle" x="957.24" y="-57.8" font-family="Times,serif" font-size="14.00">1%</text>
</g>
</g>
</svg>
