<?xml version="1.0" encoding="UTF-8" standalone="no"?>
<!DOCTYPE svg PUBLIC "-//W3C//DTD SVG 1.1//EN"
 "http://www.w3.org/Graphics/SVG/1.1/DTD/svg11.dtd">
<!-- Generated by graphviz version 2.49.3 (20211023.0002)
 -->
<!-- Title: G Pages: 1 -->
<svg width="563pt" height="218pt"
 viewBox="0.00 0.00 562.94 218.00" xmlns="http://www.w3.org/2000/svg" xmlns:xlink="http://www.w3.org/1999/xlink">
<g id="page0,1_graph0" class="graph" transform="scale(1 1) rotate(0) translate(4 214)">
<title>G</title>
<polygon fill="white" stroke="transparent" points="-4,4 -4,-214 558.94,-214 558.94,4 -4,4"/>
<!-- Les nouvelles éditions indépendantes -->
<g id="node1" class="node">
<title>Les nouvelles éditions indépendantes</title>
<ellipse fill="none" stroke="black" cx="359.79" cy="-105" rx="146.47" ry="18"/>
<text text-anchor="middle" x="359.79" y="-101.3" font-family="Times,serif" font-size="14.00">Les nouvelles éditions indépendantes</text>
</g>
<!-- Huffington Post -->
<g id="node2" class="node">
<title>Huffington Post</title>
<ellipse fill="none" stroke="black" cx="166.79" cy="-18" rx="68.79" ry="18"/>
<text text-anchor="middle" x="166.79" y="-14.3" font-family="Times,serif" font-size="14.00">Huffington Post</text>
</g>
<!-- Les nouvelles éditions indépendantes&#45;&gt;Huffington Post -->
<g id="edge1" class="edge">
<title>Les nouvelles éditions indépendantes&#45;&gt;Huffington Post</title>
<path fill="none" stroke="black" d="M322.12,-87.41C289.97,-73.25 243.74,-52.89 210.07,-38.06"/>
<polygon fill="black" stroke="black" points="211.06,-34.67 200.5,-33.84 208.24,-41.08 211.06,-34.67"/>
<text text-anchor="middle" x="288.79" y="-57.8" font-family="Times,serif" font-size="14.00">11%</text>
</g>
<!-- Matthieu Pigasse -->
<g id="node3" class="node">
<title>Matthieu Pigasse</title>
<ellipse fill="none" stroke="black" cx="235.79" cy="-192" rx="73.39" ry="18"/>
<text text-anchor="middle" x="235.79" y="-188.3" font-family="Times,serif" font-size="14.00">Matthieu Pigasse</text>
</g>
<!-- Matthieu Pigasse&#45;&gt;Les nouvelles éditions indépendantes -->
<g id="edge2" class="edge">
<title>Matthieu Pigasse&#45;&gt;Les nouvelles éditions indépendantes</title>
<path fill="none" stroke="black" d="M259.41,-174.81C278.43,-161.77 305.4,-143.29 326.6,-128.76"/>
<polygon fill="black" stroke="black" points="328.72,-131.54 334.99,-123 324.77,-125.77 328.72,-131.54"/>
<text text-anchor="middle" x="318.79" y="-144.8" font-family="Times,serif" font-size="14.00">78%</text>
</g>
<!-- orium -->
<g id="node4" class="node">
<title>orium</title>
<ellipse fill="none" stroke="black" cx="359.79" cy="-192" rx="32.49" ry="18"/>
<text text-anchor="middle" x="359.79" y="-188.3" font-family="Times,serif" font-size="14.00">orium</text>
</g>
<!-- orium&#45;&gt;Les nouvelles éditions indépendantes -->
<g id="edge3" class="edge">
<title>orium&#45;&gt;Les nouvelles éditions indépendantes</title>
<path fill="none" stroke="black" d="M359.79,-173.8C359.79,-162.16 359.79,-146.55 359.79,-133.24"/>
<polygon fill="black" stroke="black" points="363.29,-133.18 359.79,-123.18 356.29,-133.18 363.29,-133.18"/>
<text text-anchor="middle" x="372.79" y="-144.8" font-family="Times,serif" font-size="14.00">18%</text>
</g>
<!-- Christian_Fevret -->
<g id="node5" class="node">
<title>Christian_Fevret</title>
<ellipse fill="none" stroke="black" cx="482.79" cy="-192" rx="72.29" ry="18"/>
<text text-anchor="middle" x="482.79" y="-188.3" font-family="Times,serif" font-size="14.00">Christian_Fevret</text>
</g>
<!-- Christian_Fevret&#45;&gt;Les nouvelles éditions indépendantes -->
<g id="edge4" class="edge">
<title>Christian_Fevret&#45;&gt;Les nouvelles éditions indépendantes</title>
<path fill="none" stroke="black" d="M459.37,-174.81C440.5,-161.77 413.75,-143.29 392.73,-128.76"/>
<polygon fill="black" stroke="black" points="394.61,-125.81 384.4,-123 390.63,-131.57 394.61,-125.81"/>
<text text-anchor="middle" x="437.29" y="-144.8" font-family="Times,serif" font-size="14.00">2%</text>
</g>
<!-- w:Le_Monde -->
<g id="node6" class="node">
<title>w:Le_Monde</title>
<ellipse fill="none" stroke="black" cx="59.79" cy="-105" rx="59.59" ry="18"/>
<text text-anchor="middle" x="59.79" y="-101.3" font-family="Times,serif" font-size="14.00">w:Le_Monde</text>
</g>
<!-- w:Le_Monde&#45;&gt;Huffington Post -->
<g id="edge5" class="edge">
<title>w:Le_Monde&#45;&gt;Huffington Post</title>
<path fill="none" stroke="black" d="M79.92,-88.01C96.4,-74.92 119.93,-56.23 138.34,-41.6"/>
<polygon fill="black" stroke="black" points="140.74,-44.17 146.4,-35.21 136.39,-38.68 140.74,-44.17"/>
<text text-anchor="middle" x="132.79" y="-57.8" font-family="Times,serif" font-size="14.00">34%</text>
</g>
<!-- AOL -->
<g id="node7" class="node">
<title>AOL</title>
<ellipse fill="none" stroke="black" cx="166.79" cy="-105" rx="29.5" ry="18"/>
<text text-anchor="middle" x="166.79" y="-101.3" font-family="Times,serif" font-size="14.00">AOL</text>
</g>
<!-- AOL&#45;&gt;Huffington Post -->
<g id="edge6" class="edge">
<title>AOL&#45;&gt;Huffington Post</title>
<path fill="none" stroke="black" d="M166.79,-86.8C166.79,-75.16 166.79,-59.55 166.79,-46.24"/>
<polygon fill="black" stroke="black" points="170.29,-46.18 166.79,-36.18 163.29,-46.18 170.29,-46.18"/>
<text text-anchor="middle" x="179.79" y="-57.8" font-family="Times,serif" font-size="14.00">51%</text>
</g>
</g>
</svg>
