<?xml version="1.0" encoding="UTF-8" standalone="no"?>
<!DOCTYPE svg PUBLIC "-//W3C//DTD SVG 1.1//EN"
 "http://www.w3.org/Graphics/SVG/1.1/DTD/svg11.dtd">
<!-- Generated by graphviz version 2.49.3 (20211023.0002)
 -->
<!-- Title: G Pages: 1 -->
<svg width="1163pt" height="131pt"
 viewBox="0.00 0.00 1163.33 131.00" xmlns="http://www.w3.org/2000/svg" xmlns:xlink="http://www.w3.org/1999/xlink">
<g id="page0,1_graph0" class="graph" transform="scale(1 1) rotate(0) translate(4 127)">
<title>G</title>
<polygon fill="white" stroke="transparent" points="-4,4 -4,-127 1159.33,-127 1159.33,4 -4,4"/>
<!-- salariés_altereco -->
<g id="node1" class="node">
<title>salariés_altereco</title>
<ellipse fill="none" stroke="black" cx="71.49" cy="-105" rx="71.49" ry="18"/>
<text text-anchor="middle" x="71.49" y="-101.3" font-family="Times,serif" font-size="14.00">salariés_altereco</text>
</g>
<!-- w:Alternatives_économiques -->
<g id="node2" class="node">
<title>w:Alternatives_économiques</title>
<ellipse fill="none" stroke="black" cx="549.49" cy="-18" rx="116.98" ry="18"/>
<text text-anchor="middle" x="549.49" y="-14.3" font-family="Times,serif" font-size="14.00">w:Alternatives_économiques</text>
</g>
<!-- salariés_altereco&#45;&gt;w:Alternatives_économiques -->
<g id="edge1" class="edge">
<title>salariés_altereco&#45;&gt;w:Alternatives_économiques</title>
<path fill="none" stroke="black" d="M123.5,-92.63C132.81,-90.69 142.43,-88.74 151.49,-87 257.62,-66.67 380.26,-46.16 461.03,-33.07"/>
<polygon fill="black" stroke="black" points="461.85,-36.48 471.16,-31.43 460.73,-29.57 461.85,-36.48"/>
<text text-anchor="middle" x="339.49" y="-57.8" font-family="Times,serif" font-size="14.00">62%</text>
</g>
<!-- société_civile_lecteurs_altereco -->
<g id="node3" class="node">
<title>société_civile_lecteurs_altereco</title>
<ellipse fill="none" stroke="black" cx="287.49" cy="-105" rx="126.98" ry="18"/>
<text text-anchor="middle" x="287.49" y="-101.3" font-family="Times,serif" font-size="14.00">société_civile_lecteurs_altereco</text>
</g>
<!-- société_civile_lecteurs_altereco&#45;&gt;w:Alternatives_économiques -->
<g id="edge2" class="edge">
<title>société_civile_lecteurs_altereco&#45;&gt;w:Alternatives_économiques</title>
<path fill="none" stroke="black" d="M335.85,-88.31C380.03,-73.98 445.39,-52.77 492.17,-37.6"/>
<polygon fill="black" stroke="black" points="493.43,-40.87 501.86,-34.45 491.27,-34.21 493.43,-40.87"/>
<text text-anchor="middle" x="447.49" y="-57.8" font-family="Times,serif" font-size="14.00">22%</text>
</g>
<!-- association_lecteurs_altereco -->
<g id="node4" class="node">
<title>association_lecteurs_altereco</title>
<ellipse fill="none" stroke="black" cx="549.49" cy="-105" rx="117.78" ry="18"/>
<text text-anchor="middle" x="549.49" y="-101.3" font-family="Times,serif" font-size="14.00">association_lecteurs_altereco</text>
</g>
<!-- association_lecteurs_altereco&#45;&gt;w:Alternatives_économiques -->
<g id="edge3" class="edge">
<title>association_lecteurs_altereco&#45;&gt;w:Alternatives_économiques</title>
<path fill="none" stroke="black" d="M549.49,-86.8C549.49,-75.16 549.49,-59.55 549.49,-46.24"/>
<polygon fill="black" stroke="black" points="552.99,-46.18 549.49,-36.18 545.99,-46.18 552.99,-46.18"/>
<text text-anchor="middle" x="558.99" y="-57.8" font-family="Times,serif" font-size="14.00">1%</text>
</g>
<!-- anciens_salariés_altereco -->
<g id="node5" class="node">
<title>anciens_salariés_altereco</title>
<ellipse fill="none" stroke="black" cx="788.49" cy="-105" rx="103.18" ry="18"/>
<text text-anchor="middle" x="788.49" y="-101.3" font-family="Times,serif" font-size="14.00">anciens_salariés_altereco</text>
</g>
<!-- anciens_salariés_altereco&#45;&gt;w:Alternatives_économiques -->
<g id="edge4" class="edge">
<title>anciens_salariés_altereco&#45;&gt;w:Alternatives_économiques</title>
<path fill="none" stroke="black" d="M745.21,-88.61C705.32,-74.42 645.97,-53.31 603.1,-38.06"/>
<polygon fill="black" stroke="black" points="604.26,-34.76 593.67,-34.71 601.92,-41.36 604.26,-34.76"/>
<text text-anchor="middle" x="692.99" y="-57.8" font-family="Times,serif" font-size="14.00">3%</text>
</g>
<!-- actionnaires_externes_altereco -->
<g id="node6" class="node">
<title>actionnaires_externes_altereco</title>
<ellipse fill="none" stroke="black" cx="1032.49" cy="-105" rx="122.68" ry="18"/>
<text text-anchor="middle" x="1032.49" y="-101.3" font-family="Times,serif" font-size="14.00">actionnaires_externes_altereco</text>
</g>
<!-- actionnaires_externes_altereco&#45;&gt;w:Alternatives_économiques -->
<g id="edge5" class="edge">
<title>actionnaires_externes_altereco&#45;&gt;w:Alternatives_économiques</title>
<path fill="none" stroke="black" d="M957.29,-90.77C869.5,-75.32 724.73,-49.84 633.37,-33.76"/>
<polygon fill="black" stroke="black" points="633.79,-30.28 623.33,-31.99 632.57,-37.17 633.79,-30.28"/>
<text text-anchor="middle" x="833.49" y="-57.8" font-family="Times,serif" font-size="14.00">12%</text>
</g>
</g>
</svg>
