<?xml version="1.0" encoding="UTF-8" standalone="no"?>
<!DOCTYPE svg PUBLIC "-//W3C//DTD SVG 1.1//EN"
 "http://www.w3.org/Graphics/SVG/1.1/DTD/svg11.dtd">
<!-- Generated by graphviz version 2.49.3 (20211023.0002)
 -->
<!-- Title: G Pages: 1 -->
<svg width="689pt" height="218pt"
 viewBox="0.00 0.00 689.38 218.00" xmlns="http://www.w3.org/2000/svg" xmlns:xlink="http://www.w3.org/1999/xlink">
<g id="page0,1_graph0" class="graph" transform="scale(1 1) rotate(0) translate(4 214)">
<title>G</title>
<polygon fill="white" stroke="transparent" points="-4,4 -4,-214 685.38,-214 685.38,4 -4,4"/>
<!-- fondateurs_mediapart -->
<g id="node1" class="node">
<title>fondateurs_mediapart</title>
<ellipse fill="none" stroke="black" cx="497.79" cy="-105" rx="90.18" ry="18"/>
<text text-anchor="middle" x="497.79" y="-101.3" font-family="Times,serif" font-size="14.00">fondateurs_mediapart</text>
</g>
<!-- w:Mediapart -->
<g id="node2" class="node">
<title>w:Mediapart</title>
<ellipse fill="none" stroke="black" cx="312.79" cy="-18" rx="57.39" ry="18"/>
<text text-anchor="middle" x="312.79" y="-14.3" font-family="Times,serif" font-size="14.00">w:Mediapart</text>
</g>
<!-- fondateurs_mediapart&#45;&gt;w:Mediapart -->
<g id="edge1" class="edge">
<title>fondateurs_mediapart&#45;&gt;w:Mediapart</title>
<path fill="none" stroke="black" d="M463.43,-88.21C432.23,-73.88 386.2,-52.73 353.24,-37.59"/>
<polygon fill="black" stroke="black" points="354.44,-34.28 343.89,-33.29 351.52,-40.65 354.44,-34.28"/>
<text text-anchor="middle" x="429.79" y="-57.8" font-family="Times,serif" font-size="14.00">37%</text>
</g>
<!-- w:Edwy_Plenel -->
<g id="node3" class="node">
<title>w:Edwy_Plenel</title>
<ellipse fill="none" stroke="black" cx="407.79" cy="-192" rx="68.49" ry="18"/>
<text text-anchor="middle" x="407.79" y="-188.3" font-family="Times,serif" font-size="14.00">w:Edwy_Plenel</text>
</g>
<!-- w:Edwy_Plenel&#45;&gt;fondateurs_mediapart -->
<g id="edge2" class="edge">
<title>w:Edwy_Plenel&#45;&gt;fondateurs_mediapart</title>
<path fill="none" stroke="black" d="M425.57,-174.21C439.01,-161.52 457.63,-143.93 472.6,-129.79"/>
<polygon fill="black" stroke="black" points="475.18,-132.17 480.05,-122.76 470.37,-127.08 475.18,-132.17"/>
<text text-anchor="middle" x="471.79" y="-144.8" font-family="Times,serif" font-size="14.00">42%</text>
</g>
<!-- Marie&#45;Hélène Smiejan -->
<g id="node4" class="node">
<title>Marie&#45;Hélène Smiejan</title>
<ellipse fill="none" stroke="black" cx="587.79" cy="-192" rx="93.68" ry="18"/>
<text text-anchor="middle" x="587.79" y="-188.3" font-family="Times,serif" font-size="14.00">Marie&#45;Hélène Smiejan</text>
</g>
<!-- Marie&#45;Hélène Smiejan&#45;&gt;fondateurs_mediapart -->
<g id="edge3" class="edge">
<title>Marie&#45;Hélène Smiejan&#45;&gt;fondateurs_mediapart</title>
<path fill="none" stroke="black" d="M570.01,-174.21C556.57,-161.52 537.95,-143.93 522.98,-129.79"/>
<polygon fill="black" stroke="black" points="525.21,-127.08 515.54,-122.76 520.4,-132.17 525.21,-127.08"/>
<text text-anchor="middle" x="561.79" y="-144.8" font-family="Times,serif" font-size="14.00">42%</text>
</g>
<!-- société_amis_mediapart -->
<g id="node5" class="node">
<title>société_amis_mediapart</title>
<ellipse fill="none" stroke="black" cx="98.79" cy="-105" rx="98.58" ry="18"/>
<text text-anchor="middle" x="98.79" y="-101.3" font-family="Times,serif" font-size="14.00">société_amis_mediapart</text>
</g>
<!-- société_amis_mediapart&#45;&gt;w:Mediapart -->
<g id="edge4" class="edge">
<title>société_amis_mediapart&#45;&gt;w:Mediapart</title>
<path fill="none" stroke="black" d="M138.04,-88.41C175.2,-73.65 230.86,-51.54 269.34,-36.26"/>
<polygon fill="black" stroke="black" points="270.73,-39.47 278.73,-32.53 268.14,-32.97 270.73,-39.47"/>
<text text-anchor="middle" x="231.79" y="-57.8" font-family="Times,serif" font-size="14.00">15%</text>
</g>
<!-- w:Xavier_Niel -->
<g id="node6" class="node">
<title>w:Xavier_Niel</title>
<ellipse fill="none" stroke="black" cx="98.79" cy="-192" rx="64.99" ry="18"/>
<text text-anchor="middle" x="98.79" y="-188.3" font-family="Times,serif" font-size="14.00">w:Xavier_Niel</text>
</g>
<!-- w:Xavier_Niel&#45;&gt;société_amis_mediapart -->
<g id="edge5" class="edge">
<title>w:Xavier_Niel&#45;&gt;société_amis_mediapart</title>
<path fill="none" stroke="black" d="M98.79,-173.8C98.79,-162.16 98.79,-146.55 98.79,-133.24"/>
<polygon fill="black" stroke="black" points="102.29,-133.18 98.79,-123.18 95.29,-133.18 102.29,-133.18"/>
<text text-anchor="middle" x="111.79" y="-144.8" font-family="Times,serif" font-size="14.00">40%</text>
</g>
<!-- ecofinance -->
<g id="node7" class="node">
<title>ecofinance</title>
<ellipse fill="none" stroke="black" cx="264.79" cy="-105" rx="49.29" ry="18"/>
<text text-anchor="middle" x="264.79" y="-101.3" font-family="Times,serif" font-size="14.00">ecofinance</text>
</g>
<!-- ecofinance&#45;&gt;w:Mediapart -->
<g id="edge6" class="edge">
<title>ecofinance&#45;&gt;w:Mediapart</title>
<path fill="none" stroke="black" d="M274.27,-87.21C281.11,-75.1 290.47,-58.53 298.24,-44.76"/>
<polygon fill="black" stroke="black" points="301.46,-46.19 303.33,-35.76 295.36,-42.74 301.46,-46.19"/>
<text text-anchor="middle" x="304.79" y="-57.8" font-family="Times,serif" font-size="14.00">18%</text>
</g>
<!-- doxa -->
<g id="node8" class="node">
<title>doxa</title>
<ellipse fill="none" stroke="black" cx="360.79" cy="-105" rx="28.7" ry="18"/>
<text text-anchor="middle" x="360.79" y="-101.3" font-family="Times,serif" font-size="14.00">doxa</text>
</g>
<!-- doxa&#45;&gt;w:Mediapart -->
<g id="edge7" class="edge">
<title>doxa&#45;&gt;w:Mediapart</title>
<path fill="none" stroke="black" d="M351.54,-87.61C344.72,-75.54 335.31,-58.88 327.47,-45"/>
<polygon fill="black" stroke="black" points="330.31,-42.91 322.35,-35.92 324.22,-46.35 330.31,-42.91"/>
<text text-anchor="middle" x="352.79" y="-57.8" font-family="Times,serif" font-size="14.00">28%</text>
</g>
</g>
</svg>
