<?xml version="1.0" encoding="UTF-8" standalone="no"?>
<!DOCTYPE svg PUBLIC "-//W3C//DTD SVG 1.1//EN"
 "http://www.w3.org/Graphics/SVG/1.1/DTD/svg11.dtd">
<!-- Generated by graphviz version 2.49.3 (20211023.0002)
 -->
<!-- Title: G Pages: 1 -->
<svg width="1377pt" height="305pt"
 viewBox="0.00 0.00 1376.73 305.00" xmlns="http://www.w3.org/2000/svg" xmlns:xlink="http://www.w3.org/1999/xlink">
<g id="page0,1_graph0" class="graph" transform="scale(1 1) rotate(0) translate(4 301)">
<title>G</title>
<polygon fill="white" stroke="transparent" points="-4,4 -4,-301 1372.73,-301 1372.73,4 -4,4"/>
<!-- w:Le_Monde -->
<g id="node1" class="node">
<title>w:Le_Monde</title>
<ellipse fill="none" stroke="black" cx="827.84" cy="-105" rx="59.59" ry="18"/>
<text text-anchor="middle" x="827.84" y="-101.3" font-family="Times,serif" font-size="14.00">w:Le_Monde</text>
</g>
<!-- w:Le_Monde_diplomatique -->
<g id="node2" class="node">
<title>w:Le_Monde_diplomatique</title>
<ellipse fill="none" stroke="black" cx="519.84" cy="-18" rx="112.38" ry="18"/>
<text text-anchor="middle" x="519.84" y="-14.3" font-family="Times,serif" font-size="14.00">w:Le_Monde_diplomatique</text>
</g>
<!-- w:Le_Monde&#45;&gt;w:Le_Monde_diplomatique -->
<g id="edge1" class="edge">
<title>w:Le_Monde&#45;&gt;w:Le_Monde_diplomatique</title>
<path fill="none" stroke="black" d="M785.34,-92.27C733.05,-77.84 643.79,-53.21 583.35,-36.53"/>
<polygon fill="black" stroke="black" points="584.11,-33.11 573.54,-33.82 582.25,-39.85 584.11,-33.11"/>
<text text-anchor="middle" x="705.84" y="-57.8" font-family="Times,serif" font-size="14.00">51%</text>
</g>
<!-- lml -->
<g id="node3" class="node">
<title>lml</title>
<ellipse fill="none" stroke="black" cx="640.84" cy="-192" rx="27" ry="18"/>
<text text-anchor="middle" x="640.84" y="-188.3" font-family="Times,serif" font-size="14.00">lml</text>
</g>
<!-- lml&#45;&gt;w:Le_Monde -->
<g id="edge2" class="edge">
<title>lml&#45;&gt;w:Le_Monde</title>
<path fill="none" stroke="black" d="M662.66,-181.08C693.03,-167.28 748.63,-142 786.87,-124.62"/>
<polygon fill="black" stroke="black" points="788.54,-127.71 796.2,-120.38 785.64,-121.33 788.54,-127.71"/>
<text text-anchor="middle" x="758.84" y="-144.8" font-family="Times,serif" font-size="14.00">64%</text>
</g>
<!-- w:Pierre_Bergé -->
<g id="node4" class="node">
<title>w:Pierre_Bergé</title>
<ellipse fill="none" stroke="black" cx="303.84" cy="-279" rx="67.69" ry="18"/>
<text text-anchor="middle" x="303.84" y="-275.3" font-family="Times,serif" font-size="14.00">w:Pierre_Bergé</text>
</g>
<!-- w:Pierre_Bergé&#45;&gt;lml -->
<g id="edge3" class="edge">
<title>w:Pierre_Bergé&#45;&gt;lml</title>
<path fill="none" stroke="black" d="M351.05,-266.09C419.55,-248.82 544.93,-217.19 605.81,-201.83"/>
<polygon fill="black" stroke="black" points="606.87,-205.18 615.71,-199.34 605.15,-198.39 606.87,-205.18"/>
<text text-anchor="middle" x="505.84" y="-231.8" font-family="Times,serif" font-size="14.00">26%</text>
</g>
<!-- w:Matthieu_Pigasse -->
<g id="node5" class="node">
<title>w:Matthieu_Pigasse</title>
<ellipse fill="none" stroke="black" cx="473.84" cy="-279" rx="84.49" ry="18"/>
<text text-anchor="middle" x="473.84" y="-275.3" font-family="Times,serif" font-size="14.00">w:Matthieu_Pigasse</text>
</g>
<!-- w:Matthieu_Pigasse&#45;&gt;lml -->
<g id="edge4" class="edge">
<title>w:Matthieu_Pigasse&#45;&gt;lml</title>
<path fill="none" stroke="black" d="M504.86,-262.21C535.16,-246.79 580.97,-223.47 610.89,-208.24"/>
<polygon fill="black" stroke="black" points="612.69,-211.26 620.01,-203.6 609.51,-205.02 612.69,-211.26"/>
<text text-anchor="middle" x="580.84" y="-231.8" font-family="Times,serif" font-size="14.00">26%</text>
</g>
<!-- w:Xavier_Niel -->
<g id="node6" class="node">
<title>w:Xavier_Niel</title>
<ellipse fill="none" stroke="black" cx="640.84" cy="-279" rx="64.99" ry="18"/>
<text text-anchor="middle" x="640.84" y="-275.3" font-family="Times,serif" font-size="14.00">w:Xavier_Niel</text>
</g>
<!-- w:Xavier_Niel&#45;&gt;lml -->
<g id="edge5" class="edge">
<title>w:Xavier_Niel&#45;&gt;lml</title>
<path fill="none" stroke="black" d="M640.84,-260.8C640.84,-249.16 640.84,-233.55 640.84,-220.24"/>
<polygon fill="black" stroke="black" points="644.34,-220.18 640.84,-210.18 637.34,-220.18 644.34,-220.18"/>
<text text-anchor="middle" x="653.84" y="-231.8" font-family="Times,serif" font-size="14.00">26%</text>
</g>
<!-- w:Prisa -->
<g id="node7" class="node">
<title>w:Prisa</title>
<ellipse fill="none" stroke="black" cx="761.84" cy="-279" rx="38.19" ry="18"/>
<text text-anchor="middle" x="761.84" y="-275.3" font-family="Times,serif" font-size="14.00">w:Prisa</text>
</g>
<!-- w:Prisa&#45;&gt;lml -->
<g id="edge6" class="edge">
<title>w:Prisa&#45;&gt;lml</title>
<path fill="none" stroke="black" d="M741.31,-263.58C720.84,-249.2 689.3,-227.04 667.03,-211.4"/>
<polygon fill="black" stroke="black" points="668.89,-208.43 658.7,-205.55 664.87,-214.16 668.89,-208.43"/>
<text text-anchor="middle" x="721.84" y="-231.8" font-family="Times,serif" font-size="14.00">23%</text>
</g>
<!-- lmpa -->
<g id="node8" class="node">
<title>lmpa</title>
<ellipse fill="none" stroke="black" cx="950.84" cy="-192" rx="28.7" ry="18"/>
<text text-anchor="middle" x="950.84" y="-188.3" font-family="Times,serif" font-size="14.00">lmpa</text>
</g>
<!-- lmpa&#45;&gt;w:Le_Monde -->
<g id="edge7" class="edge">
<title>lmpa&#45;&gt;w:Le_Monde</title>
<path fill="none" stroke="black" d="M932.16,-178.09C912.85,-164.75 882.36,-143.68 859.32,-127.76"/>
<polygon fill="black" stroke="black" points="861.11,-124.74 850.9,-121.93 857.13,-130.5 861.11,-124.74"/>
<text text-anchor="middle" x="909.84" y="-144.8" font-family="Times,serif" font-size="14.00">34%</text>
</g>
<!-- actionnaires_internes_Le_Monde -->
<g id="node9" class="node">
<title>actionnaires_internes_Le_Monde</title>
<ellipse fill="none" stroke="black" cx="950.84" cy="-279" rx="132.68" ry="18"/>
<text text-anchor="middle" x="950.84" y="-275.3" font-family="Times,serif" font-size="14.00">actionnaires_internes_Le_Monde</text>
</g>
<!-- actionnaires_internes_Le_Monde&#45;&gt;lmpa -->
<g id="edge8" class="edge">
<title>actionnaires_internes_Le_Monde&#45;&gt;lmpa</title>
<path fill="none" stroke="black" d="M950.84,-260.8C950.84,-249.16 950.84,-233.55 950.84,-220.24"/>
<polygon fill="black" stroke="black" points="954.34,-220.18 950.84,-210.18 947.34,-220.18 954.34,-220.18"/>
<text text-anchor="middle" x="963.84" y="-231.8" font-family="Times,serif" font-size="14.00">52%</text>
</g>
<!-- actionnaires_externes_Le_Monde -->
<g id="node10" class="node">
<title>actionnaires_externes_Le_Monde</title>
<ellipse fill="none" stroke="black" cx="1234.84" cy="-279" rx="133.78" ry="18"/>
<text text-anchor="middle" x="1234.84" y="-275.3" font-family="Times,serif" font-size="14.00">actionnaires_externes_Le_Monde</text>
</g>
<!-- actionnaires_externes_Le_Monde&#45;&gt;lmpa -->
<g id="edge9" class="edge">
<title>actionnaires_externes_Le_Monde&#45;&gt;lmpa</title>
<path fill="none" stroke="black" d="M1182.75,-262.41C1125.52,-245.28 1035.19,-218.25 985.86,-203.48"/>
<polygon fill="black" stroke="black" points="986.85,-200.13 976.27,-200.61 984.84,-206.83 986.85,-200.13"/>
<text text-anchor="middle" x="1122.84" y="-231.8" font-family="Times,serif" font-size="14.00">48%</text>
</g>
<!-- w:Amis_du_Monde_diplomatique -->
<g id="node11" class="node">
<title>w:Amis_du_Monde_diplomatique</title>
<ellipse fill="none" stroke="black" cx="135.84" cy="-105" rx="135.68" ry="18"/>
<text text-anchor="middle" x="135.84" y="-101.3" font-family="Times,serif" font-size="14.00">w:Amis_du_Monde_diplomatique</text>
</g>
<!-- w:Amis_du_Monde_diplomatique&#45;&gt;w:Le_Monde_diplomatique -->
<g id="edge10" class="edge">
<title>w:Amis_du_Monde_diplomatique&#45;&gt;w:Le_Monde_diplomatique</title>
<path fill="none" stroke="black" d="M202.29,-89.29C270.42,-74.21 376.11,-50.82 446.61,-35.21"/>
<polygon fill="black" stroke="black" points="447.74,-38.54 456.75,-32.97 446.23,-31.71 447.74,-38.54"/>
<text text-anchor="middle" x="363.84" y="-57.8" font-family="Times,serif" font-size="14.00">25%</text>
</g>
<!-- w:Günter_Holzmann#Association_G.C3.BCnter_Holzmann -->
<g id="node12" class="node">
<title>w:Günter_Holzmann#Association_G.C3.BCnter_Holzmann</title>
<ellipse fill="none" stroke="black" cx="519.84" cy="-105" rx="230.16" ry="18"/>
<text text-anchor="middle" x="519.84" y="-101.3" font-family="Times,serif" font-size="14.00">w:Günter_Holzmann#Association_G.C3.BCnter_Holzmann</text>
</g>
<!-- w:Günter_Holzmann#Association_G.C3.BCnter_Holzmann&#45;&gt;w:Le_Monde_diplomatique -->
<g id="edge11" class="edge">
<title>w:Günter_Holzmann#Association_G.C3.BCnter_Holzmann&#45;&gt;w:Le_Monde_diplomatique</title>
<path fill="none" stroke="black" d="M519.84,-86.8C519.84,-75.16 519.84,-59.55 519.84,-46.24"/>
<polygon fill="black" stroke="black" points="523.34,-46.18 519.84,-36.18 516.34,-46.18 523.34,-46.18"/>
<text text-anchor="middle" x="532.84" y="-57.8" font-family="Times,serif" font-size="14.00">24%</text>
</g>
</g>
</svg>
