<?xml version="1.0" encoding="UTF-8" standalone="no"?>
<!DOCTYPE svg PUBLIC "-//W3C//DTD SVG 1.1//EN"
 "http://www.w3.org/Graphics/SVG/1.1/DTD/svg11.dtd">
<!-- Generated by graphviz version 2.49.3 (20211023.0002)
 -->
<!-- Title: G Pages: 1 -->
<svg width="226pt" height="218pt"
 viewBox="0.00 0.00 226.38 218.00" xmlns="http://www.w3.org/2000/svg" xmlns:xlink="http://www.w3.org/1999/xlink">
<g id="page0,1_graph0" class="graph" transform="scale(1 1) rotate(0) translate(4 214)">
<title>G</title>
<polygon fill="white" stroke="transparent" points="-4,4 -4,-214 222.38,-214 222.38,4 -4,4"/>
<!-- Groupe Bayard -->
<g id="node1" class="node">
<title>Groupe Bayard</title>
<ellipse fill="none" stroke="black" cx="109.19" cy="-105" rx="66.09" ry="18"/>
<text text-anchor="middle" x="109.19" y="-101.3" font-family="Times,serif" font-size="14.00">Groupe Bayard</text>
</g>
<!-- La Croix -->
<g id="node2" class="node">
<title>La Croix</title>
<ellipse fill="none" stroke="black" cx="109.19" cy="-18" rx="43.59" ry="18"/>
<text text-anchor="middle" x="109.19" y="-14.3" font-family="Times,serif" font-size="14.00">La Croix</text>
</g>
<!-- Groupe Bayard&#45;&gt;La Croix -->
<g id="edge1" class="edge">
<title>Groupe Bayard&#45;&gt;La Croix</title>
<path fill="none" stroke="black" d="M109.19,-86.8C109.19,-75.16 109.19,-59.55 109.19,-46.24"/>
<polygon fill="black" stroke="black" points="112.69,-46.18 109.19,-36.18 105.69,-46.18 112.69,-46.18"/>
<text text-anchor="middle" x="125.69" y="-57.8" font-family="Times,serif" font-size="14.00">100%</text>
</g>
<!-- Augustins de l&#39;Assomption -->
<g id="node3" class="node">
<title>Augustins de l&#39;Assomption</title>
<ellipse fill="none" stroke="black" cx="109.19" cy="-192" rx="109.38" ry="18"/>
<text text-anchor="middle" x="109.19" y="-188.3" font-family="Times,serif" font-size="14.00">Augustins de l&#39;Assomption</text>
</g>
<!-- Augustins de l&#39;Assomption&#45;&gt;Groupe Bayard -->
<g id="edge2" class="edge">
<title>Augustins de l&#39;Assomption&#45;&gt;Groupe Bayard</title>
<path fill="none" stroke="black" d="M109.19,-173.8C109.19,-162.16 109.19,-146.55 109.19,-133.24"/>
<polygon fill="black" stroke="black" points="112.69,-133.18 109.19,-123.18 105.69,-133.18 112.69,-133.18"/>
<text text-anchor="middle" x="125.69" y="-144.8" font-family="Times,serif" font-size="14.00">100%</text>
</g>
</g>
</svg>
