<?xml version="1.0" encoding="UTF-8" standalone="no"?>
<!DOCTYPE svg PUBLIC "-//W3C//DTD SVG 1.1//EN"
 "http://www.w3.org/Graphics/SVG/1.1/DTD/svg11.dtd">
<!-- Generated by graphviz version 2.49.3 (20211023.0002)
 -->
<!-- Title: G Pages: 1 -->
<svg width="1473pt" height="218pt"
 viewBox="0.00 0.00 1472.73 218.00" xmlns="http://www.w3.org/2000/svg" xmlns:xlink="http://www.w3.org/1999/xlink">
<g id="page0,1_graph0" class="graph" transform="scale(1 1) rotate(0) translate(4 214)">
<title>G</title>
<polygon fill="white" stroke="transparent" points="-4,4 -4,-214 1468.73,-214 1468.73,4 -4,4"/>
<!-- w:Groupe_Perdriel -->
<g id="node1" class="node">
<title>w:Groupe_Perdriel</title>
<ellipse fill="none" stroke="black" cx="1088.24" cy="-105" rx="80.69" ry="18"/>
<text text-anchor="middle" x="1088.24" y="-101.3" font-family="Times,serif" font-size="14.00">w:Groupe_Perdriel</text>
</g>
<!-- Challenges -->
<g id="node2" class="node">
<title>Challenges</title>
<ellipse fill="none" stroke="black" cx="752.24" cy="-18" rx="51.19" ry="18"/>
<text text-anchor="middle" x="752.24" y="-14.3" font-family="Times,serif" font-size="14.00">Challenges</text>
</g>
<!-- w:Groupe_Perdriel&#45;&gt;Challenges -->
<g id="edge1" class="edge">
<title>w:Groupe_Perdriel&#45;&gt;Challenges</title>
<path fill="none" stroke="black" d="M1036.85,-91C973.15,-74.89 865.34,-47.61 802.28,-31.66"/>
<polygon fill="black" stroke="black" points="803.11,-28.26 792.56,-29.2 801.4,-35.04 803.11,-28.26"/>
<text text-anchor="middle" x="954.24" y="-57.8" font-family="Times,serif" font-size="14.00">60%</text>
</g>
<!-- w:Claude_Perdriel -->
<g id="node3" class="node">
<title>w:Claude_Perdriel</title>
<ellipse fill="none" stroke="black" cx="1010.24" cy="-192" rx="78.79" ry="18"/>
<text text-anchor="middle" x="1010.24" y="-188.3" font-family="Times,serif" font-size="14.00">w:Claude_Perdriel</text>
</g>
<!-- w:Claude_Perdriel&#45;&gt;w:Groupe_Perdriel -->
<g id="edge2" class="edge">
<title>w:Claude_Perdriel&#45;&gt;w:Groupe_Perdriel</title>
<path fill="none" stroke="black" d="M1025.65,-174.21C1037.19,-161.63 1053.14,-144.25 1066.05,-130.18"/>
<polygon fill="black" stroke="black" points="1068.68,-132.49 1072.86,-122.76 1063.52,-127.76 1068.68,-132.49"/>
<text text-anchor="middle" x="1067.24" y="-144.8" font-family="Times,serif" font-size="14.00">93%</text>
</g>
<!-- w:Le_Monde -->
<g id="node4" class="node">
<title>w:Le_Monde</title>
<ellipse fill="none" stroke="black" cx="1166.24" cy="-192" rx="59.59" ry="18"/>
<text text-anchor="middle" x="1166.24" y="-188.3" font-family="Times,serif" font-size="14.00">w:Le_Monde</text>
</g>
<!-- w:Le_Monde&#45;&gt;w:Groupe_Perdriel -->
<g id="edge3" class="edge">
<title>w:Le_Monde&#45;&gt;w:Groupe_Perdriel</title>
<path fill="none" stroke="black" d="M1150.83,-174.21C1139.29,-161.63 1123.34,-144.25 1110.43,-130.18"/>
<polygon fill="black" stroke="black" points="1112.96,-127.76 1103.62,-122.76 1107.8,-132.49 1112.96,-127.76"/>
<text text-anchor="middle" x="1141.74" y="-144.8" font-family="Times,serif" font-size="14.00">6%</text>
</g>
<!-- société_rédacteurs_perdriel -->
<g id="node5" class="node">
<title>société_rédacteurs_perdriel</title>
<ellipse fill="none" stroke="black" cx="1354.24" cy="-192" rx="110.48" ry="18"/>
<text text-anchor="middle" x="1354.24" y="-188.3" font-family="Times,serif" font-size="14.00">société_rédacteurs_perdriel</text>
</g>
<!-- société_rédacteurs_perdriel&#45;&gt;w:Groupe_Perdriel -->
<g id="edge4" class="edge">
<title>société_rédacteurs_perdriel&#45;&gt;w:Groupe_Perdriel</title>
<path fill="none" stroke="black" d="M1306.38,-175.71C1260.2,-160.95 1190.4,-138.64 1142.25,-123.26"/>
<polygon fill="black" stroke="black" points="1143.22,-119.89 1132.63,-120.18 1141.09,-126.56 1143.22,-119.89"/>
<text text-anchor="middle" x="1245.74" y="-144.8" font-family="Times,serif" font-size="14.00">1%</text>
</g>
<!-- w:LVMH -->
<g id="node6" class="node">
<title>w:LVMH</title>
<ellipse fill="none" stroke="black" cx="595.24" cy="-105" rx="45.49" ry="18"/>
<text text-anchor="middle" x="595.24" y="-101.3" font-family="Times,serif" font-size="14.00">w:LVMH</text>
</g>
<!-- w:LVMH&#45;&gt;Challenges -->
<g id="edge5" class="edge">
<title>w:LVMH&#45;&gt;Challenges</title>
<path fill="none" stroke="black" d="M621.17,-89.96C647.18,-75.88 687.45,-54.08 716.49,-38.36"/>
<polygon fill="black" stroke="black" points="718.36,-41.32 725.49,-33.48 715.03,-35.17 718.36,-41.32"/>
<text text-anchor="middle" x="696.24" y="-57.8" font-family="Times,serif" font-size="14.00">40%</text>
</g>
<!-- w:Bernard_Arnault -->
<g id="node7" class="node">
<title>w:Bernard_Arnault</title>
<ellipse fill="none" stroke="black" cx="81.24" cy="-192" rx="81.49" ry="18"/>
<text text-anchor="middle" x="81.24" y="-188.3" font-family="Times,serif" font-size="14.00">w:Bernard_Arnault</text>
</g>
<!-- w:Bernard_Arnault&#45;&gt;w:LVMH -->
<g id="edge6" class="edge">
<title>w:Bernard_Arnault&#45;&gt;w:LVMH</title>
<path fill="none" stroke="black" d="M140.26,-179.61C150.58,-177.69 161.22,-175.75 171.24,-174 304.96,-150.65 462.95,-126.12 543.04,-113.9"/>
<polygon fill="black" stroke="black" points="543.99,-117.29 553.35,-112.33 542.94,-110.37 543.99,-117.29"/>
<text text-anchor="middle" x="382.24" y="-144.8" font-family="Times,serif" font-size="14.00">47%</text>
</g>
<!-- institutionnels_étrangers -->
<g id="node8" class="node">
<title>institutionnels_étrangers</title>
<ellipse fill="none" stroke="black" cx="280.24" cy="-192" rx="100.18" ry="18"/>
<text text-anchor="middle" x="280.24" y="-188.3" font-family="Times,serif" font-size="14.00">institutionnels_étrangers</text>
</g>
<!-- institutionnels_étrangers&#45;&gt;w:LVMH -->
<g id="edge7" class="edge">
<title>institutionnels_étrangers&#45;&gt;w:LVMH</title>
<path fill="none" stroke="black" d="M333.32,-176.68C393.7,-160.39 491.32,-134.04 548.79,-118.53"/>
<polygon fill="black" stroke="black" points="549.95,-121.85 558.7,-115.86 548.13,-115.09 549.95,-121.85"/>
<text text-anchor="middle" x="470.24" y="-144.8" font-family="Times,serif" font-size="14.00">34%</text>
</g>
<!-- institutionnels_français -->
<g id="node9" class="node">
<title>institutionnels_français</title>
<ellipse fill="none" stroke="black" cx="494.24" cy="-192" rx="95.58" ry="18"/>
<text text-anchor="middle" x="494.24" y="-188.3" font-family="Times,serif" font-size="14.00">institutionnels_français</text>
</g>
<!-- institutionnels_français&#45;&gt;w:LVMH -->
<g id="edge8" class="edge">
<title>institutionnels_français&#45;&gt;w:LVMH</title>
<path fill="none" stroke="black" d="M514.2,-174.21C529.81,-161.07 551.66,-142.68 568.74,-128.31"/>
<polygon fill="black" stroke="black" points="571.29,-130.73 576.69,-121.61 566.79,-125.37 571.29,-130.73"/>
<text text-anchor="middle" x="564.24" y="-144.8" font-family="Times,serif" font-size="14.00">14%</text>
</g>
<!-- personnes_physiques -->
<g id="node10" class="node">
<title>personnes_physiques</title>
<ellipse fill="none" stroke="black" cx="695.24" cy="-192" rx="87.99" ry="18"/>
<text text-anchor="middle" x="695.24" y="-188.3" font-family="Times,serif" font-size="14.00">personnes_physiques</text>
</g>
<!-- personnes_physiques&#45;&gt;w:LVMH -->
<g id="edge9" class="edge">
<title>personnes_physiques&#45;&gt;w:LVMH</title>
<path fill="none" stroke="black" d="M675.49,-174.21C660.03,-161.07 638.39,-142.68 621.48,-128.31"/>
<polygon fill="black" stroke="black" points="623.5,-125.42 613.61,-121.61 618.96,-130.76 623.5,-125.42"/>
<text text-anchor="middle" x="660.74" y="-144.8" font-family="Times,serif" font-size="14.00">5%</text>
</g>
<!-- autocontrôle -->
<g id="node11" class="node">
<title>autocontrôle</title>
<ellipse fill="none" stroke="black" cx="857.24" cy="-192" rx="55.79" ry="18"/>
<text text-anchor="middle" x="857.24" y="-188.3" font-family="Times,serif" font-size="14.00">autocontrôle</text>
</g>
<!-- autocontrôle&#45;&gt;w:LVMH -->
<g id="edge10" class="edge">
<title>autocontrôle&#45;&gt;w:LVMH</title>
<path fill="none" stroke="black" d="M819.43,-178.73C771.6,-163.21 689.41,-136.55 638.95,-120.18"/>
<polygon fill="black" stroke="black" points="639.89,-116.81 629.3,-117.05 637.73,-123.46 639.89,-116.81"/>
<text text-anchor="middle" x="751.74" y="-144.8" font-family="Times,serif" font-size="14.00">1%</text>
</g>
</g>
</svg>
