<?xml version="1.0" encoding="UTF-8" standalone="no"?>
<!DOCTYPE svg PUBLIC "-//W3C//DTD SVG 1.1//EN"
 "http://www.w3.org/Graphics/SVG/1.1/DTD/svg11.dtd">
<!-- Generated by graphviz version 2.49.3 (20211023.0002)
 -->
<!-- Title: G Pages: 1 -->
<svg width="1276pt" height="392pt"
 viewBox="0.00 0.00 1275.54 392.00" xmlns="http://www.w3.org/2000/svg" xmlns:xlink="http://www.w3.org/1999/xlink">
<g id="page0,1_graph0" class="graph" transform="scale(1 1) rotate(0) translate(4 388)">
<title>G</title>
<polygon fill="white" stroke="transparent" points="-4,4 -4,-388 1271.54,-388 1271.54,4 -4,4"/>
<!-- w:Bolloré -->
<g id="node1" class="node">
<title>w:Bolloré</title>
<ellipse fill="none" stroke="black" cx="978.59" cy="-105" rx="46.59" ry="18"/>
<text text-anchor="middle" x="978.59" y="-101.3" font-family="Times,serif" font-size="14.00">w:Bolloré</text>
</g>
<!-- w:CNews_Matin -->
<g id="node2" class="node">
<title>w:CNews_Matin</title>
<ellipse fill="none" stroke="black" cx="841.59" cy="-18" rx="72.59" ry="18"/>
<text text-anchor="middle" x="841.59" y="-14.3" font-family="Times,serif" font-size="14.00">w:CNews_Matin</text>
</g>
<!-- w:Bolloré&#45;&gt;w:CNews_Matin -->
<g id="edge1" class="edge">
<title>w:Bolloré&#45;&gt;w:CNews_Matin</title>
<path fill="none" stroke="black" d="M955.04,-89.39C933.24,-75.86 900.56,-55.58 875.86,-40.26"/>
<polygon fill="black" stroke="black" points="877.5,-37.16 867.16,-34.86 873.81,-43.11 877.5,-37.16"/>
<text text-anchor="middle" x="930.59" y="-57.8" font-family="Times,serif" font-size="14.00">70%</text>
</g>
<!-- w:Financière_de_l&#39;Odet -->
<g id="node3" class="node">
<title>w:Financière_de_l&#39;Odet</title>
<ellipse fill="none" stroke="black" cx="1052.59" cy="-192" rx="97.48" ry="18"/>
<text text-anchor="middle" x="1052.59" y="-188.3" font-family="Times,serif" font-size="14.00">w:Financière_de_l&#39;Odet</text>
</g>
<!-- w:Financière_de_l&#39;Odet&#45;&gt;w:Bolloré -->
<g id="edge2" class="edge">
<title>w:Financière_de_l&#39;Odet&#45;&gt;w:Bolloré</title>
<path fill="none" stroke="black" d="M1037.62,-173.8C1026.67,-161.23 1011.69,-144.01 999.56,-130.08"/>
<polygon fill="black" stroke="black" points="1002,-127.55 992.79,-122.31 996.72,-132.15 1002,-127.55"/>
<text text-anchor="middle" x="1032.59" y="-144.8" font-family="Times,serif" font-size="14.00">64%</text>
</g>
<!-- Sofibol -->
<g id="node4" class="node">
<title>Sofibol</title>
<ellipse fill="none" stroke="black" cx="1187.59" cy="-279" rx="37.09" ry="18"/>
<text text-anchor="middle" x="1187.59" y="-275.3" font-family="Times,serif" font-size="14.00">Sofibol</text>
</g>
<!-- Sofibol&#45;&gt;w:Financière_de_l&#39;Odet -->
<g id="edge3" class="edge">
<title>Sofibol&#45;&gt;w:Financière_de_l&#39;Odet</title>
<path fill="none" stroke="black" d="M1165.9,-264.34C1144.79,-251.05 1112.37,-230.64 1087.6,-215.04"/>
<polygon fill="black" stroke="black" points="1089.19,-211.9 1078.86,-209.54 1085.46,-217.83 1089.19,-211.9"/>
<text text-anchor="middle" x="1140.59" y="-231.8" font-family="Times,serif" font-size="14.00">55%</text>
</g>
<!-- w:Vincent_Bolloré -->
<g id="node5" class="node">
<title>w:Vincent_Bolloré</title>
<ellipse fill="none" stroke="black" cx="1187.59" cy="-366" rx="79.89" ry="18"/>
<text text-anchor="middle" x="1187.59" y="-362.3" font-family="Times,serif" font-size="14.00">w:Vincent_Bolloré</text>
</g>
<!-- w:Vincent_Bolloré&#45;&gt;Sofibol -->
<g id="edge4" class="edge">
<title>w:Vincent_Bolloré&#45;&gt;Sofibol</title>
<path fill="none" stroke="black" d="M1187.59,-347.8C1187.59,-336.16 1187.59,-320.55 1187.59,-307.24"/>
<polygon fill="black" stroke="black" points="1191.09,-307.18 1187.59,-297.18 1184.09,-307.18 1191.09,-307.18"/>
<text text-anchor="middle" x="1204.09" y="-318.8" font-family="Times,serif" font-size="14.00">100%</text>
</g>
<!-- w:Le_Monde -->
<g id="node6" class="node">
<title>w:Le_Monde</title>
<ellipse fill="none" stroke="black" cx="779.59" cy="-105" rx="59.59" ry="18"/>
<text text-anchor="middle" x="779.59" y="-101.3" font-family="Times,serif" font-size="14.00">w:Le_Monde</text>
</g>
<!-- w:Le_Monde&#45;&gt;w:CNews_Matin -->
<g id="edge5" class="edge">
<title>w:Le_Monde&#45;&gt;w:CNews_Matin</title>
<path fill="none" stroke="black" d="M791.84,-87.21C800.84,-74.87 813.22,-57.89 823.38,-43.97"/>
<polygon fill="black" stroke="black" points="826.3,-45.9 829.37,-35.76 820.65,-41.77 826.3,-45.9"/>
<text text-anchor="middle" x="826.59" y="-57.8" font-family="Times,serif" font-size="14.00">30%</text>
</g>
<!-- lml -->
<g id="node7" class="node">
<title>lml</title>
<ellipse fill="none" stroke="black" cx="404.59" cy="-192" rx="27" ry="18"/>
<text text-anchor="middle" x="404.59" y="-188.3" font-family="Times,serif" font-size="14.00">lml</text>
</g>
<!-- lml&#45;&gt;w:Le_Monde -->
<g id="edge6" class="edge">
<title>lml&#45;&gt;w:Le_Monde</title>
<path fill="none" stroke="black" d="M429.78,-185.29C489.45,-171.77 640.6,-137.51 723.34,-118.75"/>
<polygon fill="black" stroke="black" points="724.35,-122.11 733.33,-116.49 722.8,-115.28 724.35,-122.11"/>
<text text-anchor="middle" x="626.59" y="-144.8" font-family="Times,serif" font-size="14.00">64%</text>
</g>
<!-- w:Pierre_Bergé -->
<g id="node8" class="node">
<title>w:Pierre_Bergé</title>
<ellipse fill="none" stroke="black" cx="67.59" cy="-279" rx="67.69" ry="18"/>
<text text-anchor="middle" x="67.59" y="-275.3" font-family="Times,serif" font-size="14.00">w:Pierre_Bergé</text>
</g>
<!-- w:Pierre_Bergé&#45;&gt;lml -->
<g id="edge7" class="edge">
<title>w:Pierre_Bergé&#45;&gt;lml</title>
<path fill="none" stroke="black" d="M114.81,-266.09C183.3,-248.82 308.68,-217.19 369.57,-201.83"/>
<polygon fill="black" stroke="black" points="370.62,-205.18 379.46,-199.34 368.91,-198.39 370.62,-205.18"/>
<text text-anchor="middle" x="269.59" y="-231.8" font-family="Times,serif" font-size="14.00">26%</text>
</g>
<!-- w:Matthieu_Pigasse -->
<g id="node9" class="node">
<title>w:Matthieu_Pigasse</title>
<ellipse fill="none" stroke="black" cx="237.59" cy="-279" rx="84.49" ry="18"/>
<text text-anchor="middle" x="237.59" y="-275.3" font-family="Times,serif" font-size="14.00">w:Matthieu_Pigasse</text>
</g>
<!-- w:Matthieu_Pigasse&#45;&gt;lml -->
<g id="edge8" class="edge">
<title>w:Matthieu_Pigasse&#45;&gt;lml</title>
<path fill="none" stroke="black" d="M268.61,-262.21C298.91,-246.79 344.72,-223.47 374.65,-208.24"/>
<polygon fill="black" stroke="black" points="376.44,-211.26 383.77,-203.6 373.27,-205.02 376.44,-211.26"/>
<text text-anchor="middle" x="344.59" y="-231.8" font-family="Times,serif" font-size="14.00">26%</text>
</g>
<!-- w:Xavier_Niel -->
<g id="node10" class="node">
<title>w:Xavier_Niel</title>
<ellipse fill="none" stroke="black" cx="404.59" cy="-279" rx="64.99" ry="18"/>
<text text-anchor="middle" x="404.59" y="-275.3" font-family="Times,serif" font-size="14.00">w:Xavier_Niel</text>
</g>
<!-- w:Xavier_Niel&#45;&gt;lml -->
<g id="edge9" class="edge">
<title>w:Xavier_Niel&#45;&gt;lml</title>
<path fill="none" stroke="black" d="M404.59,-260.8C404.59,-249.16 404.59,-233.55 404.59,-220.24"/>
<polygon fill="black" stroke="black" points="408.09,-220.18 404.59,-210.18 401.09,-220.18 408.09,-220.18"/>
<text text-anchor="middle" x="417.59" y="-231.8" font-family="Times,serif" font-size="14.00">26%</text>
</g>
<!-- w:Prisa -->
<g id="node11" class="node">
<title>w:Prisa</title>
<ellipse fill="none" stroke="black" cx="525.59" cy="-279" rx="38.19" ry="18"/>
<text text-anchor="middle" x="525.59" y="-275.3" font-family="Times,serif" font-size="14.00">w:Prisa</text>
</g>
<!-- w:Prisa&#45;&gt;lml -->
<g id="edge10" class="edge">
<title>w:Prisa&#45;&gt;lml</title>
<path fill="none" stroke="black" d="M505.07,-263.58C484.59,-249.2 453.06,-227.04 430.79,-211.4"/>
<polygon fill="black" stroke="black" points="432.65,-208.43 422.46,-205.55 428.63,-214.16 432.65,-208.43"/>
<text text-anchor="middle" x="484.59" y="-231.8" font-family="Times,serif" font-size="14.00">23%</text>
</g>
<!-- lmpa -->
<g id="node12" class="node">
<title>lmpa</title>
<ellipse fill="none" stroke="black" cx="779.59" cy="-192" rx="28.7" ry="18"/>
<text text-anchor="middle" x="779.59" y="-188.3" font-family="Times,serif" font-size="14.00">lmpa</text>
</g>
<!-- lmpa&#45;&gt;w:Le_Monde -->
<g id="edge11" class="edge">
<title>lmpa&#45;&gt;w:Le_Monde</title>
<path fill="none" stroke="black" d="M779.59,-173.8C779.59,-162.16 779.59,-146.55 779.59,-133.24"/>
<polygon fill="black" stroke="black" points="783.09,-133.18 779.59,-123.18 776.09,-133.18 783.09,-133.18"/>
<text text-anchor="middle" x="792.59" y="-144.8" font-family="Times,serif" font-size="14.00">34%</text>
</g>
<!-- actionnaires_internes_Le_Monde -->
<g id="node13" class="node">
<title>actionnaires_internes_Le_Monde</title>
<ellipse fill="none" stroke="black" cx="714.59" cy="-279" rx="132.68" ry="18"/>
<text text-anchor="middle" x="714.59" y="-275.3" font-family="Times,serif" font-size="14.00">actionnaires_internes_Le_Monde</text>
</g>
<!-- actionnaires_internes_Le_Monde&#45;&gt;lmpa -->
<g id="edge12" class="edge">
<title>actionnaires_internes_Le_Monde&#45;&gt;lmpa</title>
<path fill="none" stroke="black" d="M727.75,-260.8C737.46,-248.1 750.78,-230.68 761.5,-216.67"/>
<polygon fill="black" stroke="black" points="764.48,-218.53 767.77,-208.46 758.92,-214.28 764.48,-218.53"/>
<text text-anchor="middle" x="763.59" y="-231.8" font-family="Times,serif" font-size="14.00">52%</text>
</g>
<!-- actionnaires_externes_Le_Monde -->
<g id="node14" class="node">
<title>actionnaires_externes_Le_Monde</title>
<ellipse fill="none" stroke="black" cx="998.59" cy="-279" rx="133.78" ry="18"/>
<text text-anchor="middle" x="998.59" y="-275.3" font-family="Times,serif" font-size="14.00">actionnaires_externes_Le_Monde</text>
</g>
<!-- actionnaires_externes_Le_Monde&#45;&gt;lmpa -->
<g id="edge13" class="edge">
<title>actionnaires_externes_Le_Monde&#45;&gt;lmpa</title>
<path fill="none" stroke="black" d="M956.89,-261.81C915.08,-245.58 851.53,-220.92 812.95,-205.95"/>
<polygon fill="black" stroke="black" points="813.83,-202.53 803.24,-202.18 811.3,-209.06 813.83,-202.53"/>
<text text-anchor="middle" x="914.59" y="-231.8" font-family="Times,serif" font-size="14.00">48%</text>
</g>
</g>
</svg>
