<?xml version="1.0" encoding="UTF-8" standalone="no"?>
<!DOCTYPE svg PUBLIC "-//W3C//DTD SVG 1.1//EN"
 "http://www.w3.org/Graphics/SVG/1.1/DTD/svg11.dtd">
<!-- Generated by graphviz version 2.49.3 (20211023.0002)
 -->
<!-- Title: G Pages: 1 -->
<svg width="841pt" height="131pt"
 viewBox="0.00 0.00 841.34 131.00" xmlns="http://www.w3.org/2000/svg" xmlns:xlink="http://www.w3.org/1999/xlink">
<g id="page0,1_graph0" class="graph" transform="scale(1 1) rotate(0) translate(4 127)">
<title>G</title>
<polygon fill="white" stroke="transparent" points="-4,4 -4,-127 837.34,-127 837.34,4 -4,4"/>
<!-- Salariés -->
<g id="node1" class="node">
<title>Salariés</title>
<ellipse fill="none" stroke="black" cx="39.65" cy="-105" rx="39.79" ry="18"/>
<text text-anchor="middle" x="39.65" y="-101.3" font-family="Times,serif" font-size="14.00">Salariés</text>
</g>
<!-- Alternatives économiques -->
<g id="node2" class="node">
<title>Alternatives économiques</title>
<ellipse fill="none" stroke="black" cx="378.65" cy="-18" rx="105.08" ry="18"/>
<text text-anchor="middle" x="378.65" y="-14.3" font-family="Times,serif" font-size="14.00">Alternatives économiques</text>
</g>
<!-- Salariés&#45;&gt;Alternatives économiques -->
<g id="edge1" class="edge">
<title>Salariés&#45;&gt;Alternatives économiques</title>
<path fill="none" stroke="black" d="M69.18,-92.96C75.25,-90.86 81.62,-88.76 87.65,-87 160.01,-65.8 244.01,-46.75 303.1,-34.25"/>
<polygon fill="black" stroke="black" points="304.03,-37.63 313.1,-32.15 302.59,-30.78 304.03,-37.63"/>
<text text-anchor="middle" x="220.65" y="-57.8" font-family="Times,serif" font-size="14.00">62%</text>
</g>
<!-- Société des lecteurs -->
<g id="node3" class="node">
<title>Société des lecteurs</title>
<ellipse fill="none" stroke="black" cx="179.65" cy="-105" rx="82.59" ry="18"/>
<text text-anchor="middle" x="179.65" y="-101.3" font-family="Times,serif" font-size="14.00">Société des lecteurs</text>
</g>
<!-- Société des lecteurs&#45;&gt;Alternatives économiques -->
<g id="edge2" class="edge">
<title>Société des lecteurs&#45;&gt;Alternatives économiques</title>
<path fill="none" stroke="black" d="M215.68,-88.61C248.38,-74.64 296.77,-53.97 332.32,-38.79"/>
<polygon fill="black" stroke="black" points="333.71,-42 341.53,-34.85 330.96,-35.56 333.71,-42"/>
<text text-anchor="middle" x="304.65" y="-57.8" font-family="Times,serif" font-size="14.00">22%</text>
</g>
<!-- Association des lecteurs -->
<g id="node4" class="node">
<title>Association des lecteurs</title>
<ellipse fill="none" stroke="black" cx="378.65" cy="-105" rx="98.58" ry="18"/>
<text text-anchor="middle" x="378.65" y="-101.3" font-family="Times,serif" font-size="14.00">Association des lecteurs</text>
</g>
<!-- Association des lecteurs&#45;&gt;Alternatives économiques -->
<g id="edge3" class="edge">
<title>Association des lecteurs&#45;&gt;Alternatives économiques</title>
<path fill="none" stroke="black" d="M378.65,-86.8C378.65,-75.16 378.65,-59.55 378.65,-46.24"/>
<polygon fill="black" stroke="black" points="382.15,-46.18 378.65,-36.18 375.15,-46.18 382.15,-46.18"/>
<text text-anchor="middle" x="388.15" y="-57.8" font-family="Times,serif" font-size="14.00">1%</text>
</g>
<!-- Anciens salariés -->
<g id="node5" class="node">
<title>Anciens salariés</title>
<ellipse fill="none" stroke="black" cx="565.65" cy="-105" rx="70.39" ry="18"/>
<text text-anchor="middle" x="565.65" y="-101.3" font-family="Times,serif" font-size="14.00">Anciens salariés</text>
</g>
<!-- Anciens salariés&#45;&gt;Alternatives économiques -->
<g id="edge4" class="edge">
<title>Anciens salariés&#45;&gt;Alternatives économiques</title>
<path fill="none" stroke="black" d="M532.65,-89C502.17,-75.15 456.66,-54.46 423.01,-39.17"/>
<polygon fill="black" stroke="black" points="424.41,-35.96 413.86,-35.01 421.51,-42.33 424.41,-35.96"/>
<text text-anchor="middle" x="493.15" y="-57.8" font-family="Times,serif" font-size="14.00">3%</text>
</g>
<!-- Actionnaires externes -->
<g id="node6" class="node">
<title>Actionnaires externes</title>
<ellipse fill="none" stroke="black" cx="743.65" cy="-105" rx="89.88" ry="18"/>
<text text-anchor="middle" x="743.65" y="-101.3" font-family="Times,serif" font-size="14.00">Actionnaires externes</text>
</g>
<!-- Actionnaires externes&#45;&gt;Alternatives économiques -->
<g id="edge5" class="edge">
<title>Actionnaires externes&#45;&gt;Alternatives économiques</title>
<path fill="none" stroke="black" d="M687.42,-90.91C623.09,-75.92 517.71,-51.38 448.26,-35.21"/>
<polygon fill="black" stroke="black" points="448.81,-31.75 438.28,-32.89 447.22,-38.56 448.81,-31.75"/>
<text text-anchor="middle" x="595.65" y="-57.8" font-family="Times,serif" font-size="14.00">12%</text>
</g>
</g>
</svg>
