<?xml version="1.0" encoding="UTF-8" standalone="no"?>
<!DOCTYPE svg PUBLIC "-//W3C//DTD SVG 1.1//EN"
 "http://www.w3.org/Graphics/SVG/1.1/DTD/svg11.dtd">
<!-- Generated by graphviz version 2.49.3 (20211023.0002)
 -->
<!-- Title: G Pages: 1 -->
<svg width="1140pt" height="305pt"
 viewBox="0.00 0.00 1140.48 305.00" xmlns="http://www.w3.org/2000/svg" xmlns:xlink="http://www.w3.org/1999/xlink">
<g id="page0,1_graph0" class="graph" transform="scale(1 1) rotate(0) translate(4 301)">
<title>G</title>
<polygon fill="white" stroke="transparent" points="-4,4 -4,-301 1136.48,-301 1136.48,4 -4,4"/>
<!-- w:Le_Monde -->
<g id="node1" class="node">
<title>w:Le_Monde</title>
<ellipse fill="none" stroke="black" cx="558.59" cy="-105" rx="59.59" ry="18"/>
<text text-anchor="middle" x="558.59" y="-101.3" font-family="Times,serif" font-size="14.00">w:Le_Monde</text>
</g>
<!-- w:Télérama -->
<g id="node2" class="node">
<title>w:Télérama</title>
<ellipse fill="none" stroke="black" cx="558.59" cy="-18" rx="53.89" ry="18"/>
<text text-anchor="middle" x="558.59" y="-14.3" font-family="Times,serif" font-size="14.00">w:Télérama</text>
</g>
<!-- w:Le_Monde&#45;&gt;w:Télérama -->
<g id="edge1" class="edge">
<title>w:Le_Monde&#45;&gt;w:Télérama</title>
<path fill="none" stroke="black" d="M558.59,-86.8C558.59,-75.16 558.59,-59.55 558.59,-46.24"/>
<polygon fill="black" stroke="black" points="562.09,-46.18 558.59,-36.18 555.09,-46.18 562.09,-46.18"/>
<text text-anchor="middle" x="575.09" y="-57.8" font-family="Times,serif" font-size="14.00">100%</text>
</g>
<!-- lml -->
<g id="node3" class="node">
<title>lml</title>
<ellipse fill="none" stroke="black" cx="404.59" cy="-192" rx="27" ry="18"/>
<text text-anchor="middle" x="404.59" y="-188.3" font-family="Times,serif" font-size="14.00">lml</text>
</g>
<!-- lml&#45;&gt;w:Le_Monde -->
<g id="edge2" class="edge">
<title>lml&#45;&gt;w:Le_Monde</title>
<path fill="none" stroke="black" d="M424.73,-179.89C449.41,-166.27 491.69,-142.93 522.14,-126.12"/>
<polygon fill="black" stroke="black" points="524.11,-129.03 531.18,-121.13 520.73,-122.9 524.11,-129.03"/>
<text text-anchor="middle" x="504.59" y="-144.8" font-family="Times,serif" font-size="14.00">64%</text>
</g>
<!-- w:Pierre_Bergé -->
<g id="node4" class="node">
<title>w:Pierre_Bergé</title>
<ellipse fill="none" stroke="black" cx="67.59" cy="-279" rx="67.69" ry="18"/>
<text text-anchor="middle" x="67.59" y="-275.3" font-family="Times,serif" font-size="14.00">w:Pierre_Bergé</text>
</g>
<!-- w:Pierre_Bergé&#45;&gt;lml -->
<g id="edge3" class="edge">
<title>w:Pierre_Bergé&#45;&gt;lml</title>
<path fill="none" stroke="black" d="M114.81,-266.09C183.3,-248.82 308.68,-217.19 369.57,-201.83"/>
<polygon fill="black" stroke="black" points="370.62,-205.18 379.46,-199.34 368.91,-198.39 370.62,-205.18"/>
<text text-anchor="middle" x="269.59" y="-231.8" font-family="Times,serif" font-size="14.00">26%</text>
</g>
<!-- w:Matthieu_Pigasse -->
<g id="node5" class="node">
<title>w:Matthieu_Pigasse</title>
<ellipse fill="none" stroke="black" cx="237.59" cy="-279" rx="84.49" ry="18"/>
<text text-anchor="middle" x="237.59" y="-275.3" font-family="Times,serif" font-size="14.00">w:Matthieu_Pigasse</text>
</g>
<!-- w:Matthieu_Pigasse&#45;&gt;lml -->
<g id="edge4" class="edge">
<title>w:Matthieu_Pigasse&#45;&gt;lml</title>
<path fill="none" stroke="black" d="M268.61,-262.21C298.91,-246.79 344.72,-223.47 374.65,-208.24"/>
<polygon fill="black" stroke="black" points="376.44,-211.26 383.77,-203.6 373.27,-205.02 376.44,-211.26"/>
<text text-anchor="middle" x="344.59" y="-231.8" font-family="Times,serif" font-size="14.00">26%</text>
</g>
<!-- w:Xavier_Niel -->
<g id="node6" class="node">
<title>w:Xavier_Niel</title>
<ellipse fill="none" stroke="black" cx="404.59" cy="-279" rx="64.99" ry="18"/>
<text text-anchor="middle" x="404.59" y="-275.3" font-family="Times,serif" font-size="14.00">w:Xavier_Niel</text>
</g>
<!-- w:Xavier_Niel&#45;&gt;lml -->
<g id="edge5" class="edge">
<title>w:Xavier_Niel&#45;&gt;lml</title>
<path fill="none" stroke="black" d="M404.59,-260.8C404.59,-249.16 404.59,-233.55 404.59,-220.24"/>
<polygon fill="black" stroke="black" points="408.09,-220.18 404.59,-210.18 401.09,-220.18 408.09,-220.18"/>
<text text-anchor="middle" x="417.59" y="-231.8" font-family="Times,serif" font-size="14.00">26%</text>
</g>
<!-- w:Prisa -->
<g id="node7" class="node">
<title>w:Prisa</title>
<ellipse fill="none" stroke="black" cx="525.59" cy="-279" rx="38.19" ry="18"/>
<text text-anchor="middle" x="525.59" y="-275.3" font-family="Times,serif" font-size="14.00">w:Prisa</text>
</g>
<!-- w:Prisa&#45;&gt;lml -->
<g id="edge6" class="edge">
<title>w:Prisa&#45;&gt;lml</title>
<path fill="none" stroke="black" d="M505.07,-263.58C484.59,-249.2 453.06,-227.04 430.79,-211.4"/>
<polygon fill="black" stroke="black" points="432.65,-208.43 422.46,-205.55 428.63,-214.16 432.65,-208.43"/>
<text text-anchor="middle" x="485.59" y="-231.8" font-family="Times,serif" font-size="14.00">23%</text>
</g>
<!-- lmpa -->
<g id="node8" class="node">
<title>lmpa</title>
<ellipse fill="none" stroke="black" cx="714.59" cy="-192" rx="28.7" ry="18"/>
<text text-anchor="middle" x="714.59" y="-188.3" font-family="Times,serif" font-size="14.00">lmpa</text>
</g>
<!-- lmpa&#45;&gt;w:Le_Monde -->
<g id="edge7" class="edge">
<title>lmpa&#45;&gt;w:Le_Monde</title>
<path fill="none" stroke="black" d="M693.56,-179.54C668.38,-165.82 625.8,-142.62 595.2,-125.94"/>
<polygon fill="black" stroke="black" points="596.57,-122.71 586.12,-121 593.22,-128.85 596.57,-122.71"/>
<text text-anchor="middle" x="659.59" y="-144.8" font-family="Times,serif" font-size="14.00">34%</text>
</g>
<!-- actionnaires_internes_Le_Monde -->
<g id="node9" class="node">
<title>actionnaires_internes_Le_Monde</title>
<ellipse fill="none" stroke="black" cx="714.59" cy="-279" rx="132.68" ry="18"/>
<text text-anchor="middle" x="714.59" y="-275.3" font-family="Times,serif" font-size="14.00">actionnaires_internes_Le_Monde</text>
</g>
<!-- actionnaires_internes_Le_Monde&#45;&gt;lmpa -->
<g id="edge8" class="edge">
<title>actionnaires_internes_Le_Monde&#45;&gt;lmpa</title>
<path fill="none" stroke="black" d="M714.59,-260.8C714.59,-249.16 714.59,-233.55 714.59,-220.24"/>
<polygon fill="black" stroke="black" points="718.09,-220.18 714.59,-210.18 711.09,-220.18 718.09,-220.18"/>
<text text-anchor="middle" x="727.59" y="-231.8" font-family="Times,serif" font-size="14.00">52%</text>
</g>
<!-- actionnaires_externes_Le_Monde -->
<g id="node10" class="node">
<title>actionnaires_externes_Le_Monde</title>
<ellipse fill="none" stroke="black" cx="998.59" cy="-279" rx="133.78" ry="18"/>
<text text-anchor="middle" x="998.59" y="-275.3" font-family="Times,serif" font-size="14.00">actionnaires_externes_Le_Monde</text>
</g>
<!-- actionnaires_externes_Le_Monde&#45;&gt;lmpa -->
<g id="edge9" class="edge">
<title>actionnaires_externes_Le_Monde&#45;&gt;lmpa</title>
<path fill="none" stroke="black" d="M946.5,-262.41C889.28,-245.28 798.95,-218.25 749.61,-203.48"/>
<polygon fill="black" stroke="black" points="750.61,-200.13 740.02,-200.61 748.6,-206.83 750.61,-200.13"/>
<text text-anchor="middle" x="886.59" y="-231.8" font-family="Times,serif" font-size="14.00">48%</text>
</g>
</g>
</svg>
