<?xml version="1.0" encoding="UTF-8" standalone="no"?>
<!DOCTYPE svg PUBLIC "-//W3C//DTD SVG 1.1//EN"
 "http://www.w3.org/Graphics/SVG/1.1/DTD/svg11.dtd">
<!-- Generated by graphviz version 2.49.3 (20211023.0002)
 -->
<!-- Title: G Pages: 1 -->
<svg width="823pt" height="131pt"
 viewBox="0.00 0.00 823.08 131.00" xmlns="http://www.w3.org/2000/svg" xmlns:xlink="http://www.w3.org/1999/xlink">
<g id="page0,1_graph0" class="graph" transform="scale(1 1) rotate(0) translate(4 127)">
<title>G</title>
<polygon fill="white" stroke="transparent" points="-4,4 -4,-127 819.08,-127 819.08,4 -4,4"/>
<!-- w:Le_Monde -->
<g id="node1" class="node">
<title>w:Le_Monde</title>
<ellipse fill="none" stroke="black" cx="59.79" cy="-105" rx="59.59" ry="18"/>
<text text-anchor="middle" x="59.79" y="-101.3" font-family="Times,serif" font-size="14.00">w:Le_Monde</text>
</g>
<!-- Le Monde diplomatique -->
<g id="node2" class="node">
<title>Le Monde diplomatique</title>
<ellipse fill="none" stroke="black" cx="257.79" cy="-18" rx="98.58" ry="18"/>
<text text-anchor="middle" x="257.79" y="-14.3" font-family="Times,serif" font-size="14.00">Le Monde diplomatique</text>
</g>
<!-- w:Le_Monde&#45;&gt;Le Monde diplomatique -->
<g id="edge1" class="edge">
<title>w:Le_Monde&#45;&gt;Le Monde diplomatique</title>
<path fill="none" stroke="black" d="M92.94,-89.77C125.38,-75.85 175.08,-54.51 211.43,-38.9"/>
<polygon fill="black" stroke="black" points="213.03,-42.03 220.84,-34.87 210.27,-35.59 213.03,-42.03"/>
<text text-anchor="middle" x="183.79" y="-57.8" font-family="Times,serif" font-size="14.00">51%</text>
</g>
<!-- Amis du Monde diplomatique -->
<g id="node3" class="node">
<title>Amis du Monde diplomatique</title>
<ellipse fill="none" stroke="black" cx="257.79" cy="-105" rx="120.48" ry="18"/>
<text text-anchor="middle" x="257.79" y="-101.3" font-family="Times,serif" font-size="14.00">Amis du Monde diplomatique</text>
</g>
<!-- Amis du Monde diplomatique&#45;&gt;Le Monde diplomatique -->
<g id="edge2" class="edge">
<title>Amis du Monde diplomatique&#45;&gt;Le Monde diplomatique</title>
<path fill="none" stroke="black" d="M257.79,-86.8C257.79,-75.16 257.79,-59.55 257.79,-46.24"/>
<polygon fill="black" stroke="black" points="261.29,-46.18 257.79,-36.18 254.29,-46.18 261.29,-46.18"/>
<text text-anchor="middle" x="270.79" y="-57.8" font-family="Times,serif" font-size="14.00">25%</text>
</g>
<!-- Association Günter Holzmann (Équipe rédactionnelle) -->
<g id="node4" class="node">
<title>Association Günter Holzmann (Équipe rédactionnelle)</title>
<ellipse fill="none" stroke="black" cx="605.79" cy="-105" rx="209.06" ry="18"/>
<text text-anchor="middle" x="605.79" y="-101.3" font-family="Times,serif" font-size="14.00">Association Günter Holzmann (Équipe rédactionnelle)</text>
</g>
<!-- Association Günter Holzmann (Équipe rédactionnelle)&#45;&gt;Le Monde diplomatique -->
<g id="edge3" class="edge">
<title>Association Günter Holzmann (Équipe rédactionnelle)&#45;&gt;Le Monde diplomatique</title>
<path fill="none" stroke="black" d="M539.93,-87.91C478.24,-72.84 386.5,-50.44 324.53,-35.3"/>
<polygon fill="black" stroke="black" points="325.01,-31.82 314.47,-32.84 323.35,-38.62 325.01,-31.82"/>
<text text-anchor="middle" x="465.79" y="-57.8" font-family="Times,serif" font-size="14.00">24%</text>
</g>
</g>
</svg>
