<?xml version="1.0" encoding="UTF-8" standalone="no"?>
<!DOCTYPE svg PUBLIC "-//W3C//DTD SVG 1.1//EN"
 "http://www.w3.org/Graphics/SVG/1.1/DTD/svg11.dtd">
<!-- Generated by graphviz version 2.49.3 (20211023.0002)
 -->
<!-- Title: G Pages: 1 -->
<svg width="157pt" height="392pt"
 viewBox="0.00 0.00 157.49 392.00" xmlns="http://www.w3.org/2000/svg" xmlns:xlink="http://www.w3.org/1999/xlink">
<g id="page0,1_graph0" class="graph" transform="scale(1 1) rotate(0) translate(4 388)">
<title>G</title>
<polygon fill="white" stroke="transparent" points="-4,4 -4,-388 153.49,-388 153.49,4 -4,4"/>
<!-- Société du Figaro -->
<g id="node1" class="node">
<title>Société du Figaro</title>
<ellipse fill="none" stroke="black" cx="74.74" cy="-105" rx="74.99" ry="18"/>
<text text-anchor="middle" x="74.74" y="-101.3" font-family="Times,serif" font-size="14.00">Société du Figaro</text>
</g>
<!-- Le Figaro -->
<g id="node2" class="node">
<title>Le Figaro</title>
<ellipse fill="none" stroke="black" cx="74.74" cy="-18" rx="46.29" ry="18"/>
<text text-anchor="middle" x="74.74" y="-14.3" font-family="Times,serif" font-size="14.00">Le Figaro</text>
</g>
<!-- Société du Figaro&#45;&gt;Le Figaro -->
<g id="edge1" class="edge">
<title>Société du Figaro&#45;&gt;Le Figaro</title>
<path fill="none" stroke="black" d="M74.74,-86.8C74.74,-75.16 74.74,-59.55 74.74,-46.24"/>
<polygon fill="black" stroke="black" points="78.24,-46.18 74.74,-36.18 71.24,-46.18 78.24,-46.18"/>
<text text-anchor="middle" x="91.24" y="-57.8" font-family="Times,serif" font-size="14.00">100%</text>
</g>
<!-- groupe&#45;figaro -->
<g id="node3" class="node">
<title>groupe&#45;figaro</title>
<ellipse fill="none" stroke="black" cx="74.74" cy="-192" rx="60.39" ry="18"/>
<text text-anchor="middle" x="74.74" y="-188.3" font-family="Times,serif" font-size="14.00">groupe&#45;figaro</text>
</g>
<!-- groupe&#45;figaro&#45;&gt;Société du Figaro -->
<g id="edge2" class="edge">
<title>groupe&#45;figaro&#45;&gt;Société du Figaro</title>
<path fill="none" stroke="black" d="M74.74,-173.8C74.74,-162.16 74.74,-146.55 74.74,-133.24"/>
<polygon fill="black" stroke="black" points="78.24,-133.18 74.74,-123.18 71.24,-133.18 78.24,-133.18"/>
<text text-anchor="middle" x="91.24" y="-144.8" font-family="Times,serif" font-size="14.00">100%</text>
</g>
<!-- groupe&#45;dassault -->
<g id="node4" class="node">
<title>groupe&#45;dassault</title>
<ellipse fill="none" stroke="black" cx="74.74" cy="-279" rx="68.49" ry="18"/>
<text text-anchor="middle" x="74.74" y="-275.3" font-family="Times,serif" font-size="14.00">groupe&#45;dassault</text>
</g>
<!-- groupe&#45;dassault&#45;&gt;groupe&#45;figaro -->
<g id="edge3" class="edge">
<title>groupe&#45;dassault&#45;&gt;groupe&#45;figaro</title>
<path fill="none" stroke="black" d="M74.74,-260.8C74.74,-249.16 74.74,-233.55 74.74,-220.24"/>
<polygon fill="black" stroke="black" points="78.24,-220.18 74.74,-210.18 71.24,-220.18 78.24,-220.18"/>
<text text-anchor="middle" x="91.24" y="-231.8" font-family="Times,serif" font-size="14.00">100%</text>
</g>
<!-- famille&#45;dassault -->
<g id="node5" class="node">
<title>famille&#45;dassault</title>
<ellipse fill="none" stroke="black" cx="74.74" cy="-366" rx="68.79" ry="18"/>
<text text-anchor="middle" x="74.74" y="-362.3" font-family="Times,serif" font-size="14.00">famille&#45;dassault</text>
</g>
<!-- famille&#45;dassault&#45;&gt;groupe&#45;dassault -->
<g id="edge4" class="edge">
<title>famille&#45;dassault&#45;&gt;groupe&#45;dassault</title>
<path fill="none" stroke="black" d="M74.74,-347.8C74.74,-336.16 74.74,-320.55 74.74,-307.24"/>
<polygon fill="black" stroke="black" points="78.24,-307.18 74.74,-297.18 71.24,-307.18 78.24,-307.18"/>
<text text-anchor="middle" x="91.24" y="-318.8" font-family="Times,serif" font-size="14.00">100%</text>
</g>
</g>
</svg>
