<?xml version="1.0" encoding="UTF-8" standalone="no"?>
<!DOCTYPE svg PUBLIC "-//W3C//DTD SVG 1.1//EN"
 "http://www.w3.org/Graphics/SVG/1.1/DTD/svg11.dtd">
<!-- Generated by graphviz version 2.49.3 (20211023.0002)
 -->
<!-- Title: G Pages: 1 -->
<svg width="1039pt" height="218pt"
 viewBox="0.00 0.00 1038.89 218.00" xmlns="http://www.w3.org/2000/svg" xmlns:xlink="http://www.w3.org/1999/xlink">
<g id="page0,1_graph0" class="graph" transform="scale(1 1) rotate(0) translate(4 214)">
<title>G</title>
<polygon fill="white" stroke="transparent" points="-4,4 -4,-214 1034.89,-214 1034.89,4 -4,4"/>
<!-- Le Monde libre -->
<g id="node1" class="node">
<title>Le Monde libre</title>
<ellipse fill="none" stroke="black" cx="755.64" cy="-105" rx="67.69" ry="18"/>
<text text-anchor="middle" x="755.64" y="-101.3" font-family="Times,serif" font-size="14.00">Le Monde libre</text>
</g>
<!-- L&#39;Obs -->
<g id="node2" class="node">
<title>L&#39;Obs</title>
<ellipse fill="none" stroke="black" cx="494.64" cy="-18" rx="32.49" ry="18"/>
<text text-anchor="middle" x="494.64" y="-14.3" font-family="Times,serif" font-size="14.00">L&#39;Obs</text>
</g>
<!-- Le Monde libre&#45;&gt;L&#39;Obs -->
<g id="edge1" class="edge">
<title>Le Monde libre&#45;&gt;L&#39;Obs</title>
<path fill="none" stroke="black" d="M714.57,-90.63C664.32,-74.26 579.96,-46.78 531.63,-31.05"/>
<polygon fill="black" stroke="black" points="532.49,-27.64 521.89,-27.87 530.32,-34.3 532.49,-27.64"/>
<text text-anchor="middle" x="654.64" y="-57.8" font-family="Times,serif" font-size="14.00">66%</text>
</g>
<!-- Pierre Bergé -->
<g id="node3" class="node">
<title>Pierre Bergé</title>
<ellipse fill="none" stroke="black" cx="607.64" cy="-192" rx="56.59" ry="18"/>
<text text-anchor="middle" x="607.64" y="-188.3" font-family="Times,serif" font-size="14.00">Pierre Bergé</text>
</g>
<!-- Pierre Bergé&#45;&gt;Le Monde libre -->
<g id="edge2" class="edge">
<title>Pierre Bergé&#45;&gt;Le Monde libre</title>
<path fill="none" stroke="black" d="M633.76,-176C657.59,-162.31 693.03,-141.96 719.56,-126.73"/>
<polygon fill="black" stroke="black" points="721.61,-129.58 728.53,-121.57 718.12,-123.51 721.61,-129.58"/>
<text text-anchor="middle" x="703.64" y="-144.8" font-family="Times,serif" font-size="14.00">26%</text>
</g>
<!-- Matthieu Pigasse -->
<g id="node4" class="node">
<title>Matthieu Pigasse</title>
<ellipse fill="none" stroke="black" cx="755.64" cy="-192" rx="73.39" ry="18"/>
<text text-anchor="middle" x="755.64" y="-188.3" font-family="Times,serif" font-size="14.00">Matthieu Pigasse</text>
</g>
<!-- Matthieu Pigasse&#45;&gt;Le Monde libre -->
<g id="edge3" class="edge">
<title>Matthieu Pigasse&#45;&gt;Le Monde libre</title>
<path fill="none" stroke="black" d="M755.64,-173.8C755.64,-162.16 755.64,-146.55 755.64,-133.24"/>
<polygon fill="black" stroke="black" points="759.14,-133.18 755.64,-123.18 752.14,-133.18 759.14,-133.18"/>
<text text-anchor="middle" x="768.64" y="-144.8" font-family="Times,serif" font-size="14.00">26%</text>
</g>
<!-- Xavier Niel -->
<g id="node5" class="node">
<title>Xavier Niel</title>
<ellipse fill="none" stroke="black" cx="900.64" cy="-192" rx="53.09" ry="18"/>
<text text-anchor="middle" x="900.64" y="-188.3" font-family="Times,serif" font-size="14.00">Xavier Niel</text>
</g>
<!-- Xavier Niel&#45;&gt;Le Monde libre -->
<g id="edge4" class="edge">
<title>Xavier Niel&#45;&gt;Le Monde libre</title>
<path fill="none" stroke="black" d="M875.05,-176C851.78,-162.36 817.21,-142.09 791.24,-126.87"/>
<polygon fill="black" stroke="black" points="792.85,-123.75 782.45,-121.71 789.31,-129.79 792.85,-123.75"/>
<text text-anchor="middle" x="850.64" y="-144.8" font-family="Times,serif" font-size="14.00">26%</text>
</g>
<!-- Prisa -->
<g id="node6" class="node">
<title>Prisa</title>
<ellipse fill="none" stroke="black" cx="1001.64" cy="-192" rx="29.5" ry="18"/>
<text text-anchor="middle" x="1001.64" y="-188.3" font-family="Times,serif" font-size="14.00">Prisa</text>
</g>
<!-- Prisa&#45;&gt;Le Monde libre -->
<g id="edge5" class="edge">
<title>Prisa&#45;&gt;Le Monde libre</title>
<path fill="none" stroke="black" d="M978.67,-180.64C973.43,-178.37 967.87,-176.04 962.64,-174 911.27,-153.92 851.27,-134.65 809.13,-121.79"/>
<polygon fill="black" stroke="black" points="809.94,-118.37 799.35,-118.82 807.9,-125.07 809.94,-118.37"/>
<text text-anchor="middle" x="924.64" y="-144.8" font-family="Times,serif" font-size="14.00">23%</text>
</g>
<!-- w:Groupe_Perdriel -->
<g id="node7" class="node">
<title>w:Groupe_Perdriel</title>
<ellipse fill="none" stroke="black" cx="328.64" cy="-105" rx="80.69" ry="18"/>
<text text-anchor="middle" x="328.64" y="-101.3" font-family="Times,serif" font-size="14.00">w:Groupe_Perdriel</text>
</g>
<!-- w:Groupe_Perdriel&#45;&gt;L&#39;Obs -->
<g id="edge6" class="edge">
<title>w:Groupe_Perdriel&#45;&gt;L&#39;Obs</title>
<path fill="none" stroke="black" d="M359.48,-88.21C388.75,-73.22 432.58,-50.78 462.33,-35.54"/>
<polygon fill="black" stroke="black" points="464.16,-38.54 471.46,-30.87 460.97,-32.31 464.16,-38.54"/>
<text text-anchor="middle" x="434.64" y="-57.8" font-family="Times,serif" font-size="14.00">34%</text>
</g>
<!-- w:Claude_Perdriel -->
<g id="node8" class="node">
<title>w:Claude_Perdriel</title>
<ellipse fill="none" stroke="black" cx="78.64" cy="-192" rx="78.79" ry="18"/>
<text text-anchor="middle" x="78.64" y="-188.3" font-family="Times,serif" font-size="14.00">w:Claude_Perdriel</text>
</g>
<!-- w:Claude_Perdriel&#45;&gt;w:Groupe_Perdriel -->
<g id="edge7" class="edge">
<title>w:Claude_Perdriel&#45;&gt;w:Groupe_Perdriel</title>
<path fill="none" stroke="black" d="M120.77,-176.68C163.77,-162.06 230.59,-139.34 276.81,-123.62"/>
<polygon fill="black" stroke="black" points="278,-126.91 286.34,-120.38 275.75,-120.29 278,-126.91"/>
<text text-anchor="middle" x="231.64" y="-144.8" font-family="Times,serif" font-size="14.00">93%</text>
</g>
<!-- w:Le_Monde -->
<g id="node9" class="node">
<title>w:Le_Monde</title>
<ellipse fill="none" stroke="black" cx="234.64" cy="-192" rx="59.59" ry="18"/>
<text text-anchor="middle" x="234.64" y="-188.3" font-family="Times,serif" font-size="14.00">w:Le_Monde</text>
</g>
<!-- w:Le_Monde&#45;&gt;w:Groupe_Perdriel -->
<g id="edge8" class="edge">
<title>w:Le_Monde&#45;&gt;w:Groupe_Perdriel</title>
<path fill="none" stroke="black" d="M252.77,-174.61C266.98,-161.76 286.94,-143.71 302.83,-129.34"/>
<polygon fill="black" stroke="black" points="305.18,-131.93 310.25,-122.63 300.49,-126.74 305.18,-131.93"/>
<text text-anchor="middle" x="297.14" y="-144.8" font-family="Times,serif" font-size="14.00">6%</text>
</g>
<!-- société_rédacteurs_perdriel -->
<g id="node10" class="node">
<title>société_rédacteurs_perdriel</title>
<ellipse fill="none" stroke="black" cx="422.64" cy="-192" rx="110.48" ry="18"/>
<text text-anchor="middle" x="422.64" y="-188.3" font-family="Times,serif" font-size="14.00">société_rédacteurs_perdriel</text>
</g>
<!-- société_rédacteurs_perdriel&#45;&gt;w:Groupe_Perdriel -->
<g id="edge9" class="edge">
<title>société_rédacteurs_perdriel&#45;&gt;w:Groupe_Perdriel</title>
<path fill="none" stroke="black" d="M404.07,-174.21C390.04,-161.52 370.59,-143.93 354.95,-129.79"/>
<polygon fill="black" stroke="black" points="356.94,-126.87 347.18,-122.76 352.25,-132.06 356.94,-126.87"/>
<text text-anchor="middle" x="391.14" y="-144.8" font-family="Times,serif" font-size="14.00">1%</text>
</g>
</g>
</svg>
