<?xml version="1.0" encoding="UTF-8" standalone="no"?>
<!DOCTYPE svg PUBLIC "-//W3C//DTD SVG 1.1//EN"
 "http://www.w3.org/Graphics/SVG/1.1/DTD/svg11.dtd">
<!-- Generated by graphviz version 2.49.3 (20211023.0002)
 -->
<!-- Title: G Pages: 1 -->
<svg width="401pt" height="218pt"
 viewBox="0.00 0.00 400.59 218.00" xmlns="http://www.w3.org/2000/svg" xmlns:xlink="http://www.w3.org/1999/xlink">
<g id="page0,1_graph0" class="graph" transform="scale(1 1) rotate(0) translate(4 214)">
<title>G</title>
<polygon fill="white" stroke="transparent" points="-4,4 -4,-214 396.59,-214 396.59,4 -4,4"/>
<!-- Les nouvelles éditions indépendantes -->
<g id="node1" class="node">
<title>Les nouvelles éditions indépendantes</title>
<ellipse fill="none" stroke="black" cx="197.44" cy="-105" rx="146.47" ry="18"/>
<text text-anchor="middle" x="197.44" y="-101.3" font-family="Times,serif" font-size="14.00">Les nouvelles éditions indépendantes</text>
</g>
<!-- Les Inrockuptibles -->
<g id="node2" class="node">
<title>Les Inrockuptibles</title>
<ellipse fill="none" stroke="black" cx="197.44" cy="-18" rx="78.79" ry="18"/>
<text text-anchor="middle" x="197.44" y="-14.3" font-family="Times,serif" font-size="14.00">Les Inrockuptibles</text>
</g>
<!-- Les nouvelles éditions indépendantes&#45;&gt;Les Inrockuptibles -->
<g id="edge1" class="edge">
<title>Les nouvelles éditions indépendantes&#45;&gt;Les Inrockuptibles</title>
<path fill="none" stroke="black" d="M197.44,-86.8C197.44,-75.16 197.44,-59.55 197.44,-46.24"/>
<polygon fill="black" stroke="black" points="200.94,-46.18 197.44,-36.18 193.94,-46.18 200.94,-46.18"/>
<text text-anchor="middle" x="213.94" y="-57.8" font-family="Times,serif" font-size="14.00">100%</text>
</g>
<!-- Matthieu Pigasse -->
<g id="node3" class="node">
<title>Matthieu Pigasse</title>
<ellipse fill="none" stroke="black" cx="73.44" cy="-192" rx="73.39" ry="18"/>
<text text-anchor="middle" x="73.44" y="-188.3" font-family="Times,serif" font-size="14.00">Matthieu Pigasse</text>
</g>
<!-- Matthieu Pigasse&#45;&gt;Les nouvelles éditions indépendantes -->
<g id="edge2" class="edge">
<title>Matthieu Pigasse&#45;&gt;Les nouvelles éditions indépendantes</title>
<path fill="none" stroke="black" d="M97.06,-174.81C116.08,-161.77 143.05,-143.29 164.25,-128.76"/>
<polygon fill="black" stroke="black" points="166.37,-131.54 172.64,-123 162.41,-125.77 166.37,-131.54"/>
<text text-anchor="middle" x="156.44" y="-144.8" font-family="Times,serif" font-size="14.00">78%</text>
</g>
<!-- orium -->
<g id="node4" class="node">
<title>orium</title>
<ellipse fill="none" stroke="black" cx="197.44" cy="-192" rx="32.49" ry="18"/>
<text text-anchor="middle" x="197.44" y="-188.3" font-family="Times,serif" font-size="14.00">orium</text>
</g>
<!-- orium&#45;&gt;Les nouvelles éditions indépendantes -->
<g id="edge3" class="edge">
<title>orium&#45;&gt;Les nouvelles éditions indépendantes</title>
<path fill="none" stroke="black" d="M197.44,-173.8C197.44,-162.16 197.44,-146.55 197.44,-133.24"/>
<polygon fill="black" stroke="black" points="200.94,-133.18 197.44,-123.18 193.94,-133.18 200.94,-133.18"/>
<text text-anchor="middle" x="210.44" y="-144.8" font-family="Times,serif" font-size="14.00">18%</text>
</g>
<!-- Christian_Fevret -->
<g id="node5" class="node">
<title>Christian_Fevret</title>
<ellipse fill="none" stroke="black" cx="320.44" cy="-192" rx="72.29" ry="18"/>
<text text-anchor="middle" x="320.44" y="-188.3" font-family="Times,serif" font-size="14.00">Christian_Fevret</text>
</g>
<!-- Christian_Fevret&#45;&gt;Les nouvelles éditions indépendantes -->
<g id="edge4" class="edge">
<title>Christian_Fevret&#45;&gt;Les nouvelles éditions indépendantes</title>
<path fill="none" stroke="black" d="M297.02,-174.81C278.15,-161.77 251.4,-143.29 230.37,-128.76"/>
<polygon fill="black" stroke="black" points="232.26,-125.81 222.05,-123 228.28,-131.57 232.26,-125.81"/>
<text text-anchor="middle" x="274.94" y="-144.8" font-family="Times,serif" font-size="14.00">2%</text>
</g>
</g>
</svg>
