<svg xmlns="http://www.w3.org/2000/svg" width="180" height="59"><g fill="none" fill-rule="evenodd"><path fill="#E53B12" d="M0 59h180V0H0z"/><path fill="#FFF" d="M145.123 38.68c1.294-2.924 1.632-8-3.01-10.787-3.968-2.497-6.575-2.266-6.708-4.678-.109-3.366 5.059-3.281 5.276.653 1.16-.49 4.648-1.976 4.648-1.976s-.496-5.597-7.47-5.391c-6.938.181-7.64 4.944-7.796 5.524-.121.362-.883 4.98 2.133 7.41 1.417 1.141 3.544 2.22 5.15 3.22 1.385.832 2.93 1.65 2.882 3.367-.024 1.281-1.414 2.205-2.59 2.216-.553-.04-3.381-.161-4.082-3.69-1.17.458-3.675 1.474-4.908 1.933.484 1.934 2.684 5.73 7.98 6.11 3.014.215 6.831-.212 8.495-3.91m18.537.036c1.292-2.925 1.63-8.002-3.01-10.788-3.97-2.497-6.576-2.266-6.71-4.678-.108-3.366 5.06-3.281 5.277.653 1.16-.49 4.648-1.976 4.648-1.976s-.496-5.596-7.47-5.391c-6.938.181-7.64 4.944-7.797 5.524-.12.363-.882 4.98 2.134 7.41 1.417 1.141 3.544 2.22 5.149 3.22 1.385.833 2.931 1.65 2.883 3.367-.024 1.281-1.414 2.205-2.59 2.216-.553-.04-3.381-.161-4.082-3.69-1.171.458-3.675 1.474-4.908 1.933.484 1.934 2.684 5.73 7.98 6.11 3.013.216 6.831-.212 8.495-3.91m-62.14-16.683c1.466 0 2.654 1.564 2.654 3.038 0 1.475-1.103 2.834-2.654 2.834l-2.835.002v5.309h2.008l2.938 9.413c1.083.013 5.299 0 6.502.001-.155-.68-2.716-8.799-3.3-10.69 2.358-1.372 3.767-3.78 3.767-6.862 0-4.972-3.416-8.307-9.08-8.563h-2.835v5.516l2.835.002z"/><path fill="#FFF" d="M92.545 42.63h6.364V16.516h-6.364zM82.272 22.034c1.466 0 2.655 1.564 2.655 3.038 0 1.475-1.104 2.834-2.655 2.834h-2.61v5.311l2.61-.006c5.41.063 9.08-3.157 9.08-8.132 0-4.972-3.416-8.307-9.08-8.563h-2.61v5.517h2.61zM73.3 42.63h6.364V16.516H73.3V42.63zm44.886 0h9.29v-4.613h-9.29v4.613zm0-11.011h9.29v-4.61h-9.29v4.61zm0-10.496h9.29v-4.607h-9.29v4.607zm-6.364 21.507h6.364V16.516h-6.364V42.63zm-39.725 0h-6.904l-6.206-12.925-6.332-13.188h6.683z"/><path fill="#FFF" d="M65.423 16.516h6.683L59.57 42.63h-6.905zM42.197 42.63h9.292v-4.613h-9.292v4.613zm0-11.011h9.292v-4.61h-9.292v4.61zm0-10.496h9.292v-4.607h-9.292v4.607zM35.834 42.63h6.364V16.516h-6.364V42.63zM23.552 16.52v12.507l8.817-12.508zm-8.148 26.11h6.365V16.516h-6.365z"/><path fill="#FEFEFE" d="M21.7 42.63h8.978v-4.613H21.7z"/></g></svg>