<svg id="Calque_1" data-name="Calque 1" xmlns="http://www.w3.org/2000/svg" viewBox="0 0 914.47 383.4"><defs><style>.cls-1{font-size:194.62px;fill:#1d1d1b;font-family:TitilliumWeb-Bold, Titillium Web;font-weight:700;letter-spacing:-0.04em;}.cls-2{fill:#212121;}.cls-3{fill:none;stroke:#fff;stroke-miterlimit:10;stroke-width:2px;}.cls-4{fill:#e42a16;}</style></defs><title>logo-Arret-sur-images-cropped-center</title><text class="cls-1" transform="translate(0 262.07)"><tspan xml:space="preserve">                     </tspan></text><path class="cls-2" d="M223.29,90.14v49.19c.31,3.78,1,6.43,1.89,7.92s2.92,2.57,5.91,3.19l-.94,23.89a89.84,89.84,0,0,1-19.28-1.66,43.29,43.29,0,0,1-14.54-6.62,78.66,78.66,0,0,1-34.76,8.28q-36.66,0-36.65-38.78,0-18.92,10.17-26.84t31.21-9.34l25.3-1.9V90.14q0-7.32-3.31-10t-10.64-2.73l-44.45,1.9-.95-22a183.73,183.73,0,0,1,48.12-6.86q22.82,0,32.87,9.46T223.29,90.14Zm-53.2,31.22q-13.26,1.19-13.25,14.19t11.59,13a76.69,76.69,0,0,0,19.63-2.83l3.54-.95v-25.3Z" transform="translate(-42.53 -7.6)"/><path class="cls-2" d="M253.56,171.49V53.26H285V65.79Q304.87,54,322.84,50.42V82.34q-19.15,4-32.87,8.28l-4.73,1.65v79.22Z" transform="translate(-42.53 -7.6)"/><path class="cls-2" d="M341.52,171.49V53.26H373V65.79Q392.83,54,410.8,50.42V82.34q-19.14,4-32.86,8.28l-4.73,1.65v79.22Z" transform="translate(-42.53 -7.6)"/><path class="cls-2" d="M461.29,141.58q5.55,4.84,16,4.84,22,0,39.26-1.41l6.62-.71.47,23.41q-27.19,6.61-49.19,6.62-26.71,0-38.78-14.19T423.57,114q0-63.61,52.26-63.61,51.56,0,51.55,53.44l-2.36,22H455.5Q455.73,136.73,461.29,141.58Zm34.88-39.85q0-14.19-4.49-19.74T476,76.43q-11.24,0-15.84,5.79t-4.85,19.51Z" transform="translate(-42.53 -7.6)"/><path class="cls-2" d="M615.59,80.21H586.5v48.48a99.14,99.14,0,0,0,.35,10.05,8.17,8.17,0,0,0,2.6,5.08c1.5,1.42,3.82,2.13,7,2.13l18-.47,1.42,25.3q-15.84,3.56-24.12,3.55-21.29,0-29.09-9.58t-7.8-35.35V80.21H540.86V53.26h13.95V20.39H586.5V53.26h29.09Z" transform="translate(-42.53 -7.6)"/><path class="cls-2" d="M141.56,256.75q-9,0-9,6.26a4.33,4.33,0,0,0,2.06,4.08q2.07,1.2,9.39,2.47t10.38,3.58q3,2.31,3.05,8.65t-4.08,9.31q-4.06,3-11.9,3a75.54,75.54,0,0,1-12-1.15L127,292.5l.33-5.35a105.51,105.51,0,0,0,14.17,1.4q4.77,0,7.29-1.52t2.51-5.11q0-3.59-2.14-4.86t-9.39-2.43q-7.25-1.15-10.3-3.38t-3-8.24q0-6,4.24-8.89a18.31,18.31,0,0,1,10.58-2.89,86.76,86.76,0,0,1,12.61,1.16l2.3.41-.16,5.27A107.08,107.08,0,0,0,141.56,256.75Z" transform="translate(-42.53 -7.6)"/><path class="cls-2" d="M191.15,252.06h6.18v41.18h-6.18v-2.88A23.6,23.6,0,0,1,179,294.07q-8.4,0-11.16-4.37T165,273.56v-21.5h6.18v21.42c0,6,.51,10,1.56,12s3.4,3.05,7.08,3.05a20.43,20.43,0,0,0,5.52-.78,26.34,26.34,0,0,0,4.29-1.53l1.48-.74Z" transform="translate(-42.53 -7.6)"/><path class="cls-2" d="M207.71,293.24V252.06h6.09v5.6a40,40,0,0,1,15.08-6.51v6.26a44.77,44.77,0,0,0-7.21,2.06,49.75,49.75,0,0,0-5.73,2.47L213.89,263v30.23Z" transform="translate(-42.53 -7.6)"/><path class="cls-3" d="M247.81,248.25" transform="translate(-42.53 -7.6)"/><path class="cls-3" d="M367.91,248.25" transform="translate(-42.53 -7.6)"/><path class="cls-2" d="M360.92,334.31H342.83V213.7h17.85v8.44q18.09-10.86,35.22-10.86,22.44,0,31.36,12.31,8-4.83,20.63-8.57t22.31-3.74q24.12,0,32.45,12.91T511,270.63v63.68h-18.1v-63.2q0-25.1-4.82-34.38t-20.5-9.29a62.47,62.47,0,0,0-16.41,2.3,81.68,81.68,0,0,0-13,4.46l-4.59,2.17q3.14,8,3.14,35.22v62.72H418.58V272.07q0-26.06-4.71-35.34t-20.62-9.29a57.63,57.63,0,0,0-15.8,2.3A74.7,74.7,0,0,0,365,234.2l-4.1,2.17Z" transform="translate(-42.53 -7.6)"/><path class="cls-2" d="M620,250.12v61.75q.74,8.94,14,10.62l-.73,14.23q-19,0-28.7-9.65a106.06,106.06,0,0,1-43.42,9.65q-16.65,0-25.34-9.4t-8.68-27q0-17.61,8.93-25.94t28-10.25l37.87-3.62V250.12q0-12.3-5.31-17.61t-14.47-5.31a346.38,346.38,0,0,0-40,2.42l-7.48.72-.73-13.75q26.55-5.31,47-5.31t29.8,9.41Q620,230.1,620,250.12Zm-74.3,49.21q0,22.2,18.34,22.2A97.55,97.55,0,0,0,596.36,316l5.55-1.93V274.24l-35.7,3.38q-10.86,1-15.68,6.27T545.7,299.33Z" transform="translate(-42.53 -7.6)"/><path class="cls-2" d="M692.61,391q-28.93,0-40.4-7.84t-11.46-28.59q0-9.88,4.34-16t14.72-13.87Q653,320.09,653.05,308q0-4.11,6-15.2l2.18-3.86q-19.07-8.68-19.06-36.43,0-41.25,45.11-41.25a90.42,90.42,0,0,1,21.47,2.42l3.62.72,35.7-1v15.44l-22.92-.48q8,8,8,24.12,0,22.68-11.22,31.72t-35.34,9.05a66.7,66.7,0,0,1-11.82-1q-4.34,10.61-4.34,13.75,0,7.47,4.58,9.28t27.75,1.81q23.16,0,33.29,7.24t10.13,28.22Q746.17,391,692.61,391Zm-34-37.87q0,12.78,7.12,17.73T692,375.8q19.18,0,27.5-5.3t8.32-17.74q0-12.42-6-16t-23.64-3.61l-26-1.21q-8,5.79-10.73,10.13C659.52,344.93,658.6,348.62,658.6,353.13Zm1.69-100.6q0,14.25,6.39,20.27t21.11,6q14.72,0,21-6t6.27-20.39q0-14.34-6.27-20.38t-21-6q-14.71,0-21.11,6.15T660.29,252.53Z" transform="translate(-42.53 -7.6)"/><path class="cls-2" d="M842.42,319.35l7-.72.49,14.23q-27.51,3.86-47,3.86-26,0-36.9-15.07t-10.86-46.92q0-63.45,50.42-63.45,24.36,0,36.42,13.63T854,267.73l-1,13.75H773.42q0,20,7.24,29.67t25.21,9.65Q823.84,320.8,842.42,319.35ZM835.9,267q0-22.2-7.11-31.36t-23.16-9.17q-16.05,0-24.12,9.65T773.18,267Z" transform="translate(-42.53 -7.6)"/><path class="cls-2" d="M910.44,227.44q-26.3,0-26.29,18.34,0,8.44,6,11.94t27.5,7.24q21.47,3.74,30.39,10.49T957,300.78q0,18.59-11.94,27.26t-34.86,8.68A218.3,218.3,0,0,1,875,333.35l-7.24-1.21,1-15.68q27.49,4.11,41.49,4.1t21.35-4.46q7.35-4.47,7.36-15t-6.27-14.23q-6.28-3.74-27.5-7.12T875,269.9q-8.93-6.51-8.92-24.12t12.42-26.05q12.42-8.44,31-8.45,14.71,0,36.91,3.38l6.75,1.21-.48,15.44Q925.89,227.44,910.44,227.44Z" transform="translate(-42.53 -7.6)"/><rect class="cls-4" x="210.68" y="205.92" width="39.73" height="121.98"/><rect class="cls-4" x="279.09" y="205.92" width="39.73" height="121.98"/><polygon class="cls-2" points="434.72 12.79 444.05 23.9 461.68 23.9 440.51 0 428.21 0 407.22 23.9 425.14 23.9 434.72 12.79"/></svg>